%TF.GenerationSoftware,KiCad,Pcbnew,(6.0.8)*%
%TF.CreationDate,2022-10-29T15:14:35+02:00*%
%TF.ProjectId,view_screen,76696577-5f73-4637-9265-656e2e6b6963,rev?*%
%TF.SameCoordinates,Original*%
%TF.FileFunction,Legend,Bot*%
%TF.FilePolarity,Positive*%
%FSLAX46Y46*%
G04 Gerber Fmt 4.6, Leading zero omitted, Abs format (unit mm)*
G04 Created by KiCad (PCBNEW (6.0.8)) date 2022-10-29 15:14:35*
%MOMM*%
%LPD*%
G01*
G04 APERTURE LIST*
G04 Aperture macros list*
%AMRoundRect*
0 Rectangle with rounded corners*
0 $1 Rounding radius*
0 $2 $3 $4 $5 $6 $7 $8 $9 X,Y pos of 4 corners*
0 Add a 4 corners polygon primitive as box body*
4,1,4,$2,$3,$4,$5,$6,$7,$8,$9,$2,$3,0*
0 Add four circle primitives for the rounded corners*
1,1,$1+$1,$2,$3*
1,1,$1+$1,$4,$5*
1,1,$1+$1,$6,$7*
1,1,$1+$1,$8,$9*
0 Add four rect primitives between the rounded corners*
20,1,$1+$1,$2,$3,$4,$5,0*
20,1,$1+$1,$4,$5,$6,$7,0*
20,1,$1+$1,$6,$7,$8,$9,0*
20,1,$1+$1,$8,$9,$2,$3,0*%
G04 Aperture macros list end*
%ADD10C,0.120000*%
%ADD11C,0.270000*%
%ADD12C,0.150000*%
%ADD13C,0.100000*%
%ADD14C,2.400000*%
%ADD15RoundRect,0.087500X0.087500X-0.912500X0.087500X0.912500X-0.087500X0.912500X-0.087500X-0.912500X0*%
%ADD16RoundRect,0.150000X0.587500X0.150000X-0.587500X0.150000X-0.587500X-0.150000X0.587500X-0.150000X0*%
%ADD17RoundRect,0.200000X0.200000X0.275000X-0.200000X0.275000X-0.200000X-0.275000X0.200000X-0.275000X0*%
%ADD18RoundRect,0.200000X-0.275000X0.200000X-0.275000X-0.200000X0.275000X-0.200000X0.275000X0.200000X0*%
%ADD19RoundRect,0.200000X-0.200000X-0.275000X0.200000X-0.275000X0.200000X0.275000X-0.200000X0.275000X0*%
%ADD20RoundRect,0.225000X-0.250000X0.225000X-0.250000X-0.225000X0.250000X-0.225000X0.250000X0.225000X0*%
%ADD21RoundRect,0.250000X-0.475000X0.250000X-0.475000X-0.250000X0.475000X-0.250000X0.475000X0.250000X0*%
%ADD22O,2.500000X1.250000*%
G04 APERTURE END LIST*
D10*
X100000000Y-107000000D02*
G75*
G03*
X93466581Y-102512854I0J7000000D01*
G01*
X98500000Y-85000000D02*
X94500000Y-86000000D01*
X98500000Y-91000000D02*
X94500000Y-92000000D01*
X101500000Y-85000000D02*
X105500000Y-86000000D01*
X101500000Y-91000000D02*
X105500000Y-92000000D01*
X101500000Y-89000000D02*
X105500000Y-90000000D01*
X101500000Y-87000000D02*
X105500000Y-88000000D01*
X98500000Y-87000000D02*
X94500000Y-88000000D01*
X98500000Y-89000000D02*
X94500000Y-90000000D01*
X96450571Y-104596928D02*
X96493428Y-104639785D01*
X96622000Y-104682642D01*
X96707714Y-104682642D01*
X96836285Y-104639785D01*
X96922000Y-104554071D01*
X96964857Y-104468357D01*
X97007714Y-104296928D01*
X97007714Y-104168357D01*
X96964857Y-103996928D01*
X96922000Y-103911214D01*
X96836285Y-103825500D01*
X96707714Y-103782642D01*
X96622000Y-103782642D01*
X96493428Y-103825500D01*
X96450571Y-103868357D01*
X95893428Y-103782642D02*
X95722000Y-103782642D01*
X95636285Y-103825500D01*
X95550571Y-103911214D01*
X95507714Y-104082642D01*
X95507714Y-104382642D01*
X95550571Y-104554071D01*
X95636285Y-104639785D01*
X95722000Y-104682642D01*
X95893428Y-104682642D01*
X95979142Y-104639785D01*
X96064857Y-104554071D01*
X96107714Y-104382642D01*
X96107714Y-104082642D01*
X96064857Y-103911214D01*
X95979142Y-103825500D01*
X95893428Y-103782642D01*
X95122000Y-104682642D02*
X95122000Y-103782642D01*
X94822000Y-104425500D01*
X94522000Y-103782642D01*
X94522000Y-104682642D01*
X94093428Y-104682642D02*
X94093428Y-103782642D01*
X93793428Y-104425500D01*
X93493428Y-103782642D01*
X93493428Y-104682642D01*
X93064857Y-104682642D02*
X93064857Y-103782642D01*
X92764857Y-103782642D02*
X92250571Y-103782642D01*
X92507714Y-104682642D02*
X92507714Y-103782642D01*
X91950571Y-104596928D02*
X91907714Y-104639785D01*
X91950571Y-104682642D01*
X91993428Y-104639785D01*
X91950571Y-104596928D01*
X91950571Y-104682642D01*
X91950571Y-104125500D02*
X91907714Y-104168357D01*
X91950571Y-104211214D01*
X91993428Y-104168357D01*
X91950571Y-104125500D01*
X91950571Y-104211214D01*
X90450571Y-104682642D02*
X90450571Y-103782642D01*
X90450571Y-104639785D02*
X90536285Y-104682642D01*
X90707714Y-104682642D01*
X90793428Y-104639785D01*
X90836285Y-104596928D01*
X90879142Y-104511214D01*
X90879142Y-104254071D01*
X90836285Y-104168357D01*
X90793428Y-104125500D01*
X90707714Y-104082642D01*
X90536285Y-104082642D01*
X90450571Y-104125500D01*
X89679142Y-104639785D02*
X89764857Y-104682642D01*
X89936285Y-104682642D01*
X90022000Y-104639785D01*
X90064857Y-104554071D01*
X90064857Y-104211214D01*
X90022000Y-104125500D01*
X89936285Y-104082642D01*
X89764857Y-104082642D01*
X89679142Y-104125500D01*
X89636285Y-104211214D01*
X89636285Y-104296928D01*
X90064857Y-104382642D01*
X88864857Y-104682642D02*
X88864857Y-104211214D01*
X88907714Y-104125500D01*
X88993428Y-104082642D01*
X89164857Y-104082642D01*
X89250571Y-104125500D01*
X88864857Y-104639785D02*
X88950571Y-104682642D01*
X89164857Y-104682642D01*
X89250571Y-104639785D01*
X89293428Y-104554071D01*
X89293428Y-104468357D01*
X89250571Y-104382642D01*
X89164857Y-104339785D01*
X88950571Y-104339785D01*
X88864857Y-104296928D01*
X88050571Y-104682642D02*
X88050571Y-103782642D01*
X88050571Y-104639785D02*
X88136285Y-104682642D01*
X88307714Y-104682642D01*
X88393428Y-104639785D01*
X88436285Y-104596928D01*
X88479142Y-104511214D01*
X88479142Y-104254071D01*
X88436285Y-104168357D01*
X88393428Y-104125500D01*
X88307714Y-104082642D01*
X88136285Y-104082642D01*
X88050571Y-104125500D01*
X87622000Y-104682642D02*
X87622000Y-103782642D01*
X87622000Y-104125500D02*
X87536285Y-104082642D01*
X87364857Y-104082642D01*
X87279142Y-104125500D01*
X87236285Y-104168357D01*
X87193428Y-104254071D01*
X87193428Y-104511214D01*
X87236285Y-104596928D01*
X87279142Y-104639785D01*
X87364857Y-104682642D01*
X87536285Y-104682642D01*
X87622000Y-104639785D01*
X86464857Y-104639785D02*
X86550571Y-104682642D01*
X86722000Y-104682642D01*
X86807714Y-104639785D01*
X86850571Y-104554071D01*
X86850571Y-104211214D01*
X86807714Y-104125500D01*
X86722000Y-104082642D01*
X86550571Y-104082642D01*
X86464857Y-104125500D01*
X86422000Y-104211214D01*
X86422000Y-104296928D01*
X86850571Y-104382642D01*
X85693428Y-104639785D02*
X85779142Y-104682642D01*
X85950571Y-104682642D01*
X86036285Y-104639785D01*
X86079142Y-104554071D01*
X86079142Y-104211214D01*
X86036285Y-104125500D01*
X85950571Y-104082642D01*
X85779142Y-104082642D01*
X85693428Y-104125500D01*
X85650571Y-104211214D01*
X85650571Y-104296928D01*
X86079142Y-104382642D01*
X85393428Y-104082642D02*
X85050571Y-104082642D01*
X85264857Y-104682642D02*
X85264857Y-103911214D01*
X85222000Y-103825500D01*
X85136285Y-103782642D01*
X85050571Y-103782642D01*
X99707714Y-106131642D02*
X99707714Y-105231642D01*
X99493428Y-105231642D01*
X99364857Y-105274500D01*
X99279142Y-105360214D01*
X99236285Y-105445928D01*
X99193428Y-105617357D01*
X99193428Y-105745928D01*
X99236285Y-105917357D01*
X99279142Y-106003071D01*
X99364857Y-106088785D01*
X99493428Y-106131642D01*
X99707714Y-106131642D01*
X98850571Y-105874500D02*
X98422000Y-105874500D01*
X98936285Y-106131642D02*
X98636285Y-105231642D01*
X98336285Y-106131642D01*
X98164857Y-105231642D02*
X97650571Y-105231642D01*
X97907714Y-106131642D02*
X97907714Y-105231642D01*
X97350571Y-105660214D02*
X97050571Y-105660214D01*
X96922000Y-106131642D02*
X97350571Y-106131642D01*
X97350571Y-105231642D01*
X96922000Y-105231642D01*
X96536285Y-106045928D02*
X96493428Y-106088785D01*
X96536285Y-106131642D01*
X96579142Y-106088785D01*
X96536285Y-106045928D01*
X96536285Y-106131642D01*
X96536285Y-105574500D02*
X96493428Y-105617357D01*
X96536285Y-105660214D01*
X96579142Y-105617357D01*
X96536285Y-105574500D01*
X96536285Y-105660214D01*
X95250571Y-105703071D02*
X95250571Y-106131642D01*
X95550571Y-105231642D02*
X95250571Y-105703071D01*
X94950571Y-105231642D01*
X94479142Y-105703071D02*
X94479142Y-106131642D01*
X94779142Y-105231642D02*
X94479142Y-105703071D01*
X94179142Y-105231642D01*
X93707714Y-105703071D02*
X93707714Y-106131642D01*
X94007714Y-105231642D02*
X93707714Y-105703071D01*
X93407714Y-105231642D01*
X92936285Y-105703071D02*
X92936285Y-106131642D01*
X93236285Y-105231642D02*
X92936285Y-105703071D01*
X92636285Y-105231642D01*
X92336285Y-105788785D02*
X91650571Y-105788785D01*
X91222000Y-106131642D02*
X91222000Y-105231642D01*
X90922000Y-105874500D01*
X90622000Y-105231642D01*
X90622000Y-106131642D01*
X90193428Y-106131642D02*
X90193428Y-105231642D01*
X89893428Y-105874500D01*
X89593428Y-105231642D01*
X89593428Y-106131642D01*
X89164857Y-105788785D02*
X88479142Y-105788785D01*
X88050571Y-106131642D02*
X88050571Y-105231642D01*
X87836285Y-105231642D01*
X87707714Y-105274500D01*
X87622000Y-105360214D01*
X87579142Y-105445928D01*
X87536285Y-105617357D01*
X87536285Y-105745928D01*
X87579142Y-105917357D01*
X87622000Y-106003071D01*
X87707714Y-106088785D01*
X87836285Y-106131642D01*
X88050571Y-106131642D01*
X87150571Y-106131642D02*
X87150571Y-105231642D01*
X86936285Y-105231642D01*
X86807714Y-105274500D01*
X86722000Y-105360214D01*
X86679142Y-105445928D01*
X86636285Y-105617357D01*
X86636285Y-105745928D01*
X86679142Y-105917357D01*
X86722000Y-106003071D01*
X86807714Y-106088785D01*
X86936285Y-106131642D01*
X87150571Y-106131642D01*
D11*
X115957833Y-94966666D02*
X115757833Y-95033333D01*
X115424500Y-95033333D01*
X115291166Y-94966666D01*
X115224500Y-94900000D01*
X115157833Y-94766666D01*
X115157833Y-94633333D01*
X115224500Y-94500000D01*
X115291166Y-94433333D01*
X115424500Y-94366666D01*
X115691166Y-94300000D01*
X115824500Y-94233333D01*
X115891166Y-94166666D01*
X115957833Y-94033333D01*
X115957833Y-93900000D01*
X115891166Y-93766666D01*
X115824500Y-93700000D01*
X115691166Y-93633333D01*
X115357833Y-93633333D01*
X115157833Y-93700000D01*
X114557833Y-95033333D02*
X114557833Y-94100000D01*
X114557833Y-94233333D02*
X114491166Y-94166666D01*
X114357833Y-94100000D01*
X114157833Y-94100000D01*
X114024500Y-94166666D01*
X113957833Y-94300000D01*
X113957833Y-95033333D01*
X113957833Y-94300000D02*
X113891166Y-94166666D01*
X113757833Y-94100000D01*
X113557833Y-94100000D01*
X113424500Y-94166666D01*
X113357833Y-94300000D01*
X113357833Y-95033333D01*
X112091166Y-95033333D02*
X112091166Y-94300000D01*
X112157833Y-94166666D01*
X112291166Y-94100000D01*
X112557833Y-94100000D01*
X112691166Y-94166666D01*
X112091166Y-94966666D02*
X112224500Y-95033333D01*
X112557833Y-95033333D01*
X112691166Y-94966666D01*
X112757833Y-94833333D01*
X112757833Y-94700000D01*
X112691166Y-94566666D01*
X112557833Y-94500000D01*
X112224500Y-94500000D01*
X112091166Y-94433333D01*
X111424500Y-95033333D02*
X111424500Y-94100000D01*
X111424500Y-94366666D02*
X111357833Y-94233333D01*
X111291166Y-94166666D01*
X111157833Y-94100000D01*
X111024500Y-94100000D01*
X110757833Y-94100000D02*
X110224500Y-94100000D01*
X110557833Y-93633333D02*
X110557833Y-94833333D01*
X110491166Y-94966666D01*
X110357833Y-95033333D01*
X110224500Y-95033333D01*
X109757833Y-95033333D02*
X109757833Y-93633333D01*
X108957833Y-95033333D02*
X109557833Y-94233333D01*
X108957833Y-93633333D02*
X109757833Y-94433333D01*
X108357833Y-94100000D02*
X108357833Y-95033333D01*
X108357833Y-94233333D02*
X108291166Y-94166666D01*
X108157833Y-94100000D01*
X107957833Y-94100000D01*
X107824500Y-94166666D01*
X107757833Y-94300000D01*
X107757833Y-95033333D01*
X106891166Y-95033333D02*
X107024500Y-94966666D01*
X107091166Y-94900000D01*
X107157833Y-94766666D01*
X107157833Y-94366666D01*
X107091166Y-94233333D01*
X107024500Y-94166666D01*
X106891166Y-94100000D01*
X106691166Y-94100000D01*
X106557833Y-94166666D01*
X106491166Y-94233333D01*
X106424500Y-94366666D01*
X106424500Y-94766666D01*
X106491166Y-94900000D01*
X106557833Y-94966666D01*
X106691166Y-95033333D01*
X106891166Y-95033333D01*
X105824500Y-95033333D02*
X105824500Y-93633333D01*
X105824500Y-94166666D02*
X105691166Y-94100000D01*
X105424500Y-94100000D01*
X105291166Y-94166666D01*
X105224500Y-94233333D01*
X105157833Y-94366666D01*
X105157833Y-94766666D01*
X105224500Y-94900000D01*
X105291166Y-94966666D01*
X105424500Y-95033333D01*
X105691166Y-95033333D01*
X105824500Y-94966666D01*
X116491166Y-96033333D02*
X116024500Y-97433333D01*
X115557833Y-96033333D01*
X115091166Y-97433333D02*
X115091166Y-96500000D01*
X115091166Y-96033333D02*
X115157833Y-96100000D01*
X115091166Y-96166666D01*
X115024500Y-96100000D01*
X115091166Y-96033333D01*
X115091166Y-96166666D01*
X113891166Y-97366666D02*
X114024500Y-97433333D01*
X114291166Y-97433333D01*
X114424500Y-97366666D01*
X114491166Y-97233333D01*
X114491166Y-96700000D01*
X114424500Y-96566666D01*
X114291166Y-96500000D01*
X114024500Y-96500000D01*
X113891166Y-96566666D01*
X113824500Y-96700000D01*
X113824500Y-96833333D01*
X114491166Y-96966666D01*
X113357833Y-96500000D02*
X113091166Y-97433333D01*
X112824500Y-96766666D01*
X112557833Y-97433333D01*
X112291166Y-96500000D01*
D12*
X90790476Y-86452380D02*
X91123809Y-85976190D01*
X91361904Y-86452380D02*
X91361904Y-85452380D01*
X90980952Y-85452380D01*
X90885714Y-85500000D01*
X90838095Y-85547619D01*
X90790476Y-85642857D01*
X90790476Y-85785714D01*
X90838095Y-85880952D01*
X90885714Y-85928571D01*
X90980952Y-85976190D01*
X91361904Y-85976190D01*
X109233333Y-86452380D02*
X109233333Y-85452380D01*
X108900000Y-86166666D01*
X108566666Y-85452380D01*
X108566666Y-86452380D01*
X91385714Y-92404761D02*
X91242857Y-92452380D01*
X91004761Y-92452380D01*
X90909523Y-92404761D01*
X90861904Y-92357142D01*
X90814285Y-92261904D01*
X90814285Y-92166666D01*
X90861904Y-92071428D01*
X90909523Y-92023809D01*
X91004761Y-91976190D01*
X91195238Y-91928571D01*
X91290476Y-91880952D01*
X91338095Y-91833333D01*
X91385714Y-91738095D01*
X91385714Y-91642857D01*
X91338095Y-91547619D01*
X91290476Y-91500000D01*
X91195238Y-91452380D01*
X90957142Y-91452380D01*
X90814285Y-91500000D01*
X109280952Y-92071428D02*
X108519047Y-92071428D01*
X91361904Y-88452380D02*
X91361904Y-87452380D01*
X91123809Y-87452380D01*
X90980952Y-87500000D01*
X90885714Y-87595238D01*
X90838095Y-87690476D01*
X90790476Y-87880952D01*
X90790476Y-88023809D01*
X90838095Y-88214285D01*
X90885714Y-88309523D01*
X90980952Y-88404761D01*
X91123809Y-88452380D01*
X91361904Y-88452380D01*
X109280952Y-90071428D02*
X108519047Y-90071428D01*
X108900000Y-90452380D02*
X108900000Y-89690476D01*
D13*
X116744523Y-99199761D02*
X116601666Y-99247380D01*
X116363571Y-99247380D01*
X116268333Y-99199761D01*
X116220714Y-99152142D01*
X116173095Y-99056904D01*
X116173095Y-98961666D01*
X116220714Y-98866428D01*
X116268333Y-98818809D01*
X116363571Y-98771190D01*
X116554047Y-98723571D01*
X116649285Y-98675952D01*
X116696904Y-98628333D01*
X116744523Y-98533095D01*
X116744523Y-98437857D01*
X116696904Y-98342619D01*
X116649285Y-98295000D01*
X116554047Y-98247380D01*
X116315952Y-98247380D01*
X116173095Y-98295000D01*
X115315952Y-99199761D02*
X115411190Y-99247380D01*
X115601666Y-99247380D01*
X115696904Y-99199761D01*
X115744523Y-99152142D01*
X115792142Y-99056904D01*
X115792142Y-98771190D01*
X115744523Y-98675952D01*
X115696904Y-98628333D01*
X115601666Y-98580714D01*
X115411190Y-98580714D01*
X115315952Y-98628333D01*
X114887380Y-99247380D02*
X114887380Y-98580714D01*
X114887380Y-98771190D02*
X114839761Y-98675952D01*
X114792142Y-98628333D01*
X114696904Y-98580714D01*
X114601666Y-98580714D01*
X113887380Y-99199761D02*
X113982619Y-99247380D01*
X114173095Y-99247380D01*
X114268333Y-99199761D01*
X114315952Y-99104523D01*
X114315952Y-98723571D01*
X114268333Y-98628333D01*
X114173095Y-98580714D01*
X113982619Y-98580714D01*
X113887380Y-98628333D01*
X113839761Y-98723571D01*
X113839761Y-98818809D01*
X114315952Y-98914047D01*
X113030238Y-99199761D02*
X113125476Y-99247380D01*
X113315952Y-99247380D01*
X113411190Y-99199761D01*
X113458809Y-99104523D01*
X113458809Y-98723571D01*
X113411190Y-98628333D01*
X113315952Y-98580714D01*
X113125476Y-98580714D01*
X113030238Y-98628333D01*
X112982619Y-98723571D01*
X112982619Y-98818809D01*
X113458809Y-98914047D01*
X112554047Y-98580714D02*
X112554047Y-99247380D01*
X112554047Y-98675952D02*
X112506428Y-98628333D01*
X112411190Y-98580714D01*
X112268333Y-98580714D01*
X112173095Y-98628333D01*
X112125476Y-98723571D01*
X112125476Y-99247380D01*
X110887380Y-99247380D02*
X110887380Y-98247380D01*
X110506428Y-98247380D01*
X110411190Y-98295000D01*
X110363571Y-98342619D01*
X110315952Y-98437857D01*
X110315952Y-98580714D01*
X110363571Y-98675952D01*
X110411190Y-98723571D01*
X110506428Y-98771190D01*
X110887380Y-98771190D01*
X109315952Y-99152142D02*
X109363571Y-99199761D01*
X109506428Y-99247380D01*
X109601666Y-99247380D01*
X109744523Y-99199761D01*
X109839761Y-99104523D01*
X109887380Y-99009285D01*
X109935000Y-98818809D01*
X109935000Y-98675952D01*
X109887380Y-98485476D01*
X109839761Y-98390238D01*
X109744523Y-98295000D01*
X109601666Y-98247380D01*
X109506428Y-98247380D01*
X109363571Y-98295000D01*
X109315952Y-98342619D01*
X108554047Y-98723571D02*
X108411190Y-98771190D01*
X108363571Y-98818809D01*
X108315952Y-98914047D01*
X108315952Y-99056904D01*
X108363571Y-99152142D01*
X108411190Y-99199761D01*
X108506428Y-99247380D01*
X108887380Y-99247380D01*
X108887380Y-98247380D01*
X108554047Y-98247380D01*
X108458809Y-98295000D01*
X108411190Y-98342619D01*
X108363571Y-98437857D01*
X108363571Y-98533095D01*
X108411190Y-98628333D01*
X108458809Y-98675952D01*
X108554047Y-98723571D01*
X108887380Y-98723571D01*
X116792142Y-100190714D02*
X116554047Y-100857380D01*
X116315952Y-100190714D01*
X115982619Y-100190714D02*
X115268333Y-100190714D01*
X115696904Y-99762142D02*
X115982619Y-101047857D01*
X115363571Y-100619285D02*
X116077857Y-100619285D01*
X115649285Y-101047857D02*
X115363571Y-99762142D01*
X114935000Y-100762142D02*
X114887380Y-100809761D01*
X114935000Y-100857380D01*
X114982619Y-100809761D01*
X114935000Y-100762142D01*
X114935000Y-100857380D01*
X114506428Y-100190714D02*
X113792142Y-100190714D01*
X114220714Y-99762142D02*
X114506428Y-101047857D01*
X113887380Y-100619285D02*
X114601666Y-100619285D01*
X114173095Y-101047857D02*
X113887380Y-99762142D01*
D12*
X90790476Y-90357142D02*
X90838095Y-90404761D01*
X90980952Y-90452380D01*
X91076190Y-90452380D01*
X91219047Y-90404761D01*
X91314285Y-90309523D01*
X91361904Y-90214285D01*
X91409523Y-90023809D01*
X91409523Y-89880952D01*
X91361904Y-89690476D01*
X91314285Y-89595238D01*
X91219047Y-89500000D01*
X91076190Y-89452380D01*
X90980952Y-89452380D01*
X90838095Y-89500000D01*
X90790476Y-89547619D01*
X108828571Y-87928571D02*
X108685714Y-87976190D01*
X108638095Y-88023809D01*
X108590476Y-88119047D01*
X108590476Y-88261904D01*
X108638095Y-88357142D01*
X108685714Y-88404761D01*
X108780952Y-88452380D01*
X109161904Y-88452380D01*
X109161904Y-87452380D01*
X108828571Y-87452380D01*
X108733333Y-87500000D01*
X108685714Y-87547619D01*
X108638095Y-87642857D01*
X108638095Y-87738095D01*
X108685714Y-87833333D01*
X108733333Y-87880952D01*
X108828571Y-87928571D01*
X109161904Y-87928571D01*
D10*
%TO.C,J2*%
X96361904Y-108747619D02*
X96361904Y-108290476D01*
X96361904Y-108519047D02*
X95561904Y-108519047D01*
X95676190Y-108442857D01*
X95752380Y-108366666D01*
X95790476Y-108290476D01*
X95638095Y-109052380D02*
X95600000Y-109090476D01*
X95561904Y-109166666D01*
X95561904Y-109357142D01*
X95600000Y-109433333D01*
X95638095Y-109471428D01*
X95714285Y-109509523D01*
X95790476Y-109509523D01*
X95904761Y-109471428D01*
X96361904Y-109014285D01*
X96361904Y-109509523D01*
X104361904Y-109728571D02*
X104361904Y-109271428D01*
X104361904Y-109500000D02*
X103561904Y-109500000D01*
X103676190Y-109423809D01*
X103752380Y-109347619D01*
X103790476Y-109271428D01*
D12*
%TO.C,Q1*%
X108095238Y-113047619D02*
X108190476Y-113000000D01*
X108285714Y-112904761D01*
X108428571Y-112761904D01*
X108523809Y-112714285D01*
X108619047Y-112714285D01*
X108571428Y-112952380D02*
X108666666Y-112904761D01*
X108761904Y-112809523D01*
X108809523Y-112619047D01*
X108809523Y-112285714D01*
X108761904Y-112095238D01*
X108666666Y-112000000D01*
X108571428Y-111952380D01*
X108380952Y-111952380D01*
X108285714Y-112000000D01*
X108190476Y-112095238D01*
X108142857Y-112285714D01*
X108142857Y-112619047D01*
X108190476Y-112809523D01*
X108285714Y-112904761D01*
X108380952Y-112952380D01*
X108571428Y-112952380D01*
X107190476Y-112952380D02*
X107761904Y-112952380D01*
X107476190Y-112952380D02*
X107476190Y-111952380D01*
X107571428Y-112095238D01*
X107666666Y-112190476D01*
X107761904Y-112238095D01*
%TO.C,R1*%
X113166666Y-105022380D02*
X113500000Y-104546190D01*
X113738095Y-105022380D02*
X113738095Y-104022380D01*
X113357142Y-104022380D01*
X113261904Y-104070000D01*
X113214285Y-104117619D01*
X113166666Y-104212857D01*
X113166666Y-104355714D01*
X113214285Y-104450952D01*
X113261904Y-104498571D01*
X113357142Y-104546190D01*
X113738095Y-104546190D01*
X112214285Y-105022380D02*
X112785714Y-105022380D01*
X112500000Y-105022380D02*
X112500000Y-104022380D01*
X112595238Y-104165238D01*
X112690476Y-104260476D01*
X112785714Y-104308095D01*
%TO.C,R2*%
X103166666Y-107952380D02*
X103500000Y-107476190D01*
X103738095Y-107952380D02*
X103738095Y-106952380D01*
X103357142Y-106952380D01*
X103261904Y-107000000D01*
X103214285Y-107047619D01*
X103166666Y-107142857D01*
X103166666Y-107285714D01*
X103214285Y-107380952D01*
X103261904Y-107428571D01*
X103357142Y-107476190D01*
X103738095Y-107476190D01*
X102785714Y-107047619D02*
X102738095Y-107000000D01*
X102642857Y-106952380D01*
X102404761Y-106952380D01*
X102309523Y-107000000D01*
X102261904Y-107047619D01*
X102214285Y-107142857D01*
X102214285Y-107238095D01*
X102261904Y-107380952D01*
X102833333Y-107952380D01*
X102214285Y-107952380D01*
%TO.C,R3*%
X113166666Y-109382380D02*
X113500000Y-108906190D01*
X113738095Y-109382380D02*
X113738095Y-108382380D01*
X113357142Y-108382380D01*
X113261904Y-108430000D01*
X113214285Y-108477619D01*
X113166666Y-108572857D01*
X113166666Y-108715714D01*
X113214285Y-108810952D01*
X113261904Y-108858571D01*
X113357142Y-108906190D01*
X113738095Y-108906190D01*
X112833333Y-108382380D02*
X112214285Y-108382380D01*
X112547619Y-108763333D01*
X112404761Y-108763333D01*
X112309523Y-108810952D01*
X112261904Y-108858571D01*
X112214285Y-108953809D01*
X112214285Y-109191904D01*
X112261904Y-109287142D01*
X112309523Y-109334761D01*
X112404761Y-109382380D01*
X112690476Y-109382380D01*
X112785714Y-109334761D01*
X112833333Y-109287142D01*
%TO.C,C2*%
X107166666Y-104857142D02*
X107214285Y-104904761D01*
X107357142Y-104952380D01*
X107452380Y-104952380D01*
X107595238Y-104904761D01*
X107690476Y-104809523D01*
X107738095Y-104714285D01*
X107785714Y-104523809D01*
X107785714Y-104380952D01*
X107738095Y-104190476D01*
X107690476Y-104095238D01*
X107595238Y-104000000D01*
X107452380Y-103952380D01*
X107357142Y-103952380D01*
X107214285Y-104000000D01*
X107166666Y-104047619D01*
X106785714Y-104047619D02*
X106738095Y-104000000D01*
X106642857Y-103952380D01*
X106404761Y-103952380D01*
X106309523Y-104000000D01*
X106261904Y-104047619D01*
X106214285Y-104142857D01*
X106214285Y-104238095D01*
X106261904Y-104380952D01*
X106833333Y-104952380D01*
X106214285Y-104952380D01*
%TO.C,C1*%
X109166666Y-104857142D02*
X109214285Y-104904761D01*
X109357142Y-104952380D01*
X109452380Y-104952380D01*
X109595238Y-104904761D01*
X109690476Y-104809523D01*
X109738095Y-104714285D01*
X109785714Y-104523809D01*
X109785714Y-104380952D01*
X109738095Y-104190476D01*
X109690476Y-104095238D01*
X109595238Y-104000000D01*
X109452380Y-103952380D01*
X109357142Y-103952380D01*
X109214285Y-104000000D01*
X109166666Y-104047619D01*
X108214285Y-104952380D02*
X108785714Y-104952380D01*
X108500000Y-104952380D02*
X108500000Y-103952380D01*
X108595238Y-104095238D01*
X108690476Y-104190476D01*
X108785714Y-104238095D01*
%TO.C,J2*%
X106400000Y-117400000D02*
X106400000Y-115400000D01*
X94300000Y-110900000D02*
X94300000Y-117400000D01*
X106400000Y-115400000D02*
X105700000Y-113900000D01*
X94300000Y-110900000D02*
X95500000Y-110900000D01*
X105700000Y-110900000D02*
X105700000Y-113900000D01*
X105700000Y-110900000D02*
X104500000Y-110900000D01*
D10*
%TO.C,Q1*%
X110000000Y-112060000D02*
X110650000Y-112060000D01*
X110000000Y-112060000D02*
X109350000Y-112060000D01*
X110000000Y-108940000D02*
X111675000Y-108940000D01*
X110000000Y-108940000D02*
X109350000Y-108940000D01*
%TO.C,R1*%
X112737258Y-106522500D02*
X112262742Y-106522500D01*
X112737258Y-105477500D02*
X112262742Y-105477500D01*
%TO.C,R2*%
X105022500Y-107262742D02*
X105022500Y-107737258D01*
X103977500Y-107262742D02*
X103977500Y-107737258D01*
%TO.C,R3*%
X112262742Y-108022500D02*
X112737258Y-108022500D01*
X112262742Y-106977500D02*
X112737258Y-106977500D01*
%TO.C,C2*%
X106510000Y-106859420D02*
X106510000Y-107140580D01*
X105490000Y-106859420D02*
X105490000Y-107140580D01*
%TO.C,C1*%
X108735000Y-106738748D02*
X108735000Y-107261252D01*
X107265000Y-106738748D02*
X107265000Y-107261252D01*
D12*
%TO.C,J3*%
X94500000Y-92500000D02*
X94500000Y-93000000D01*
X94500000Y-93000000D02*
X94000000Y-93000000D01*
%TO.C,J1*%
X108500000Y-92500000D02*
X108500000Y-93000000D01*
X108500000Y-93000000D02*
X108000000Y-93000000D01*
%TD*%
%LPC*%
D14*
%TO.C,H1*%
X94000000Y-100000000D03*
%TD*%
D15*
%TO.C,J2*%
X103850000Y-110900000D03*
X103150000Y-110900000D03*
X102450000Y-110900000D03*
X101750000Y-110900000D03*
X101050000Y-110900000D03*
X100350000Y-110900000D03*
X99650000Y-110900000D03*
X98950000Y-110900000D03*
X98250000Y-110900000D03*
X97550000Y-110900000D03*
X96850000Y-110900000D03*
X96150000Y-110900000D03*
%TD*%
D16*
%TO.C,Q1*%
X110937500Y-109550000D03*
X110937500Y-111450000D03*
X109062500Y-110500000D03*
%TD*%
D17*
%TO.C,R1*%
X113325000Y-106000000D03*
X111675000Y-106000000D03*
%TD*%
D18*
%TO.C,R2*%
X104500000Y-106675000D03*
X104500000Y-108325000D03*
%TD*%
D19*
%TO.C,R3*%
X111675000Y-107500000D03*
X113325000Y-107500000D03*
%TD*%
D20*
%TO.C,C2*%
X106000000Y-106225000D03*
X106000000Y-107775000D03*
%TD*%
D21*
%TO.C,C1*%
X108000000Y-106050000D03*
X108000000Y-107950000D03*
%TD*%
D22*
%TO.C,J3*%
X93000000Y-92000000D03*
X93000000Y-90000000D03*
X93000000Y-88000000D03*
X93000000Y-86000000D03*
%TD*%
%TO.C,J1*%
X107000000Y-92000000D03*
X107000000Y-90000000D03*
X107000000Y-88000000D03*
X107000000Y-86000000D03*
%TD*%
M02*
