%TF.GenerationSoftware,KiCad,Pcbnew,(6.0.8)*%
%TF.CreationDate,2022-10-29T03:41:05+02:00*%
%TF.ProjectId,view_base,76696577-5f62-4617-9365-2e6b69636164,rev?*%
%TF.SameCoordinates,Original*%
%TF.FileFunction,Copper,L1,Top*%
%TF.FilePolarity,Positive*%
%FSLAX46Y46*%
G04 Gerber Fmt 4.6, Leading zero omitted, Abs format (unit mm)*
G04 Created by KiCad (PCBNEW (6.0.8)) date 2022-10-29 03:41:05*
%MOMM*%
%LPD*%
G01*
G04 APERTURE LIST*
G04 Aperture macros list*
%AMRoundRect*
0 Rectangle with rounded corners*
0 $1 Rounding radius*
0 $2 $3 $4 $5 $6 $7 $8 $9 X,Y pos of 4 corners*
0 Add a 4 corners polygon primitive as box body*
4,1,4,$2,$3,$4,$5,$6,$7,$8,$9,$2,$3,0*
0 Add four circle primitives for the rounded corners*
1,1,$1+$1,$2,$3*
1,1,$1+$1,$4,$5*
1,1,$1+$1,$6,$7*
1,1,$1+$1,$8,$9*
0 Add four rect primitives between the rounded corners*
20,1,$1+$1,$2,$3,$4,$5,0*
20,1,$1+$1,$4,$5,$6,$7,0*
20,1,$1+$1,$6,$7,$8,$9,0*
20,1,$1+$1,$8,$9,$2,$3,0*%
%AMHorizOval*
0 Thick line with rounded ends*
0 $1 width*
0 $2 $3 position (X,Y) of the first rounded end (center of the circle)*
0 $4 $5 position (X,Y) of the second rounded end (center of the circle)*
0 Add line between two ends*
20,1,$1,$2,$3,$4,$5,0*
0 Add two circle primitives to create the rounded ends*
1,1,$1,$2,$3*
1,1,$1,$4,$5*%
%AMRotRect*
0 Rectangle, with rotation*
0 The origin of the aperture is its center*
0 $1 length*
0 $2 width*
0 $3 Rotation angle, in degrees counterclockwise*
0 Add horizontal line*
21,1,$1,$2,0,0,$3*%
G04 Aperture macros list end*
%TA.AperFunction,SMDPad,CuDef*%
%ADD10RotRect,0.600000X1.090000X135.000000*%
%TD*%
%TA.AperFunction,SMDPad,CuDef*%
%ADD11RotRect,0.300000X1.090000X135.000000*%
%TD*%
%TA.AperFunction,ComponentPad*%
%ADD12HorizOval,1.000000X0.424264X0.424264X-0.424264X-0.424264X0*%
%TD*%
%TA.AperFunction,ComponentPad*%
%ADD13HorizOval,1.000000X0.282843X0.282843X-0.282843X-0.282843X0*%
%TD*%
%TA.AperFunction,ComponentPad*%
%ADD14HorizOval,1.727200X0.107763X-0.107763X-0.107763X0.107763X0*%
%TD*%
%TA.AperFunction,SMDPad,CuDef*%
%ADD15RoundRect,0.250000X-0.883883X0.176777X0.176777X-0.883883X0.883883X-0.176777X-0.176777X0.883883X0*%
%TD*%
%TA.AperFunction,SMDPad,CuDef*%
%ADD16RoundRect,0.250000X-1.697056X-0.636396X-0.636396X-1.697056X1.697056X0.636396X0.636396X1.697056X0*%
%TD*%
%TA.AperFunction,SMDPad,CuDef*%
%ADD17C,2.000000*%
%TD*%
%TA.AperFunction,SMDPad,CuDef*%
%ADD18RoundRect,0.200000X0.335876X0.053033X0.053033X0.335876X-0.335876X-0.053033X-0.053033X-0.335876X0*%
%TD*%
%TA.AperFunction,ComponentPad*%
%ADD19RotRect,1.700000X1.700000X45.000000*%
%TD*%
%TA.AperFunction,ComponentPad*%
%ADD20HorizOval,1.700000X0.000000X0.000000X0.000000X0.000000X0*%
%TD*%
%TA.AperFunction,ComponentPad*%
%ADD21C,1.651000*%
%TD*%
%TA.AperFunction,SMDPad,CuDef*%
%ADD22RotRect,2.100000X2.999999X225.000000*%
%TD*%
%TA.AperFunction,SMDPad,CuDef*%
%ADD23RotRect,0.800000X1.600000X225.000000*%
%TD*%
%TA.AperFunction,ComponentPad*%
%ADD24C,0.600000*%
%TD*%
%TA.AperFunction,SMDPad,CuDef*%
%ADD25RotRect,1.650000X1.650000X135.000000*%
%TD*%
%TA.AperFunction,ViaPad*%
%ADD26C,0.685800*%
%TD*%
%TA.AperFunction,ViaPad*%
%ADD27C,0.600000*%
%TD*%
%TA.AperFunction,ViaPad*%
%ADD28C,0.500000*%
%TD*%
%TA.AperFunction,Conductor*%
%ADD29C,0.400000*%
%TD*%
%TA.AperFunction,Conductor*%
%ADD30C,0.200000*%
%TD*%
G04 APERTURE END LIST*
D10*
%TO.P,J2,A1,GND*%
%TO.N,GND*%
X113064645Y-39460838D03*
%TO.P,J2,A4,VBUS*%
%TO.N,+5V*%
X112498960Y-38895153D03*
D11*
%TO.P,J2,A5,CC1*%
%TO.N,/USB_CC1*%
X111685787Y-38081980D03*
%TO.P,J2,A6,D+*%
%TO.N,/USB_D+*%
X110978680Y-37374873D03*
%TO.P,J2,A7,D-*%
%TO.N,/USB_D-*%
X110625127Y-37021320D03*
%TO.P,J2,A8,SBU1*%
%TO.N,unconnected-(J2-PadA8)*%
X109918020Y-36314213D03*
D10*
%TO.P,J2,A9,VBUS*%
%TO.N,+5V*%
X109104847Y-35501040D03*
%TO.P,J2,A12,GND*%
%TO.N,GND*%
X108539162Y-34935355D03*
%TO.P,J2,B1,GND*%
X108539162Y-34935355D03*
%TO.P,J2,B4,VBUS*%
%TO.N,+5V*%
X109104847Y-35501040D03*
D11*
%TO.P,J2,B5,CC2*%
%TO.N,/USB_CC2*%
X109564466Y-35960660D03*
%TO.P,J2,B6,D+*%
%TO.N,/USB_D+*%
X110271573Y-36667767D03*
%TO.P,J2,B7,D-*%
%TO.N,/USB_D-*%
X111332233Y-37728427D03*
%TO.P,J2,B8,SBU2*%
%TO.N,unconnected-(J2-PadB8)*%
X112039340Y-38435534D03*
D10*
%TO.P,J2,B9,VBUS*%
%TO.N,+5V*%
X112498960Y-38895153D03*
%TO.P,J2,B12,GND*%
%TO.N,GND*%
X113064645Y-39460838D03*
D12*
%TO.P,J2,S1,SHIELD*%
X118417443Y-37530437D03*
X110469563Y-29582557D03*
D13*
X107641136Y-32410984D03*
X115589016Y-40358864D03*
%TD*%
D14*
%TO.P,J6,1,Pin_1*%
%TO.N,+3V3*%
X90992102Y-31707898D03*
%TO.P,J6,2,Pin_2*%
%TO.N,GND*%
X89196051Y-33503949D03*
%TO.P,J6,3,Pin_3*%
%TO.N,Net-(J6-Pad3)*%
X87400000Y-35300000D03*
%TO.P,J6,4,Pin_4*%
%TO.N,Net-(J6-Pad4)*%
X85603949Y-37096051D03*
%TO.P,J6,5,Pin_5*%
%TO.N,Net-(J6-Pad5)*%
X83807898Y-38892102D03*
%TD*%
D15*
%TO.P,U1,1,VI*%
%TO.N,+5V*%
X115398959Y-47079720D03*
D16*
%TO.P,U1,2,GND*%
%TO.N,GND*%
X118227386Y-53160838D03*
D15*
X113772614Y-48706066D03*
%TO.P,U1,3,VO*%
%TO.N,+3V3*%
X112146268Y-50332411D03*
%TD*%
D17*
%TO.P,TP4,1,1*%
%TO.N,Net-(TP4-Pad1)*%
X97300000Y-41333452D03*
%TD*%
D18*
%TO.P,R4,1*%
%TO.N,+3V3*%
X109283363Y-48883363D03*
%TO.P,R4,2*%
%TO.N,/ESP32_EN*%
X108116637Y-47716637D03*
%TD*%
D19*
%TO.P,J4,1,Pin_1*%
%TO.N,+3V3*%
X81724427Y-53724427D03*
D20*
%TO.P,J4,2,Pin_2*%
%TO.N,GND*%
X83520478Y-55520478D03*
%TO.P,J4,3,Pin_3*%
%TO.N,Net-(J4-Pad3)*%
X85316529Y-57316529D03*
%TO.P,J4,4,Pin_4*%
%TO.N,Net-(J4-Pad4)*%
X87112581Y-59112581D03*
%TO.P,J4,5,Pin_5*%
%TO.N,Net-(J4-Pad5)*%
X88908632Y-60908632D03*
%TO.P,J4,6,Pin_6*%
%TO.N,Net-(J4-Pad6)*%
X90704683Y-62704683D03*
%TO.P,J4,7,Pin_7*%
%TO.N,Net-(J4-Pad7)*%
X92500734Y-64500734D03*
%TO.P,J4,8,Pin_8*%
%TO.N,Net-(J4-Pad8)*%
X94296786Y-66296786D03*
%TD*%
D17*
%TO.P,TP3,1,1*%
%TO.N,Net-(TP3-Pad1)*%
X95178681Y-43454774D03*
%TD*%
D21*
%TO.P,J8,1,Pin_1*%
%TO.N,Net-(J8-Pad1)*%
X113498026Y-59701974D03*
%TO.P,J8,2,Pin_2*%
%TO.N,Net-(J8-Pad2)*%
X111701974Y-61498026D03*
%TD*%
D22*
%TO.P,J3,*%
%TO.N,GND*%
X104898162Y-44486828D03*
X99524151Y-49860839D03*
D23*
%TO.P,J3,1,Pin_1*%
%TO.N,Net-(J3-Pad1)*%
X105145649Y-48340559D03*
%TO.P,J3,2,Pin_2*%
%TO.N,Net-(J3-Pad2)*%
X104261766Y-49224442D03*
%TO.P,J3,3,Pin_3*%
%TO.N,Net-(J3-Pad3)*%
X103377882Y-50108326D03*
%TD*%
D24*
%TO.P,U4,PAD,PAD*%
%TO.N,GND*%
X109114214Y-57592031D03*
X108407107Y-56884924D03*
X108407107Y-58299138D03*
D25*
X108407107Y-57592031D03*
D24*
X107700000Y-57592031D03*
%TD*%
D26*
%TO.N,GND*%
X101166729Y-49166723D03*
D27*
X91822183Y-37000000D03*
X93400000Y-37000000D03*
X109900000Y-48033452D03*
D28*
X90600000Y-37600000D03*
D26*
X97666548Y-47999999D03*
X98833275Y-46833271D03*
X98833277Y-49166728D03*
D27*
X92600000Y-37800000D03*
X92600000Y-36200000D03*
D26*
X101166727Y-46833273D03*
X100000000Y-48000000D03*
X100000006Y-50333446D03*
X90100506Y-48000001D03*
X102333453Y-47999999D03*
X100000002Y-45666544D03*
D27*
X100000000Y-57933452D03*
X100035356Y-38135861D03*
%TO.N,/CHG*%
X89300000Y-37700000D03*
X93363094Y-48600000D03*
D28*
%TO.N,/PGOOD*%
X92100000Y-43600000D03*
X92300000Y-45100000D03*
D27*
%TO.N,/USB_CC1*%
X110900000Y-39200000D03*
D28*
%TO.N,/USB_D-*%
X110000000Y-37600000D03*
D26*
X94696698Y-54010408D03*
D27*
X108900000Y-38300000D03*
D26*
%TO.N,/USB_D+*%
X93989594Y-53303304D03*
D27*
%TO.N,/USB_CC2*%
X106743003Y-34356997D03*
D28*
%TO.N,/EN2*%
X91900000Y-39100000D03*
X90700000Y-42800000D03*
%TO.N,/EN1*%
X90100000Y-43700000D03*
X91200000Y-38800000D03*
%TO.N,/TD*%
X94300000Y-35700000D03*
D27*
X91573500Y-42900000D03*
D26*
%TO.N,/ESP32_EN*%
X100000003Y-39797557D03*
D27*
%TO.N,/TMC_UH*%
X108662901Y-63493454D03*
D26*
X106257893Y-50651652D03*
D27*
%TO.N,/TMC_VH*%
X107500000Y-63233452D03*
D26*
X105656854Y-51252690D03*
D27*
%TO.N,/TMC_WH*%
X106300000Y-61933452D03*
D26*
X104454774Y-52454771D03*
D27*
%TO.N,/TMC_UL*%
X105100000Y-60733452D03*
D26*
X103853736Y-53055814D03*
D27*
%TO.N,/TMC_WL*%
X103900000Y-59533452D03*
D26*
X103252691Y-53656855D03*
%TO.N,/TMC_VL*%
X102651652Y-54257897D03*
D27*
X102700000Y-58600000D03*
D28*
%TO.N,/TMC_DIAG*%
X106500000Y-56400000D03*
D27*
X101800000Y-59100000D03*
D26*
X102050612Y-54858935D03*
D28*
X106426500Y-57600000D03*
D27*
%TO.N,Net-(J3-Pad1)*%
X110500000Y-58033452D03*
%TO.N,Net-(J3-Pad2)*%
X109700000Y-55733452D03*
%TO.N,Net-(J3-Pad3)*%
X108000000Y-55333452D03*
%TO.N,+5V*%
X112419938Y-54353390D03*
X97700000Y-34500000D03*
X115400000Y-47033452D03*
X91300000Y-35700000D03*
D28*
X93500000Y-34500000D03*
D27*
X112500000Y-38900000D03*
X88100000Y-41400000D03*
X109100000Y-35500000D03*
%TO.N,+3V3*%
X98800000Y-59533452D03*
X91600000Y-55333452D03*
X111400000Y-48533452D03*
D26*
%TO.N,Net-(TP3-Pad1)*%
X96959443Y-44252335D03*
%TO.N,Net-(TP4-Pad1)*%
X98090816Y-43120967D03*
%TO.N,Net-(J6-Pad3)*%
X91868272Y-51181982D03*
%TO.N,Net-(J6-Pad4)*%
X92566684Y-51880385D03*
%TO.N,Net-(J6-Pad5)*%
X93282489Y-52596194D03*
%TO.N,Net-(J8-Pad1)*%
X86100000Y-54300000D03*
%TO.N,Net-(J8-Pad2)*%
X88403452Y-52101217D03*
%TD*%
D29*
%TO.N,GND*%
X89196051Y-33503949D02*
X89603949Y-33503949D01*
%TO.N,/CHG*%
X89300000Y-44600000D02*
X93300000Y-48600000D01*
X89300000Y-37700000D02*
X89300000Y-44600000D01*
X93300000Y-48600000D02*
X93363094Y-48600000D01*
D30*
%TO.N,/PGOOD*%
X92100000Y-44900000D02*
X92300000Y-45100000D01*
X92100000Y-43600000D02*
X92100000Y-44900000D01*
%TO.N,/USB_CC1*%
X110900000Y-39200000D02*
X110900000Y-38867767D01*
X110900000Y-38867767D02*
X111685787Y-38081980D01*
%TO.N,/USB_D-*%
X110625127Y-37021320D02*
X110578680Y-37021320D01*
X110160660Y-38900000D02*
X109500000Y-38900000D01*
D29*
X103500000Y-32900000D02*
X102600000Y-32900000D01*
X94696698Y-45696698D02*
X94696698Y-54010408D01*
X93300000Y-42200000D02*
X93300000Y-44300000D01*
D30*
X111332233Y-37728427D02*
X110160660Y-38900000D01*
D29*
X93300000Y-44300000D02*
X94696698Y-45696698D01*
D30*
X110578680Y-37021320D02*
X110000000Y-37600000D01*
D29*
X102600000Y-32900000D02*
X93300000Y-42200000D01*
X108900000Y-38300000D02*
X103500000Y-32900000D01*
D30*
X109500000Y-38900000D02*
X108900000Y-38300000D01*
D29*
%TO.N,/USB_D+*%
X102000000Y-32100000D02*
X92700000Y-41400000D01*
D30*
X110153553Y-38200000D02*
X110978680Y-37374873D01*
D29*
X103600000Y-32100000D02*
X102000000Y-32100000D01*
X108900000Y-37100000D02*
X108600000Y-37100000D01*
X93989594Y-45889594D02*
X93989594Y-53303304D01*
X108600000Y-37100000D02*
X103600000Y-32100000D01*
X92700000Y-44600000D02*
X93989594Y-45889594D01*
D30*
X108900000Y-37235392D02*
X109864608Y-38200000D01*
X109839340Y-37100000D02*
X110271573Y-36667767D01*
X108900000Y-37100000D02*
X108900000Y-37235392D01*
X108900000Y-37100000D02*
X109839340Y-37100000D01*
D29*
X92700000Y-41400000D02*
X92700000Y-44600000D01*
D30*
X109864608Y-38200000D02*
X110153553Y-38200000D01*
%TO.N,/USB_CC2*%
X106743003Y-34443003D02*
X108800000Y-36500000D01*
X108800000Y-36500000D02*
X109025126Y-36500000D01*
X109025126Y-36500000D02*
X109564466Y-35960660D01*
X106743003Y-34356997D02*
X106743003Y-34443003D01*
D29*
%TO.N,/EN2*%
X90700000Y-40300000D02*
X91900000Y-39100000D01*
X90700000Y-42800000D02*
X90700000Y-40300000D01*
%TO.N,/EN1*%
X90100000Y-39900000D02*
X90100000Y-43700000D01*
X91200000Y-38800000D02*
X90100000Y-39900000D01*
%TO.N,/TD*%
X91573500Y-41781210D02*
X94300000Y-39054710D01*
X94300000Y-39054710D02*
X94300000Y-35700000D01*
X91573500Y-42900000D02*
X91573500Y-41781210D01*
%TO.N,/ESP32_EN*%
X100000003Y-42133455D02*
X100000003Y-39797557D01*
X108116637Y-47716637D02*
X107233452Y-46833452D01*
X107233452Y-46833452D02*
X104700000Y-46833452D01*
X104700000Y-46833452D02*
X100000003Y-42133455D01*
%TO.N,/TMC_UH*%
X106326754Y-51530172D02*
X106326754Y-50720513D01*
X105800000Y-52056926D02*
X106326754Y-51530172D01*
X108700000Y-63456355D02*
X108700000Y-60833452D01*
X106326754Y-50720513D02*
X106257893Y-50651652D01*
X105800000Y-57933452D02*
X105800000Y-52056926D01*
X108662901Y-63493454D02*
X108700000Y-63456355D01*
X108700000Y-60833452D02*
X105800000Y-57933452D01*
%TO.N,/TMC_VH*%
X107500000Y-60449485D02*
X107500000Y-63233452D01*
X105200000Y-58149485D02*
X107500000Y-60449485D01*
X105200000Y-51709544D02*
X105200000Y-58149485D01*
X105656854Y-51252690D02*
X105200000Y-51709544D01*
%TO.N,/TMC_WH*%
X106300000Y-60110807D02*
X106300000Y-61933452D01*
X104600000Y-52599997D02*
X104600000Y-58410807D01*
X104600000Y-58410807D02*
X106300000Y-60110807D01*
X104454774Y-52454771D02*
X104600000Y-52599997D01*
%TO.N,/TMC_UL*%
X103853736Y-53055814D02*
X104000000Y-53202078D01*
X104000000Y-58633452D02*
X105100000Y-59733452D01*
X105100000Y-59733452D02*
X105100000Y-60733452D01*
X104000000Y-53202078D02*
X104000000Y-58633452D01*
%TO.N,/TMC_WL*%
X103252691Y-53656855D02*
X103400000Y-53804164D01*
X103400000Y-53804164D02*
X103400000Y-59033452D01*
X103400000Y-59033452D02*
X103900000Y-59533452D01*
%TO.N,/TMC_VL*%
X102700000Y-58600000D02*
X102720512Y-58579488D01*
X102720512Y-58579488D02*
X102720512Y-54326757D01*
X102720512Y-54326757D02*
X102651652Y-54257897D01*
%TO.N,/TMC_DIAG*%
X101800000Y-59100000D02*
X102050612Y-58849388D01*
X106500000Y-56400000D02*
X106426500Y-56473500D01*
X102050612Y-58849388D02*
X102050612Y-54858935D01*
X106426500Y-56473500D02*
X106426500Y-57600000D01*
%TO.N,Net-(J3-Pad1)*%
X110500000Y-51610807D02*
X110500000Y-58033452D01*
X107422645Y-48533452D02*
X110500000Y-51610807D01*
X105338542Y-48533452D02*
X107422645Y-48533452D01*
X105145649Y-48340559D02*
X105338542Y-48533452D01*
%TO.N,Net-(J3-Pad2)*%
X108100000Y-54133452D02*
X109700000Y-55733452D01*
X105099066Y-50061742D02*
X105827356Y-49333452D01*
X105827356Y-49333452D02*
X107100000Y-49333452D01*
X108100000Y-50333452D02*
X108100000Y-54133452D01*
X107100000Y-49333452D02*
X108100000Y-50333452D01*
X104261766Y-49224442D02*
X105099066Y-50061742D01*
%TO.N,Net-(J3-Pad3)*%
X106691837Y-49981752D02*
X107200000Y-50489915D01*
X105200000Y-50733452D02*
X105951700Y-49981752D01*
X105951700Y-49981752D02*
X106691837Y-49981752D01*
X104003008Y-50733452D02*
X105200000Y-50733452D01*
X103377882Y-50108326D02*
X104003008Y-50733452D01*
X107200000Y-54533452D02*
X108000000Y-55333452D01*
X107200000Y-50489915D02*
X107200000Y-54533452D01*
%TO.N,+5V*%
X115700000Y-51073328D02*
X115700000Y-47380761D01*
X115700000Y-47380761D02*
X115398959Y-47079720D01*
X91300000Y-35700000D02*
X92500000Y-34500000D01*
X88100000Y-36900000D02*
X88100000Y-41400000D01*
X91300000Y-35700000D02*
X89300000Y-35700000D01*
X89300000Y-35700000D02*
X88100000Y-36900000D01*
X112419938Y-54353390D02*
X115700000Y-51073328D01*
X92500000Y-34500000D02*
X97700000Y-34500000D01*
%TO.N,+3V3*%
X98800000Y-59533452D02*
X95800000Y-59533452D01*
X109283363Y-48883363D02*
X111050089Y-48883363D01*
X111050089Y-48883363D02*
X111400000Y-48533452D01*
X111400000Y-48533452D02*
X111400000Y-49586143D01*
X111400000Y-49586143D02*
X112146268Y-50332411D01*
X95800000Y-59533452D02*
X91600000Y-55333452D01*
%TO.N,Net-(TP3-Pad1)*%
X95976242Y-44252335D02*
X95178681Y-43454774D01*
X96959443Y-44252335D02*
X95976242Y-44252335D01*
%TO.N,Net-(TP4-Pad1)*%
X98090816Y-43120967D02*
X98090816Y-42124268D01*
X98090816Y-42124268D02*
X97300000Y-41333452D01*
%TO.N,Net-(J6-Pad3)*%
X91848530Y-51181982D02*
X91868272Y-51181982D01*
X85800000Y-45100000D02*
X87400000Y-46700000D01*
X87400000Y-46733452D02*
X91848530Y-51181982D01*
X86300000Y-40200000D02*
X85800000Y-40700000D01*
X87400000Y-35300000D02*
X87200000Y-35500000D01*
X87200000Y-37900000D02*
X86300000Y-38800000D01*
X86300000Y-38800000D02*
X86300000Y-40200000D01*
X87200000Y-35500000D02*
X87200000Y-37900000D01*
X85800000Y-40700000D02*
X85800000Y-45100000D01*
%TO.N,Net-(J6-Pad4)*%
X85400000Y-37300000D02*
X85400000Y-39700000D01*
X85603949Y-46337401D02*
X91400000Y-52133452D01*
X91400000Y-52133452D02*
X92313617Y-52133452D01*
X85400000Y-39700000D02*
X84800000Y-40300000D01*
X92313617Y-52133452D02*
X92566684Y-51880385D01*
X84800000Y-40300000D02*
X84800000Y-45500000D01*
X84800000Y-45500000D02*
X85600000Y-46300000D01*
X85603949Y-37096051D02*
X85400000Y-37300000D01*
%TO.N,Net-(J6-Pad5)*%
X83807898Y-46041350D02*
X90900000Y-53133452D01*
X83807898Y-38892102D02*
X83807898Y-46000000D01*
X92745231Y-53133452D02*
X93282489Y-52596194D01*
X90900000Y-53133452D02*
X92745231Y-53133452D01*
%TO.N,Net-(J8-Pad1)*%
X98400000Y-67400000D02*
X108300000Y-67400000D01*
X113498026Y-62201974D02*
X113498026Y-59701974D01*
X86100000Y-54300000D02*
X86100000Y-55100000D01*
X86100000Y-55100000D02*
X98400000Y-67400000D01*
X108300000Y-67400000D02*
X113498026Y-62201974D01*
%TO.N,Net-(J8-Pad2)*%
X98800000Y-66300000D02*
X87300000Y-54800000D01*
X106900000Y-66300000D02*
X98800000Y-66300000D01*
X87300000Y-54800000D02*
X87300000Y-53204669D01*
X87300000Y-53204669D02*
X88403452Y-52101217D01*
X111701974Y-61498026D02*
X106900000Y-66300000D01*
%TD*%
%TA.AperFunction,Conductor*%
%TO.N,GND*%
G36*
X100305966Y-25653974D02*
G01*
X100752267Y-25659591D01*
X100757546Y-25659768D01*
X101687738Y-25710523D01*
X101693005Y-25710921D01*
X102156636Y-25755771D01*
X102620279Y-25800621D01*
X102625501Y-25801238D01*
X102975724Y-25850006D01*
X103548182Y-25929721D01*
X103553397Y-25930559D01*
X103891468Y-25992177D01*
X104469899Y-26097604D01*
X104475031Y-26098652D01*
X105383735Y-26303966D01*
X105388844Y-26305234D01*
X106288150Y-26548456D01*
X106293175Y-26549929D01*
X107181471Y-26830623D01*
X107186450Y-26832311D01*
X107504364Y-26947634D01*
X108062215Y-27149994D01*
X108067142Y-27151899D01*
X108928808Y-27506003D01*
X108933650Y-27508113D01*
X109779700Y-27898012D01*
X109784450Y-27900323D01*
X110109522Y-28066990D01*
X110262154Y-28145246D01*
X110313646Y-28194124D01*
X110330538Y-28263082D01*
X110307468Y-28330225D01*
X110283278Y-28355839D01*
X110223939Y-28403209D01*
X110218691Y-28407902D01*
X109949213Y-28677381D01*
X109941602Y-28691319D01*
X109941734Y-28693155D01*
X109945983Y-28699767D01*
X110739678Y-29493462D01*
X110773704Y-29555774D01*
X110768639Y-29626589D01*
X110739678Y-29671652D01*
X109547552Y-30863778D01*
X109540792Y-30876158D01*
X109545512Y-30882463D01*
X109644130Y-30936231D01*
X109655414Y-30941021D01*
X109832287Y-30996449D01*
X109844297Y-30998959D01*
X109952893Y-31010756D01*
X110018455Y-31037998D01*
X110058881Y-31096361D01*
X110061336Y-31167315D01*
X110028380Y-31225114D01*
X109142162Y-32111332D01*
X109079850Y-32145358D01*
X109009035Y-32140293D01*
X108952199Y-32097746D01*
X108927626Y-32034095D01*
X108918826Y-31941005D01*
X108916488Y-31928975D01*
X108863532Y-31751339D01*
X108858897Y-31739983D01*
X108802600Y-31633205D01*
X108792775Y-31623089D01*
X108785731Y-31625600D01*
X107641136Y-32770194D01*
X106860545Y-33550786D01*
X106853786Y-33563163D01*
X106858507Y-33569469D01*
X106957125Y-33623238D01*
X106968408Y-33628027D01*
X107145281Y-33683455D01*
X107157292Y-33685965D01*
X107341560Y-33705983D01*
X107353828Y-33706112D01*
X107538472Y-33689956D01*
X107550531Y-33687700D01*
X107728525Y-33635988D01*
X107739912Y-33631434D01*
X107813783Y-33593143D01*
X107883466Y-33579552D01*
X107949436Y-33605793D01*
X107990746Y-33663533D01*
X107994611Y-33676978D01*
X108013224Y-33758554D01*
X108016292Y-33764926D01*
X108016293Y-33764929D01*
X108065129Y-33866356D01*
X108076812Y-33890621D01*
X108163373Y-33999183D01*
X108167349Y-34006072D01*
X108167657Y-34006250D01*
X108194526Y-34055480D01*
X108189449Y-34126294D01*
X108160496Y-34171335D01*
X108160235Y-34171596D01*
X108152623Y-34185537D01*
X108152754Y-34187374D01*
X108157004Y-34193987D01*
X108809277Y-34846260D01*
X108843303Y-34908572D01*
X108838238Y-34979387D01*
X108809277Y-35024450D01*
X108539162Y-35294565D01*
X108333089Y-35500639D01*
X108270777Y-35534665D01*
X108199962Y-35529600D01*
X108154899Y-35500639D01*
X107973879Y-35319619D01*
X107939853Y-35257307D01*
X107944918Y-35186492D01*
X107973879Y-35141429D01*
X108167143Y-34948165D01*
X108174755Y-34934225D01*
X108174623Y-34932389D01*
X108170374Y-34925777D01*
X107801023Y-34556427D01*
X107787085Y-34548816D01*
X107785249Y-34548948D01*
X107778637Y-34553197D01*
X107582142Y-34749692D01*
X107519830Y-34783718D01*
X107449015Y-34778653D01*
X107403952Y-34749692D01*
X107218645Y-34564385D01*
X107184619Y-34502073D01*
X107183486Y-34454388D01*
X107198000Y-34368117D01*
X107198136Y-34356997D01*
X107185855Y-34271244D01*
X107181115Y-34238142D01*
X107181114Y-34238139D01*
X107179842Y-34229256D01*
X107173740Y-34215835D01*
X107130148Y-34119959D01*
X107130146Y-34119956D01*
X107126431Y-34111785D01*
X107094096Y-34074258D01*
X107048054Y-34020823D01*
X107048052Y-34020821D01*
X107042196Y-34014025D01*
X106933909Y-33943838D01*
X106925314Y-33941268D01*
X106925313Y-33941267D01*
X106818877Y-33909435D01*
X106818875Y-33909435D01*
X106810276Y-33906863D01*
X106801301Y-33906808D01*
X106801300Y-33906808D01*
X106746644Y-33906474D01*
X106681234Y-33906075D01*
X106619196Y-33923805D01*
X106565789Y-33939069D01*
X106565787Y-33939070D01*
X106557158Y-33941536D01*
X106549568Y-33946325D01*
X106483914Y-33987750D01*
X106448022Y-34010396D01*
X106442079Y-34017125D01*
X106442078Y-34017126D01*
X106413212Y-34049811D01*
X106362599Y-34107119D01*
X106358785Y-34115242D01*
X106358784Y-34115244D01*
X106355857Y-34121479D01*
X106308801Y-34174641D01*
X106240473Y-34193923D01*
X106172567Y-34173203D01*
X106152707Y-34157025D01*
X104692104Y-32696422D01*
X106346002Y-32696422D01*
X106363446Y-32880964D01*
X106365783Y-32892991D01*
X106418740Y-33070629D01*
X106423375Y-33081985D01*
X106479672Y-33188763D01*
X106489497Y-33198879D01*
X106496541Y-33196368D01*
X107269115Y-32423795D01*
X107276728Y-32409852D01*
X107276597Y-32408018D01*
X107272346Y-32401404D01*
X106761580Y-31890638D01*
X106747636Y-31883024D01*
X106745801Y-31883155D01*
X106739191Y-31887403D01*
X106612537Y-32014056D01*
X106608399Y-32018620D01*
X106520521Y-32125604D01*
X106513695Y-32135801D01*
X106426108Y-32299150D01*
X106421393Y-32310478D01*
X106367201Y-32487727D01*
X106364775Y-32499759D01*
X106346044Y-32684163D01*
X106346002Y-32696422D01*
X104692104Y-32696422D01*
X103883783Y-31888101D01*
X103871705Y-31873147D01*
X103868473Y-31869595D01*
X103862825Y-31860848D01*
X103838914Y-31841998D01*
X103834979Y-31838501D01*
X103834891Y-31838605D01*
X103830932Y-31835250D01*
X103827254Y-31831572D01*
X103823029Y-31828553D01*
X103823021Y-31828546D01*
X103812920Y-31821328D01*
X103808173Y-31817764D01*
X103793056Y-31805847D01*
X103771189Y-31788608D01*
X103763213Y-31785807D01*
X103756331Y-31780889D01*
X103711164Y-31767381D01*
X103705558Y-31765559D01*
X103668577Y-31752572D01*
X103668571Y-31752571D01*
X103661094Y-31749945D01*
X103655956Y-31749500D01*
X103653237Y-31749500D01*
X103651055Y-31749405D01*
X103650520Y-31749245D01*
X103650521Y-31749218D01*
X103650403Y-31749211D01*
X103644536Y-31747456D01*
X103594981Y-31749403D01*
X103590034Y-31749500D01*
X102050824Y-31749500D01*
X102031725Y-31747467D01*
X102026917Y-31747240D01*
X102016739Y-31745049D01*
X101987523Y-31748507D01*
X101986509Y-31748627D01*
X101981254Y-31748937D01*
X101981265Y-31749072D01*
X101976087Y-31749500D01*
X101970885Y-31749500D01*
X101953515Y-31752391D01*
X101947645Y-31753227D01*
X101900861Y-31758764D01*
X101893241Y-31762423D01*
X101884897Y-31763812D01*
X101875732Y-31768757D01*
X101875730Y-31768758D01*
X101843441Y-31786181D01*
X101838162Y-31788872D01*
X101795674Y-31809274D01*
X101791726Y-31812592D01*
X101789787Y-31814531D01*
X101788196Y-31815990D01*
X101787706Y-31816254D01*
X101787687Y-31816234D01*
X101787598Y-31816313D01*
X101782206Y-31819222D01*
X101775136Y-31826870D01*
X101775135Y-31826871D01*
X101748545Y-31855636D01*
X101745116Y-31859202D01*
X94865595Y-38738723D01*
X94803283Y-38772749D01*
X94732468Y-38767684D01*
X94675632Y-38725137D01*
X94650821Y-38658617D01*
X94650500Y-38649628D01*
X94650500Y-35968588D01*
X94664233Y-35911385D01*
X94700404Y-35840396D01*
X94700404Y-35840395D01*
X94704905Y-35831562D01*
X94725742Y-35700000D01*
X94704905Y-35568438D01*
X94697013Y-35552948D01*
X94648933Y-35458587D01*
X94644433Y-35449755D01*
X94550245Y-35355567D01*
X94431562Y-35295095D01*
X94300000Y-35274258D01*
X94168438Y-35295095D01*
X94049755Y-35355567D01*
X93955567Y-35449755D01*
X93951067Y-35458587D01*
X93902988Y-35552948D01*
X93895095Y-35568438D01*
X93874258Y-35700000D01*
X93895095Y-35831562D01*
X93899596Y-35840395D01*
X93899596Y-35840396D01*
X93935767Y-35911385D01*
X93949500Y-35968588D01*
X93949500Y-38857338D01*
X93929498Y-38925459D01*
X93912595Y-38946433D01*
X91361601Y-41497427D01*
X91346647Y-41509505D01*
X91343095Y-41512737D01*
X91334348Y-41518385D01*
X91318589Y-41538375D01*
X91315498Y-41542296D01*
X91312001Y-41546231D01*
X91312105Y-41546319D01*
X91308750Y-41550278D01*
X91305072Y-41553956D01*
X91302053Y-41558181D01*
X91302046Y-41558189D01*
X91294828Y-41568290D01*
X91291264Y-41573037D01*
X91275450Y-41593097D01*
X91217569Y-41634210D01*
X91146649Y-41637504D01*
X91085206Y-41601932D01*
X91052749Y-41538790D01*
X91050500Y-41515091D01*
X91050500Y-40497372D01*
X91070502Y-40429251D01*
X91087405Y-40408277D01*
X91954152Y-39541530D01*
X92012401Y-39509722D01*
X92012336Y-39509521D01*
X92013408Y-39509173D01*
X92016464Y-39507504D01*
X92021391Y-39506579D01*
X92021770Y-39506456D01*
X92031562Y-39504905D01*
X92150245Y-39444433D01*
X92244433Y-39350245D01*
X92291528Y-39257816D01*
X92300404Y-39240396D01*
X92300404Y-39240395D01*
X92304905Y-39231562D01*
X92322068Y-39123195D01*
X92324191Y-39109793D01*
X92325742Y-39100000D01*
X92304905Y-38968438D01*
X92293056Y-38945182D01*
X92261429Y-38883112D01*
X92244433Y-38849755D01*
X92150245Y-38755567D01*
X92042798Y-38700820D01*
X92040396Y-38699596D01*
X92040395Y-38699596D01*
X92031562Y-38695095D01*
X91900000Y-38674258D01*
X91768438Y-38695095D01*
X91759604Y-38699596D01*
X91750171Y-38702661D01*
X91749573Y-38700820D01*
X91691875Y-38711651D01*
X91626092Y-38684947D01*
X91592190Y-38643484D01*
X91584324Y-38628045D01*
X91544433Y-38549755D01*
X91450245Y-38455567D01*
X91331562Y-38395095D01*
X91200000Y-38374258D01*
X91068438Y-38395095D01*
X90949755Y-38455567D01*
X90855567Y-38549755D01*
X90795095Y-38668438D01*
X90793544Y-38678230D01*
X90790479Y-38687664D01*
X90788776Y-38687111D01*
X90763412Y-38740616D01*
X90758470Y-38745848D01*
X89888101Y-39616217D01*
X89873147Y-39628295D01*
X89869595Y-39631527D01*
X89860848Y-39637175D01*
X89858138Y-39640613D01*
X89797454Y-39670127D01*
X89726956Y-39661733D01*
X89672187Y-39616556D01*
X89650500Y-39545882D01*
X89650500Y-38030519D01*
X89671911Y-37960485D01*
X89677322Y-37954507D01*
X89733588Y-37838375D01*
X89735151Y-37829088D01*
X89754190Y-37715917D01*
X89754997Y-37711120D01*
X89755133Y-37700000D01*
X89747748Y-37648433D01*
X89738112Y-37581145D01*
X89738111Y-37581142D01*
X89736839Y-37572259D01*
X89723663Y-37543279D01*
X89687145Y-37462962D01*
X89687143Y-37462959D01*
X89683428Y-37454788D01*
X89657625Y-37424842D01*
X89605051Y-37363826D01*
X89605049Y-37363824D01*
X89599193Y-37357028D01*
X89490906Y-37286841D01*
X89482311Y-37284271D01*
X89482310Y-37284270D01*
X89375874Y-37252438D01*
X89375872Y-37252438D01*
X89367273Y-37249866D01*
X89358298Y-37249811D01*
X89358297Y-37249811D01*
X89303641Y-37249477D01*
X89238231Y-37249078D01*
X89226475Y-37252438D01*
X89122786Y-37282072D01*
X89122784Y-37282073D01*
X89114155Y-37284539D01*
X89005019Y-37353399D01*
X88999076Y-37360128D01*
X88999075Y-37360129D01*
X88977791Y-37384229D01*
X88919596Y-37450122D01*
X88915782Y-37458245D01*
X88915781Y-37458247D01*
X88889794Y-37513598D01*
X88864754Y-37566932D01*
X88863374Y-37575798D01*
X88846282Y-37685567D01*
X88846282Y-37685571D01*
X88844901Y-37694440D01*
X88846065Y-37703342D01*
X88846065Y-37703345D01*
X88860468Y-37813489D01*
X88860469Y-37813493D01*
X88861633Y-37822394D01*
X88913605Y-37940510D01*
X88919380Y-37947380D01*
X88919383Y-37947385D01*
X88919948Y-37948057D01*
X88920298Y-37948855D01*
X88924126Y-37955005D01*
X88923239Y-37955557D01*
X88948472Y-38013071D01*
X88949500Y-38029135D01*
X88949500Y-44549176D01*
X88947467Y-44568275D01*
X88947240Y-44573083D01*
X88945049Y-44583261D01*
X88948627Y-44613491D01*
X88948937Y-44618746D01*
X88949072Y-44618735D01*
X88949500Y-44623914D01*
X88949500Y-44629115D01*
X88950354Y-44634243D01*
X88950354Y-44634249D01*
X88952389Y-44646473D01*
X88953226Y-44652349D01*
X88956886Y-44683268D01*
X88958764Y-44699138D01*
X88962423Y-44706758D01*
X88963812Y-44715103D01*
X88968757Y-44724267D01*
X88986192Y-44756580D01*
X88988884Y-44761865D01*
X89009274Y-44804326D01*
X89012592Y-44808274D01*
X89014525Y-44810207D01*
X89015990Y-44811804D01*
X89016254Y-44812294D01*
X89016234Y-44812313D01*
X89016313Y-44812402D01*
X89019222Y-44817794D01*
X89026870Y-44824864D01*
X89026871Y-44824865D01*
X89055636Y-44851455D01*
X89059202Y-44854884D01*
X92906453Y-48702135D01*
X92932686Y-48740483D01*
X92976699Y-48840510D01*
X92982476Y-48847383D01*
X92982477Y-48847384D01*
X93051443Y-48929429D01*
X93059733Y-48939291D01*
X93081488Y-48953772D01*
X93151418Y-49000321D01*
X93167154Y-49010796D01*
X93252756Y-49037540D01*
X93267224Y-49042060D01*
X93290327Y-49049278D01*
X93299297Y-49049442D01*
X93299301Y-49049443D01*
X93358036Y-49050519D01*
X93419349Y-49051643D01*
X93428011Y-49049281D01*
X93428014Y-49049281D01*
X93479953Y-49035121D01*
X93550936Y-49036501D01*
X93609904Y-49076038D01*
X93638137Y-49141180D01*
X93639094Y-49156684D01*
X93639094Y-52018612D01*
X93619092Y-52086733D01*
X93565436Y-52133226D01*
X93495162Y-52143330D01*
X93476992Y-52139329D01*
X93364771Y-52105768D01*
X93364772Y-52105768D01*
X93356168Y-52103195D01*
X93347193Y-52103140D01*
X93347192Y-52103140D01*
X93286478Y-52102769D01*
X93214838Y-52102332D01*
X93206206Y-52104799D01*
X93197315Y-52106017D01*
X93196892Y-52102926D01*
X93141366Y-52102518D01*
X93081923Y-52063696D01*
X93052906Y-51998900D01*
X93053498Y-51960985D01*
X93065009Y-51892564D01*
X93065158Y-51880385D01*
X93056627Y-51820815D01*
X93046395Y-51749366D01*
X93046394Y-51749363D01*
X93045122Y-51740480D01*
X93039602Y-51728338D01*
X93014986Y-51674200D01*
X92986625Y-51611822D01*
X92894368Y-51504753D01*
X92812400Y-51451624D01*
X92783304Y-51432765D01*
X92783303Y-51432764D01*
X92775770Y-51427882D01*
X92767170Y-51425310D01*
X92648964Y-51389958D01*
X92648962Y-51389958D01*
X92640363Y-51387386D01*
X92631388Y-51387331D01*
X92631387Y-51387331D01*
X92568691Y-51386948D01*
X92499033Y-51386523D01*
X92496670Y-51387198D01*
X92429710Y-51377117D01*
X92376363Y-51330269D01*
X92356814Y-51262017D01*
X92358557Y-51241948D01*
X92358640Y-51241455D01*
X92366597Y-51194161D01*
X92366746Y-51181982D01*
X92356001Y-51106950D01*
X92347983Y-51050963D01*
X92347982Y-51050960D01*
X92346710Y-51042077D01*
X92288213Y-50913419D01*
X92195956Y-50806350D01*
X92077358Y-50729479D01*
X92068758Y-50726907D01*
X91950552Y-50691555D01*
X91950550Y-50691555D01*
X91941951Y-50688983D01*
X91932978Y-50688928D01*
X91932976Y-50688928D01*
X91920057Y-50688849D01*
X91902394Y-50688742D01*
X91834398Y-50668325D01*
X91814068Y-50651839D01*
X89780336Y-48618106D01*
X87736237Y-46574007D01*
X87711749Y-46539454D01*
X87694157Y-46502818D01*
X87694155Y-46502815D01*
X87690726Y-46495674D01*
X87687408Y-46491726D01*
X86187405Y-44991723D01*
X86153379Y-44929411D01*
X86150500Y-44902628D01*
X86150500Y-40897372D01*
X86170502Y-40829251D01*
X86187405Y-40808277D01*
X86511899Y-40483783D01*
X86526858Y-40471701D01*
X86530405Y-40468473D01*
X86539152Y-40462825D01*
X86558005Y-40438910D01*
X86561498Y-40434980D01*
X86561394Y-40434892D01*
X86564753Y-40430928D01*
X86568428Y-40427253D01*
X86578656Y-40412941D01*
X86582219Y-40408195D01*
X86604947Y-40379364D01*
X86611392Y-40371189D01*
X86614193Y-40363213D01*
X86619111Y-40356331D01*
X86632619Y-40311164D01*
X86634441Y-40305558D01*
X86647428Y-40268577D01*
X86647429Y-40268571D01*
X86650055Y-40261094D01*
X86650500Y-40255956D01*
X86650500Y-40253237D01*
X86650595Y-40251055D01*
X86650755Y-40250520D01*
X86650782Y-40250521D01*
X86650789Y-40250403D01*
X86652544Y-40244536D01*
X86650597Y-40194981D01*
X86650500Y-40190034D01*
X86650500Y-38997372D01*
X86670502Y-38929251D01*
X86687405Y-38908277D01*
X87411899Y-38183783D01*
X87426853Y-38171705D01*
X87430405Y-38168473D01*
X87439152Y-38162825D01*
X87458002Y-38138914D01*
X87461499Y-38134979D01*
X87461395Y-38134891D01*
X87464750Y-38130932D01*
X87468428Y-38127254D01*
X87471447Y-38123029D01*
X87471454Y-38123021D01*
X87478672Y-38112920D01*
X87482236Y-38108173D01*
X87504946Y-38079365D01*
X87511392Y-38071189D01*
X87513781Y-38064387D01*
X87516919Y-38059398D01*
X87517727Y-38058267D01*
X87519110Y-38056332D01*
X87521558Y-38058082D01*
X87558284Y-38017954D01*
X87626923Y-37999809D01*
X87694475Y-38021655D01*
X87739493Y-38076553D01*
X87749500Y-38125763D01*
X87749500Y-41069234D01*
X87728811Y-41138413D01*
X87725543Y-41143389D01*
X87719596Y-41150122D01*
X87664754Y-41266932D01*
X87655626Y-41325558D01*
X87646282Y-41385567D01*
X87646282Y-41385571D01*
X87644901Y-41394440D01*
X87646065Y-41403342D01*
X87646065Y-41403345D01*
X87660468Y-41513489D01*
X87660469Y-41513493D01*
X87661633Y-41522394D01*
X87713605Y-41640510D01*
X87719382Y-41647383D01*
X87719383Y-41647384D01*
X87730964Y-41661161D01*
X87796639Y-41739291D01*
X87804116Y-41744268D01*
X87892960Y-41803407D01*
X87904060Y-41810796D01*
X88027233Y-41849278D01*
X88036203Y-41849442D01*
X88036207Y-41849443D01*
X88094942Y-41850519D01*
X88156255Y-41851643D01*
X88218505Y-41834672D01*
X88272092Y-41820062D01*
X88272093Y-41820062D01*
X88280755Y-41817700D01*
X88288405Y-41813003D01*
X88288407Y-41813002D01*
X88383072Y-41754878D01*
X88383075Y-41754875D01*
X88390724Y-41750179D01*
X88396750Y-41743522D01*
X88471300Y-41661161D01*
X88471303Y-41661157D01*
X88477322Y-41654507D01*
X88533588Y-41538375D01*
X88535576Y-41526562D01*
X88554190Y-41415917D01*
X88554997Y-41411120D01*
X88555133Y-41400000D01*
X88545603Y-41333452D01*
X88538112Y-41281145D01*
X88538111Y-41281142D01*
X88536839Y-41272259D01*
X88533125Y-41264090D01*
X88487145Y-41162962D01*
X88487143Y-41162959D01*
X88483428Y-41154788D01*
X88477567Y-41147986D01*
X88472732Y-41140426D01*
X88475102Y-41138910D01*
X88451734Y-41087369D01*
X88450500Y-41069777D01*
X88450500Y-37097372D01*
X88470502Y-37029251D01*
X88487405Y-37008277D01*
X89408277Y-36087405D01*
X89470589Y-36053379D01*
X89497372Y-36050500D01*
X90975378Y-36050500D01*
X91045195Y-36071612D01*
X91104060Y-36110796D01*
X91192938Y-36138564D01*
X91214891Y-36145422D01*
X91227233Y-36149278D01*
X91236203Y-36149442D01*
X91236207Y-36149443D01*
X91294942Y-36150519D01*
X91356255Y-36151643D01*
X91423451Y-36133323D01*
X91472092Y-36120062D01*
X91472093Y-36120062D01*
X91480755Y-36117700D01*
X91488405Y-36113003D01*
X91488407Y-36113002D01*
X91583072Y-36054878D01*
X91583075Y-36054875D01*
X91590724Y-36050179D01*
X91597169Y-36043059D01*
X91671300Y-35961161D01*
X91671303Y-35961157D01*
X91677322Y-35954507D01*
X91733588Y-35838375D01*
X91742336Y-35786377D01*
X91777495Y-35718187D01*
X92608277Y-34887405D01*
X92670589Y-34853379D01*
X92697372Y-34850500D01*
X93231412Y-34850500D01*
X93288614Y-34864233D01*
X93368438Y-34904905D01*
X93500000Y-34925742D01*
X93631562Y-34904905D01*
X93711386Y-34864233D01*
X93768588Y-34850500D01*
X97375378Y-34850500D01*
X97445195Y-34871612D01*
X97504060Y-34910796D01*
X97627233Y-34949278D01*
X97636203Y-34949442D01*
X97636207Y-34949443D01*
X97694942Y-34950519D01*
X97756255Y-34951643D01*
X97826877Y-34932389D01*
X97872092Y-34920062D01*
X97872093Y-34920062D01*
X97880755Y-34917700D01*
X97888405Y-34913003D01*
X97888407Y-34913002D01*
X97983072Y-34854878D01*
X97983075Y-34854875D01*
X97990724Y-34850179D01*
X97996750Y-34843522D01*
X98071300Y-34761161D01*
X98071303Y-34761157D01*
X98077322Y-34754507D01*
X98133588Y-34638375D01*
X98137565Y-34614739D01*
X98154190Y-34515917D01*
X98154997Y-34511120D01*
X98155133Y-34500000D01*
X98136839Y-34372259D01*
X98127710Y-34352181D01*
X98087145Y-34262962D01*
X98087143Y-34262959D01*
X98083428Y-34254788D01*
X98030475Y-34193333D01*
X98005051Y-34163826D01*
X98005049Y-34163824D01*
X97999193Y-34157028D01*
X97890906Y-34086841D01*
X97882311Y-34084271D01*
X97882310Y-34084270D01*
X97775874Y-34052438D01*
X97775872Y-34052438D01*
X97767273Y-34049866D01*
X97758298Y-34049811D01*
X97758297Y-34049811D01*
X97703641Y-34049477D01*
X97638231Y-34049078D01*
X97514155Y-34084539D01*
X97447978Y-34126294D01*
X97442008Y-34130061D01*
X97374772Y-34149500D01*
X93768588Y-34149500D01*
X93711385Y-34135767D01*
X93700187Y-34130061D01*
X93664318Y-34111785D01*
X93640396Y-34099596D01*
X93640395Y-34099596D01*
X93631562Y-34095095D01*
X93549330Y-34082071D01*
X93509793Y-34075809D01*
X93500000Y-34074258D01*
X93490207Y-34075809D01*
X93450670Y-34082071D01*
X93368438Y-34095095D01*
X93359605Y-34099596D01*
X93359604Y-34099596D01*
X93335682Y-34111785D01*
X93299814Y-34130061D01*
X93288615Y-34135767D01*
X93231412Y-34149500D01*
X92550824Y-34149500D01*
X92531725Y-34147467D01*
X92526917Y-34147240D01*
X92516739Y-34145049D01*
X92486509Y-34148627D01*
X92481254Y-34148937D01*
X92481265Y-34149072D01*
X92476087Y-34149500D01*
X92470885Y-34149500D01*
X92453515Y-34152391D01*
X92447645Y-34153227D01*
X92400861Y-34158764D01*
X92393241Y-34162423D01*
X92384897Y-34163812D01*
X92375733Y-34168757D01*
X92375729Y-34168758D01*
X92343417Y-34186193D01*
X92338138Y-34188883D01*
X92295674Y-34209274D01*
X92291726Y-34212592D01*
X92289793Y-34214525D01*
X92288196Y-34215990D01*
X92287706Y-34216254D01*
X92287687Y-34216234D01*
X92287598Y-34216313D01*
X92282206Y-34219222D01*
X92275136Y-34226870D01*
X92275135Y-34226871D01*
X92248545Y-34255636D01*
X92245116Y-34259202D01*
X91285130Y-35219188D01*
X91230659Y-35251242D01*
X91122792Y-35282070D01*
X91122789Y-35282071D01*
X91114155Y-35284539D01*
X91058557Y-35319619D01*
X91042008Y-35330061D01*
X90974772Y-35349500D01*
X89350824Y-35349500D01*
X89331725Y-35347467D01*
X89326917Y-35347240D01*
X89316739Y-35345049D01*
X89286509Y-35348627D01*
X89281254Y-35348937D01*
X89281265Y-35349072D01*
X89276087Y-35349500D01*
X89270885Y-35349500D01*
X89253515Y-35352391D01*
X89247645Y-35353227D01*
X89200861Y-35358764D01*
X89193241Y-35362423D01*
X89184897Y-35363812D01*
X89175732Y-35368757D01*
X89175730Y-35368758D01*
X89143441Y-35386181D01*
X89138162Y-35388872D01*
X89095674Y-35409274D01*
X89091726Y-35412592D01*
X89089787Y-35414531D01*
X89088196Y-35415990D01*
X89087706Y-35416254D01*
X89087687Y-35416234D01*
X89087598Y-35416313D01*
X89082206Y-35419222D01*
X89075136Y-35426870D01*
X89075135Y-35426871D01*
X89048545Y-35455636D01*
X89045116Y-35459202D01*
X88693190Y-35811128D01*
X88630878Y-35845154D01*
X88560063Y-35840089D01*
X88503227Y-35797542D01*
X88478416Y-35731022D01*
X88483861Y-35684354D01*
X88503392Y-35622029D01*
X88505236Y-35616146D01*
X88506081Y-35608374D01*
X88522353Y-35458587D01*
X88526715Y-35418434D01*
X88522788Y-35373544D01*
X88509918Y-35226455D01*
X88509381Y-35220316D01*
X88499555Y-35186492D01*
X88455615Y-35035251D01*
X88453897Y-35029337D01*
X88431215Y-34985578D01*
X88419833Y-34963622D01*
X88411944Y-34948402D01*
X88398352Y-34878719D01*
X88424592Y-34812749D01*
X88482332Y-34771438D01*
X88553241Y-34767902D01*
X88587663Y-34781795D01*
X88704425Y-34850435D01*
X88714008Y-34855027D01*
X88921707Y-34933717D01*
X88931926Y-34936628D01*
X89149909Y-34979197D01*
X89160480Y-34980346D01*
X89382513Y-34985578D01*
X89393135Y-34984928D01*
X89612873Y-34952676D01*
X89623224Y-34950248D01*
X89834394Y-34881431D01*
X89844185Y-34877295D01*
X90040738Y-34773884D01*
X90049706Y-34768149D01*
X90064394Y-34756898D01*
X90072857Y-34745329D01*
X90066214Y-34733322D01*
X87968171Y-32635279D01*
X87955791Y-32628519D01*
X87947211Y-32634942D01*
X87879176Y-32739110D01*
X87874134Y-32748476D01*
X87785755Y-32952218D01*
X87782360Y-32962307D01*
X87729570Y-33178036D01*
X87727925Y-33188542D01*
X87712240Y-33410078D01*
X87712389Y-33420719D01*
X87734254Y-33641730D01*
X87736194Y-33652193D01*
X87794983Y-33866356D01*
X87798660Y-33876351D01*
X87892691Y-34077544D01*
X87897995Y-34086768D01*
X87908202Y-34101481D01*
X87930597Y-34168853D01*
X87913014Y-34237638D01*
X87861033Y-34285997D01*
X87791160Y-34298576D01*
X87745136Y-34284348D01*
X87716116Y-34268788D01*
X87683837Y-34251480D01*
X87677944Y-34249678D01*
X87677941Y-34249677D01*
X87499546Y-34195135D01*
X87499543Y-34195134D01*
X87493651Y-34193333D01*
X87487521Y-34192710D01*
X87487519Y-34192710D01*
X87301922Y-34173858D01*
X87301918Y-34173858D01*
X87295794Y-34173236D01*
X87097801Y-34191952D01*
X86907215Y-34248768D01*
X86731293Y-34341521D01*
X86576738Y-34466678D01*
X86449436Y-34619470D01*
X86446489Y-34624875D01*
X86446487Y-34624878D01*
X86366580Y-34771438D01*
X86354236Y-34794079D01*
X86294764Y-34983854D01*
X86294099Y-34989977D01*
X86294098Y-34989981D01*
X86284025Y-35082710D01*
X86273286Y-35181566D01*
X86273823Y-35187704D01*
X86273823Y-35187708D01*
X86279193Y-35249078D01*
X86290620Y-35379685D01*
X86292338Y-35385600D01*
X86292339Y-35385603D01*
X86303657Y-35424561D01*
X86346103Y-35570663D01*
X86437626Y-35747228D01*
X86441466Y-35752038D01*
X86532595Y-35866195D01*
X86532602Y-35866202D01*
X86534791Y-35868945D01*
X86812595Y-36146749D01*
X86846621Y-36209061D01*
X86849500Y-36235844D01*
X86849500Y-36678253D01*
X86829498Y-36746374D01*
X86775842Y-36792867D01*
X86705568Y-36802971D01*
X86640988Y-36773477D01*
X86611635Y-36736239D01*
X86611494Y-36735966D01*
X86566323Y-36648823D01*
X86477088Y-36537039D01*
X86471355Y-36529857D01*
X86471348Y-36529850D01*
X86469159Y-36527107D01*
X86177876Y-36235824D01*
X86085843Y-36160227D01*
X86067819Y-36145422D01*
X86067818Y-36145421D01*
X86063055Y-36141509D01*
X85887786Y-36047531D01*
X85881893Y-36045729D01*
X85881890Y-36045728D01*
X85703495Y-35991186D01*
X85703492Y-35991185D01*
X85697600Y-35989384D01*
X85691470Y-35988761D01*
X85691468Y-35988761D01*
X85505871Y-35969909D01*
X85505867Y-35969909D01*
X85499743Y-35969287D01*
X85301750Y-35988003D01*
X85111164Y-36044819D01*
X84935242Y-36137572D01*
X84780687Y-36262729D01*
X84653385Y-36415521D01*
X84650438Y-36420926D01*
X84650436Y-36420929D01*
X84592546Y-36527107D01*
X84558185Y-36590130D01*
X84498713Y-36779905D01*
X84498048Y-36786028D01*
X84498047Y-36786032D01*
X84491745Y-36844044D01*
X84477235Y-36977617D01*
X84477772Y-36983755D01*
X84477772Y-36983759D01*
X84483146Y-37045182D01*
X84494569Y-37175736D01*
X84550052Y-37366714D01*
X84641575Y-37543279D01*
X84656112Y-37561489D01*
X84736544Y-37662246D01*
X84736551Y-37662253D01*
X84738740Y-37664996D01*
X85012595Y-37938851D01*
X85046621Y-38001163D01*
X85049500Y-38027946D01*
X85049500Y-38466686D01*
X85029498Y-38534807D01*
X84975842Y-38581300D01*
X84905568Y-38591404D01*
X84840988Y-38561910D01*
X84811635Y-38524671D01*
X84779449Y-38462578D01*
X84770272Y-38444874D01*
X84734127Y-38399596D01*
X84675304Y-38325908D01*
X84675297Y-38325901D01*
X84673108Y-38323158D01*
X84381825Y-38031875D01*
X84275498Y-37944537D01*
X84271768Y-37941473D01*
X84271767Y-37941472D01*
X84267004Y-37937560D01*
X84091735Y-37843582D01*
X84085842Y-37841780D01*
X84085839Y-37841779D01*
X83907444Y-37787237D01*
X83907441Y-37787236D01*
X83901549Y-37785435D01*
X83895419Y-37784812D01*
X83895417Y-37784812D01*
X83709820Y-37765960D01*
X83709816Y-37765960D01*
X83703692Y-37765338D01*
X83505699Y-37784054D01*
X83315113Y-37840870D01*
X83139191Y-37933623D01*
X82984636Y-38058780D01*
X82857334Y-38211572D01*
X82854387Y-38216977D01*
X82854385Y-38216980D01*
X82796495Y-38323158D01*
X82762134Y-38386181D01*
X82702662Y-38575956D01*
X82701997Y-38582079D01*
X82701996Y-38582083D01*
X82700938Y-38591827D01*
X82681184Y-38773668D01*
X82681721Y-38779806D01*
X82681721Y-38779810D01*
X82688539Y-38857728D01*
X82698518Y-38971787D01*
X82700236Y-38977702D01*
X82700237Y-38977705D01*
X82722061Y-39052823D01*
X82754001Y-39162765D01*
X82845524Y-39339330D01*
X82854237Y-39350245D01*
X82940493Y-39458297D01*
X82940500Y-39458304D01*
X82942689Y-39461047D01*
X83233971Y-39752329D01*
X83304842Y-39810543D01*
X83340419Y-39839766D01*
X83348792Y-39846644D01*
X83365241Y-39855464D01*
X83390939Y-39869243D01*
X83441522Y-39919061D01*
X83457398Y-39980287D01*
X83457398Y-45990526D01*
X83455365Y-46009625D01*
X83455138Y-46014433D01*
X83452947Y-46024611D01*
X83466662Y-46140488D01*
X83517172Y-46245676D01*
X83520490Y-46249624D01*
X87055699Y-49784832D01*
X88697836Y-51426969D01*
X88731862Y-51489281D01*
X88726797Y-51560096D01*
X88684250Y-51616932D01*
X88617730Y-51641743D01*
X88572638Y-51636781D01*
X88485732Y-51610790D01*
X88485730Y-51610790D01*
X88477131Y-51608218D01*
X88468156Y-51608163D01*
X88468155Y-51608163D01*
X88407441Y-51607792D01*
X88335801Y-51607355D01*
X88199910Y-51646193D01*
X88192323Y-51650980D01*
X88192321Y-51650981D01*
X88175442Y-51661631D01*
X88080381Y-51721610D01*
X87986824Y-51827543D01*
X87983010Y-51835666D01*
X87983009Y-51835668D01*
X87964276Y-51875569D01*
X87926759Y-51955477D01*
X87925379Y-51964341D01*
X87925378Y-51964344D01*
X87909710Y-52064972D01*
X87879465Y-52129205D01*
X87874305Y-52134682D01*
X87088101Y-52920886D01*
X87073147Y-52932964D01*
X87069595Y-52936196D01*
X87060848Y-52941844D01*
X87054402Y-52950021D01*
X87041998Y-52965755D01*
X87038501Y-52969690D01*
X87038605Y-52969778D01*
X87035250Y-52973737D01*
X87031572Y-52977415D01*
X87028553Y-52981640D01*
X87028546Y-52981648D01*
X87021328Y-52991749D01*
X87017764Y-52996496D01*
X86988608Y-53033480D01*
X86985807Y-53041456D01*
X86980889Y-53048338D01*
X86967381Y-53093505D01*
X86965559Y-53099111D01*
X86952572Y-53136092D01*
X86952571Y-53136098D01*
X86949945Y-53143575D01*
X86949500Y-53148713D01*
X86949500Y-53151432D01*
X86949405Y-53153614D01*
X86949245Y-53154149D01*
X86949218Y-53154148D01*
X86949211Y-53154266D01*
X86947456Y-53160133D01*
X86947865Y-53170541D01*
X86949403Y-53209688D01*
X86949500Y-53214635D01*
X86949500Y-54749176D01*
X86947467Y-54768275D01*
X86947240Y-54773083D01*
X86945049Y-54783261D01*
X86947626Y-54805033D01*
X86948627Y-54813491D01*
X86948937Y-54818746D01*
X86949072Y-54818735D01*
X86949500Y-54823914D01*
X86949500Y-54829115D01*
X86950354Y-54834243D01*
X86950354Y-54834249D01*
X86952389Y-54846473D01*
X86953226Y-54852349D01*
X86956892Y-54883318D01*
X86958764Y-54899138D01*
X86962423Y-54906758D01*
X86963812Y-54915103D01*
X86985241Y-54954818D01*
X86986192Y-54956580D01*
X86988884Y-54961865D01*
X87009274Y-55004326D01*
X87012592Y-55008274D01*
X87014525Y-55010207D01*
X87015990Y-55011804D01*
X87016254Y-55012294D01*
X87016234Y-55012313D01*
X87016313Y-55012402D01*
X87019222Y-55017794D01*
X87026870Y-55024864D01*
X87026871Y-55024865D01*
X87055636Y-55051455D01*
X87059202Y-55054884D01*
X92791294Y-60786975D01*
X98516215Y-66511896D01*
X98528297Y-66526855D01*
X98531527Y-66530404D01*
X98537175Y-66539152D01*
X98545352Y-66545598D01*
X98561090Y-66558005D01*
X98565020Y-66561498D01*
X98565108Y-66561394D01*
X98569072Y-66564753D01*
X98572747Y-66568428D01*
X98576972Y-66571448D01*
X98576974Y-66571449D01*
X98587059Y-66578656D01*
X98591805Y-66582219D01*
X98594274Y-66584165D01*
X98628811Y-66611392D01*
X98636787Y-66614193D01*
X98643669Y-66619111D01*
X98688836Y-66632619D01*
X98694442Y-66634441D01*
X98731423Y-66647428D01*
X98731429Y-66647429D01*
X98738906Y-66650055D01*
X98744044Y-66650500D01*
X98746763Y-66650500D01*
X98748945Y-66650595D01*
X98749480Y-66650755D01*
X98749479Y-66650782D01*
X98749597Y-66650789D01*
X98755464Y-66652544D01*
X98805019Y-66650597D01*
X98809966Y-66650500D01*
X106849176Y-66650500D01*
X106868275Y-66652533D01*
X106873083Y-66652760D01*
X106883261Y-66654951D01*
X106913491Y-66651373D01*
X106918746Y-66651063D01*
X106918735Y-66650928D01*
X106923914Y-66650500D01*
X106929115Y-66650500D01*
X106934243Y-66649646D01*
X106934249Y-66649646D01*
X106946473Y-66647611D01*
X106952349Y-66646774D01*
X106988799Y-66642460D01*
X106988801Y-66642460D01*
X106999138Y-66641236D01*
X107006758Y-66637577D01*
X107015103Y-66636188D01*
X107056584Y-66613806D01*
X107061870Y-66611113D01*
X107104326Y-66590726D01*
X107108274Y-66587408D01*
X107110207Y-66585475D01*
X107111804Y-66584010D01*
X107112294Y-66583746D01*
X107112313Y-66583766D01*
X107112402Y-66583687D01*
X107117794Y-66580778D01*
X107129211Y-66568428D01*
X107151455Y-66544364D01*
X107154884Y-66540798D01*
X111246908Y-62448774D01*
X111309220Y-62414748D01*
X111374937Y-62418036D01*
X111491378Y-62455870D01*
X111681435Y-62478533D01*
X111687570Y-62478061D01*
X111687572Y-62478061D01*
X111752536Y-62473062D01*
X111872275Y-62463849D01*
X112056627Y-62412376D01*
X112062129Y-62409597D01*
X112062131Y-62409596D01*
X112221970Y-62328856D01*
X112221972Y-62328855D01*
X112227471Y-62326077D01*
X112378299Y-62208237D01*
X112382325Y-62203573D01*
X112499337Y-62068014D01*
X112499338Y-62068012D01*
X112503366Y-62063346D01*
X112597908Y-61896922D01*
X112637502Y-61777896D01*
X112656379Y-61721151D01*
X112656380Y-61721148D01*
X112658324Y-61715303D01*
X112682314Y-61525409D01*
X112682696Y-61498026D01*
X112664018Y-61307536D01*
X112662237Y-61301637D01*
X112662236Y-61301632D01*
X112625529Y-61180053D01*
X112608697Y-61124302D01*
X112583532Y-61076974D01*
X112521732Y-60960745D01*
X112521730Y-60960742D01*
X112518838Y-60955303D01*
X112450757Y-60871827D01*
X112401760Y-60811750D01*
X112401758Y-60811748D01*
X112397866Y-60806976D01*
X112312703Y-60736523D01*
X112255137Y-60688900D01*
X112255134Y-60688898D01*
X112250387Y-60684971D01*
X112082019Y-60593935D01*
X111899176Y-60537335D01*
X111893055Y-60536692D01*
X111893052Y-60536691D01*
X111714949Y-60517972D01*
X111714948Y-60517972D01*
X111708821Y-60517328D01*
X111628869Y-60524604D01*
X111524344Y-60534116D01*
X111524341Y-60534117D01*
X111518205Y-60534675D01*
X111334589Y-60588716D01*
X111329124Y-60591573D01*
X111312270Y-60600384D01*
X111164967Y-60677393D01*
X111160166Y-60681253D01*
X111160163Y-60681255D01*
X111094173Y-60734313D01*
X111015799Y-60797327D01*
X111011840Y-60802045D01*
X111011839Y-60802046D01*
X110922402Y-60908632D01*
X110892767Y-60943950D01*
X110800558Y-61111679D01*
X110798697Y-61117546D01*
X110798696Y-61117548D01*
X110789377Y-61146925D01*
X110742683Y-61294122D01*
X110721348Y-61484333D01*
X110721864Y-61490477D01*
X110731649Y-61607001D01*
X110737364Y-61675065D01*
X110781953Y-61830565D01*
X110781502Y-61901559D01*
X110749929Y-61954389D01*
X109302950Y-63401368D01*
X109240638Y-63435394D01*
X109169823Y-63430329D01*
X109112987Y-63387782D01*
X109099154Y-63364424D01*
X109061799Y-63282266D01*
X109050500Y-63230115D01*
X109050500Y-60884276D01*
X109052533Y-60865177D01*
X109052760Y-60860369D01*
X109054951Y-60850191D01*
X109051373Y-60819961D01*
X109051063Y-60814706D01*
X109050928Y-60814717D01*
X109050500Y-60809539D01*
X109050500Y-60804337D01*
X109047609Y-60786967D01*
X109046773Y-60781096D01*
X109042460Y-60744652D01*
X109042459Y-60744650D01*
X109041236Y-60734313D01*
X109037577Y-60726692D01*
X109036188Y-60718349D01*
X109031243Y-60709184D01*
X109013813Y-60676880D01*
X109011118Y-60671590D01*
X108994159Y-60636272D01*
X108994155Y-60636265D01*
X108990726Y-60629125D01*
X108987408Y-60625178D01*
X108985473Y-60623243D01*
X108984010Y-60621648D01*
X108983746Y-60621158D01*
X108983766Y-60621139D01*
X108983687Y-60621050D01*
X108980778Y-60615658D01*
X108970018Y-60605711D01*
X108944364Y-60581997D01*
X108940798Y-60578568D01*
X106554210Y-58191980D01*
X106520184Y-58129668D01*
X106525249Y-58058853D01*
X106567796Y-58002017D01*
X106586102Y-57990618D01*
X106667913Y-57948933D01*
X106667912Y-57948933D01*
X106676745Y-57944433D01*
X106770933Y-57850245D01*
X106831405Y-57731562D01*
X106852242Y-57600000D01*
X106831405Y-57468438D01*
X106790733Y-57388614D01*
X106777000Y-57331412D01*
X106777000Y-56769868D01*
X106797002Y-56701747D01*
X106813905Y-56680773D01*
X106844433Y-56650245D01*
X106904905Y-56531562D01*
X106925742Y-56400000D01*
X106904905Y-56268438D01*
X106883535Y-56226496D01*
X106862440Y-56185095D01*
X106844433Y-56149755D01*
X106750245Y-56055567D01*
X106631562Y-55995095D01*
X106500000Y-55974258D01*
X106368438Y-55995095D01*
X106359605Y-55999596D01*
X106359601Y-55999597D01*
X106333702Y-56012793D01*
X106263925Y-56025897D01*
X106198141Y-55999196D01*
X106157235Y-55941168D01*
X106150500Y-55900526D01*
X106150500Y-52254298D01*
X106170502Y-52186177D01*
X106187405Y-52165203D01*
X106538653Y-51813955D01*
X106553607Y-51801877D01*
X106557159Y-51798645D01*
X106565906Y-51792997D01*
X106584756Y-51769086D01*
X106588254Y-51765150D01*
X106588150Y-51765062D01*
X106591505Y-51761103D01*
X106595183Y-51757425D01*
X106598202Y-51753200D01*
X106598209Y-51753192D01*
X106605423Y-51743096D01*
X106608989Y-51738346D01*
X106624550Y-51718607D01*
X106682431Y-51677494D01*
X106753351Y-51674200D01*
X106814794Y-51709772D01*
X106847251Y-51772915D01*
X106849500Y-51796613D01*
X106849500Y-54482628D01*
X106847467Y-54501727D01*
X106847240Y-54506535D01*
X106845049Y-54516713D01*
X106846273Y-54527052D01*
X106848627Y-54546943D01*
X106848937Y-54552198D01*
X106849072Y-54552187D01*
X106849500Y-54557366D01*
X106849500Y-54562567D01*
X106850354Y-54567695D01*
X106850354Y-54567701D01*
X106852389Y-54579925D01*
X106853226Y-54585801D01*
X106856651Y-54614735D01*
X106858764Y-54632590D01*
X106862423Y-54640210D01*
X106863812Y-54648555D01*
X106880645Y-54679751D01*
X106886192Y-54690032D01*
X106888884Y-54695317D01*
X106909274Y-54737778D01*
X106912592Y-54741726D01*
X106914525Y-54743659D01*
X106915990Y-54745256D01*
X106916254Y-54745746D01*
X106916234Y-54745765D01*
X106916313Y-54745854D01*
X106919222Y-54751246D01*
X106926870Y-54758316D01*
X106926871Y-54758317D01*
X106955624Y-54784896D01*
X106959190Y-54788324D01*
X107254441Y-55083574D01*
X107521556Y-55350689D01*
X107555581Y-55413002D01*
X107557394Y-55423424D01*
X107561633Y-55455846D01*
X107613605Y-55573962D01*
X107619382Y-55580835D01*
X107619383Y-55580836D01*
X107648933Y-55615990D01*
X107696639Y-55672743D01*
X107804060Y-55744248D01*
X107927233Y-55782730D01*
X107936203Y-55782894D01*
X107936207Y-55782895D01*
X107994942Y-55783971D01*
X108056255Y-55785095D01*
X108118505Y-55768123D01*
X108172092Y-55753514D01*
X108172093Y-55753514D01*
X108180755Y-55751152D01*
X108188405Y-55746455D01*
X108188407Y-55746454D01*
X108283072Y-55688330D01*
X108283075Y-55688327D01*
X108290724Y-55683631D01*
X108296750Y-55676974D01*
X108371300Y-55594613D01*
X108371303Y-55594609D01*
X108377322Y-55587959D01*
X108433588Y-55471827D01*
X108441094Y-55427215D01*
X108454190Y-55349369D01*
X108454997Y-55344572D01*
X108455133Y-55333452D01*
X108450385Y-55300298D01*
X108460528Y-55230030D01*
X108507050Y-55176400D01*
X108575182Y-55156436D01*
X108643292Y-55176476D01*
X108664207Y-55193341D01*
X109221556Y-55750690D01*
X109255582Y-55813002D01*
X109257393Y-55823423D01*
X109261633Y-55855846D01*
X109313605Y-55973962D01*
X109319382Y-55980835D01*
X109319383Y-55980836D01*
X109335153Y-55999597D01*
X109396639Y-56072743D01*
X109443575Y-56103986D01*
X109496585Y-56139272D01*
X109504060Y-56144248D01*
X109627233Y-56182730D01*
X109636203Y-56182894D01*
X109636207Y-56182895D01*
X109694942Y-56183971D01*
X109756255Y-56185095D01*
X109853484Y-56158587D01*
X109872092Y-56153514D01*
X109872093Y-56153514D01*
X109880755Y-56151152D01*
X109957574Y-56103985D01*
X110026089Y-56085388D01*
X110093784Y-56106785D01*
X110139165Y-56161384D01*
X110149500Y-56211361D01*
X110149500Y-57702686D01*
X110128811Y-57771865D01*
X110125543Y-57776841D01*
X110119596Y-57783574D01*
X110064754Y-57900384D01*
X110063374Y-57909250D01*
X110046282Y-58019019D01*
X110046282Y-58019023D01*
X110044901Y-58027892D01*
X110046065Y-58036794D01*
X110046065Y-58036797D01*
X110060468Y-58146941D01*
X110060469Y-58146945D01*
X110061633Y-58155846D01*
X110113605Y-58273962D01*
X110119382Y-58280835D01*
X110119383Y-58280836D01*
X110141435Y-58307070D01*
X110196639Y-58372743D01*
X110304060Y-58444248D01*
X110427233Y-58482730D01*
X110436203Y-58482894D01*
X110436207Y-58482895D01*
X110494942Y-58483971D01*
X110556255Y-58485095D01*
X110618505Y-58468124D01*
X110672092Y-58453514D01*
X110672093Y-58453514D01*
X110680755Y-58451152D01*
X110688405Y-58446455D01*
X110688407Y-58446454D01*
X110783072Y-58388330D01*
X110783075Y-58388327D01*
X110790724Y-58383631D01*
X110796750Y-58376974D01*
X110871300Y-58294613D01*
X110871303Y-58294609D01*
X110877322Y-58287959D01*
X110933588Y-58171827D01*
X110935313Y-58161577D01*
X110954190Y-58049369D01*
X110954997Y-58044572D01*
X110955133Y-58033452D01*
X110943029Y-57948933D01*
X110938112Y-57914597D01*
X110938111Y-57914594D01*
X110936839Y-57905711D01*
X110918767Y-57865963D01*
X110887145Y-57796414D01*
X110887143Y-57796411D01*
X110883428Y-57788240D01*
X110877567Y-57781438D01*
X110872732Y-57773878D01*
X110875102Y-57772362D01*
X110851734Y-57720821D01*
X110850500Y-57703229D01*
X110850500Y-55044288D01*
X116709477Y-55044288D01*
X116709608Y-55046122D01*
X116713857Y-55052734D01*
X117088312Y-55427189D01*
X117093135Y-55431538D01*
X117167765Y-55492137D01*
X117179276Y-55499559D01*
X117324677Y-55572213D01*
X117338351Y-55577163D01*
X117496150Y-55614318D01*
X117510595Y-55615990D01*
X117672711Y-55615849D01*
X117687147Y-55614153D01*
X117844884Y-55576720D01*
X117858548Y-55571747D01*
X118003832Y-55498836D01*
X118015317Y-55491405D01*
X118088872Y-55431523D01*
X118093643Y-55427215D01*
X119101286Y-54419572D01*
X119108900Y-54405628D01*
X119108769Y-54403795D01*
X119104518Y-54397180D01*
X118240198Y-53532860D01*
X118226254Y-53525246D01*
X118224421Y-53525377D01*
X118217806Y-53529628D01*
X116717091Y-55030344D01*
X116709477Y-55044288D01*
X110850500Y-55044288D01*
X110850500Y-54347830D01*
X111964839Y-54347830D01*
X111966003Y-54356732D01*
X111966003Y-54356735D01*
X111980406Y-54466879D01*
X111980407Y-54466883D01*
X111981571Y-54475784D01*
X112033543Y-54593900D01*
X112039320Y-54600773D01*
X112039321Y-54600774D01*
X112073058Y-54640909D01*
X112116577Y-54692681D01*
X112124054Y-54697658D01*
X112195129Y-54744969D01*
X112223998Y-54764186D01*
X112347171Y-54802668D01*
X112356141Y-54802832D01*
X112356145Y-54802833D01*
X112414880Y-54803909D01*
X112476193Y-54805033D01*
X112556051Y-54783261D01*
X112592030Y-54773452D01*
X112592031Y-54773452D01*
X112600693Y-54771090D01*
X112608343Y-54766393D01*
X112608345Y-54766392D01*
X112703010Y-54708268D01*
X112703013Y-54708265D01*
X112710662Y-54703569D01*
X112716944Y-54696629D01*
X112791238Y-54614551D01*
X112791241Y-54614547D01*
X112797260Y-54607897D01*
X112853526Y-54491765D01*
X112862274Y-54439767D01*
X112897433Y-54371577D01*
X113552171Y-53716839D01*
X115772234Y-53716839D01*
X115772375Y-53878955D01*
X115774071Y-53893391D01*
X115811504Y-54051129D01*
X115816477Y-54064793D01*
X115889389Y-54210079D01*
X115896818Y-54221562D01*
X115956698Y-54295112D01*
X115961008Y-54299886D01*
X116332260Y-54671137D01*
X116346198Y-54678748D01*
X116348034Y-54678616D01*
X116354646Y-54674367D01*
X117855366Y-53173648D01*
X117861743Y-53161969D01*
X118591794Y-53161969D01*
X118591925Y-53163804D01*
X118596176Y-53170418D01*
X119460496Y-54034738D01*
X119474440Y-54042352D01*
X119476273Y-54042221D01*
X119482888Y-54037970D01*
X120493737Y-53027120D01*
X120498086Y-53022297D01*
X120558685Y-52947667D01*
X120566107Y-52936156D01*
X120638761Y-52790755D01*
X120643711Y-52777081D01*
X120680866Y-52619282D01*
X120682538Y-52604837D01*
X120682397Y-52442721D01*
X120680701Y-52428285D01*
X120643268Y-52270547D01*
X120638295Y-52256883D01*
X120565383Y-52111597D01*
X120557954Y-52100114D01*
X120498074Y-52026564D01*
X120493764Y-52021790D01*
X120122512Y-51650539D01*
X120108574Y-51642928D01*
X120106738Y-51643060D01*
X120100126Y-51647309D01*
X118599406Y-53148028D01*
X118591794Y-53161969D01*
X117861743Y-53161969D01*
X117862978Y-53159707D01*
X117862847Y-53157872D01*
X117858596Y-53151258D01*
X116994276Y-52286938D01*
X116980332Y-52279324D01*
X116978499Y-52279455D01*
X116971884Y-52283706D01*
X115961035Y-53294556D01*
X115956686Y-53299379D01*
X115896087Y-53374009D01*
X115888665Y-53385520D01*
X115816011Y-53530921D01*
X115811061Y-53544595D01*
X115773906Y-53702394D01*
X115772234Y-53716839D01*
X113552171Y-53716839D01*
X115352962Y-51916048D01*
X117345872Y-51916048D01*
X117346003Y-51917881D01*
X117350254Y-51924496D01*
X118214574Y-52788816D01*
X118228518Y-52796430D01*
X118230351Y-52796299D01*
X118236966Y-52792048D01*
X119737681Y-51291332D01*
X119745295Y-51277388D01*
X119745164Y-51275554D01*
X119740915Y-51268942D01*
X119366460Y-50894487D01*
X119361637Y-50890138D01*
X119287007Y-50829539D01*
X119275496Y-50822117D01*
X119130095Y-50749463D01*
X119116421Y-50744513D01*
X118958622Y-50707358D01*
X118944177Y-50705686D01*
X118782061Y-50705827D01*
X118767625Y-50707523D01*
X118609888Y-50744956D01*
X118596224Y-50749929D01*
X118450940Y-50822840D01*
X118439455Y-50830271D01*
X118365900Y-50890153D01*
X118361129Y-50894461D01*
X117353486Y-51902104D01*
X117345872Y-51916048D01*
X115352962Y-51916048D01*
X115911899Y-51357111D01*
X115926853Y-51345033D01*
X115930405Y-51341801D01*
X115939152Y-51336153D01*
X115958002Y-51312242D01*
X115961499Y-51308307D01*
X115961395Y-51308219D01*
X115964750Y-51304260D01*
X115968428Y-51300582D01*
X115971447Y-51296357D01*
X115971454Y-51296349D01*
X115978672Y-51286248D01*
X115982236Y-51281501D01*
X116004946Y-51252693D01*
X116011392Y-51244517D01*
X116014193Y-51236541D01*
X116019111Y-51229659D01*
X116032611Y-51184519D01*
X116034446Y-51178871D01*
X116047428Y-51141905D01*
X116047429Y-51141899D01*
X116050055Y-51134422D01*
X116050500Y-51129284D01*
X116050500Y-51126579D01*
X116050595Y-51124383D01*
X116050755Y-51123848D01*
X116050782Y-51123849D01*
X116050789Y-51123733D01*
X116052544Y-51117865D01*
X116050597Y-51068309D01*
X116050500Y-51063362D01*
X116050500Y-48107423D01*
X116070502Y-48039302D01*
X116087404Y-48018328D01*
X116584826Y-47520905D01*
X116588325Y-47517406D01*
X116644139Y-47440586D01*
X116657636Y-47399047D01*
X116680277Y-47329364D01*
X116680277Y-47329362D01*
X116683342Y-47319930D01*
X116683342Y-47193064D01*
X116644139Y-47072407D01*
X116631671Y-47055247D01*
X116591232Y-46999587D01*
X116591229Y-46999583D01*
X116588326Y-46995588D01*
X115483091Y-45890354D01*
X115464303Y-45876703D01*
X115414298Y-45840371D01*
X115414296Y-45840370D01*
X115406272Y-45834540D01*
X115396464Y-45831353D01*
X115295051Y-45798403D01*
X115295052Y-45798403D01*
X115285615Y-45795337D01*
X115158749Y-45795337D01*
X115149317Y-45798402D01*
X115149315Y-45798402D01*
X115047529Y-45831474D01*
X115038093Y-45834540D01*
X114961273Y-45890353D01*
X114209593Y-46642034D01*
X114153779Y-46718854D01*
X114150714Y-46728287D01*
X114124692Y-46808377D01*
X114114576Y-46839510D01*
X114114576Y-46966376D01*
X114125419Y-46999748D01*
X114127447Y-47070713D01*
X114090784Y-47131511D01*
X114027072Y-47162837D01*
X113956538Y-47154744D01*
X113949266Y-47151395D01*
X113862143Y-47107862D01*
X113848476Y-47102914D01*
X113690677Y-47065759D01*
X113676232Y-47064087D01*
X113514116Y-47064228D01*
X113499680Y-47065924D01*
X113341943Y-47103357D01*
X113328279Y-47108330D01*
X113182995Y-47181241D01*
X113171510Y-47188672D01*
X113097955Y-47248554D01*
X113093184Y-47252862D01*
X112898714Y-47447332D01*
X112891100Y-47461276D01*
X112891231Y-47463109D01*
X112895482Y-47469724D01*
X115005724Y-49579966D01*
X115019668Y-49587580D01*
X115021501Y-49587449D01*
X115028115Y-49583199D01*
X115134404Y-49476909D01*
X115196716Y-49442884D01*
X115267532Y-49447948D01*
X115324368Y-49490495D01*
X115349179Y-49557015D01*
X115349500Y-49566004D01*
X115349500Y-50875956D01*
X115329498Y-50944077D01*
X115312595Y-50965051D01*
X112405068Y-53872578D01*
X112350597Y-53904632D01*
X112242726Y-53935461D01*
X112242722Y-53935463D01*
X112234093Y-53937929D01*
X112124957Y-54006789D01*
X112119014Y-54013518D01*
X112119013Y-54013519D01*
X112051289Y-54090202D01*
X112039534Y-54103512D01*
X111984692Y-54220322D01*
X111981180Y-54242879D01*
X111966220Y-54338957D01*
X111966220Y-54338961D01*
X111964839Y-54347830D01*
X110850500Y-54347830D01*
X110850500Y-51661631D01*
X110852533Y-51642532D01*
X110852760Y-51637724D01*
X110854951Y-51627546D01*
X110851373Y-51597316D01*
X110851063Y-51592061D01*
X110850928Y-51592072D01*
X110850500Y-51586894D01*
X110850500Y-51581692D01*
X110847609Y-51564322D01*
X110846773Y-51558451D01*
X110845942Y-51551430D01*
X110841236Y-51511668D01*
X110837577Y-51504048D01*
X110836188Y-51495704D01*
X110826746Y-51478204D01*
X110813819Y-51454248D01*
X110811122Y-51448957D01*
X110810354Y-51447356D01*
X110790726Y-51406481D01*
X110787408Y-51402533D01*
X110785469Y-51400594D01*
X110784010Y-51399003D01*
X110783746Y-51398513D01*
X110783766Y-51398494D01*
X110783687Y-51398405D01*
X110780778Y-51393013D01*
X110744364Y-51359352D01*
X110740798Y-51355923D01*
X109169707Y-49784832D01*
X109135681Y-49722520D01*
X109140746Y-49651705D01*
X109183293Y-49594869D01*
X109249813Y-49570058D01*
X109258681Y-49569737D01*
X109288980Y-49569711D01*
X109298830Y-49566329D01*
X109390092Y-49534994D01*
X109390094Y-49534993D01*
X109399341Y-49531818D01*
X109407177Y-49525977D01*
X109407181Y-49525975D01*
X109451026Y-49493293D01*
X109454682Y-49490568D01*
X109674482Y-49270768D01*
X109736794Y-49236742D01*
X109763577Y-49233863D01*
X110923500Y-49233863D01*
X110991621Y-49253865D01*
X111038114Y-49307521D01*
X111049500Y-49359863D01*
X111049500Y-49535319D01*
X111047467Y-49554418D01*
X111047240Y-49559226D01*
X111045049Y-49569404D01*
X111046273Y-49579743D01*
X111048627Y-49599634D01*
X111048937Y-49604889D01*
X111049072Y-49604878D01*
X111049500Y-49610057D01*
X111049500Y-49615258D01*
X111050354Y-49620386D01*
X111050354Y-49620392D01*
X111052389Y-49632616D01*
X111053226Y-49638492D01*
X111058764Y-49685281D01*
X111062423Y-49692901D01*
X111063812Y-49701246D01*
X111063814Y-49701258D01*
X111063691Y-49701278D01*
X111063210Y-49767241D01*
X111031671Y-49819956D01*
X110956902Y-49894725D01*
X110953999Y-49898720D01*
X110953996Y-49898724D01*
X110946011Y-49909715D01*
X110901088Y-49971545D01*
X110898023Y-49980978D01*
X110865745Y-50080322D01*
X110861885Y-50092201D01*
X110861885Y-50219067D01*
X110901088Y-50339724D01*
X110906915Y-50347744D01*
X110953995Y-50412544D01*
X110953998Y-50412548D01*
X110956901Y-50416543D01*
X112062136Y-51521777D01*
X112066143Y-51524689D01*
X112066145Y-51524690D01*
X112130929Y-51571760D01*
X112130931Y-51571761D01*
X112138955Y-51577591D01*
X112148390Y-51580657D01*
X112148391Y-51580657D01*
X112176962Y-51589940D01*
X112259612Y-51616794D01*
X112386478Y-51616794D01*
X112395910Y-51613729D01*
X112395912Y-51613729D01*
X112497701Y-51580656D01*
X112507134Y-51577591D01*
X112583954Y-51521778D01*
X113335634Y-50770097D01*
X113391448Y-50693277D01*
X113400022Y-50666889D01*
X113427586Y-50582055D01*
X113427586Y-50582053D01*
X113430651Y-50572621D01*
X113430651Y-50445755D01*
X113419808Y-50412383D01*
X113417780Y-50341418D01*
X113454443Y-50280620D01*
X113518155Y-50249294D01*
X113588689Y-50257387D01*
X113595961Y-50260737D01*
X113683078Y-50304268D01*
X113696752Y-50309218D01*
X113854551Y-50346373D01*
X113868996Y-50348045D01*
X114031112Y-50347904D01*
X114045548Y-50346208D01*
X114203285Y-50308775D01*
X114216949Y-50303802D01*
X114362233Y-50230891D01*
X114373718Y-50223460D01*
X114447273Y-50163578D01*
X114452044Y-50159270D01*
X114646514Y-49964800D01*
X114654128Y-49950856D01*
X114653997Y-49949023D01*
X114649746Y-49942408D01*
X112539504Y-47832166D01*
X112525560Y-47824552D01*
X112523727Y-47824683D01*
X112517113Y-47828933D01*
X112319433Y-48026614D01*
X112315085Y-48031437D01*
X112254488Y-48106064D01*
X112247066Y-48117575D01*
X112174412Y-48262976D01*
X112169462Y-48276650D01*
X112132307Y-48434449D01*
X112130635Y-48448894D01*
X112130776Y-48611010D01*
X112132472Y-48625446D01*
X112169905Y-48783184D01*
X112174878Y-48796848D01*
X112217880Y-48882533D01*
X112230558Y-48952388D01*
X112203457Y-49018008D01*
X112145180Y-49058560D01*
X112074232Y-49061167D01*
X112066341Y-49058886D01*
X112032924Y-49048028D01*
X111906058Y-49048028D01*
X111896626Y-49051093D01*
X111896213Y-49051158D01*
X111825801Y-49042060D01*
X111771487Y-48996339D01*
X111750500Y-48926710D01*
X111750500Y-48863971D01*
X111771911Y-48793937D01*
X111777322Y-48787959D01*
X111833588Y-48671827D01*
X111854997Y-48544572D01*
X111855133Y-48533452D01*
X111847748Y-48481885D01*
X111838112Y-48414597D01*
X111838111Y-48414594D01*
X111836839Y-48405711D01*
X111819815Y-48368268D01*
X111787145Y-48296414D01*
X111787143Y-48296411D01*
X111783428Y-48288240D01*
X111742253Y-48240454D01*
X111705051Y-48197278D01*
X111705049Y-48197276D01*
X111699193Y-48190480D01*
X111590906Y-48120293D01*
X111582311Y-48117723D01*
X111582310Y-48117722D01*
X111475874Y-48085890D01*
X111475872Y-48085890D01*
X111467273Y-48083318D01*
X111458298Y-48083263D01*
X111458297Y-48083263D01*
X111338231Y-48082530D01*
X111338245Y-48080178D01*
X111280682Y-48071512D01*
X111227335Y-48024664D01*
X111207785Y-47956413D01*
X111228237Y-47888426D01*
X111244687Y-47868152D01*
X114280675Y-44832164D01*
X114286861Y-44827417D01*
X114295812Y-44818466D01*
X114310174Y-44810174D01*
X114318466Y-44795812D01*
X114318467Y-44795811D01*
X114342205Y-44754695D01*
X114342205Y-44754694D01*
X114350500Y-44740327D01*
X114350500Y-44659673D01*
X114341492Y-44644070D01*
X114320430Y-44607591D01*
X114320423Y-44607581D01*
X114318627Y-44604470D01*
X114310173Y-44589827D01*
X114295810Y-44581534D01*
X114286856Y-44572580D01*
X114280680Y-44567841D01*
X111223882Y-41511043D01*
X114801666Y-41511043D01*
X114806386Y-41517349D01*
X114905005Y-41571118D01*
X114916288Y-41575907D01*
X115093161Y-41631335D01*
X115105172Y-41633845D01*
X115289440Y-41653863D01*
X115301708Y-41653992D01*
X115486352Y-41637836D01*
X115498411Y-41635580D01*
X115676405Y-41583868D01*
X115687792Y-41579314D01*
X115852359Y-41494010D01*
X115862635Y-41487337D01*
X115976073Y-41396781D01*
X115981300Y-41392107D01*
X116109366Y-41264041D01*
X116116977Y-41250103D01*
X116116846Y-41248267D01*
X116112595Y-41241653D01*
X115601828Y-40730886D01*
X115587884Y-40723272D01*
X115586051Y-40723403D01*
X115579436Y-40727654D01*
X114808423Y-41498668D01*
X114801666Y-41511043D01*
X111223882Y-41511043D01*
X110098997Y-40386158D01*
X112504865Y-40386158D01*
X112504996Y-40387991D01*
X112509246Y-40394605D01*
X112563789Y-40449147D01*
X112568855Y-40453692D01*
X112608735Y-40485758D01*
X112622085Y-40493980D01*
X112739190Y-40547224D01*
X112756245Y-40552211D01*
X112882515Y-40570294D01*
X112900293Y-40570294D01*
X113026563Y-40552211D01*
X113043618Y-40547224D01*
X113160724Y-40493979D01*
X113174071Y-40485760D01*
X113213949Y-40453697D01*
X113219026Y-40449142D01*
X113443570Y-40224598D01*
X113451184Y-40210654D01*
X113451053Y-40208819D01*
X113446805Y-40202209D01*
X113077456Y-39832859D01*
X113063513Y-39825246D01*
X113061679Y-39825377D01*
X113055065Y-39829628D01*
X112512479Y-40372214D01*
X112504865Y-40386158D01*
X110098997Y-40386158D01*
X108658263Y-38945424D01*
X108624237Y-38883112D01*
X108629302Y-38812297D01*
X108671849Y-38755461D01*
X108738369Y-38730650D01*
X108784930Y-38736062D01*
X108827233Y-38749278D01*
X108947318Y-38751479D01*
X109015060Y-38772726D01*
X109034103Y-38788363D01*
X109296642Y-39050902D01*
X109312312Y-39069995D01*
X109312505Y-39070284D01*
X109312507Y-39070286D01*
X109319399Y-39080601D01*
X109329715Y-39087494D01*
X109339802Y-39094234D01*
X109364395Y-39110666D01*
X109402259Y-39135966D01*
X109414428Y-39138387D01*
X109414429Y-39138387D01*
X109466578Y-39148760D01*
X109483526Y-39152131D01*
X109487829Y-39152987D01*
X109500000Y-39155408D01*
X109512171Y-39152987D01*
X109512172Y-39152987D01*
X109512504Y-39152921D01*
X109537085Y-39150500D01*
X110123575Y-39150500D01*
X110148156Y-39152921D01*
X110148488Y-39152987D01*
X110148489Y-39152987D01*
X110160660Y-39155408D01*
X110172831Y-39152987D01*
X110177135Y-39152131D01*
X110258401Y-39135966D01*
X110268721Y-39129070D01*
X110275894Y-39126099D01*
X110346483Y-39118509D01*
X110409971Y-39150287D01*
X110446199Y-39211344D01*
X110449050Y-39226169D01*
X110461633Y-39322394D01*
X110471604Y-39345054D01*
X110508420Y-39428725D01*
X110513605Y-39440510D01*
X110519382Y-39447383D01*
X110519383Y-39447384D01*
X110587983Y-39528994D01*
X110596639Y-39539291D01*
X110704060Y-39610796D01*
X110760071Y-39628295D01*
X110809360Y-39643694D01*
X110827233Y-39649278D01*
X110836203Y-39649442D01*
X110836207Y-39649443D01*
X110894942Y-39650519D01*
X110956255Y-39651643D01*
X111019409Y-39634425D01*
X111072092Y-39620062D01*
X111072093Y-39620062D01*
X111080755Y-39617700D01*
X111088405Y-39613003D01*
X111088407Y-39613002D01*
X111183072Y-39554878D01*
X111183075Y-39554875D01*
X111190724Y-39550179D01*
X111198553Y-39541530D01*
X111271300Y-39461161D01*
X111271303Y-39461157D01*
X111277322Y-39454507D01*
X111333588Y-39338375D01*
X111339008Y-39306162D01*
X111354190Y-39215917D01*
X111354997Y-39211120D01*
X111355133Y-39200000D01*
X111344134Y-39123195D01*
X111338112Y-39081145D01*
X111338111Y-39081142D01*
X111336839Y-39072259D01*
X111328002Y-39052823D01*
X111318016Y-38982532D01*
X111347616Y-38918001D01*
X111407406Y-38879717D01*
X111478403Y-38879835D01*
X111531798Y-38911577D01*
X111664093Y-39043872D01*
X111701311Y-39068740D01*
X111702345Y-39068946D01*
X111751506Y-39108561D01*
X111758571Y-39121499D01*
X111759688Y-39127116D01*
X111771693Y-39145083D01*
X111778128Y-39154713D01*
X111784556Y-39164334D01*
X111955212Y-39334990D01*
X111989238Y-39397302D01*
X111984173Y-39468117D01*
X111980819Y-39476232D01*
X111978261Y-39481858D01*
X111973272Y-39498920D01*
X111955189Y-39625190D01*
X111955189Y-39642968D01*
X111973272Y-39769238D01*
X111978259Y-39786293D01*
X112031505Y-39903402D01*
X112039722Y-39916746D01*
X112071791Y-39956631D01*
X112076330Y-39961689D01*
X112127646Y-40013006D01*
X112141588Y-40020618D01*
X112143422Y-40020487D01*
X112150038Y-40016235D01*
X112692623Y-39473650D01*
X112700237Y-39459706D01*
X112699179Y-39444911D01*
X112685405Y-39398005D01*
X112705405Y-39329883D01*
X112722310Y-39308906D01*
X112755120Y-39276096D01*
X112778286Y-39257816D01*
X112783076Y-39254875D01*
X112783077Y-39254875D01*
X112790724Y-39250179D01*
X112816440Y-39221769D01*
X112877322Y-39154507D01*
X112877549Y-39154713D01*
X112882456Y-39148760D01*
X112908021Y-39123195D01*
X112970333Y-39089169D01*
X113041148Y-39094234D01*
X113086211Y-39123194D01*
X113802784Y-39839766D01*
X113816722Y-39847377D01*
X113818558Y-39847245D01*
X113825173Y-39842994D01*
X113828663Y-39839504D01*
X113890975Y-39805478D01*
X113961790Y-39810543D01*
X113992585Y-39830331D01*
X113993918Y-39832641D01*
X114000814Y-39836622D01*
X114109369Y-39923193D01*
X114115745Y-39926264D01*
X114115749Y-39926266D01*
X114227520Y-39980091D01*
X114241440Y-39986795D01*
X114285641Y-39996884D01*
X114322773Y-40005359D01*
X114384735Y-40040018D01*
X114418122Y-40102674D01*
X114412335Y-40173435D01*
X114405779Y-40187742D01*
X114373986Y-40247035D01*
X114369273Y-40258358D01*
X114315081Y-40435607D01*
X114312655Y-40447639D01*
X114293924Y-40632043D01*
X114293882Y-40644302D01*
X114311326Y-40828844D01*
X114313663Y-40840871D01*
X114366620Y-41018509D01*
X114371255Y-41029865D01*
X114427552Y-41136643D01*
X114437377Y-41146759D01*
X114444421Y-41144248D01*
X115228674Y-40359996D01*
X115953424Y-40359996D01*
X115953555Y-40361830D01*
X115957806Y-40368444D01*
X116468573Y-40879211D01*
X116482517Y-40886825D01*
X116484350Y-40886694D01*
X116490964Y-40882444D01*
X116617622Y-40755785D01*
X116621743Y-40751241D01*
X116709638Y-40644236D01*
X116716453Y-40634057D01*
X116804048Y-40470691D01*
X116808758Y-40459373D01*
X116862951Y-40282121D01*
X116865377Y-40270089D01*
X116884108Y-40085684D01*
X116884150Y-40073425D01*
X116866706Y-39888885D01*
X116864368Y-39876855D01*
X116811412Y-39699219D01*
X116806777Y-39687863D01*
X116750480Y-39581085D01*
X116740655Y-39570969D01*
X116733611Y-39573480D01*
X115961037Y-40346053D01*
X115953424Y-40359996D01*
X115228674Y-40359996D01*
X115589016Y-39999654D01*
X116369608Y-39219061D01*
X116376367Y-39206684D01*
X116371646Y-39200378D01*
X116273029Y-39146611D01*
X116261744Y-39141821D01*
X116084871Y-39086393D01*
X116072861Y-39083883D01*
X115964265Y-39072086D01*
X115898703Y-39044844D01*
X115858277Y-38986481D01*
X115855822Y-38915527D01*
X115888776Y-38857730D01*
X115922468Y-38824038D01*
X117488672Y-38824038D01*
X117493392Y-38830343D01*
X117592010Y-38884111D01*
X117603294Y-38888901D01*
X117780167Y-38944329D01*
X117792178Y-38946839D01*
X117976446Y-38966857D01*
X117988714Y-38966986D01*
X118173358Y-38950830D01*
X118185417Y-38948574D01*
X118363411Y-38896862D01*
X118374798Y-38892308D01*
X118539365Y-38807004D01*
X118549641Y-38800331D01*
X118663079Y-38709775D01*
X118668306Y-38705101D01*
X118937791Y-38435617D01*
X118945404Y-38421674D01*
X118945273Y-38419840D01*
X118941022Y-38413226D01*
X118430255Y-37902459D01*
X118416311Y-37894845D01*
X118414478Y-37894976D01*
X118407863Y-37899227D01*
X117495432Y-38811658D01*
X117488672Y-38824038D01*
X115922468Y-38824038D01*
X116774998Y-37971507D01*
X116837308Y-37937484D01*
X116908123Y-37942548D01*
X116964959Y-37985095D01*
X116989532Y-38048746D01*
X116998332Y-38141838D01*
X117000669Y-38153865D01*
X117053626Y-38331503D01*
X117058260Y-38342859D01*
X117114559Y-38449637D01*
X117124384Y-38459753D01*
X117131427Y-38457243D01*
X118328348Y-37260322D01*
X118390660Y-37226296D01*
X118461475Y-37231361D01*
X118506538Y-37260322D01*
X119297000Y-38050784D01*
X119310944Y-38058398D01*
X119312777Y-38058267D01*
X119319391Y-38054016D01*
X119587470Y-37785937D01*
X119591599Y-37781383D01*
X119645486Y-37715781D01*
X119704181Y-37675838D01*
X119775153Y-37673968D01*
X119835869Y-37710766D01*
X119854969Y-37738267D01*
X120015199Y-38050784D01*
X120099676Y-38215550D01*
X120101987Y-38220300D01*
X120491887Y-39066349D01*
X120493997Y-39071191D01*
X120848101Y-39932857D01*
X120850006Y-39937784D01*
X120892460Y-40054818D01*
X121137703Y-40730886D01*
X121167685Y-40813539D01*
X121169377Y-40818529D01*
X121270615Y-41138910D01*
X121450065Y-41706808D01*
X121451551Y-41711878D01*
X121694761Y-42611142D01*
X121696033Y-42616268D01*
X121789727Y-43030945D01*
X121899980Y-43518914D01*
X121901343Y-43524947D01*
X121902395Y-43530101D01*
X121996140Y-44044433D01*
X122069441Y-44446603D01*
X122070279Y-44451818D01*
X122112455Y-44754695D01*
X122196362Y-45357256D01*
X122198761Y-45374487D01*
X122199379Y-45379721D01*
X122232055Y-45717512D01*
X122289079Y-46306995D01*
X122289477Y-46312262D01*
X122340232Y-47242453D01*
X122340409Y-47247732D01*
X122344451Y-47568838D01*
X122351799Y-48152657D01*
X122352133Y-48179227D01*
X122352089Y-48184493D01*
X122338915Y-48633387D01*
X122324759Y-49115700D01*
X122324493Y-49120976D01*
X122258161Y-50050168D01*
X122257675Y-50055426D01*
X122159645Y-50917790D01*
X122152451Y-50981071D01*
X122151746Y-50986290D01*
X122008538Y-51902104D01*
X122007823Y-51906675D01*
X122006902Y-51911855D01*
X121938574Y-52254126D01*
X121824519Y-52825450D01*
X121823376Y-52830607D01*
X121677934Y-53427608D01*
X121616476Y-53679878D01*
X121602880Y-53735684D01*
X121601526Y-53740779D01*
X121349371Y-54614735D01*
X121343274Y-54635866D01*
X121341708Y-54640896D01*
X121206152Y-55046122D01*
X121046164Y-55524386D01*
X121044383Y-55529359D01*
X120712091Y-56399627D01*
X120710104Y-56404522D01*
X120341606Y-57260148D01*
X120339415Y-57264954D01*
X120279894Y-57388615D01*
X119957295Y-58058853D01*
X119935396Y-58104350D01*
X119933014Y-58109044D01*
X119494154Y-58930796D01*
X119491593Y-58935361D01*
X119111193Y-59580976D01*
X119018658Y-59738027D01*
X119015881Y-59742520D01*
X118509755Y-60524604D01*
X118506806Y-60528960D01*
X117968311Y-61289191D01*
X117965192Y-61293404D01*
X117524400Y-61863450D01*
X117395330Y-62030367D01*
X117392012Y-62034477D01*
X116803689Y-62732754D01*
X116791781Y-62746887D01*
X116788300Y-62750848D01*
X116576079Y-62982305D01*
X116158695Y-63437520D01*
X116155044Y-63441337D01*
X115929745Y-63667269D01*
X115652695Y-63945097D01*
X115497269Y-64100959D01*
X115493468Y-64104615D01*
X115296923Y-64285843D01*
X114808566Y-64736142D01*
X114804608Y-64739640D01*
X114093897Y-65341856D01*
X114089797Y-65345186D01*
X113883822Y-65505383D01*
X113354411Y-65917132D01*
X113350210Y-65920259D01*
X112841489Y-66282749D01*
X112591509Y-66460872D01*
X112587148Y-66463843D01*
X112293650Y-66654951D01*
X111806482Y-66972164D01*
X111801996Y-66974953D01*
X111000697Y-67450115D01*
X110996098Y-67452713D01*
X110175616Y-67893856D01*
X110170912Y-67896260D01*
X109867178Y-68043505D01*
X109332623Y-68302647D01*
X109327846Y-68304841D01*
X108958748Y-68465031D01*
X108473265Y-68675732D01*
X108468376Y-68677733D01*
X107963605Y-68872093D01*
X107599006Y-69012479D01*
X107594055Y-69014267D01*
X106711399Y-69312288D01*
X106706394Y-69313862D01*
X106019307Y-69514189D01*
X105812050Y-69574617D01*
X105806949Y-69575989D01*
X104902466Y-69799031D01*
X104897312Y-69800188D01*
X103984276Y-69985123D01*
X103979078Y-69986063D01*
X103059081Y-70132570D01*
X103053863Y-70133289D01*
X102742694Y-70169546D01*
X102128556Y-70241104D01*
X102123297Y-70241606D01*
X101194249Y-70310547D01*
X101188975Y-70310827D01*
X100257885Y-70340768D01*
X100252603Y-70340827D01*
X99620708Y-70334647D01*
X99321078Y-70331716D01*
X99315804Y-70331554D01*
X98385442Y-70283407D01*
X98380184Y-70283023D01*
X97795986Y-70228164D01*
X97452694Y-70195927D01*
X97447446Y-70195323D01*
X96639353Y-70085105D01*
X96524415Y-70069428D01*
X96519208Y-70068607D01*
X96215842Y-70014193D01*
X95602240Y-69904132D01*
X95597061Y-69903090D01*
X94687838Y-69700336D01*
X94682708Y-69699079D01*
X93782727Y-69458381D01*
X93777674Y-69456915D01*
X93432843Y-69349014D01*
X92888633Y-69178726D01*
X92883626Y-69177044D01*
X92229072Y-68941680D01*
X92006959Y-68861813D01*
X92002078Y-68859942D01*
X91139356Y-68508230D01*
X91134548Y-68506150D01*
X90287408Y-68118625D01*
X90282652Y-68116328D01*
X89452483Y-67693629D01*
X89447827Y-67691134D01*
X88636109Y-67234013D01*
X88631562Y-67231325D01*
X87839730Y-66740595D01*
X87835299Y-66737719D01*
X87739091Y-66672360D01*
X87165590Y-66282749D01*
X93291543Y-66282749D01*
X93307961Y-66478269D01*
X93362044Y-66666877D01*
X93364862Y-66672360D01*
X93448909Y-66835899D01*
X93448912Y-66835903D01*
X93451730Y-66841387D01*
X93573604Y-66995155D01*
X93578297Y-66999149D01*
X93578298Y-66999150D01*
X93634077Y-67046621D01*
X93723024Y-67122321D01*
X93728402Y-67125327D01*
X93728404Y-67125328D01*
X93764718Y-67145623D01*
X93894299Y-67218043D01*
X94080904Y-67278675D01*
X94275732Y-67301907D01*
X94281867Y-67301435D01*
X94281869Y-67301435D01*
X94465220Y-67287327D01*
X94465224Y-67287326D01*
X94471362Y-67286854D01*
X94660342Y-67234089D01*
X94835475Y-67145623D01*
X94865301Y-67122321D01*
X94912782Y-67085225D01*
X94990089Y-67024826D01*
X95000647Y-67012595D01*
X95114271Y-66880959D01*
X95114271Y-66880958D01*
X95118295Y-66876297D01*
X95215211Y-66705695D01*
X95277144Y-66519518D01*
X95301735Y-66324857D01*
X95302127Y-66296786D01*
X95282980Y-66101514D01*
X95281199Y-66095615D01*
X95281198Y-66095610D01*
X95228051Y-65919579D01*
X95226270Y-65913680D01*
X95134156Y-65740439D01*
X95010147Y-65588388D01*
X94858966Y-65463321D01*
X94686371Y-65369999D01*
X94545102Y-65326269D01*
X94504825Y-65313801D01*
X94504822Y-65313800D01*
X94498938Y-65311979D01*
X94492813Y-65311335D01*
X94492812Y-65311335D01*
X94309933Y-65292113D01*
X94309932Y-65292113D01*
X94303805Y-65291469D01*
X94181169Y-65302630D01*
X94114545Y-65308693D01*
X94114544Y-65308693D01*
X94108404Y-65309252D01*
X94102490Y-65310993D01*
X94102488Y-65310993D01*
X93973520Y-65348951D01*
X93920179Y-65364650D01*
X93914714Y-65367507D01*
X93751758Y-65452698D01*
X93751754Y-65452701D01*
X93746298Y-65455553D01*
X93741498Y-65459413D01*
X93741497Y-65459413D01*
X93714998Y-65480719D01*
X93593386Y-65578497D01*
X93467266Y-65728802D01*
X93464302Y-65734194D01*
X93464299Y-65734198D01*
X93385599Y-65877353D01*
X93372742Y-65900740D01*
X93370881Y-65906607D01*
X93370880Y-65906609D01*
X93357274Y-65949500D01*
X93313414Y-66087764D01*
X93291543Y-66282749D01*
X87165590Y-66282749D01*
X87064710Y-66214216D01*
X87060412Y-66211163D01*
X86904778Y-66095610D01*
X86312451Y-65655829D01*
X86308276Y-65652592D01*
X85584255Y-65066403D01*
X85580220Y-65062994D01*
X84946385Y-64504257D01*
X84926465Y-64486697D01*
X91495491Y-64486697D01*
X91511909Y-64682217D01*
X91565992Y-64870825D01*
X91568810Y-64876308D01*
X91652857Y-65039847D01*
X91652860Y-65039851D01*
X91655678Y-65045335D01*
X91777552Y-65199103D01*
X91782245Y-65203097D01*
X91782246Y-65203098D01*
X91909425Y-65311335D01*
X91926972Y-65326269D01*
X91932350Y-65329275D01*
X91932352Y-65329276D01*
X91968666Y-65349571D01*
X92098247Y-65421991D01*
X92284852Y-65482623D01*
X92479680Y-65505855D01*
X92485815Y-65505383D01*
X92485817Y-65505383D01*
X92669168Y-65491275D01*
X92669172Y-65491274D01*
X92675310Y-65490802D01*
X92864290Y-65438037D01*
X93039423Y-65349571D01*
X93047097Y-65343576D01*
X93189187Y-65232563D01*
X93194037Y-65228774D01*
X93223818Y-65194273D01*
X93318219Y-65084907D01*
X93318219Y-65084906D01*
X93322243Y-65080245D01*
X93330107Y-65066403D01*
X93416112Y-64915006D01*
X93419159Y-64909643D01*
X93481092Y-64723466D01*
X93505683Y-64528805D01*
X93506075Y-64500734D01*
X93486928Y-64305462D01*
X93485147Y-64299563D01*
X93485146Y-64299558D01*
X93431999Y-64123527D01*
X93430218Y-64117628D01*
X93338104Y-63944387D01*
X93214095Y-63792336D01*
X93062914Y-63667269D01*
X92890319Y-63573947D01*
X92736154Y-63526225D01*
X92708773Y-63517749D01*
X92708770Y-63517748D01*
X92702886Y-63515927D01*
X92696761Y-63515283D01*
X92696760Y-63515283D01*
X92513881Y-63496061D01*
X92513880Y-63496061D01*
X92507753Y-63495417D01*
X92385117Y-63506578D01*
X92318493Y-63512641D01*
X92318492Y-63512641D01*
X92312352Y-63513200D01*
X92306438Y-63514941D01*
X92306436Y-63514941D01*
X92268097Y-63526225D01*
X92124127Y-63568598D01*
X92118662Y-63571455D01*
X91955706Y-63656646D01*
X91955702Y-63656649D01*
X91950246Y-63659501D01*
X91945446Y-63663361D01*
X91945445Y-63663361D01*
X91929423Y-63676243D01*
X91797334Y-63782445D01*
X91671214Y-63932750D01*
X91668250Y-63938142D01*
X91668247Y-63938146D01*
X91655766Y-63960849D01*
X91576690Y-64104688D01*
X91574829Y-64110555D01*
X91574828Y-64110557D01*
X91547026Y-64198200D01*
X91517362Y-64291712D01*
X91495491Y-64486697D01*
X84926465Y-64486697D01*
X84881376Y-64446950D01*
X84877492Y-64443378D01*
X84205118Y-63798618D01*
X84201383Y-63794883D01*
X83556622Y-63122508D01*
X83553046Y-63118620D01*
X83541667Y-63105711D01*
X83175779Y-62690646D01*
X89699440Y-62690646D01*
X89715858Y-62886166D01*
X89769941Y-63074774D01*
X89772759Y-63080257D01*
X89856806Y-63243796D01*
X89856809Y-63243800D01*
X89859627Y-63249284D01*
X89981501Y-63403052D01*
X89986194Y-63407046D01*
X89986195Y-63407047D01*
X90112971Y-63514941D01*
X90130921Y-63530218D01*
X90136299Y-63533224D01*
X90136301Y-63533225D01*
X90172615Y-63553520D01*
X90302196Y-63625940D01*
X90488801Y-63686572D01*
X90683629Y-63709804D01*
X90689764Y-63709332D01*
X90689766Y-63709332D01*
X90873117Y-63695224D01*
X90873121Y-63695223D01*
X90879259Y-63694751D01*
X91068239Y-63641986D01*
X91243372Y-63553520D01*
X91273198Y-63530218D01*
X91355723Y-63465742D01*
X91397986Y-63432723D01*
X91427767Y-63398222D01*
X91522168Y-63288856D01*
X91522168Y-63288855D01*
X91526192Y-63284194D01*
X91545976Y-63249369D01*
X91580749Y-63188157D01*
X91623108Y-63113592D01*
X91685041Y-62927415D01*
X91709632Y-62732754D01*
X91710024Y-62704683D01*
X91690877Y-62509411D01*
X91689096Y-62503512D01*
X91689095Y-62503507D01*
X91635948Y-62327476D01*
X91634167Y-62321577D01*
X91542053Y-62148336D01*
X91418044Y-61996285D01*
X91266863Y-61871218D01*
X91094268Y-61777896D01*
X90940103Y-61730174D01*
X90912722Y-61721698D01*
X90912719Y-61721697D01*
X90906835Y-61719876D01*
X90900710Y-61719232D01*
X90900709Y-61719232D01*
X90717830Y-61700010D01*
X90717829Y-61700010D01*
X90711702Y-61699366D01*
X90603755Y-61709190D01*
X90522442Y-61716590D01*
X90522441Y-61716590D01*
X90516301Y-61717149D01*
X90510387Y-61718890D01*
X90510385Y-61718890D01*
X90472046Y-61730174D01*
X90328076Y-61772547D01*
X90322611Y-61775404D01*
X90159655Y-61860595D01*
X90159651Y-61860598D01*
X90154195Y-61863450D01*
X90149395Y-61867310D01*
X90149394Y-61867310D01*
X90122893Y-61888617D01*
X90001283Y-61986394D01*
X89875163Y-62136699D01*
X89872199Y-62142091D01*
X89872196Y-62142095D01*
X89817721Y-62241185D01*
X89780639Y-62308637D01*
X89778778Y-62314504D01*
X89778777Y-62314506D01*
X89768493Y-62346925D01*
X89721311Y-62495661D01*
X89699440Y-62690646D01*
X83175779Y-62690646D01*
X83021424Y-62515545D01*
X82937006Y-62419781D01*
X82933597Y-62415746D01*
X82347409Y-61691725D01*
X82344172Y-61687551D01*
X82281163Y-61602686D01*
X81788831Y-60939579D01*
X81785778Y-60935282D01*
X81758138Y-60894595D01*
X87903389Y-60894595D01*
X87919807Y-61090115D01*
X87973890Y-61278723D01*
X87976708Y-61284206D01*
X88060755Y-61447745D01*
X88060758Y-61447749D01*
X88063576Y-61453233D01*
X88185450Y-61607001D01*
X88190143Y-61610995D01*
X88190144Y-61610996D01*
X88316920Y-61718890D01*
X88334870Y-61734167D01*
X88340248Y-61737173D01*
X88340250Y-61737174D01*
X88376564Y-61757469D01*
X88506145Y-61829889D01*
X88692750Y-61890521D01*
X88887578Y-61913753D01*
X88893713Y-61913281D01*
X88893715Y-61913281D01*
X89077066Y-61899173D01*
X89077070Y-61899172D01*
X89083208Y-61898700D01*
X89272188Y-61845935D01*
X89447321Y-61757469D01*
X89477147Y-61734167D01*
X89597085Y-61640461D01*
X89601935Y-61636672D01*
X89631716Y-61602171D01*
X89726117Y-61492805D01*
X89726117Y-61492804D01*
X89730141Y-61488143D01*
X89827057Y-61317541D01*
X89888990Y-61131364D01*
X89913581Y-60936703D01*
X89913973Y-60908632D01*
X89894826Y-60713360D01*
X89893045Y-60707461D01*
X89893044Y-60707456D01*
X89839897Y-60531425D01*
X89838116Y-60525526D01*
X89746002Y-60352285D01*
X89621993Y-60200234D01*
X89470812Y-60075167D01*
X89298217Y-59981845D01*
X89199064Y-59951152D01*
X89116671Y-59925647D01*
X89116668Y-59925646D01*
X89110784Y-59923825D01*
X89104659Y-59923181D01*
X89104658Y-59923181D01*
X88921779Y-59903959D01*
X88921778Y-59903959D01*
X88915651Y-59903315D01*
X88807715Y-59913138D01*
X88726391Y-59920539D01*
X88726390Y-59920539D01*
X88720250Y-59921098D01*
X88714336Y-59922839D01*
X88714334Y-59922839D01*
X88596129Y-59957629D01*
X88532025Y-59976496D01*
X88526560Y-59979353D01*
X88363604Y-60064544D01*
X88363600Y-60064547D01*
X88358144Y-60067399D01*
X88353344Y-60071259D01*
X88353343Y-60071259D01*
X88326842Y-60092566D01*
X88205232Y-60190343D01*
X88079112Y-60340648D01*
X88076148Y-60346040D01*
X88076145Y-60346044D01*
X88042348Y-60407521D01*
X87984588Y-60512586D01*
X87982727Y-60518453D01*
X87982726Y-60518455D01*
X87960438Y-60588716D01*
X87925260Y-60699610D01*
X87903389Y-60894595D01*
X81758138Y-60894595D01*
X81748156Y-60879902D01*
X81262281Y-60164701D01*
X81259405Y-60160270D01*
X80768675Y-59368438D01*
X80765987Y-59363891D01*
X80616557Y-59098544D01*
X86107338Y-59098544D01*
X86123756Y-59294064D01*
X86177839Y-59482672D01*
X86180657Y-59488155D01*
X86264704Y-59651694D01*
X86264707Y-59651698D01*
X86267525Y-59657182D01*
X86389399Y-59810950D01*
X86394092Y-59814944D01*
X86394093Y-59814945D01*
X86520869Y-59922839D01*
X86538819Y-59938116D01*
X86544197Y-59941122D01*
X86544199Y-59941123D01*
X86577187Y-59959559D01*
X86710094Y-60033838D01*
X86896699Y-60094470D01*
X87091527Y-60117702D01*
X87097662Y-60117230D01*
X87097664Y-60117230D01*
X87281015Y-60103122D01*
X87281019Y-60103121D01*
X87287157Y-60102649D01*
X87476137Y-60049884D01*
X87651270Y-59961418D01*
X87669821Y-59946925D01*
X87748330Y-59885587D01*
X87805884Y-59840621D01*
X87829003Y-59813838D01*
X87930066Y-59696754D01*
X87930066Y-59696753D01*
X87934090Y-59692092D01*
X87939735Y-59682156D01*
X87997213Y-59580976D01*
X88031006Y-59521490D01*
X88092939Y-59335313D01*
X88117530Y-59140652D01*
X88117814Y-59120293D01*
X88117873Y-59116104D01*
X88117873Y-59116100D01*
X88117922Y-59112581D01*
X88098775Y-58917309D01*
X88096994Y-58911410D01*
X88096993Y-58911405D01*
X88043846Y-58735374D01*
X88042065Y-58729475D01*
X87949951Y-58556234D01*
X87825942Y-58404183D01*
X87674761Y-58279116D01*
X87502166Y-58185794D01*
X87360897Y-58142064D01*
X87320620Y-58129596D01*
X87320617Y-58129595D01*
X87314733Y-58127774D01*
X87308608Y-58127130D01*
X87308607Y-58127130D01*
X87125728Y-58107908D01*
X87125727Y-58107908D01*
X87119600Y-58107264D01*
X86996964Y-58118425D01*
X86930340Y-58124488D01*
X86930339Y-58124488D01*
X86924199Y-58125047D01*
X86918285Y-58126788D01*
X86918283Y-58126788D01*
X86795321Y-58162978D01*
X86735974Y-58180445D01*
X86730509Y-58183302D01*
X86567553Y-58268493D01*
X86567549Y-58268496D01*
X86562093Y-58271348D01*
X86557293Y-58275208D01*
X86557292Y-58275208D01*
X86541433Y-58287959D01*
X86409181Y-58394292D01*
X86283061Y-58544597D01*
X86280097Y-58549989D01*
X86280094Y-58549993D01*
X86271397Y-58565813D01*
X86188537Y-58716535D01*
X86186676Y-58722402D01*
X86186675Y-58722404D01*
X86180891Y-58740639D01*
X86129209Y-58903559D01*
X86107338Y-59098544D01*
X80616557Y-59098544D01*
X80308867Y-58552173D01*
X80306372Y-58547517D01*
X79883673Y-57717347D01*
X79881376Y-57712591D01*
X79522454Y-56927981D01*
X79493850Y-56865452D01*
X79491758Y-56860615D01*
X79478128Y-56827181D01*
X79403992Y-56645331D01*
X82760455Y-56645331D01*
X82765736Y-56652385D01*
X82927234Y-56746757D01*
X82936520Y-56751207D01*
X83135479Y-56827181D01*
X83145377Y-56830057D01*
X83354073Y-56872516D01*
X83364301Y-56873735D01*
X83577128Y-56881540D01*
X83587414Y-56881073D01*
X83798663Y-56854012D01*
X83808740Y-56851870D01*
X84012733Y-56790669D01*
X84022320Y-56786911D01*
X84213573Y-56693217D01*
X84222423Y-56687942D01*
X84262820Y-56659127D01*
X84329894Y-56635853D01*
X84398902Y-56652537D01*
X84447936Y-56703881D01*
X84461427Y-56773584D01*
X84446403Y-56822407D01*
X84392485Y-56920483D01*
X84333157Y-57107507D01*
X84311286Y-57302492D01*
X84327704Y-57498012D01*
X84381787Y-57686620D01*
X84384605Y-57692103D01*
X84468652Y-57855642D01*
X84468655Y-57855646D01*
X84471473Y-57861130D01*
X84593347Y-58014898D01*
X84598040Y-58018892D01*
X84598041Y-58018893D01*
X84728202Y-58129668D01*
X84742767Y-58142064D01*
X84748145Y-58145070D01*
X84748147Y-58145071D01*
X84780188Y-58162978D01*
X84914042Y-58237786D01*
X85100647Y-58298418D01*
X85295475Y-58321650D01*
X85301610Y-58321178D01*
X85301612Y-58321178D01*
X85484963Y-58307070D01*
X85484967Y-58307069D01*
X85491105Y-58306597D01*
X85680085Y-58253832D01*
X85855218Y-58165366D01*
X85885044Y-58142064D01*
X86004982Y-58048358D01*
X86009832Y-58044569D01*
X86039613Y-58010068D01*
X86134014Y-57900702D01*
X86134014Y-57900701D01*
X86138038Y-57896040D01*
X86234954Y-57725438D01*
X86296887Y-57539261D01*
X86321478Y-57344600D01*
X86321870Y-57316529D01*
X86302723Y-57121257D01*
X86300942Y-57115358D01*
X86300941Y-57115353D01*
X86247794Y-56939322D01*
X86246013Y-56933423D01*
X86153899Y-56760182D01*
X86029890Y-56608131D01*
X85878709Y-56483064D01*
X85706114Y-56389742D01*
X85612397Y-56360732D01*
X85524568Y-56333544D01*
X85524565Y-56333543D01*
X85518681Y-56331722D01*
X85512556Y-56331078D01*
X85512555Y-56331078D01*
X85329676Y-56311856D01*
X85329675Y-56311856D01*
X85323548Y-56311212D01*
X85200912Y-56322373D01*
X85134288Y-56328436D01*
X85134287Y-56328436D01*
X85128147Y-56328995D01*
X85122233Y-56330736D01*
X85122231Y-56330736D01*
X84993263Y-56368694D01*
X84939922Y-56384393D01*
X84821185Y-56446467D01*
X84751551Y-56460301D01*
X84685490Y-56434291D01*
X84643978Y-56376695D01*
X84640195Y-56305800D01*
X84660488Y-56261280D01*
X84685483Y-56226496D01*
X84690791Y-56217661D01*
X84785148Y-56026745D01*
X84788947Y-56017150D01*
X84850854Y-55813393D01*
X84853033Y-55803312D01*
X84881068Y-55590365D01*
X84881587Y-55583690D01*
X84883050Y-55523842D01*
X84882856Y-55517124D01*
X84865259Y-55303082D01*
X84863574Y-55292902D01*
X84811692Y-55086353D01*
X84808372Y-55076602D01*
X84723450Y-54881292D01*
X84718583Y-54872217D01*
X84653541Y-54771675D01*
X84642855Y-54762473D01*
X84633290Y-54766876D01*
X82767215Y-56632951D01*
X82760455Y-56645331D01*
X79403992Y-56645331D01*
X79140065Y-55997941D01*
X79138180Y-55993024D01*
X79133798Y-55980836D01*
X78822956Y-55116376D01*
X78821279Y-55111383D01*
X78815120Y-55091699D01*
X78543082Y-54222316D01*
X78541614Y-54217257D01*
X78540262Y-54212199D01*
X78409808Y-53724427D01*
X80368898Y-53724427D01*
X80380578Y-53783149D01*
X80387475Y-53793470D01*
X80387475Y-53793471D01*
X80397588Y-53808605D01*
X80405447Y-53820367D01*
X81628487Y-55043407D01*
X81633633Y-55046846D01*
X81633636Y-55046848D01*
X81655383Y-55061379D01*
X81665705Y-55068276D01*
X81677880Y-55070698D01*
X81677881Y-55070698D01*
X81712255Y-55077535D01*
X81724427Y-55079956D01*
X81736599Y-55077535D01*
X81770973Y-55070698D01*
X81770974Y-55070698D01*
X81783149Y-55068276D01*
X81793471Y-55061379D01*
X81815218Y-55046848D01*
X81815221Y-55046846D01*
X81820367Y-55043407D01*
X82109543Y-54754231D01*
X82171855Y-54720205D01*
X82242670Y-54725270D01*
X82299506Y-54767817D01*
X82324317Y-54834337D01*
X82312926Y-54896376D01*
X82243816Y-55045261D01*
X82240253Y-55054948D01*
X82183342Y-55260159D01*
X82181411Y-55270278D01*
X82158780Y-55482052D01*
X82158528Y-55492341D01*
X82170787Y-55704955D01*
X82172223Y-55715175D01*
X82219043Y-55922924D01*
X82222123Y-55932753D01*
X82302248Y-56130081D01*
X82306891Y-56139272D01*
X82386938Y-56269898D01*
X82397394Y-56279358D01*
X82406172Y-56275574D01*
X84273867Y-54407879D01*
X84280888Y-54395022D01*
X84274089Y-54385691D01*
X84270032Y-54382996D01*
X84108653Y-54293910D01*
X85601563Y-54293910D01*
X85602727Y-54302812D01*
X85602727Y-54302815D01*
X85618725Y-54425151D01*
X85619889Y-54434050D01*
X85676810Y-54563413D01*
X85709774Y-54602628D01*
X85719951Y-54614735D01*
X85748472Y-54679751D01*
X85749500Y-54695811D01*
X85749500Y-55049176D01*
X85747467Y-55068275D01*
X85747240Y-55073083D01*
X85745049Y-55083261D01*
X85748627Y-55113491D01*
X85748937Y-55118746D01*
X85749072Y-55118735D01*
X85749500Y-55123914D01*
X85749500Y-55129115D01*
X85750354Y-55134243D01*
X85750354Y-55134249D01*
X85752389Y-55146473D01*
X85753226Y-55152349D01*
X85755750Y-55173670D01*
X85758764Y-55199138D01*
X85762423Y-55206758D01*
X85763812Y-55215103D01*
X85776537Y-55238686D01*
X85786192Y-55256580D01*
X85788884Y-55261865D01*
X85809274Y-55304326D01*
X85812592Y-55308274D01*
X85814525Y-55310207D01*
X85815990Y-55311804D01*
X85816254Y-55312294D01*
X85816234Y-55312313D01*
X85816313Y-55312402D01*
X85819222Y-55317794D01*
X85826870Y-55324864D01*
X85826871Y-55324865D01*
X85855636Y-55351455D01*
X85859202Y-55354884D01*
X91988652Y-61484333D01*
X98116215Y-67611896D01*
X98128297Y-67626855D01*
X98131527Y-67630404D01*
X98137175Y-67639152D01*
X98145352Y-67645598D01*
X98161090Y-67658005D01*
X98165020Y-67661498D01*
X98165108Y-67661394D01*
X98169072Y-67664753D01*
X98172747Y-67668428D01*
X98176972Y-67671448D01*
X98176974Y-67671449D01*
X98187059Y-67678656D01*
X98191805Y-67682219D01*
X98194274Y-67684165D01*
X98228811Y-67711392D01*
X98236787Y-67714193D01*
X98243669Y-67719111D01*
X98288836Y-67732619D01*
X98294442Y-67734441D01*
X98331423Y-67747428D01*
X98331429Y-67747429D01*
X98338906Y-67750055D01*
X98344044Y-67750500D01*
X98346763Y-67750500D01*
X98348945Y-67750595D01*
X98349480Y-67750755D01*
X98349479Y-67750782D01*
X98349597Y-67750789D01*
X98355464Y-67752544D01*
X98405019Y-67750597D01*
X98409966Y-67750500D01*
X108249176Y-67750500D01*
X108268275Y-67752533D01*
X108273083Y-67752760D01*
X108283261Y-67754951D01*
X108313491Y-67751373D01*
X108318746Y-67751063D01*
X108318735Y-67750928D01*
X108323914Y-67750500D01*
X108329115Y-67750500D01*
X108334243Y-67749646D01*
X108334249Y-67749646D01*
X108346473Y-67747611D01*
X108352349Y-67746774D01*
X108388799Y-67742460D01*
X108388801Y-67742460D01*
X108399138Y-67741236D01*
X108406758Y-67737577D01*
X108415103Y-67736188D01*
X108456584Y-67713806D01*
X108461870Y-67711113D01*
X108504326Y-67690726D01*
X108508274Y-67687408D01*
X108510207Y-67685475D01*
X108511804Y-67684010D01*
X108512294Y-67683746D01*
X108512313Y-67683766D01*
X108512402Y-67683687D01*
X108517794Y-67680778D01*
X108529211Y-67668428D01*
X108551455Y-67644364D01*
X108554884Y-67640798D01*
X111130945Y-65064737D01*
X113709922Y-62485759D01*
X113724881Y-62473677D01*
X113728430Y-62470447D01*
X113737178Y-62464799D01*
X113756031Y-62440884D01*
X113759524Y-62436954D01*
X113759420Y-62436866D01*
X113762779Y-62432902D01*
X113766454Y-62429227D01*
X113773205Y-62419781D01*
X113776682Y-62414915D01*
X113780245Y-62410169D01*
X113793780Y-62393000D01*
X113809418Y-62373163D01*
X113812219Y-62365187D01*
X113817137Y-62358305D01*
X113830645Y-62313138D01*
X113832467Y-62307532D01*
X113845454Y-62270551D01*
X113845455Y-62270545D01*
X113848081Y-62263068D01*
X113848526Y-62257930D01*
X113848526Y-62255211D01*
X113848621Y-62253029D01*
X113848781Y-62252494D01*
X113848808Y-62252495D01*
X113848815Y-62252377D01*
X113850570Y-62246510D01*
X113848623Y-62196955D01*
X113848526Y-62192008D01*
X113848526Y-60695938D01*
X113868528Y-60627817D01*
X113917715Y-60583472D01*
X113923951Y-60580322D01*
X114023523Y-60530025D01*
X114152593Y-60429185D01*
X114169495Y-60415979D01*
X114174351Y-60412185D01*
X114184992Y-60399857D01*
X114295389Y-60271962D01*
X114295390Y-60271960D01*
X114299418Y-60267294D01*
X114393960Y-60100870D01*
X114440349Y-59961418D01*
X114452431Y-59925099D01*
X114452432Y-59925096D01*
X114454376Y-59919251D01*
X114470963Y-59787959D01*
X114477924Y-59732857D01*
X114477924Y-59732854D01*
X114478366Y-59729357D01*
X114478748Y-59701974D01*
X114460070Y-59511484D01*
X114458289Y-59505585D01*
X114458288Y-59505580D01*
X114416203Y-59366188D01*
X114404749Y-59328250D01*
X114360832Y-59245654D01*
X114317784Y-59164693D01*
X114317782Y-59164690D01*
X114314890Y-59159251D01*
X114260383Y-59092419D01*
X114197812Y-59015698D01*
X114197810Y-59015696D01*
X114193918Y-59010924D01*
X114120490Y-58950179D01*
X114051189Y-58892848D01*
X114051186Y-58892846D01*
X114046439Y-58888919D01*
X113878071Y-58797883D01*
X113695228Y-58741283D01*
X113689107Y-58740640D01*
X113689104Y-58740639D01*
X113511001Y-58721920D01*
X113511000Y-58721920D01*
X113504873Y-58721276D01*
X113424314Y-58728607D01*
X113320396Y-58738064D01*
X113320393Y-58738065D01*
X113314257Y-58738623D01*
X113130641Y-58792664D01*
X112961019Y-58881341D01*
X112956218Y-58885201D01*
X112956215Y-58885203D01*
X112875402Y-58950179D01*
X112811851Y-59001275D01*
X112807892Y-59005993D01*
X112807891Y-59005994D01*
X112735372Y-59092419D01*
X112688819Y-59147898D01*
X112596610Y-59315627D01*
X112594749Y-59321494D01*
X112594748Y-59321496D01*
X112580571Y-59366188D01*
X112538735Y-59498070D01*
X112517400Y-59688281D01*
X112518257Y-59698487D01*
X112532890Y-59872743D01*
X112533416Y-59879013D01*
X112586174Y-60063002D01*
X112588992Y-60068484D01*
X112588993Y-60068488D01*
X112670844Y-60227753D01*
X112670847Y-60227757D01*
X112673664Y-60233239D01*
X112792554Y-60383241D01*
X112938315Y-60507293D01*
X113068985Y-60580322D01*
X113082997Y-60588153D01*
X113132702Y-60638847D01*
X113147526Y-60698141D01*
X113147526Y-62004602D01*
X113127524Y-62072723D01*
X113110621Y-62093697D01*
X108191723Y-67012595D01*
X108129411Y-67046621D01*
X108102628Y-67049500D01*
X98597372Y-67049500D01*
X98529251Y-67029498D01*
X98508277Y-67012595D01*
X86487405Y-54991723D01*
X86453379Y-54929411D01*
X86450500Y-54902628D01*
X86450500Y-54696629D01*
X86470502Y-54628508D01*
X86483085Y-54612073D01*
X86507229Y-54585399D01*
X86513254Y-54578743D01*
X86549033Y-54504895D01*
X86570963Y-54459632D01*
X86570963Y-54459631D01*
X86574877Y-54451553D01*
X86598325Y-54312179D01*
X86598474Y-54300000D01*
X86583656Y-54196528D01*
X86579711Y-54168981D01*
X86579710Y-54168978D01*
X86578438Y-54160095D01*
X86519941Y-54031437D01*
X86427684Y-53924368D01*
X86349204Y-53873500D01*
X86316620Y-53852380D01*
X86316619Y-53852379D01*
X86309086Y-53847497D01*
X86233017Y-53824747D01*
X86182280Y-53809573D01*
X86182278Y-53809573D01*
X86173679Y-53807001D01*
X86164704Y-53806946D01*
X86164703Y-53806946D01*
X86103989Y-53806575D01*
X86032349Y-53806138D01*
X85896458Y-53844976D01*
X85888871Y-53849763D01*
X85888869Y-53849764D01*
X85832995Y-53885018D01*
X85776929Y-53920393D01*
X85683372Y-54026326D01*
X85679558Y-54034449D01*
X85679557Y-54034451D01*
X85675909Y-54042221D01*
X85623307Y-54154260D01*
X85621927Y-54163124D01*
X85621926Y-54163127D01*
X85603563Y-54281067D01*
X85601563Y-54293910D01*
X84108653Y-54293910D01*
X84083595Y-54280077D01*
X84074183Y-54275847D01*
X83873437Y-54204758D01*
X83863467Y-54202124D01*
X83653805Y-54164779D01*
X83643551Y-54163809D01*
X83430594Y-54161206D01*
X83420310Y-54161926D01*
X83209799Y-54194139D01*
X83199771Y-54196528D01*
X82997346Y-54262690D01*
X82987836Y-54266687D01*
X82898947Y-54312960D01*
X82829287Y-54326673D01*
X82763272Y-54300548D01*
X82721861Y-54242879D01*
X82718202Y-54171977D01*
X82751672Y-54112102D01*
X83043407Y-53820367D01*
X83051267Y-53808605D01*
X83061379Y-53793471D01*
X83061379Y-53793470D01*
X83068276Y-53783149D01*
X83079956Y-53724427D01*
X83072478Y-53686830D01*
X83070698Y-53677881D01*
X83070698Y-53677880D01*
X83068276Y-53665705D01*
X83043407Y-53628487D01*
X81820367Y-52405447D01*
X81815221Y-52402008D01*
X81815218Y-52402006D01*
X81793471Y-52387475D01*
X81793470Y-52387475D01*
X81783149Y-52380578D01*
X81770974Y-52378156D01*
X81770973Y-52378156D01*
X81736599Y-52371319D01*
X81724427Y-52368898D01*
X81712255Y-52371319D01*
X81677881Y-52378156D01*
X81677880Y-52378156D01*
X81665705Y-52380578D01*
X81655384Y-52387475D01*
X81655383Y-52387475D01*
X81633636Y-52402006D01*
X81633633Y-52402008D01*
X81628487Y-52405447D01*
X80405447Y-53628487D01*
X80380578Y-53665705D01*
X80378156Y-53677880D01*
X80378156Y-53677881D01*
X80376376Y-53686830D01*
X80368898Y-53724427D01*
X78409808Y-53724427D01*
X78300920Y-53317288D01*
X78299664Y-53312163D01*
X78296331Y-53297214D01*
X78210000Y-52910074D01*
X78096911Y-52402939D01*
X78095869Y-52397761D01*
X78050232Y-52143330D01*
X77931392Y-51480785D01*
X77930571Y-51475580D01*
X77928335Y-51459182D01*
X77835368Y-50777577D01*
X77804677Y-50552554D01*
X77804073Y-50547306D01*
X77757883Y-50055428D01*
X77716977Y-49619817D01*
X77716593Y-49614554D01*
X77714792Y-49579743D01*
X77668446Y-48684197D01*
X77668284Y-48678920D01*
X77667766Y-48625904D01*
X77664293Y-48270854D01*
X77659173Y-47747397D01*
X77659232Y-47742115D01*
X77689173Y-46811025D01*
X77689453Y-46805751D01*
X77758394Y-45876703D01*
X77758896Y-45871444D01*
X77835724Y-45212076D01*
X77866711Y-44946138D01*
X77867431Y-44940913D01*
X77888406Y-44809203D01*
X78013937Y-44020922D01*
X78014877Y-44015724D01*
X78059117Y-43797311D01*
X78199812Y-43102689D01*
X78200969Y-43097535D01*
X78424010Y-42193052D01*
X78425382Y-42187951D01*
X78477848Y-42008002D01*
X78686138Y-41293607D01*
X78687717Y-41288585D01*
X78692035Y-41275798D01*
X78985732Y-40405946D01*
X78987523Y-40400986D01*
X78989545Y-40395736D01*
X79163740Y-39943334D01*
X79322267Y-39531624D01*
X79324268Y-39526735D01*
X79588461Y-38918001D01*
X79695159Y-38672155D01*
X79697358Y-38667366D01*
X79701600Y-38658617D01*
X79949484Y-38147283D01*
X80103739Y-37829088D01*
X80106143Y-37824384D01*
X80547287Y-37003903D01*
X80549885Y-36999304D01*
X81025047Y-36198004D01*
X81027836Y-36193518D01*
X81408844Y-35608374D01*
X81536156Y-35412852D01*
X81539127Y-35408491D01*
X81569395Y-35366013D01*
X82079741Y-34649790D01*
X82082868Y-34645589D01*
X82416704Y-34216355D01*
X82654814Y-33910203D01*
X82658144Y-33906103D01*
X83260360Y-33195392D01*
X83263858Y-33191434D01*
X83731597Y-32684163D01*
X83895385Y-32506532D01*
X83899041Y-32502731D01*
X83902022Y-32499759D01*
X84139878Y-32262569D01*
X88319245Y-32262569D01*
X88325888Y-32274576D01*
X90423931Y-34372619D01*
X90436311Y-34379379D01*
X90444891Y-34372956D01*
X90512926Y-34268788D01*
X90517967Y-34259425D01*
X90606352Y-34055670D01*
X90609741Y-34045600D01*
X90662532Y-33829862D01*
X90664177Y-33819356D01*
X90679862Y-33597820D01*
X90679713Y-33587179D01*
X90657849Y-33366168D01*
X90655909Y-33355705D01*
X90597120Y-33141542D01*
X90593442Y-33131547D01*
X90499411Y-32930355D01*
X90494107Y-32921131D01*
X90483900Y-32906418D01*
X90461505Y-32839046D01*
X90479088Y-32770261D01*
X90531069Y-32721902D01*
X90600942Y-32709323D01*
X90646967Y-32723552D01*
X90702829Y-32753505D01*
X90702835Y-32753508D01*
X90708265Y-32756419D01*
X90846325Y-32798628D01*
X90892553Y-32812762D01*
X90892555Y-32812762D01*
X90898451Y-32814565D01*
X90912047Y-32815946D01*
X91090180Y-32834040D01*
X91090184Y-32834040D01*
X91096308Y-32834662D01*
X91220337Y-32822938D01*
X91288168Y-32816526D01*
X91288171Y-32816526D01*
X91294301Y-32815946D01*
X91447550Y-32770261D01*
X91478985Y-32760890D01*
X91478987Y-32760889D01*
X91484888Y-32759130D01*
X91660809Y-32666377D01*
X91815364Y-32541221D01*
X91942666Y-32388428D01*
X92023729Y-32239749D01*
X92034918Y-32219226D01*
X92037866Y-32213819D01*
X92097338Y-32024044D01*
X92118817Y-31826332D01*
X92118068Y-31817764D01*
X92102020Y-31634353D01*
X92101483Y-31628214D01*
X92090226Y-31589464D01*
X92069970Y-31519746D01*
X107113175Y-31519746D01*
X107113307Y-31521582D01*
X107117556Y-31528194D01*
X107628324Y-32038962D01*
X107642268Y-32046576D01*
X107644101Y-32046445D01*
X107650716Y-32042194D01*
X108421730Y-31271179D01*
X108428487Y-31258804D01*
X108423767Y-31252499D01*
X108325149Y-31198731D01*
X108313864Y-31193941D01*
X108136991Y-31138513D01*
X108124980Y-31136003D01*
X107940712Y-31115985D01*
X107928444Y-31115856D01*
X107743800Y-31132012D01*
X107731741Y-31134268D01*
X107553747Y-31185980D01*
X107542360Y-31190534D01*
X107377793Y-31275838D01*
X107367517Y-31282511D01*
X107254089Y-31373060D01*
X107248843Y-31377750D01*
X107120786Y-31505808D01*
X107113175Y-31519746D01*
X92069970Y-31519746D01*
X92061335Y-31490024D01*
X92045999Y-31437235D01*
X91954476Y-31260670D01*
X91915389Y-31211706D01*
X91859508Y-31141704D01*
X91859501Y-31141697D01*
X91857312Y-31138954D01*
X91566029Y-30847671D01*
X91451208Y-30753356D01*
X91275939Y-30659378D01*
X91270046Y-30657576D01*
X91270043Y-30657575D01*
X91091648Y-30603033D01*
X91091645Y-30603032D01*
X91085753Y-30601231D01*
X91079623Y-30600608D01*
X91079621Y-30600608D01*
X90894024Y-30581756D01*
X90894020Y-30581756D01*
X90887896Y-30581134D01*
X90689903Y-30599850D01*
X90499317Y-30656666D01*
X90323395Y-30749419D01*
X90168840Y-30874576D01*
X90041538Y-31027368D01*
X90038591Y-31032773D01*
X90038589Y-31032776D01*
X89980940Y-31138513D01*
X89946338Y-31201977D01*
X89886866Y-31391752D01*
X89886201Y-31397875D01*
X89886200Y-31397879D01*
X89877957Y-31473764D01*
X89865388Y-31589464D01*
X89865925Y-31595602D01*
X89865925Y-31595606D01*
X89868778Y-31628214D01*
X89882722Y-31787583D01*
X89884440Y-31793498D01*
X89884441Y-31793501D01*
X89898531Y-31841998D01*
X89938205Y-31978561D01*
X89941038Y-31984026D01*
X89941041Y-31984034D01*
X89966991Y-32034095D01*
X89977943Y-32055222D01*
X89980158Y-32059496D01*
X89993750Y-32129179D01*
X89967510Y-32195149D01*
X89909770Y-32236460D01*
X89838861Y-32239996D01*
X89804439Y-32226103D01*
X89687684Y-32157466D01*
X89678085Y-32152868D01*
X89470405Y-32074186D01*
X89460168Y-32071270D01*
X89242190Y-32028700D01*
X89231623Y-32027552D01*
X89009589Y-32022320D01*
X88998967Y-32022970D01*
X88779229Y-32055222D01*
X88768878Y-32057650D01*
X88557708Y-32126467D01*
X88547917Y-32130603D01*
X88351364Y-32234014D01*
X88342396Y-32239749D01*
X88327708Y-32251000D01*
X88319245Y-32262569D01*
X84139878Y-32262569D01*
X84276362Y-32126467D01*
X84558663Y-31844957D01*
X84562480Y-31841306D01*
X85052780Y-31391752D01*
X85249152Y-31211700D01*
X85253113Y-31208219D01*
X85264375Y-31198731D01*
X85907748Y-30656666D01*
X85965522Y-30607989D01*
X85969632Y-30604671D01*
X86485225Y-30205985D01*
X86706595Y-30034809D01*
X86710808Y-30031690D01*
X86742254Y-30009416D01*
X109033008Y-30009416D01*
X109050452Y-30193958D01*
X109052789Y-30205985D01*
X109105746Y-30383623D01*
X109110380Y-30394979D01*
X109166679Y-30501757D01*
X109176504Y-30511873D01*
X109183547Y-30509363D01*
X110097541Y-29595369D01*
X110105155Y-29581425D01*
X110105024Y-29579592D01*
X110100773Y-29572977D01*
X109590007Y-29062211D01*
X109576063Y-29054597D01*
X109574228Y-29054728D01*
X109567618Y-29058976D01*
X109299543Y-29327050D01*
X109295405Y-29331614D01*
X109207527Y-29438598D01*
X109200701Y-29448795D01*
X109113114Y-29612144D01*
X109108399Y-29623472D01*
X109054207Y-29800721D01*
X109051781Y-29812753D01*
X109033050Y-29997157D01*
X109033008Y-30009416D01*
X86742254Y-30009416D01*
X87471032Y-29493200D01*
X87475380Y-29490255D01*
X88257480Y-28984119D01*
X88261962Y-28981350D01*
X89064608Y-28508426D01*
X89069215Y-28505841D01*
X89890950Y-28066990D01*
X89895660Y-28064600D01*
X90279335Y-27879928D01*
X90735073Y-27660572D01*
X90739842Y-27658398D01*
X91595490Y-27289891D01*
X91600342Y-27287921D01*
X92130988Y-27085306D01*
X92470662Y-26955610D01*
X92475635Y-26953830D01*
X93359068Y-26658304D01*
X93364111Y-26656733D01*
X93914347Y-26497978D01*
X94259220Y-26398475D01*
X94264306Y-26397124D01*
X94550461Y-26327410D01*
X95169393Y-26176624D01*
X95174550Y-26175481D01*
X95713516Y-26067886D01*
X96088145Y-25993098D01*
X96093304Y-25992181D01*
X97013709Y-25848254D01*
X97018914Y-25847551D01*
X97944573Y-25742325D01*
X97949829Y-25741839D01*
X98072545Y-25733079D01*
X98879023Y-25675507D01*
X98884299Y-25675241D01*
X99279287Y-25663648D01*
X99815506Y-25647911D01*
X99820757Y-25647867D01*
X100305966Y-25653974D01*
G37*
%TD.AperFunction*%
%TA.AperFunction,Conductor*%
G36*
X103370749Y-33270502D02*
G01*
X103391723Y-33287405D01*
X108421556Y-38317238D01*
X108455582Y-38379550D01*
X108457393Y-38389971D01*
X108461633Y-38422394D01*
X108461634Y-38422396D01*
X108460636Y-38422527D01*
X108459796Y-38485462D01*
X108420619Y-38544671D01*
X108355651Y-38573301D01*
X108285518Y-38562260D01*
X108250289Y-38537450D01*
X103432159Y-33719320D01*
X103427421Y-33713146D01*
X103418466Y-33704191D01*
X103410173Y-33689827D01*
X103395474Y-33681340D01*
X103392411Y-33679571D01*
X103392409Y-33679570D01*
X103387921Y-33676979D01*
X103340327Y-33649500D01*
X103300005Y-33649500D01*
X103276264Y-33649499D01*
X103259674Y-33649499D01*
X103245307Y-33657794D01*
X103245306Y-33657794D01*
X103212655Y-33676646D01*
X103189826Y-33689826D01*
X103181533Y-33704190D01*
X103172579Y-33713144D01*
X103167837Y-33719324D01*
X100019325Y-36867836D01*
X100013139Y-36872583D01*
X100004189Y-36881533D01*
X99989826Y-36889826D01*
X99967889Y-36927822D01*
X99949500Y-36959673D01*
X99949499Y-37040326D01*
X99989826Y-37110174D01*
X100004190Y-37118467D01*
X100013144Y-37127421D01*
X100019324Y-37132163D01*
X104882166Y-41995005D01*
X104916192Y-42057317D01*
X104911127Y-42128132D01*
X104868580Y-42184968D01*
X104802060Y-42209779D01*
X104740920Y-42198801D01*
X104732179Y-42194827D01*
X104715122Y-42189839D01*
X104588854Y-42171756D01*
X104571076Y-42171756D01*
X104444806Y-42189839D01*
X104427751Y-42194826D01*
X104310643Y-42248071D01*
X104297297Y-42256290D01*
X104257419Y-42288353D01*
X104252342Y-42292908D01*
X103670709Y-42874541D01*
X103663095Y-42888485D01*
X103663226Y-42890318D01*
X103667477Y-42896933D01*
X106484824Y-45714280D01*
X106498768Y-45721894D01*
X106500601Y-45721763D01*
X106507216Y-45717512D01*
X107092076Y-45132652D01*
X107096637Y-45127569D01*
X107128698Y-45087695D01*
X107136921Y-45074342D01*
X107190164Y-44957239D01*
X107195151Y-44940184D01*
X107213234Y-44813914D01*
X107213234Y-44796136D01*
X107195151Y-44669868D01*
X107190163Y-44652811D01*
X107186189Y-44644070D01*
X107176203Y-44573780D01*
X107205803Y-44509248D01*
X107265593Y-44470964D01*
X107336589Y-44471082D01*
X107389985Y-44502824D01*
X110867836Y-47980675D01*
X110872583Y-47986861D01*
X110881534Y-47995812D01*
X110889826Y-48010174D01*
X110904188Y-48018466D01*
X110904189Y-48018467D01*
X110945308Y-48042207D01*
X110945310Y-48042208D01*
X110959673Y-48050500D01*
X110976259Y-48050500D01*
X110981274Y-48051844D01*
X111041897Y-48088796D01*
X111072918Y-48152657D01*
X111064488Y-48223151D01*
X111043103Y-48256957D01*
X111019596Y-48283574D01*
X111015782Y-48291697D01*
X111015781Y-48291699D01*
X111002206Y-48320613D01*
X110964754Y-48400384D01*
X110963373Y-48409256D01*
X110960727Y-48426248D01*
X110930482Y-48490481D01*
X110870313Y-48528165D01*
X110836227Y-48532863D01*
X109869643Y-48532863D01*
X109801522Y-48512861D01*
X109780548Y-48495958D01*
X109560748Y-48276158D01*
X109553613Y-48270854D01*
X109512718Y-48240454D01*
X109512715Y-48240453D01*
X109504861Y-48234614D01*
X109418724Y-48205206D01*
X109404290Y-48200278D01*
X109404289Y-48200278D01*
X109394433Y-48196913D01*
X109384019Y-48196922D01*
X109384018Y-48196922D01*
X109335887Y-48196964D01*
X109277746Y-48197015D01*
X109267896Y-48200397D01*
X109176634Y-48231732D01*
X109176632Y-48231733D01*
X109167385Y-48234908D01*
X109159549Y-48240749D01*
X109159545Y-48240751D01*
X109137801Y-48256959D01*
X109112044Y-48276158D01*
X108676158Y-48712044D01*
X108673410Y-48715740D01*
X108673408Y-48715743D01*
X108640454Y-48760074D01*
X108640453Y-48760077D01*
X108634614Y-48767931D01*
X108596913Y-48878359D01*
X108596922Y-48888772D01*
X108596922Y-48888773D01*
X108596939Y-48907763D01*
X108576997Y-48975901D01*
X108523383Y-49022441D01*
X108453118Y-49032607D01*
X108388511Y-49003171D01*
X108381844Y-48996969D01*
X108002981Y-48618106D01*
X107968955Y-48555794D01*
X107974020Y-48484979D01*
X108016567Y-48428143D01*
X108083087Y-48403332D01*
X108091955Y-48403011D01*
X108122254Y-48402985D01*
X108132104Y-48399603D01*
X108223366Y-48368268D01*
X108223368Y-48368267D01*
X108232615Y-48365092D01*
X108240451Y-48359251D01*
X108240455Y-48359249D01*
X108284300Y-48326567D01*
X108287956Y-48323842D01*
X108723842Y-47887956D01*
X108726592Y-47884257D01*
X108759546Y-47839926D01*
X108759547Y-47839923D01*
X108765386Y-47832069D01*
X108803087Y-47721641D01*
X108802985Y-47604954D01*
X108794399Y-47579949D01*
X108768268Y-47503842D01*
X108768267Y-47503840D01*
X108765092Y-47494593D01*
X108759251Y-47486757D01*
X108759249Y-47486753D01*
X108726567Y-47442908D01*
X108723842Y-47439252D01*
X108394022Y-47109432D01*
X108385254Y-47102914D01*
X108345992Y-47073728D01*
X108345989Y-47073727D01*
X108338135Y-47067888D01*
X108269247Y-47044369D01*
X108237564Y-47033552D01*
X108237563Y-47033552D01*
X108227707Y-47030187D01*
X108217293Y-47030196D01*
X108217292Y-47030196D01*
X108169161Y-47030238D01*
X108111020Y-47030289D01*
X108101172Y-47033670D01*
X108101168Y-47033671D01*
X108047661Y-47052043D01*
X107976737Y-47055247D01*
X107917649Y-47021967D01*
X107517235Y-46621553D01*
X107505157Y-46606599D01*
X107501925Y-46603047D01*
X107496277Y-46594300D01*
X107472366Y-46575450D01*
X107468431Y-46571953D01*
X107468343Y-46572057D01*
X107464384Y-46568702D01*
X107460706Y-46565024D01*
X107456481Y-46562005D01*
X107456473Y-46561998D01*
X107446372Y-46554780D01*
X107441625Y-46551216D01*
X107420531Y-46534587D01*
X107404641Y-46522060D01*
X107396665Y-46519259D01*
X107389783Y-46514341D01*
X107344616Y-46500833D01*
X107339010Y-46499011D01*
X107302029Y-46486024D01*
X107302023Y-46486023D01*
X107294546Y-46483397D01*
X107289408Y-46482952D01*
X107286689Y-46482952D01*
X107284507Y-46482857D01*
X107283972Y-46482697D01*
X107283973Y-46482670D01*
X107283855Y-46482663D01*
X107277988Y-46480908D01*
X107228433Y-46482855D01*
X107223486Y-46482952D01*
X106045968Y-46482952D01*
X105977847Y-46462950D01*
X105931354Y-46409294D01*
X105921250Y-46339020D01*
X105950744Y-46274440D01*
X105956873Y-46267857D01*
X106125615Y-46099115D01*
X106133229Y-46085171D01*
X106133098Y-46083338D01*
X106128847Y-46076723D01*
X103311500Y-43259376D01*
X103297556Y-43251762D01*
X103295723Y-43251893D01*
X103289108Y-43256144D01*
X102704248Y-43841004D01*
X102699687Y-43846087D01*
X102667626Y-43885961D01*
X102659403Y-43899314D01*
X102610294Y-44007324D01*
X102563890Y-44061057D01*
X102495803Y-44081173D01*
X102427649Y-44061284D01*
X102406498Y-44044268D01*
X100387408Y-42025178D01*
X100353382Y-41962866D01*
X100350503Y-41936083D01*
X100350503Y-40194186D01*
X100370505Y-40126065D01*
X100383088Y-40109630D01*
X100399297Y-40091723D01*
X100413257Y-40076300D01*
X100474880Y-39949110D01*
X100498328Y-39809736D01*
X100498477Y-39797557D01*
X100487143Y-39718414D01*
X100479714Y-39666538D01*
X100479713Y-39666535D01*
X100478441Y-39657652D01*
X100473417Y-39646601D01*
X100458140Y-39613002D01*
X100419944Y-39528994D01*
X100327687Y-39421925D01*
X100268388Y-39383489D01*
X100216623Y-39349937D01*
X100216622Y-39349936D01*
X100209089Y-39345054D01*
X100157168Y-39329526D01*
X100082283Y-39307130D01*
X100082281Y-39307130D01*
X100073682Y-39304558D01*
X100064707Y-39304503D01*
X100064706Y-39304503D01*
X100003992Y-39304132D01*
X99932352Y-39303695D01*
X99796461Y-39342533D01*
X99676932Y-39417950D01*
X99670990Y-39424678D01*
X99650937Y-39447384D01*
X99583375Y-39523883D01*
X99579561Y-39532006D01*
X99579560Y-39532008D01*
X99574154Y-39543522D01*
X99523310Y-39651817D01*
X99521930Y-39660681D01*
X99521929Y-39660684D01*
X99508000Y-39750147D01*
X99501566Y-39791467D01*
X99502730Y-39800369D01*
X99502730Y-39800372D01*
X99518214Y-39918777D01*
X99519892Y-39931607D01*
X99576813Y-40060970D01*
X99600784Y-40089487D01*
X99619954Y-40112292D01*
X99648475Y-40177308D01*
X99649503Y-40193368D01*
X99649503Y-42082631D01*
X99647470Y-42101730D01*
X99647243Y-42106538D01*
X99645052Y-42116716D01*
X99646276Y-42127055D01*
X99648630Y-42146946D01*
X99648940Y-42152201D01*
X99649075Y-42152190D01*
X99649503Y-42157369D01*
X99649503Y-42162570D01*
X99650357Y-42167698D01*
X99650357Y-42167704D01*
X99652392Y-42179928D01*
X99653229Y-42185804D01*
X99653784Y-42190489D01*
X99658767Y-42232593D01*
X99662426Y-42240213D01*
X99663815Y-42248558D01*
X99668760Y-42257722D01*
X99686195Y-42290035D01*
X99688887Y-42295320D01*
X99709277Y-42337781D01*
X99712595Y-42341729D01*
X99714528Y-42343662D01*
X99715993Y-42345259D01*
X99716257Y-42345749D01*
X99716237Y-42345768D01*
X99716316Y-42345857D01*
X99719225Y-42351249D01*
X99726873Y-42358319D01*
X99726874Y-42358320D01*
X99755639Y-42384910D01*
X99759205Y-42388339D01*
X104416217Y-47045351D01*
X104428295Y-47060305D01*
X104431527Y-47063857D01*
X104437175Y-47072604D01*
X104451499Y-47083896D01*
X104461086Y-47091454D01*
X104465022Y-47094952D01*
X104465110Y-47094848D01*
X104469069Y-47098203D01*
X104472747Y-47101881D01*
X104476972Y-47104900D01*
X104476980Y-47104907D01*
X104487076Y-47112121D01*
X104491826Y-47115688D01*
X104520631Y-47138396D01*
X104520634Y-47138397D01*
X104528811Y-47144844D01*
X104536789Y-47147646D01*
X104543670Y-47152563D01*
X104588843Y-47166073D01*
X104594440Y-47167892D01*
X104638906Y-47183507D01*
X104644044Y-47183952D01*
X104646749Y-47183952D01*
X104648946Y-47184047D01*
X104649480Y-47184207D01*
X104649479Y-47184234D01*
X104649597Y-47184241D01*
X104655464Y-47185996D01*
X104665874Y-47185587D01*
X104668646Y-47185937D01*
X104733725Y-47214315D01*
X104773130Y-47273372D01*
X104774352Y-47344358D01*
X104741958Y-47400040D01*
X104180222Y-47961776D01*
X104176782Y-47966925D01*
X104176780Y-47966927D01*
X104166942Y-47981651D01*
X104155354Y-47998995D01*
X104152934Y-48011163D01*
X104152933Y-48011164D01*
X104147794Y-48037002D01*
X104143673Y-48057716D01*
X104146094Y-48069887D01*
X104146094Y-48069888D01*
X104147792Y-48078425D01*
X104141464Y-48149139D01*
X104097909Y-48205206D01*
X104030957Y-48228825D01*
X103999632Y-48226585D01*
X103991095Y-48224887D01*
X103991094Y-48224887D01*
X103978923Y-48222466D01*
X103966753Y-48224887D01*
X103932371Y-48231726D01*
X103932370Y-48231727D01*
X103920202Y-48234147D01*
X103909884Y-48241041D01*
X103888134Y-48255573D01*
X103888132Y-48255575D01*
X103882983Y-48259015D01*
X103296339Y-48845659D01*
X103271471Y-48882878D01*
X103259790Y-48941599D01*
X103262211Y-48953770D01*
X103262211Y-48953772D01*
X103263909Y-48962307D01*
X103257583Y-49033021D01*
X103214030Y-49089089D01*
X103147078Y-49112710D01*
X103115747Y-49110469D01*
X103107212Y-49108771D01*
X103107210Y-49108771D01*
X103095039Y-49106350D01*
X103082869Y-49108771D01*
X103048487Y-49115610D01*
X103048486Y-49115611D01*
X103036318Y-49118031D01*
X103026000Y-49124925D01*
X103004250Y-49139457D01*
X103004248Y-49139459D01*
X102999099Y-49142899D01*
X102412455Y-49729543D01*
X102409015Y-49734692D01*
X102409013Y-49734694D01*
X102394481Y-49756444D01*
X102387587Y-49766762D01*
X102375906Y-49825483D01*
X102378327Y-49837654D01*
X102385165Y-49872032D01*
X102385166Y-49872035D01*
X102387587Y-49884205D01*
X102394483Y-49894526D01*
X102404632Y-49909715D01*
X102412455Y-49921424D01*
X103564784Y-51073753D01*
X103569933Y-51077193D01*
X103569935Y-51077195D01*
X103585658Y-51087700D01*
X103602003Y-51098621D01*
X103614173Y-51101042D01*
X103614176Y-51101043D01*
X103648554Y-51107881D01*
X103660725Y-51110302D01*
X103672895Y-51107881D01*
X103677576Y-51106950D01*
X103692637Y-51103954D01*
X103707277Y-51101042D01*
X103707278Y-51101041D01*
X103719446Y-51098621D01*
X103738954Y-51085587D01*
X103756665Y-51073753D01*
X103758214Y-51076072D01*
X103812558Y-51053042D01*
X103863146Y-51057488D01*
X103891839Y-51066069D01*
X103897448Y-51067892D01*
X103941914Y-51083507D01*
X103947052Y-51083952D01*
X103949757Y-51083952D01*
X103951954Y-51084047D01*
X103952488Y-51084207D01*
X103952487Y-51084234D01*
X103952605Y-51084241D01*
X103958472Y-51085996D01*
X104008027Y-51084049D01*
X104012974Y-51083952D01*
X105025720Y-51083952D01*
X105093841Y-51103954D01*
X105140334Y-51157610D01*
X105150438Y-51227884D01*
X105120944Y-51292464D01*
X105114815Y-51299047D01*
X104988101Y-51425761D01*
X104973147Y-51437839D01*
X104969595Y-51441071D01*
X104960848Y-51446719D01*
X104954402Y-51454896D01*
X104941998Y-51470630D01*
X104938501Y-51474565D01*
X104938605Y-51474653D01*
X104935250Y-51478612D01*
X104931572Y-51482290D01*
X104928553Y-51486515D01*
X104928546Y-51486523D01*
X104921328Y-51496624D01*
X104917764Y-51501371D01*
X104911376Y-51509474D01*
X104888608Y-51538355D01*
X104885807Y-51546331D01*
X104880889Y-51553213D01*
X104867381Y-51598380D01*
X104865559Y-51603986D01*
X104852572Y-51640967D01*
X104852571Y-51640973D01*
X104849945Y-51648450D01*
X104849500Y-51653588D01*
X104849500Y-51656307D01*
X104849405Y-51658489D01*
X104849245Y-51659024D01*
X104849218Y-51659023D01*
X104849211Y-51659141D01*
X104847456Y-51665008D01*
X104848571Y-51693383D01*
X104849403Y-51714563D01*
X104849500Y-51719510D01*
X104849500Y-51892427D01*
X104829498Y-51960548D01*
X104775842Y-52007041D01*
X104705568Y-52017145D01*
X104671041Y-52006922D01*
X104663860Y-52002268D01*
X104626363Y-51991054D01*
X104537054Y-51964344D01*
X104537052Y-51964344D01*
X104528453Y-51961772D01*
X104519478Y-51961717D01*
X104519477Y-51961717D01*
X104458763Y-51961346D01*
X104387123Y-51960909D01*
X104251232Y-51999747D01*
X104243645Y-52004534D01*
X104243643Y-52004535D01*
X104200212Y-52031938D01*
X104131703Y-52075164D01*
X104038146Y-52181097D01*
X103978081Y-52309031D01*
X103976701Y-52317895D01*
X103976700Y-52317898D01*
X103961861Y-52413204D01*
X103956337Y-52448681D01*
X103954483Y-52448392D01*
X103936907Y-52505643D01*
X103882685Y-52551475D01*
X103830983Y-52562226D01*
X103814869Y-52562128D01*
X103786085Y-52561952D01*
X103650194Y-52600790D01*
X103530665Y-52676207D01*
X103437108Y-52782140D01*
X103377043Y-52910074D01*
X103375663Y-52918938D01*
X103375662Y-52918941D01*
X103357828Y-53033480D01*
X103355299Y-53049724D01*
X103353444Y-53049435D01*
X103335868Y-53106685D01*
X103281647Y-53152516D01*
X103229945Y-53163267D01*
X103211702Y-53163156D01*
X103185040Y-53162993D01*
X103049149Y-53201831D01*
X103041562Y-53206618D01*
X103041560Y-53206619D01*
X102977604Y-53246972D01*
X102929620Y-53277248D01*
X102836063Y-53383181D01*
X102832249Y-53391304D01*
X102832248Y-53391306D01*
X102814807Y-53428455D01*
X102775998Y-53511115D01*
X102774618Y-53519979D01*
X102774617Y-53519982D01*
X102766271Y-53573588D01*
X102754254Y-53650765D01*
X102752400Y-53650476D01*
X102734824Y-53707726D01*
X102680602Y-53753558D01*
X102628900Y-53764309D01*
X102612451Y-53764209D01*
X102584001Y-53764035D01*
X102448110Y-53802873D01*
X102440523Y-53807660D01*
X102440521Y-53807661D01*
X102385289Y-53842510D01*
X102328581Y-53878290D01*
X102235024Y-53984223D01*
X102231210Y-53992346D01*
X102231209Y-53992348D01*
X102220449Y-54015267D01*
X102174959Y-54112157D01*
X102173579Y-54121021D01*
X102173578Y-54121024D01*
X102156737Y-54229188D01*
X102153215Y-54251807D01*
X102151360Y-54251518D01*
X102133784Y-54308765D01*
X102079562Y-54354596D01*
X102027861Y-54365347D01*
X102011088Y-54365245D01*
X101982961Y-54365073D01*
X101847070Y-54403911D01*
X101839483Y-54408698D01*
X101839481Y-54408699D01*
X101786282Y-54442265D01*
X101727541Y-54479328D01*
X101633984Y-54585261D01*
X101630170Y-54593384D01*
X101630169Y-54593386D01*
X101610225Y-54635866D01*
X101573919Y-54713195D01*
X101572539Y-54722059D01*
X101572538Y-54722062D01*
X101555057Y-54834337D01*
X101552175Y-54852845D01*
X101553339Y-54861747D01*
X101553339Y-54861750D01*
X101561633Y-54925173D01*
X101570501Y-54992985D01*
X101627422Y-55122348D01*
X101650176Y-55149417D01*
X101670563Y-55173670D01*
X101699084Y-55238686D01*
X101700112Y-55254746D01*
X101700112Y-58565813D01*
X101680110Y-58633934D01*
X101625562Y-58680830D01*
X101622783Y-58682073D01*
X101614155Y-58684539D01*
X101606568Y-58689326D01*
X101606566Y-58689327D01*
X101512612Y-58748608D01*
X101505019Y-58753399D01*
X101419596Y-58850122D01*
X101415782Y-58858245D01*
X101415781Y-58858247D01*
X101401381Y-58888919D01*
X101364754Y-58966932D01*
X101355626Y-59025558D01*
X101346282Y-59085567D01*
X101346282Y-59085571D01*
X101344901Y-59094440D01*
X101346065Y-59103342D01*
X101346065Y-59103345D01*
X101360468Y-59213489D01*
X101360469Y-59213493D01*
X101361633Y-59222394D01*
X101372218Y-59246450D01*
X101408211Y-59328250D01*
X101413605Y-59340510D01*
X101419382Y-59347383D01*
X101419383Y-59347384D01*
X101490859Y-59432415D01*
X101496639Y-59439291D01*
X101604060Y-59510796D01*
X101727233Y-59549278D01*
X101736203Y-59549442D01*
X101736207Y-59549443D01*
X101794942Y-59550519D01*
X101856255Y-59551643D01*
X101966854Y-59521490D01*
X101972092Y-59520062D01*
X101972093Y-59520062D01*
X101980755Y-59517700D01*
X101988405Y-59513003D01*
X101988407Y-59513002D01*
X102083072Y-59454878D01*
X102083075Y-59454875D01*
X102090724Y-59450179D01*
X102096750Y-59443522D01*
X102171300Y-59361161D01*
X102171303Y-59361157D01*
X102177322Y-59354507D01*
X102233588Y-59238375D01*
X102241726Y-59190002D01*
X102272752Y-59126143D01*
X102281057Y-59117835D01*
X102289764Y-59112213D01*
X102308617Y-59088298D01*
X102312110Y-59084368D01*
X102312006Y-59084280D01*
X102315365Y-59080316D01*
X102319040Y-59076641D01*
X102329268Y-59062329D01*
X102332833Y-59057581D01*
X102344910Y-59042262D01*
X102402791Y-59001150D01*
X102473712Y-58997858D01*
X102497178Y-59006215D01*
X102504060Y-59010796D01*
X102627233Y-59049278D01*
X102636203Y-59049442D01*
X102636207Y-59049443D01*
X102694942Y-59050519D01*
X102756255Y-59051643D01*
X102818505Y-59034671D01*
X102872092Y-59020062D01*
X102872093Y-59020062D01*
X102880755Y-59017700D01*
X102884189Y-59015592D01*
X102952178Y-59007198D01*
X103016157Y-59037975D01*
X103053340Y-59098456D01*
X103056886Y-59116723D01*
X103057309Y-59120293D01*
X103058764Y-59132590D01*
X103062423Y-59140210D01*
X103063812Y-59148555D01*
X103086176Y-59190002D01*
X103086192Y-59190032D01*
X103088884Y-59195317D01*
X103109274Y-59237778D01*
X103112592Y-59241726D01*
X103114525Y-59243659D01*
X103115990Y-59245256D01*
X103116254Y-59245746D01*
X103116234Y-59245765D01*
X103116313Y-59245854D01*
X103119222Y-59251246D01*
X103126870Y-59258316D01*
X103126871Y-59258317D01*
X103155624Y-59284896D01*
X103159190Y-59288324D01*
X103303282Y-59432415D01*
X103421556Y-59550689D01*
X103455581Y-59613002D01*
X103457394Y-59623424D01*
X103461633Y-59655846D01*
X103465250Y-59664066D01*
X103505189Y-59754834D01*
X103513605Y-59773962D01*
X103519382Y-59780835D01*
X103519383Y-59780836D01*
X103574210Y-59846061D01*
X103596639Y-59872743D01*
X103606058Y-59879013D01*
X103671898Y-59922839D01*
X103704060Y-59944248D01*
X103759018Y-59961418D01*
X103816424Y-59979353D01*
X103827233Y-59982730D01*
X103836203Y-59982894D01*
X103836207Y-59982895D01*
X103894942Y-59983971D01*
X103956255Y-59985095D01*
X104056998Y-59957629D01*
X104072092Y-59953514D01*
X104072093Y-59953514D01*
X104080755Y-59951152D01*
X104088405Y-59946455D01*
X104088407Y-59946454D01*
X104183072Y-59888330D01*
X104183075Y-59888327D01*
X104190724Y-59883631D01*
X104200463Y-59872872D01*
X104271300Y-59794613D01*
X104271303Y-59794609D01*
X104277322Y-59787959D01*
X104318982Y-59701974D01*
X104324601Y-59690377D01*
X104372304Y-59637794D01*
X104440863Y-59619349D01*
X104508510Y-59640897D01*
X104527088Y-59656221D01*
X104712595Y-59841728D01*
X104746621Y-59904040D01*
X104749500Y-59930823D01*
X104749500Y-60402686D01*
X104728811Y-60471865D01*
X104725543Y-60476841D01*
X104719596Y-60483574D01*
X104664754Y-60600384D01*
X104661505Y-60621250D01*
X104646282Y-60719019D01*
X104646282Y-60719023D01*
X104644901Y-60727892D01*
X104646065Y-60736794D01*
X104646065Y-60736797D01*
X104660468Y-60846941D01*
X104660469Y-60846945D01*
X104661633Y-60855846D01*
X104675988Y-60888470D01*
X104703293Y-60950525D01*
X104713605Y-60973962D01*
X104796639Y-61072743D01*
X104804116Y-61077720D01*
X104884705Y-61131364D01*
X104904060Y-61144248D01*
X105027233Y-61182730D01*
X105036203Y-61182894D01*
X105036207Y-61182895D01*
X105094942Y-61183971D01*
X105156255Y-61185095D01*
X105218505Y-61168124D01*
X105272092Y-61153514D01*
X105272093Y-61153514D01*
X105280755Y-61151152D01*
X105288405Y-61146455D01*
X105288407Y-61146454D01*
X105383072Y-61088330D01*
X105383075Y-61088327D01*
X105390724Y-61083631D01*
X105396750Y-61076974D01*
X105471300Y-60994613D01*
X105471303Y-60994609D01*
X105477322Y-60987959D01*
X105533588Y-60871827D01*
X105538968Y-60839852D01*
X105554190Y-60749369D01*
X105554997Y-60744572D01*
X105555133Y-60733452D01*
X105542732Y-60646857D01*
X105538112Y-60614597D01*
X105538111Y-60614594D01*
X105536839Y-60605711D01*
X105533125Y-60597542D01*
X105487145Y-60496414D01*
X105487143Y-60496411D01*
X105483428Y-60488240D01*
X105477567Y-60481438D01*
X105472732Y-60473878D01*
X105475102Y-60472362D01*
X105451734Y-60420821D01*
X105450500Y-60403229D01*
X105450500Y-60061179D01*
X105470502Y-59993058D01*
X105524158Y-59946565D01*
X105594432Y-59936461D01*
X105659012Y-59965955D01*
X105665595Y-59972084D01*
X105912595Y-60219084D01*
X105946621Y-60281396D01*
X105949500Y-60308179D01*
X105949500Y-61602686D01*
X105928811Y-61671865D01*
X105925543Y-61676841D01*
X105919596Y-61683574D01*
X105864754Y-61800384D01*
X105860160Y-61829889D01*
X105846282Y-61919019D01*
X105846282Y-61919023D01*
X105844901Y-61927892D01*
X105846065Y-61936794D01*
X105846065Y-61936797D01*
X105860468Y-62046941D01*
X105860469Y-62046945D01*
X105861633Y-62055846D01*
X105913605Y-62173962D01*
X105919382Y-62180835D01*
X105919383Y-62180836D01*
X105984187Y-62257930D01*
X105996639Y-62272743D01*
X106104060Y-62344248D01*
X106179096Y-62367691D01*
X106199060Y-62373928D01*
X106227233Y-62382730D01*
X106236203Y-62382894D01*
X106236207Y-62382895D01*
X106294942Y-62383971D01*
X106356255Y-62385095D01*
X106447964Y-62360092D01*
X106472092Y-62353514D01*
X106472093Y-62353514D01*
X106480755Y-62351152D01*
X106488405Y-62346455D01*
X106488407Y-62346454D01*
X106583072Y-62288330D01*
X106583075Y-62288327D01*
X106590724Y-62283631D01*
X106596750Y-62276974D01*
X106671300Y-62194613D01*
X106671303Y-62194609D01*
X106677322Y-62187959D01*
X106733588Y-62071827D01*
X106736118Y-62056792D01*
X106754190Y-61949369D01*
X106754997Y-61944572D01*
X106755133Y-61933452D01*
X106742202Y-61843158D01*
X106738112Y-61814597D01*
X106738111Y-61814594D01*
X106736839Y-61805711D01*
X106730724Y-61792261D01*
X106687145Y-61696414D01*
X106687143Y-61696411D01*
X106683428Y-61688240D01*
X106677567Y-61681438D01*
X106672732Y-61673878D01*
X106675102Y-61672362D01*
X106651734Y-61620821D01*
X106650500Y-61603229D01*
X106650500Y-60399857D01*
X106670502Y-60331736D01*
X106724158Y-60285243D01*
X106794432Y-60275139D01*
X106859012Y-60304633D01*
X106865595Y-60310762D01*
X107112595Y-60557762D01*
X107146621Y-60620074D01*
X107149500Y-60646857D01*
X107149500Y-62902686D01*
X107128811Y-62971865D01*
X107125543Y-62976841D01*
X107119596Y-62983574D01*
X107064754Y-63100384D01*
X107055626Y-63159010D01*
X107046282Y-63219019D01*
X107046282Y-63219023D01*
X107044901Y-63227892D01*
X107046065Y-63236794D01*
X107046065Y-63236797D01*
X107060468Y-63346941D01*
X107060469Y-63346945D01*
X107061633Y-63355846D01*
X107065975Y-63365713D01*
X107095460Y-63432723D01*
X107113605Y-63473962D01*
X107119382Y-63480835D01*
X107119383Y-63480836D01*
X107160893Y-63530218D01*
X107196639Y-63572743D01*
X107304060Y-63644248D01*
X107427233Y-63682730D01*
X107436203Y-63682894D01*
X107436207Y-63682895D01*
X107494942Y-63683971D01*
X107556255Y-63685095D01*
X107632390Y-63664338D01*
X107672092Y-63653514D01*
X107672093Y-63653514D01*
X107680755Y-63651152D01*
X107688405Y-63646455D01*
X107688407Y-63646454D01*
X107783072Y-63588330D01*
X107783075Y-63588327D01*
X107790724Y-63583631D01*
X107796750Y-63576974D01*
X107871300Y-63494613D01*
X107871303Y-63494609D01*
X107877322Y-63487959D01*
X107933588Y-63371827D01*
X107936880Y-63352263D01*
X107954190Y-63249369D01*
X107954997Y-63244572D01*
X107955133Y-63233452D01*
X107936839Y-63105711D01*
X107883428Y-62988240D01*
X107877567Y-62981438D01*
X107872732Y-62973878D01*
X107875102Y-62972362D01*
X107851734Y-62920821D01*
X107850500Y-62903229D01*
X107850500Y-60783824D01*
X107870502Y-60715703D01*
X107924158Y-60669210D01*
X107994432Y-60659106D01*
X108059012Y-60688600D01*
X108065595Y-60694729D01*
X108312595Y-60941729D01*
X108346621Y-61004041D01*
X108349500Y-61030824D01*
X108349500Y-63120036D01*
X108329498Y-63188157D01*
X108317949Y-63203435D01*
X108282497Y-63243576D01*
X108278683Y-63251699D01*
X108278682Y-63251701D01*
X108264332Y-63282266D01*
X108227655Y-63360386D01*
X108221764Y-63398222D01*
X108209183Y-63479021D01*
X108209183Y-63479025D01*
X108207802Y-63487894D01*
X108208966Y-63496796D01*
X108208966Y-63496799D01*
X108223369Y-63606943D01*
X108223370Y-63606947D01*
X108224534Y-63615848D01*
X108276506Y-63733964D01*
X108282283Y-63740837D01*
X108282284Y-63740838D01*
X108317258Y-63782445D01*
X108359540Y-63832745D01*
X108466961Y-63904250D01*
X108514755Y-63919182D01*
X108521992Y-63921443D01*
X108581049Y-63960849D01*
X108609426Y-64025928D01*
X108598114Y-64096018D01*
X108573513Y-64130805D01*
X106791723Y-65912595D01*
X106729411Y-65946621D01*
X106702628Y-65949500D01*
X98997372Y-65949500D01*
X98929251Y-65929498D01*
X98908277Y-65912595D01*
X88323574Y-55327892D01*
X91144901Y-55327892D01*
X91146065Y-55336794D01*
X91146065Y-55336797D01*
X91160468Y-55446941D01*
X91160469Y-55446945D01*
X91161633Y-55455846D01*
X91213605Y-55573962D01*
X91219382Y-55580835D01*
X91219383Y-55580836D01*
X91248933Y-55615990D01*
X91296639Y-55672743D01*
X91404060Y-55744248D01*
X91521622Y-55780977D01*
X91527233Y-55782730D01*
X91526614Y-55784711D01*
X91585930Y-55815064D01*
X95516215Y-59745348D01*
X95528297Y-59760307D01*
X95531527Y-59763856D01*
X95537175Y-59772604D01*
X95556653Y-59787959D01*
X95561090Y-59791457D01*
X95565020Y-59794950D01*
X95565108Y-59794846D01*
X95569072Y-59798205D01*
X95572747Y-59801880D01*
X95576972Y-59804900D01*
X95576974Y-59804901D01*
X95587059Y-59812108D01*
X95591805Y-59815671D01*
X95628811Y-59844844D01*
X95636787Y-59847645D01*
X95643669Y-59852563D01*
X95688836Y-59866071D01*
X95694442Y-59867893D01*
X95731423Y-59880880D01*
X95731429Y-59880881D01*
X95738906Y-59883507D01*
X95744044Y-59883952D01*
X95746763Y-59883952D01*
X95748945Y-59884047D01*
X95749480Y-59884207D01*
X95749479Y-59884234D01*
X95749597Y-59884241D01*
X95755464Y-59885996D01*
X95805019Y-59884049D01*
X95809966Y-59883952D01*
X98475378Y-59883952D01*
X98545195Y-59905064D01*
X98604060Y-59944248D01*
X98659018Y-59961418D01*
X98716424Y-59979353D01*
X98727233Y-59982730D01*
X98736203Y-59982894D01*
X98736207Y-59982895D01*
X98794942Y-59983971D01*
X98856255Y-59985095D01*
X98956998Y-59957629D01*
X98972092Y-59953514D01*
X98972093Y-59953514D01*
X98980755Y-59951152D01*
X98988405Y-59946455D01*
X98988407Y-59946454D01*
X99083072Y-59888330D01*
X99083075Y-59888327D01*
X99090724Y-59883631D01*
X99100463Y-59872872D01*
X99171300Y-59794613D01*
X99171303Y-59794609D01*
X99177322Y-59787959D01*
X99233588Y-59671827D01*
X99254997Y-59544572D01*
X99255133Y-59533452D01*
X99243880Y-59454878D01*
X99238112Y-59414597D01*
X99238111Y-59414594D01*
X99236839Y-59405711D01*
X99217825Y-59363891D01*
X99187145Y-59296414D01*
X99187143Y-59296411D01*
X99183428Y-59288240D01*
X99140462Y-59238375D01*
X99105051Y-59197278D01*
X99105049Y-59197276D01*
X99099193Y-59190480D01*
X98990906Y-59120293D01*
X98982311Y-59117723D01*
X98982310Y-59117722D01*
X98875874Y-59085890D01*
X98875872Y-59085890D01*
X98867273Y-59083318D01*
X98858298Y-59083263D01*
X98858297Y-59083263D01*
X98803641Y-59082929D01*
X98738231Y-59082530D01*
X98614155Y-59117991D01*
X98542900Y-59162950D01*
X98542008Y-59163513D01*
X98474772Y-59182952D01*
X95997372Y-59182952D01*
X95929251Y-59162950D01*
X95908277Y-59146047D01*
X92078036Y-55315806D01*
X92044010Y-55253494D01*
X92042409Y-55244606D01*
X92036839Y-55205711D01*
X92033125Y-55197542D01*
X91987145Y-55096414D01*
X91987143Y-55096411D01*
X91983428Y-55088240D01*
X91951732Y-55051455D01*
X91905051Y-54997278D01*
X91905049Y-54997276D01*
X91899193Y-54990480D01*
X91790906Y-54920293D01*
X91782311Y-54917723D01*
X91782310Y-54917722D01*
X91675874Y-54885890D01*
X91675872Y-54885890D01*
X91667273Y-54883318D01*
X91658298Y-54883263D01*
X91658297Y-54883263D01*
X91603641Y-54882929D01*
X91538231Y-54882530D01*
X91489785Y-54896376D01*
X91422786Y-54915524D01*
X91422784Y-54915525D01*
X91414155Y-54917991D01*
X91305019Y-54986851D01*
X91299076Y-54993580D01*
X91299075Y-54993581D01*
X91252031Y-55046848D01*
X91219596Y-55083574D01*
X91215782Y-55091697D01*
X91215781Y-55091699D01*
X91206540Y-55111383D01*
X91164754Y-55200384D01*
X91157874Y-55244572D01*
X91146282Y-55319019D01*
X91146282Y-55319023D01*
X91144901Y-55327892D01*
X88323574Y-55327892D01*
X87687405Y-54691723D01*
X87653379Y-54629411D01*
X87650500Y-54602628D01*
X87650500Y-53402041D01*
X87670502Y-53333920D01*
X87687405Y-53312946D01*
X88367707Y-52632644D01*
X88430019Y-52598618D01*
X88447196Y-52596930D01*
X88447181Y-52596814D01*
X88456087Y-52595705D01*
X88465064Y-52595869D01*
X88536248Y-52576462D01*
X88592761Y-52561055D01*
X88592763Y-52561054D01*
X88601420Y-52558694D01*
X88721861Y-52484743D01*
X88727885Y-52478088D01*
X88810678Y-52386620D01*
X88810679Y-52386619D01*
X88816706Y-52379960D01*
X88822066Y-52368898D01*
X88874415Y-52260849D01*
X88874415Y-52260848D01*
X88878329Y-52252770D01*
X88901777Y-52113396D01*
X88901926Y-52101217D01*
X88893831Y-52044690D01*
X88883163Y-51970198D01*
X88883162Y-51970195D01*
X88881890Y-51961312D01*
X88877518Y-51951696D01*
X88877296Y-51950134D01*
X88875655Y-51944522D01*
X88876465Y-51944285D01*
X88867528Y-51881407D01*
X88897125Y-51816874D01*
X88956913Y-51778587D01*
X89027909Y-51778701D01*
X89081311Y-51810445D01*
X90616215Y-53345348D01*
X90628297Y-53360307D01*
X90631527Y-53363856D01*
X90637175Y-53372604D01*
X90645352Y-53379050D01*
X90661090Y-53391457D01*
X90665020Y-53394950D01*
X90665108Y-53394846D01*
X90669072Y-53398205D01*
X90672747Y-53401880D01*
X90676972Y-53404900D01*
X90676974Y-53404901D01*
X90687059Y-53412108D01*
X90691805Y-53415671D01*
X90694274Y-53417617D01*
X90728811Y-53444844D01*
X90736787Y-53447645D01*
X90743669Y-53452563D01*
X90788836Y-53466071D01*
X90794442Y-53467893D01*
X90831423Y-53480880D01*
X90831429Y-53480881D01*
X90838906Y-53483507D01*
X90844044Y-53483952D01*
X90846763Y-53483952D01*
X90848945Y-53484047D01*
X90849480Y-53484207D01*
X90849479Y-53484234D01*
X90849597Y-53484241D01*
X90855464Y-53485996D01*
X90905019Y-53484049D01*
X90909966Y-53483952D01*
X92694407Y-53483952D01*
X92713506Y-53485985D01*
X92718314Y-53486212D01*
X92728492Y-53488403D01*
X92758722Y-53484825D01*
X92763977Y-53484515D01*
X92763966Y-53484380D01*
X92769145Y-53483952D01*
X92774346Y-53483952D01*
X92779474Y-53483098D01*
X92779480Y-53483098D01*
X92791704Y-53481063D01*
X92797580Y-53480226D01*
X92834030Y-53475912D01*
X92834032Y-53475912D01*
X92844369Y-53474688D01*
X92851989Y-53471029D01*
X92860334Y-53469640D01*
X92901815Y-53447258D01*
X92907101Y-53444565D01*
X92949557Y-53424178D01*
X92953505Y-53420860D01*
X92955438Y-53418927D01*
X92957035Y-53417462D01*
X92957525Y-53417198D01*
X92957544Y-53417218D01*
X92957633Y-53417139D01*
X92963025Y-53414230D01*
X92974293Y-53402041D01*
X92996686Y-53377816D01*
X93000115Y-53374250D01*
X93246744Y-53127621D01*
X93309056Y-53093595D01*
X93326233Y-53091907D01*
X93326218Y-53091791D01*
X93335125Y-53090682D01*
X93344101Y-53090846D01*
X93352763Y-53088484D01*
X93361260Y-53087426D01*
X93431331Y-53098855D01*
X93484100Y-53146352D01*
X93502813Y-53214838D01*
X93501335Y-53231845D01*
X93492538Y-53288341D01*
X93492538Y-53288345D01*
X93491157Y-53297214D01*
X93492321Y-53306116D01*
X93492321Y-53306119D01*
X93508319Y-53428455D01*
X93509483Y-53437354D01*
X93566404Y-53566717D01*
X93657345Y-53674904D01*
X93664816Y-53679877D01*
X93664817Y-53679878D01*
X93767522Y-53748245D01*
X93767525Y-53748246D01*
X93774995Y-53753219D01*
X93783559Y-53755895D01*
X93783562Y-53755896D01*
X93831821Y-53770973D01*
X93909897Y-53795366D01*
X94051206Y-53797956D01*
X94059871Y-53795594D01*
X94068363Y-53794536D01*
X94138434Y-53805964D01*
X94191202Y-53853461D01*
X94209916Y-53921947D01*
X94208438Y-53938955D01*
X94199642Y-53995445D01*
X94199642Y-53995449D01*
X94198261Y-54004318D01*
X94199425Y-54013220D01*
X94199425Y-54013223D01*
X94215423Y-54135559D01*
X94216587Y-54144458D01*
X94273508Y-54273821D01*
X94364449Y-54382008D01*
X94371920Y-54386981D01*
X94371921Y-54386982D01*
X94474626Y-54455349D01*
X94474629Y-54455350D01*
X94482099Y-54460323D01*
X94490663Y-54462999D01*
X94490666Y-54463000D01*
X94542929Y-54479328D01*
X94617001Y-54502470D01*
X94758310Y-54505060D01*
X94828016Y-54486056D01*
X94886007Y-54470246D01*
X94886009Y-54470245D01*
X94894666Y-54467885D01*
X94992395Y-54407879D01*
X95007459Y-54398630D01*
X95007460Y-54398630D01*
X95015107Y-54393934D01*
X95028097Y-54379583D01*
X95103924Y-54295811D01*
X95103925Y-54295810D01*
X95109952Y-54289151D01*
X95114051Y-54280692D01*
X95167661Y-54170040D01*
X95167661Y-54170039D01*
X95171575Y-54161961D01*
X95195023Y-54022587D01*
X95195172Y-54010408D01*
X95182850Y-53924368D01*
X95176409Y-53879389D01*
X95176408Y-53879386D01*
X95175136Y-53870503D01*
X95163507Y-53844925D01*
X95152341Y-53820367D01*
X95116639Y-53741845D01*
X95110779Y-53735044D01*
X95110775Y-53735038D01*
X95077745Y-53696705D01*
X95048431Y-53632043D01*
X95047198Y-53614458D01*
X95047198Y-51143248D01*
X98607282Y-51143248D01*
X98607413Y-51145081D01*
X98611664Y-51151696D01*
X99514734Y-52054765D01*
X99519797Y-52059307D01*
X99559679Y-52091375D01*
X99573032Y-52099598D01*
X99690133Y-52152840D01*
X99707191Y-52157828D01*
X99833459Y-52175911D01*
X99851237Y-52175911D01*
X99977507Y-52157828D01*
X99994562Y-52152841D01*
X100111670Y-52099596D01*
X100125016Y-52091377D01*
X100164894Y-52059314D01*
X100169971Y-52054759D01*
X100751604Y-51473126D01*
X100759218Y-51459182D01*
X100759087Y-51457349D01*
X100754836Y-51450734D01*
X99536963Y-50232861D01*
X99523019Y-50225247D01*
X99521186Y-50225378D01*
X99514571Y-50229629D01*
X98614896Y-51129304D01*
X98607282Y-51143248D01*
X95047198Y-51143248D01*
X95047198Y-49551531D01*
X97209079Y-49551531D01*
X97227162Y-49677799D01*
X97232150Y-49694857D01*
X97285394Y-49811963D01*
X97293613Y-49825309D01*
X97325674Y-49865185D01*
X97330228Y-49870261D01*
X98230066Y-50770098D01*
X98244004Y-50777709D01*
X98245840Y-50777577D01*
X98252452Y-50773328D01*
X99152129Y-49873651D01*
X99158507Y-49861971D01*
X99888559Y-49861971D01*
X99888690Y-49863804D01*
X99892941Y-49870419D01*
X101110813Y-51088291D01*
X101124757Y-51095905D01*
X101126590Y-51095774D01*
X101133205Y-51091523D01*
X101718065Y-50506663D01*
X101722626Y-50501580D01*
X101754687Y-50461706D01*
X101762910Y-50448353D01*
X101816153Y-50331250D01*
X101821140Y-50314195D01*
X101839223Y-50187925D01*
X101839223Y-50170147D01*
X101821140Y-50043879D01*
X101816152Y-50026821D01*
X101762908Y-49909715D01*
X101754689Y-49896369D01*
X101722628Y-49856493D01*
X101718074Y-49851417D01*
X100818236Y-48951580D01*
X100804298Y-48943969D01*
X100802462Y-48944101D01*
X100795850Y-48948350D01*
X99896173Y-49848027D01*
X99888559Y-49861971D01*
X99158507Y-49861971D01*
X99159743Y-49859707D01*
X99159612Y-49857874D01*
X99155361Y-49851259D01*
X97937489Y-48633387D01*
X97923545Y-48625773D01*
X97921712Y-48625904D01*
X97915097Y-48630155D01*
X97330237Y-49215015D01*
X97325676Y-49220098D01*
X97293615Y-49259972D01*
X97285392Y-49273325D01*
X97232149Y-49390428D01*
X97227162Y-49407483D01*
X97209079Y-49533753D01*
X97209079Y-49551531D01*
X95047198Y-49551531D01*
X95047198Y-48262496D01*
X98289084Y-48262496D01*
X98289215Y-48264329D01*
X98293466Y-48270944D01*
X99511339Y-49488817D01*
X99525283Y-49496431D01*
X99527116Y-49496300D01*
X99533731Y-49492049D01*
X100433406Y-48592374D01*
X100441020Y-48578430D01*
X100440889Y-48576597D01*
X100436638Y-48569982D01*
X99533568Y-47666913D01*
X99528505Y-47662371D01*
X99488623Y-47630303D01*
X99475270Y-47622080D01*
X99358169Y-47568838D01*
X99341111Y-47563850D01*
X99214843Y-47545767D01*
X99197065Y-47545767D01*
X99070795Y-47563850D01*
X99053740Y-47568837D01*
X98936632Y-47622082D01*
X98923286Y-47630301D01*
X98883408Y-47662364D01*
X98878331Y-47666919D01*
X98296698Y-48248552D01*
X98289084Y-48262496D01*
X95047198Y-48262496D01*
X95047198Y-45747522D01*
X95049231Y-45728423D01*
X95049458Y-45723615D01*
X95051649Y-45713437D01*
X95048071Y-45683207D01*
X95047761Y-45677952D01*
X95047626Y-45677963D01*
X95047198Y-45672785D01*
X95047198Y-45667583D01*
X95044307Y-45650213D01*
X95043471Y-45644342D01*
X95039158Y-45607903D01*
X95037934Y-45597559D01*
X95034275Y-45589939D01*
X95032886Y-45581595D01*
X95010517Y-45540139D01*
X95007820Y-45534848D01*
X95007533Y-45534249D01*
X94987424Y-45492372D01*
X94984106Y-45488424D01*
X94982167Y-45486485D01*
X94980708Y-45484894D01*
X94980444Y-45484404D01*
X94980464Y-45484385D01*
X94980385Y-45484296D01*
X94977476Y-45478904D01*
X94959825Y-45462587D01*
X94941062Y-45445243D01*
X94937496Y-45441814D01*
X93687405Y-44191723D01*
X93653379Y-44129411D01*
X93650500Y-44102628D01*
X93650500Y-43424528D01*
X94023648Y-43424528D01*
X94037477Y-43635523D01*
X94038898Y-43641119D01*
X94038899Y-43641124D01*
X94068908Y-43759281D01*
X94089526Y-43840464D01*
X94091943Y-43845707D01*
X94166449Y-44007324D01*
X94178050Y-44032488D01*
X94300086Y-44205165D01*
X94451546Y-44352711D01*
X94456342Y-44355916D01*
X94456345Y-44355918D01*
X94566335Y-44429411D01*
X94627358Y-44470185D01*
X94632666Y-44472466D01*
X94632667Y-44472466D01*
X94816331Y-44551374D01*
X94816334Y-44551375D01*
X94821634Y-44553652D01*
X94827263Y-44554926D01*
X94827264Y-44554926D01*
X95022231Y-44599043D01*
X95022234Y-44599043D01*
X95027867Y-44600318D01*
X95033638Y-44600545D01*
X95033640Y-44600545D01*
X95090473Y-44602778D01*
X95239151Y-44608620D01*
X95244860Y-44607792D01*
X95244864Y-44607792D01*
X95442696Y-44579107D01*
X95442700Y-44579106D01*
X95448411Y-44578278D01*
X95543426Y-44546025D01*
X95645567Y-44511353D01*
X95716502Y-44508397D01*
X95759323Y-44528149D01*
X95763317Y-44531003D01*
X95768068Y-44534571D01*
X95796873Y-44557279D01*
X95796876Y-44557280D01*
X95805053Y-44563727D01*
X95813031Y-44566529D01*
X95819912Y-44571446D01*
X95865085Y-44584956D01*
X95870682Y-44586775D01*
X95915148Y-44602390D01*
X95920286Y-44602835D01*
X95922991Y-44602835D01*
X95925188Y-44602930D01*
X95925722Y-44603090D01*
X95925721Y-44603117D01*
X95925839Y-44603124D01*
X95931706Y-44604879D01*
X95981261Y-44602932D01*
X95986208Y-44602835D01*
X96557395Y-44602835D01*
X96627213Y-44623948D01*
X96744844Y-44702250D01*
X96753408Y-44704926D01*
X96753411Y-44704927D01*
X96785983Y-44715103D01*
X96879746Y-44744397D01*
X97021055Y-44746987D01*
X97106335Y-44723737D01*
X97148752Y-44712173D01*
X97148754Y-44712172D01*
X97157411Y-44709812D01*
X97277852Y-44635861D01*
X97293354Y-44618735D01*
X97366669Y-44537738D01*
X97366670Y-44537737D01*
X97372697Y-44531078D01*
X97380520Y-44514933D01*
X97430406Y-44411967D01*
X97430406Y-44411966D01*
X97434320Y-44403888D01*
X97457768Y-44264514D01*
X97457917Y-44252335D01*
X97449237Y-44191723D01*
X97439154Y-44121316D01*
X97439153Y-44121313D01*
X97437881Y-44112430D01*
X97433425Y-44102628D01*
X97406890Y-44044268D01*
X97379384Y-43983772D01*
X97287127Y-43876703D01*
X97168529Y-43799832D01*
X97151854Y-43794845D01*
X97041723Y-43761908D01*
X97041721Y-43761908D01*
X97033122Y-43759336D01*
X97024147Y-43759281D01*
X97024146Y-43759281D01*
X96963432Y-43758910D01*
X96891792Y-43758473D01*
X96755901Y-43797311D01*
X96636372Y-43872728D01*
X96635747Y-43873436D01*
X96574599Y-43900707D01*
X96557776Y-43901835D01*
X96417822Y-43901835D01*
X96349701Y-43881833D01*
X96303208Y-43828177D01*
X96293104Y-43757903D01*
X96298509Y-43735333D01*
X96300330Y-43729970D01*
X96300331Y-43729965D01*
X96302185Y-43724504D01*
X96332527Y-43515244D01*
X96334110Y-43454774D01*
X96314762Y-43244214D01*
X96311435Y-43232415D01*
X96282759Y-43130738D01*
X96257367Y-43040705D01*
X96246234Y-43018128D01*
X96166400Y-42856243D01*
X96163846Y-42851064D01*
X96037332Y-42681641D01*
X95916318Y-42569777D01*
X95886303Y-42542031D01*
X95886301Y-42542029D01*
X95882062Y-42538111D01*
X95703235Y-42425279D01*
X95506841Y-42346926D01*
X95501184Y-42345801D01*
X95501178Y-42345799D01*
X95305123Y-42306802D01*
X95305121Y-42306802D01*
X95299456Y-42305675D01*
X95293681Y-42305599D01*
X95293677Y-42305599D01*
X95187657Y-42304211D01*
X95088027Y-42302907D01*
X95082330Y-42303886D01*
X95082329Y-42303886D01*
X94885331Y-42337736D01*
X94885330Y-42337736D01*
X94879634Y-42338715D01*
X94681256Y-42411901D01*
X94676295Y-42414853D01*
X94676294Y-42414853D01*
X94552555Y-42488470D01*
X94499537Y-42520012D01*
X94340562Y-42659429D01*
X94209657Y-42825482D01*
X94206968Y-42830593D01*
X94206966Y-42830596D01*
X94193907Y-42855418D01*
X94111204Y-43012610D01*
X94079449Y-43114877D01*
X94052893Y-43200404D01*
X94048501Y-43214547D01*
X94023648Y-43424528D01*
X93650500Y-43424528D01*
X93650500Y-42397372D01*
X93670502Y-42329251D01*
X93687405Y-42308277D01*
X94692476Y-41303206D01*
X96144967Y-41303206D01*
X96158796Y-41514201D01*
X96160217Y-41519797D01*
X96160218Y-41519802D01*
X96208353Y-41709329D01*
X96210845Y-41719142D01*
X96213262Y-41724385D01*
X96276258Y-41861034D01*
X96299369Y-41911166D01*
X96421405Y-42083843D01*
X96441474Y-42103393D01*
X96539413Y-42198801D01*
X96572865Y-42231389D01*
X96577661Y-42234594D01*
X96577664Y-42234596D01*
X96668552Y-42295325D01*
X96748677Y-42348863D01*
X96753985Y-42351144D01*
X96753986Y-42351144D01*
X96937650Y-42430052D01*
X96937653Y-42430053D01*
X96942953Y-42432330D01*
X96948582Y-42433604D01*
X96948583Y-42433604D01*
X97143550Y-42477721D01*
X97143553Y-42477721D01*
X97149186Y-42478996D01*
X97154957Y-42479223D01*
X97154959Y-42479223D01*
X97216989Y-42481660D01*
X97360470Y-42487298D01*
X97366179Y-42486470D01*
X97366183Y-42486470D01*
X97564015Y-42457785D01*
X97564019Y-42457784D01*
X97569730Y-42456956D01*
X97575199Y-42455099D01*
X97580815Y-42453751D01*
X97581178Y-42455264D01*
X97644741Y-42452610D01*
X97706016Y-42488470D01*
X97738177Y-42551764D01*
X97740316Y-42574882D01*
X97740316Y-42724743D01*
X97720314Y-42792864D01*
X97708757Y-42808150D01*
X97674188Y-42847293D01*
X97670374Y-42855416D01*
X97670373Y-42855418D01*
X97661395Y-42874541D01*
X97614123Y-42975227D01*
X97612743Y-42984091D01*
X97612742Y-42984094D01*
X97594277Y-43102689D01*
X97592379Y-43114877D01*
X97593543Y-43123779D01*
X97593543Y-43123782D01*
X97609292Y-43244214D01*
X97610705Y-43255017D01*
X97667626Y-43384380D01*
X97758567Y-43492567D01*
X97766038Y-43497540D01*
X97766039Y-43497541D01*
X97868744Y-43565908D01*
X97868747Y-43565909D01*
X97876217Y-43570882D01*
X97884781Y-43573558D01*
X97884784Y-43573559D01*
X97938071Y-43590207D01*
X98011119Y-43613029D01*
X98152428Y-43615619D01*
X98245638Y-43590207D01*
X98280125Y-43580805D01*
X98280127Y-43580804D01*
X98288784Y-43578444D01*
X98349004Y-43541469D01*
X98401577Y-43509189D01*
X98401578Y-43509189D01*
X98409225Y-43504493D01*
X98415518Y-43497541D01*
X98498042Y-43406370D01*
X98498043Y-43406369D01*
X98504070Y-43399710D01*
X98508169Y-43391251D01*
X98561779Y-43280599D01*
X98561779Y-43280598D01*
X98565693Y-43272520D01*
X98589141Y-43133146D01*
X98589290Y-43120967D01*
X98577462Y-43038375D01*
X98570527Y-42989948D01*
X98570526Y-42989945D01*
X98569254Y-42981062D01*
X98510757Y-42852404D01*
X98504897Y-42845603D01*
X98504893Y-42845597D01*
X98471863Y-42807264D01*
X98442549Y-42742602D01*
X98441316Y-42725017D01*
X98441316Y-42175094D01*
X98443349Y-42155995D01*
X98443576Y-42151191D01*
X98445768Y-42141008D01*
X98442189Y-42110769D01*
X98441880Y-42105521D01*
X98441744Y-42105532D01*
X98441316Y-42100353D01*
X98441316Y-42095153D01*
X98440463Y-42090027D01*
X98440462Y-42090018D01*
X98438429Y-42077805D01*
X98437592Y-42071929D01*
X98433277Y-42035471D01*
X98433277Y-42035470D01*
X98432053Y-42025130D01*
X98428392Y-42017507D01*
X98427004Y-42009165D01*
X98404631Y-41967703D01*
X98401935Y-41962411D01*
X98389817Y-41937175D01*
X98381542Y-41919942D01*
X98378224Y-41915994D01*
X98377061Y-41914831D01*
X98372146Y-41907218D01*
X98374738Y-41905544D01*
X98352000Y-41853710D01*
X98357660Y-41797152D01*
X98358020Y-41796093D01*
X98423504Y-41603182D01*
X98424347Y-41597372D01*
X98453314Y-41397592D01*
X98453314Y-41397590D01*
X98453846Y-41393922D01*
X98455429Y-41333452D01*
X98436081Y-41122892D01*
X98378686Y-40919383D01*
X98367832Y-40897372D01*
X98287719Y-40734921D01*
X98285165Y-40729742D01*
X98158651Y-40560319D01*
X98043308Y-40453697D01*
X98007622Y-40420709D01*
X98007620Y-40420707D01*
X98003381Y-40416789D01*
X97903810Y-40353964D01*
X97829434Y-40307036D01*
X97829433Y-40307036D01*
X97824554Y-40303957D01*
X97628160Y-40225604D01*
X97622503Y-40224479D01*
X97622497Y-40224477D01*
X97426442Y-40185480D01*
X97426440Y-40185480D01*
X97420775Y-40184353D01*
X97415000Y-40184277D01*
X97414996Y-40184277D01*
X97308976Y-40182889D01*
X97209346Y-40181585D01*
X97203649Y-40182564D01*
X97203648Y-40182564D01*
X97006650Y-40216414D01*
X97006649Y-40216414D01*
X97000953Y-40217393D01*
X96802575Y-40290579D01*
X96797614Y-40293531D01*
X96797613Y-40293531D01*
X96672230Y-40368126D01*
X96620856Y-40398690D01*
X96461881Y-40538107D01*
X96330976Y-40704160D01*
X96328287Y-40709271D01*
X96328285Y-40709274D01*
X96314792Y-40734921D01*
X96232523Y-40891288D01*
X96169820Y-41093225D01*
X96144967Y-41303206D01*
X94692476Y-41303206D01*
X102708277Y-33287405D01*
X102770589Y-33253379D01*
X102797372Y-33250500D01*
X103302628Y-33250500D01*
X103370749Y-33270502D01*
G37*
%TD.AperFunction*%
%TD*%
M02*
