%TF.GenerationSoftware,KiCad,Pcbnew,(6.0.8)*%
%TF.CreationDate,2022-10-29T03:41:05+02:00*%
%TF.ProjectId,view_base,76696577-5f62-4617-9365-2e6b69636164,rev?*%
%TF.SameCoordinates,Original*%
%TF.FileFunction,Legend,Top*%
%TF.FilePolarity,Positive*%
%FSLAX46Y46*%
G04 Gerber Fmt 4.6, Leading zero omitted, Abs format (unit mm)*
G04 Created by KiCad (PCBNEW (6.0.8)) date 2022-10-29 03:41:05*
%MOMM*%
%LPD*%
G01*
G04 APERTURE LIST*
%ADD10C,0.150000*%
%ADD11C,0.101600*%
%ADD12C,0.120000*%
%ADD13C,0.100000*%
G04 APERTURE END LIST*
D10*
%TO.C,J6*%
X94446824Y-28724580D02*
X94951900Y-28219504D01*
X95086587Y-28152160D01*
X95221274Y-28152160D01*
X95355961Y-28219504D01*
X95423304Y-28286847D01*
X93807060Y-28084817D02*
X93941747Y-28219504D01*
X94042763Y-28253175D01*
X94110106Y-28253175D01*
X94278465Y-28219504D01*
X94446824Y-28118488D01*
X94716198Y-27849114D01*
X94749869Y-27748099D01*
X94749869Y-27680756D01*
X94716198Y-27579740D01*
X94581511Y-27445053D01*
X94480495Y-27411382D01*
X94413152Y-27411382D01*
X94312137Y-27445053D01*
X94143778Y-27613412D01*
X94110106Y-27714427D01*
X94110106Y-27781771D01*
X94143778Y-27882786D01*
X94278465Y-28017473D01*
X94379480Y-28051145D01*
X94446824Y-28051145D01*
X94547839Y-28017473D01*
X98234895Y-34061553D02*
X98302239Y-34061553D01*
X98436926Y-34128896D01*
X98504269Y-34196240D01*
X98571613Y-34330927D01*
X98571613Y-34465614D01*
X98537941Y-34566629D01*
X98436926Y-34734988D01*
X98335910Y-34836003D01*
X98167552Y-34937018D01*
X98066536Y-34970690D01*
X97931849Y-34970690D01*
X97797162Y-34903347D01*
X97729819Y-34836003D01*
X97662475Y-34701316D01*
X97662475Y-34633973D01*
X97898178Y-33590148D02*
X97931849Y-33691164D01*
X97931849Y-33758507D01*
X97898178Y-33859522D01*
X97696147Y-34061553D01*
X97595132Y-34095225D01*
X97527788Y-34095225D01*
X97426773Y-34061553D01*
X97325758Y-33960538D01*
X97292086Y-33859522D01*
X97292086Y-33792179D01*
X97325758Y-33691164D01*
X97527788Y-33489133D01*
X97628804Y-33455461D01*
X97696147Y-33455461D01*
X97797162Y-33489133D01*
X97898178Y-33590148D01*
X96888025Y-33522805D02*
X97359430Y-33051400D01*
X96955369Y-33455461D02*
X96888025Y-33455461D01*
X96787010Y-33421790D01*
X96685995Y-33320774D01*
X96652323Y-33219759D01*
X96685995Y-33118744D01*
X97056384Y-32748355D01*
X96248262Y-32883042D02*
X96719666Y-32411637D01*
X96315605Y-32815698D02*
X96248262Y-32815698D01*
X96147247Y-32782026D01*
X96046231Y-32681011D01*
X96012560Y-32579996D01*
X96046231Y-32478981D01*
X96416621Y-32108591D01*
X96315605Y-31872889D02*
X95776857Y-31334141D01*
X94699361Y-31805546D02*
X94632018Y-31738202D01*
X94598346Y-31637187D01*
X94598346Y-31569843D01*
X94632018Y-31468828D01*
X94733033Y-31300469D01*
X94901392Y-31132111D01*
X95069751Y-31031095D01*
X95170766Y-30997424D01*
X95238109Y-30997424D01*
X95339125Y-31031095D01*
X95406468Y-31098439D01*
X95440140Y-31199454D01*
X95440140Y-31266798D01*
X95406468Y-31367813D01*
X95305453Y-31536172D01*
X95137094Y-31704530D01*
X94968735Y-31805546D01*
X94867720Y-31839217D01*
X94800377Y-31839217D01*
X94699361Y-31805546D01*
X94497331Y-30189302D02*
X94901392Y-30593363D01*
X94699361Y-30391332D02*
X93992255Y-31098439D01*
X94160613Y-31064767D01*
X94295300Y-31064767D01*
X94396316Y-31098439D01*
X94261629Y-29953599D02*
X93419835Y-30054615D01*
X93790224Y-30425004D02*
X93891239Y-29583210D01*
X92780071Y-29886256D02*
X92712728Y-29818912D01*
X92679056Y-29717897D01*
X92679056Y-29650554D01*
X92712728Y-29549538D01*
X92813743Y-29381179D01*
X92982102Y-29212821D01*
X93150461Y-29111805D01*
X93251476Y-29078134D01*
X93318820Y-29078134D01*
X93419835Y-29111805D01*
X93487178Y-29179149D01*
X93520850Y-29280164D01*
X93520850Y-29347508D01*
X93487178Y-29448523D01*
X93386163Y-29616882D01*
X93217804Y-29785241D01*
X93049445Y-29886256D01*
X92948430Y-29919928D01*
X92881087Y-29919928D01*
X92780071Y-29886256D01*
X91904606Y-29010790D02*
X92241323Y-29347508D01*
X92611713Y-29044462D01*
X92544369Y-29044462D01*
X92443354Y-29010790D01*
X92274995Y-28842431D01*
X92241323Y-28741416D01*
X92241323Y-28674073D01*
X92274995Y-28573057D01*
X92443354Y-28404699D01*
X92544369Y-28371027D01*
X92611713Y-28371027D01*
X92712728Y-28404699D01*
X92881087Y-28573057D01*
X92914758Y-28674073D01*
X92914758Y-28741416D01*
X92510697Y-28067981D02*
X91971949Y-27529233D01*
X91130156Y-27562905D02*
X91365858Y-27798607D01*
X91736247Y-27428218D02*
X91029140Y-28135325D01*
X90692423Y-27798607D01*
X90827110Y-26586424D02*
X90928125Y-26620096D01*
X91062812Y-26754783D01*
X91096484Y-26855798D01*
X91062812Y-26956813D01*
X90793438Y-27226187D01*
X90692423Y-27259859D01*
X90591408Y-27226187D01*
X90456721Y-27091500D01*
X90423049Y-26990485D01*
X90456721Y-26889470D01*
X90524064Y-26822126D01*
X90928125Y-27091500D01*
X90524064Y-26216035D02*
X90052660Y-26687439D01*
X90120003Y-26620096D02*
X90052660Y-26620096D01*
X89951644Y-26586424D01*
X89850629Y-26485409D01*
X89816957Y-26384394D01*
X89850629Y-26283378D01*
X90221018Y-25912989D01*
X89850629Y-26283378D02*
X89749614Y-26317050D01*
X89648599Y-26283378D01*
X89547583Y-26182363D01*
X89513912Y-26081348D01*
X89547583Y-25980333D01*
X89917973Y-25609943D01*
X89278209Y-24970180D02*
X88907820Y-25340569D01*
X88874148Y-25441585D01*
X88907820Y-25542600D01*
X89042507Y-25677287D01*
X89143522Y-25710959D01*
X89244538Y-25003852D02*
X89345553Y-25037524D01*
X89513912Y-25205882D01*
X89547583Y-25306898D01*
X89513912Y-25407913D01*
X89446568Y-25475256D01*
X89345553Y-25508928D01*
X89244538Y-25475256D01*
X89076179Y-25306898D01*
X88975164Y-25273226D01*
X88840477Y-24532447D02*
X88874148Y-24633463D01*
X88840477Y-24734478D01*
X88234385Y-25340569D01*
X88268057Y-24027371D02*
X88369072Y-24061043D01*
X88503759Y-24195730D01*
X88537431Y-24296745D01*
X88503759Y-24397760D01*
X88234385Y-24667134D01*
X88133370Y-24700806D01*
X88032355Y-24667134D01*
X87897668Y-24532447D01*
X87863996Y-24431432D01*
X87897668Y-24330417D01*
X87965011Y-24263073D01*
X88369072Y-24532447D01*
%TO.C,U1*%
X111326360Y-47337308D02*
X111898780Y-47909728D01*
X111999795Y-47943400D01*
X112067139Y-47943400D01*
X112168154Y-47909728D01*
X112302841Y-47775041D01*
X112336513Y-47674026D01*
X112336513Y-47606682D01*
X112302841Y-47505667D01*
X111730421Y-46933247D01*
X113144635Y-46933247D02*
X112740574Y-47337308D01*
X112942604Y-47135278D02*
X112235498Y-46428171D01*
X112269169Y-46596530D01*
X112269169Y-46731217D01*
X112235498Y-46832232D01*
%TO.C,TP4*%
X95969965Y-39363654D02*
X95868950Y-39936074D01*
X96374026Y-39767715D02*
X95666920Y-40474822D01*
X95397545Y-40205448D01*
X95363874Y-40104433D01*
X95363874Y-40037089D01*
X95397545Y-39936074D01*
X95498561Y-39835059D01*
X95599576Y-39801387D01*
X95666920Y-39801387D01*
X95767935Y-39835059D01*
X96037309Y-40104433D01*
X95027156Y-39835059D02*
X95262858Y-38656547D01*
X94555752Y-39363654D02*
X95734263Y-39127952D01*
%TO.C,R4*%
X108077072Y-49158629D02*
X107976057Y-49731049D01*
X108481133Y-49562690D02*
X107774027Y-50269797D01*
X107504652Y-50000423D01*
X107470981Y-49899408D01*
X107470981Y-49832064D01*
X107504652Y-49731049D01*
X107605668Y-49630034D01*
X107706683Y-49596362D01*
X107774027Y-49596362D01*
X107875042Y-49630034D01*
X108144416Y-49899408D01*
X106999576Y-49023942D02*
X107470981Y-48552537D01*
X106898561Y-49461675D02*
X107571996Y-49124957D01*
X107134263Y-48687224D01*
%TO.C,J4*%
X79453940Y-51925345D02*
X79959016Y-52430421D01*
X80026360Y-52565108D01*
X80026360Y-52699795D01*
X79959016Y-52834482D01*
X79891673Y-52901825D01*
X80329406Y-51521284D02*
X80800810Y-51992688D01*
X79891673Y-51420268D02*
X80228390Y-52093703D01*
X80666123Y-51655971D01*
%TO.C,TP3*%
X93562436Y-42612980D02*
X93158375Y-42208919D01*
X94067513Y-41703842D02*
X93360406Y-42410949D01*
X92990017Y-42040560D02*
X93225719Y-40862049D01*
X92518612Y-41569155D02*
X93697123Y-41333453D01*
D11*
%TO.C,J8*%
X114094750Y-59086179D02*
X114599826Y-58581103D01*
X114734513Y-58513759D01*
X114869200Y-58513759D01*
X115003887Y-58581103D01*
X115071231Y-58648446D01*
X113960063Y-58345401D02*
X113993735Y-58446416D01*
X113993735Y-58513759D01*
X113960063Y-58614775D01*
X113926391Y-58648446D01*
X113825376Y-58682118D01*
X113758033Y-58682118D01*
X113657017Y-58648446D01*
X113522330Y-58513759D01*
X113488659Y-58412744D01*
X113488659Y-58345401D01*
X113522330Y-58244385D01*
X113556002Y-58210714D01*
X113657017Y-58177042D01*
X113724361Y-58177042D01*
X113825376Y-58210714D01*
X113960063Y-58345401D01*
X114061078Y-58379072D01*
X114128422Y-58379072D01*
X114229437Y-58345401D01*
X114364124Y-58210714D01*
X114397796Y-58109698D01*
X114397796Y-58042355D01*
X114364124Y-57941340D01*
X114229437Y-57806653D01*
X114128422Y-57772981D01*
X114061078Y-57772981D01*
X113960063Y-57806653D01*
X113825376Y-57941340D01*
X113791704Y-58042355D01*
X113791704Y-58109698D01*
X113825376Y-58210714D01*
X120752447Y-75282376D02*
X120833697Y-75282376D01*
X120996197Y-75363626D01*
X121077447Y-75444876D01*
X121158697Y-75607376D01*
X121158697Y-75769876D01*
X121118072Y-75891751D01*
X120996197Y-76094875D01*
X120874322Y-76216750D01*
X120671197Y-76338625D01*
X120549322Y-76379250D01*
X120386823Y-76379250D01*
X120224323Y-76298000D01*
X120143073Y-76216750D01*
X120061823Y-76054251D01*
X120061823Y-75973001D01*
X120346198Y-74713627D02*
X120386823Y-74835501D01*
X120386823Y-74916751D01*
X120346198Y-75038626D01*
X120102448Y-75282376D01*
X119980573Y-75323001D01*
X119899323Y-75323001D01*
X119777448Y-75282376D01*
X119655573Y-75160501D01*
X119614948Y-75038626D01*
X119614948Y-74957376D01*
X119655573Y-74835501D01*
X119899323Y-74591752D01*
X120021198Y-74551127D01*
X120102448Y-74551127D01*
X120224323Y-74591752D01*
X120346198Y-74713627D01*
X119127449Y-74632377D02*
X119696198Y-74063627D01*
X119208699Y-74551127D02*
X119127449Y-74551127D01*
X119005574Y-74510502D01*
X118883699Y-74388627D01*
X118843074Y-74266752D01*
X118883699Y-74144877D01*
X119330573Y-73698002D01*
X118355574Y-73860502D02*
X118924324Y-73291753D01*
X118436824Y-73779252D02*
X118355574Y-73779252D01*
X118233699Y-73738627D01*
X118111824Y-73616752D01*
X118071199Y-73494878D01*
X118111824Y-73373003D01*
X118558699Y-72926128D01*
X118436824Y-72641753D02*
X117786825Y-71991754D01*
X116486826Y-72560503D02*
X116405576Y-72479253D01*
X116364951Y-72357378D01*
X116364951Y-72276128D01*
X116405576Y-72154254D01*
X116527451Y-71951129D01*
X116730575Y-71748004D01*
X116933700Y-71626129D01*
X117055575Y-71585504D01*
X117136825Y-71585504D01*
X117258700Y-71626129D01*
X117339950Y-71707379D01*
X117380575Y-71829254D01*
X117380575Y-71910504D01*
X117339950Y-72032379D01*
X117218075Y-72235504D01*
X117014950Y-72438628D01*
X116811825Y-72560503D01*
X116689950Y-72601128D01*
X116608701Y-72601128D01*
X116486826Y-72560503D01*
X116243076Y-70610505D02*
X116730575Y-71098004D01*
X116486826Y-70854255D02*
X115633701Y-71707379D01*
X115836826Y-71666754D01*
X115999326Y-71666754D01*
X116121201Y-71707379D01*
X115958701Y-70326130D02*
X114943077Y-70448005D01*
X115389952Y-70894880D02*
X115511826Y-69879255D01*
X114171202Y-70244880D02*
X114089953Y-70163630D01*
X114049328Y-70041755D01*
X114049328Y-69960505D01*
X114089953Y-69838630D01*
X114211827Y-69635506D01*
X114414952Y-69432381D01*
X114618077Y-69310506D01*
X114739952Y-69269881D01*
X114821202Y-69269881D01*
X114943077Y-69310506D01*
X115024327Y-69391756D01*
X115064952Y-69513631D01*
X115064952Y-69594881D01*
X115024327Y-69716755D01*
X114902452Y-69919880D01*
X114699327Y-70123005D01*
X114496202Y-70244880D01*
X114374327Y-70285505D01*
X114293077Y-70285505D01*
X114171202Y-70244880D01*
X113643078Y-69554256D02*
X113561828Y-69554256D01*
X113439953Y-69513631D01*
X113236828Y-69310506D01*
X113196203Y-69188631D01*
X113196203Y-69107381D01*
X113236828Y-68985506D01*
X113318078Y-68904256D01*
X113480578Y-68823006D01*
X114455577Y-68823006D01*
X113927453Y-68294882D01*
X113846203Y-68051132D02*
X113196203Y-67401132D01*
X112180579Y-67441757D02*
X112464954Y-67726132D01*
X112911828Y-67279257D02*
X112058704Y-68132382D01*
X111652454Y-67726132D01*
X111814954Y-66263633D02*
X111936829Y-66304258D01*
X112099329Y-66466758D01*
X112139954Y-66588633D01*
X112099329Y-66710508D01*
X111774329Y-67035508D01*
X111652454Y-67076133D01*
X111530580Y-67035508D01*
X111368080Y-66873008D01*
X111327455Y-66751133D01*
X111368080Y-66629258D01*
X111449330Y-66548008D01*
X111936829Y-66873008D01*
X111449330Y-65816759D02*
X110880580Y-66385508D01*
X110961830Y-66304258D02*
X110880580Y-66304258D01*
X110758705Y-66263633D01*
X110636830Y-66141758D01*
X110596205Y-66019883D01*
X110636830Y-65898008D01*
X111083705Y-65451134D01*
X110636830Y-65898008D02*
X110514955Y-65938633D01*
X110393080Y-65898008D01*
X110271206Y-65776134D01*
X110230581Y-65654259D01*
X110271206Y-65532384D01*
X110718080Y-65085509D01*
X109946206Y-64313635D02*
X109499331Y-64760509D01*
X109458706Y-64882384D01*
X109499331Y-65004259D01*
X109661831Y-65166759D01*
X109783706Y-65207384D01*
X109905581Y-64354260D02*
X110027456Y-64394885D01*
X110230581Y-64598009D01*
X110271206Y-64719884D01*
X110230581Y-64841759D01*
X110149331Y-64923009D01*
X110027456Y-64963634D01*
X109905581Y-64923009D01*
X109702456Y-64719884D01*
X109580581Y-64679259D01*
X109418081Y-63785510D02*
X109458706Y-63907385D01*
X109418081Y-64029260D01*
X108686832Y-64760509D01*
X108727457Y-63176136D02*
X108849332Y-63216761D01*
X109011832Y-63379260D01*
X109052456Y-63501135D01*
X109011832Y-63623010D01*
X108686832Y-63948010D01*
X108564957Y-63988635D01*
X108443082Y-63948010D01*
X108280582Y-63785510D01*
X108239957Y-63663635D01*
X108280582Y-63541760D01*
X108361832Y-63460510D01*
X108849332Y-63785510D01*
D10*
%TO.C,J3*%
X105774300Y-51208382D02*
X106279376Y-51713458D01*
X106346720Y-51848145D01*
X106346720Y-51982832D01*
X106279376Y-52117519D01*
X106212033Y-52184862D01*
X106043674Y-50939008D02*
X106481407Y-50501275D01*
X106515079Y-51006351D01*
X106616094Y-50905336D01*
X106717109Y-50871664D01*
X106784453Y-50871664D01*
X106885468Y-50905336D01*
X107053827Y-51073695D01*
X107087498Y-51174710D01*
X107087498Y-51242053D01*
X107053827Y-51343069D01*
X106851796Y-51545099D01*
X106750781Y-51578771D01*
X106683437Y-51578771D01*
%TO.C,J6*%
X83807898Y-40688154D02*
X82011846Y-38892102D01*
X92788154Y-31707898D02*
X90992102Y-29911846D01*
X82011846Y-38892102D02*
X90992102Y-29911846D01*
X92788154Y-31707898D02*
X83807898Y-40688154D01*
D12*
%TO.C,U1*%
X115434315Y-45135176D02*
X121798276Y-51499137D01*
X121798276Y-51499137D02*
X116565685Y-56731728D01*
X116565685Y-56731728D02*
X110201724Y-50367767D01*
X110201724Y-50367767D02*
X115434315Y-45135176D01*
%TO.C,TP4*%
X98500000Y-41333452D02*
G75*
G03*
X98500000Y-41333452I-1200000J0D01*
G01*
%TO.C,R4*%
X107073654Y-47805025D02*
X109194975Y-49926346D01*
X108205025Y-46673654D02*
X107073654Y-47805025D01*
X109194975Y-49926346D02*
X110326346Y-48794975D01*
X110326346Y-48794975D02*
X108205025Y-46673654D01*
%TO.C,J4*%
X80783975Y-54664879D02*
X79843523Y-53724427D01*
X81682001Y-55562905D02*
X94296786Y-68177690D01*
X79843523Y-53724427D02*
X80783975Y-52783975D01*
X83562905Y-53682001D02*
X96177690Y-66296786D01*
X94296786Y-68177690D02*
X96177690Y-66296786D01*
X81682001Y-55562905D02*
X83562905Y-53682001D01*
%TO.C,TP3*%
X96378681Y-43454774D02*
G75*
G03*
X96378681Y-43454774I-1200000J0D01*
G01*
D13*
%TO.C,J8*%
X115180940Y-59786827D02*
X111786827Y-63180940D01*
X110019060Y-61413173D02*
X113413173Y-58019060D01*
X111786827Y-63180940D02*
X110019060Y-61413173D01*
X113413173Y-58019060D02*
X115180940Y-59786827D01*
D12*
%TO.C,J3*%
X105796216Y-47972835D02*
X107549806Y-46219245D01*
X107549806Y-46219245D02*
X106644737Y-45314177D01*
X104070813Y-42740252D02*
X103872850Y-42542290D01*
X103872850Y-42542290D02*
X97579613Y-48835527D01*
X101256568Y-52512483D02*
X103010158Y-50758892D01*
X100351500Y-51607414D02*
X101256568Y-52512483D01*
X97579613Y-48835527D02*
X97777575Y-49033490D01*
%TD*%
M02*
