%TF.GenerationSoftware,KiCad,Pcbnew,(6.0.8)*%
%TF.CreationDate,2022-10-29T03:41:00+02:00*%
%TF.ProjectId,view_base,76696577-5f62-4617-9365-2e6b69636164,rev?*%
%TF.SameCoordinates,Original*%
%TF.FileFunction,Plated,1,2,PTH,Mixed*%
%TF.FilePolarity,Positive*%
%FSLAX46Y46*%
G04 Gerber Fmt 4.6, Leading zero omitted, Abs format (unit mm)*
G04 Created by KiCad (PCBNEW (6.0.8)) date 2022-10-29 03:41:00*
%MOMM*%
%LPD*%
G01*
G04 APERTURE LIST*
G04 Aperture macros list*
%AMHorizOval*
0 Thick line with rounded ends*
0 $1 width*
0 $2 $3 position (X,Y) of the first rounded end (center of the circle)*
0 $4 $5 position (X,Y) of the second rounded end (center of the circle)*
0 Add line between two ends*
20,1,$1,$2,$3,$4,$5,0*
0 Add two circle primitives to create the rounded ends*
1,1,$1,$2,$3*
1,1,$1,$4,$5*%
G04 Aperture macros list end*
%TA.AperFunction,ViaDrill*%
%ADD10C,0.300000*%
%TD*%
%TA.AperFunction,ComponentDrill*%
%ADD11C,0.300000*%
%TD*%
%TA.AperFunction,ViaDrill*%
%ADD12C,0.330200*%
%TD*%
G04 aperture for slot hole*
%TA.AperFunction,ComponentDrill*%
%ADD13HorizOval,0.600000X0.282843X0.282843X-0.282843X-0.282843X0*%
%TD*%
G04 aperture for slot hole*
%TA.AperFunction,ComponentDrill*%
%ADD14HorizOval,0.600000X0.424264X0.424264X-0.424264X-0.424264X0*%
%TD*%
%TA.AperFunction,ComponentDrill*%
%ADD15C,0.900000*%
%TD*%
%TA.AperFunction,ComponentDrill*%
%ADD16C,1.000000*%
%TD*%
%TA.AperFunction,ComponentDrill*%
%ADD17C,1.016000*%
%TD*%
G04 APERTURE END LIST*
D10*
X88100000Y-41400000D03*
X89300000Y-37700000D03*
X90100000Y-43700000D03*
X90600000Y-37600000D03*
X90700000Y-42800000D03*
X91200000Y-38800000D03*
X91300000Y-35700000D03*
X91573500Y-42900000D03*
X91600000Y-55333452D03*
X91822183Y-37000000D03*
X91900000Y-39100000D03*
X92100000Y-43600000D03*
X92300000Y-45100000D03*
X92600000Y-36200000D03*
X92600000Y-37800000D03*
X93363094Y-48600000D03*
X93400000Y-37000000D03*
X93500000Y-34500000D03*
X94300000Y-35700000D03*
X97700000Y-34500000D03*
X98800000Y-59533452D03*
X100000000Y-57933452D03*
X100035356Y-38135861D03*
X101800000Y-59100000D03*
X102700000Y-58600000D03*
X103900000Y-59533452D03*
X105100000Y-60733452D03*
X106300000Y-61933452D03*
X106426500Y-57600000D03*
X106500000Y-56400000D03*
X106743003Y-34356997D03*
X107500000Y-63233452D03*
X108000000Y-55333452D03*
X108662901Y-63493454D03*
X108900000Y-38300000D03*
X109100000Y-35500000D03*
X109700000Y-55733452D03*
X109900000Y-48033452D03*
X110000000Y-37600000D03*
X110500000Y-58033452D03*
X110900000Y-39200000D03*
X111400000Y-48533452D03*
X112419938Y-54353390D03*
X112500000Y-38900000D03*
X115400000Y-47033452D03*
D11*
%TO.C,U4*%
X107700000Y-57592031D03*
X108407107Y-56884924D03*
X108407107Y-58299138D03*
X109114214Y-57592031D03*
%TD*%
D12*
X86100000Y-54300000D03*
X88403452Y-52101217D03*
X90100506Y-48000001D03*
X91868272Y-51181982D03*
X92566684Y-51880385D03*
X93282489Y-52596194D03*
X93989594Y-53303304D03*
X94696698Y-54010408D03*
X96959443Y-44252335D03*
X97666548Y-47999999D03*
X98090816Y-43120967D03*
X98833275Y-46833271D03*
X98833277Y-49166728D03*
X100000000Y-48000000D03*
X100000002Y-45666544D03*
X100000003Y-39797557D03*
X100000006Y-50333446D03*
X101166727Y-46833273D03*
X101166729Y-49166723D03*
X102050612Y-54858935D03*
X102333453Y-47999999D03*
X102651652Y-54257897D03*
X103252691Y-53656855D03*
X103853736Y-53055814D03*
X104454774Y-52454771D03*
X105656854Y-51252690D03*
X106257893Y-50651652D03*
D13*
%TO.C,J2*%
X107641136Y-32410984D03*
D14*
X110469563Y-29582557D03*
D13*
X115589016Y-40358864D03*
D14*
X118417443Y-37530437D03*
D15*
%TO.C,J8*%
X111701974Y-61498026D03*
X113498026Y-59701974D03*
D16*
%TO.C,J4*%
X81724427Y-53724427D03*
X83520478Y-55520478D03*
X85316529Y-57316529D03*
X87112581Y-59112581D03*
X88908632Y-60908632D03*
X90704683Y-62704683D03*
X92500734Y-64500734D03*
X94296786Y-66296786D03*
D17*
%TO.C,J6*%
X83807898Y-38892102D03*
X85603949Y-37096051D03*
X87400000Y-35300000D03*
X89196051Y-33503949D03*
X90992102Y-31707898D03*
M02*
