%TF.GenerationSoftware,KiCad,Pcbnew,(6.0.8)*%
%TF.CreationDate,2022-10-29T03:41:05+02:00*%
%TF.ProjectId,view_base,76696577-5f62-4617-9365-2e6b69636164,rev?*%
%TF.SameCoordinates,Original*%
%TF.FileFunction,Soldermask,Top*%
%TF.FilePolarity,Negative*%
%FSLAX46Y46*%
G04 Gerber Fmt 4.6, Leading zero omitted, Abs format (unit mm)*
G04 Created by KiCad (PCBNEW (6.0.8)) date 2022-10-29 03:41:05*
%MOMM*%
%LPD*%
G01*
G04 APERTURE LIST*
G04 Aperture macros list*
%AMRoundRect*
0 Rectangle with rounded corners*
0 $1 Rounding radius*
0 $2 $3 $4 $5 $6 $7 $8 $9 X,Y pos of 4 corners*
0 Add a 4 corners polygon primitive as box body*
4,1,4,$2,$3,$4,$5,$6,$7,$8,$9,$2,$3,0*
0 Add four circle primitives for the rounded corners*
1,1,$1+$1,$2,$3*
1,1,$1+$1,$4,$5*
1,1,$1+$1,$6,$7*
1,1,$1+$1,$8,$9*
0 Add four rect primitives between the rounded corners*
20,1,$1+$1,$2,$3,$4,$5,0*
20,1,$1+$1,$4,$5,$6,$7,0*
20,1,$1+$1,$6,$7,$8,$9,0*
20,1,$1+$1,$8,$9,$2,$3,0*%
%AMHorizOval*
0 Thick line with rounded ends*
0 $1 width*
0 $2 $3 position (X,Y) of the first rounded end (center of the circle)*
0 $4 $5 position (X,Y) of the second rounded end (center of the circle)*
0 Add line between two ends*
20,1,$1,$2,$3,$4,$5,0*
0 Add two circle primitives to create the rounded ends*
1,1,$1,$2,$3*
1,1,$1,$4,$5*%
%AMRotRect*
0 Rectangle, with rotation*
0 The origin of the aperture is its center*
0 $1 length*
0 $2 width*
0 $3 Rotation angle, in degrees counterclockwise*
0 Add horizontal line*
21,1,$1,$2,0,0,$3*%
G04 Aperture macros list end*
%ADD10RotRect,0.600000X1.090000X135.000000*%
%ADD11RotRect,0.300000X1.090000X135.000000*%
%ADD12HorizOval,1.000000X0.424264X0.424264X-0.424264X-0.424264X0*%
%ADD13HorizOval,1.000000X0.282843X0.282843X-0.282843X-0.282843X0*%
%ADD14HorizOval,1.727200X0.107763X-0.107763X-0.107763X0.107763X0*%
%ADD15RoundRect,0.250000X-0.883883X0.176777X0.176777X-0.883883X0.883883X-0.176777X-0.176777X0.883883X0*%
%ADD16RoundRect,0.250000X-1.697056X-0.636396X-0.636396X-1.697056X1.697056X0.636396X0.636396X1.697056X0*%
%ADD17C,2.000000*%
%ADD18RoundRect,0.200000X0.335876X0.053033X0.053033X0.335876X-0.335876X-0.053033X-0.053033X-0.335876X0*%
%ADD19RotRect,1.700000X1.700000X45.000000*%
%ADD20HorizOval,1.700000X0.000000X0.000000X0.000000X0.000000X0*%
%ADD21C,1.651000*%
%ADD22RotRect,2.100000X2.999999X225.000000*%
%ADD23RotRect,0.800000X1.600000X225.000000*%
G04 APERTURE END LIST*
D10*
%TO.C,J2*%
X113064645Y-39460838D03*
X112498960Y-38895153D03*
D11*
X111685787Y-38081980D03*
X110978680Y-37374873D03*
X110625127Y-37021320D03*
X109918020Y-36314213D03*
D10*
X109104847Y-35501040D03*
X108539162Y-34935355D03*
X108539162Y-34935355D03*
X109104847Y-35501040D03*
D11*
X109564466Y-35960660D03*
X110271573Y-36667767D03*
X111332233Y-37728427D03*
X112039340Y-38435534D03*
D10*
X112498960Y-38895153D03*
X113064645Y-39460838D03*
D12*
X118417443Y-37530437D03*
X110469563Y-29582557D03*
D13*
X107641136Y-32410984D03*
X115589016Y-40358864D03*
%TD*%
D14*
%TO.C,J6*%
X90992102Y-31707898D03*
X89196051Y-33503949D03*
X87400000Y-35300000D03*
X85603949Y-37096051D03*
X83807898Y-38892102D03*
%TD*%
D15*
%TO.C,U1*%
X115398959Y-47079720D03*
D16*
X118227386Y-53160838D03*
D15*
X113772614Y-48706066D03*
X112146268Y-50332411D03*
%TD*%
D17*
%TO.C,TP4*%
X97300000Y-41333452D03*
%TD*%
D18*
%TO.C,R4*%
X109283363Y-48883363D03*
X108116637Y-47716637D03*
%TD*%
D19*
%TO.C,J4*%
X81724427Y-53724427D03*
D20*
X83520478Y-55520478D03*
X85316529Y-57316529D03*
X87112581Y-59112581D03*
X88908632Y-60908632D03*
X90704683Y-62704683D03*
X92500734Y-64500734D03*
X94296786Y-66296786D03*
%TD*%
D17*
%TO.C,TP3*%
X95178681Y-43454774D03*
%TD*%
D21*
%TO.C,J8*%
X113498026Y-59701974D03*
X111701974Y-61498026D03*
%TD*%
D22*
%TO.C,J3*%
X104898162Y-44486828D03*
X99524151Y-49860839D03*
D23*
X105145649Y-48340559D03*
X104261766Y-49224442D03*
X103377882Y-50108326D03*
%TD*%
M02*
