%TF.GenerationSoftware,KiCad,Pcbnew,(6.0.8)*%
%TF.CreationDate,2022-10-28T13:46:59+02:00*%
%TF.ProjectId,view_base,76696577-5f62-4617-9365-2e6b69636164,rev?*%
%TF.SameCoordinates,Original*%
%TF.FileFunction,Paste,Top*%
%TF.FilePolarity,Positive*%
%FSLAX46Y46*%
G04 Gerber Fmt 4.6, Leading zero omitted, Abs format (unit mm)*
G04 Created by KiCad (PCBNEW (6.0.8)) date 2022-10-28 13:46:59*
%MOMM*%
%LPD*%
G01*
G04 APERTURE LIST*
G04 Aperture macros list*
%AMRoundRect*
0 Rectangle with rounded corners*
0 $1 Rounding radius*
0 $2 $3 $4 $5 $6 $7 $8 $9 X,Y pos of 4 corners*
0 Add a 4 corners polygon primitive as box body*
4,1,4,$2,$3,$4,$5,$6,$7,$8,$9,$2,$3,0*
0 Add four circle primitives for the rounded corners*
1,1,$1+$1,$2,$3*
1,1,$1+$1,$4,$5*
1,1,$1+$1,$6,$7*
1,1,$1+$1,$8,$9*
0 Add four rect primitives between the rounded corners*
20,1,$1+$1,$2,$3,$4,$5,0*
20,1,$1+$1,$4,$5,$6,$7,0*
20,1,$1+$1,$6,$7,$8,$9,0*
20,1,$1+$1,$8,$9,$2,$3,0*%
%AMRotRect*
0 Rectangle, with rotation*
0 The origin of the aperture is its center*
0 $1 length*
0 $2 width*
0 $3 Rotation angle, in degrees counterclockwise*
0 Add horizontal line*
21,1,$1,$2,0,0,$3*%
%AMFreePoly0*
4,1,6,0.600000,-0.600000,-0.600000,-0.600000,-0.600000,0.000000,0.000000,0.600000,0.600000,0.600000,0.600000,-0.600000,0.600000,-0.600000,$1*%
G04 Aperture macros list end*
%ADD10RoundRect,0.150000X0.825000X0.150000X-0.825000X0.150000X-0.825000X-0.150000X0.825000X-0.150000X0*%
%ADD11RoundRect,0.225000X-0.225000X-0.250000X0.225000X-0.250000X0.225000X0.250000X-0.225000X0.250000X0*%
%ADD12RoundRect,0.200000X-0.200000X-0.275000X0.200000X-0.275000X0.200000X0.275000X-0.200000X0.275000X0*%
%ADD13RoundRect,0.200000X0.200000X0.275000X-0.200000X0.275000X-0.200000X-0.275000X0.200000X-0.275000X0*%
%ADD14R,0.800000X0.400000*%
%ADD15R,0.400000X0.800000*%
%ADD16R,0.800000X0.800000*%
%ADD17R,1.200000X1.200000*%
%ADD18FreePoly0,180.000000*%
%ADD19RoundRect,0.225000X-0.250000X0.225000X-0.250000X-0.225000X0.250000X-0.225000X0.250000X0.225000X0*%
%ADD20RoundRect,0.250000X-0.475000X0.250000X-0.475000X-0.250000X0.475000X-0.250000X0.475000X0.250000X0*%
%ADD21RoundRect,0.162500X-0.367500X-0.162500X0.367500X-0.162500X0.367500X0.162500X-0.367500X0.162500X0*%
%ADD22R,0.700000X1.600000*%
%ADD23RoundRect,0.150000X0.150000X-0.150000X0.150000X0.150000X-0.150000X0.150000X-0.150000X-0.150000X0*%
%ADD24RoundRect,0.050000X0.300000X-0.050000X0.300000X0.050000X-0.300000X0.050000X-0.300000X-0.050000X0*%
%ADD25RoundRect,0.050000X0.050000X-0.300000X0.050000X0.300000X-0.050000X0.300000X-0.050000X-0.300000X0*%
%ADD26RoundRect,0.250000X-0.500000X0.750000X-0.500000X-0.750000X0.500000X-0.750000X0.500000X0.750000X0*%
%ADD27RoundRect,0.250000X-1.650000X0.750000X-1.650000X-0.750000X1.650000X-0.750000X1.650000X0.750000X0*%
%ADD28RoundRect,0.200000X-0.275000X0.200000X-0.275000X-0.200000X0.275000X-0.200000X0.275000X0.200000X0*%
%ADD29RoundRect,0.200000X0.275000X-0.200000X0.275000X0.200000X-0.275000X0.200000X-0.275000X-0.200000X0*%
%ADD30RoundRect,0.250000X0.362500X1.425000X-0.362500X1.425000X-0.362500X-1.425000X0.362500X-1.425000X0*%
%ADD31RoundRect,0.250000X1.425000X-0.362500X1.425000X0.362500X-1.425000X0.362500X-1.425000X-0.362500X0*%
%ADD32RoundRect,0.250000X-0.362500X-1.425000X0.362500X-1.425000X0.362500X1.425000X-0.362500X1.425000X0*%
%ADD33RoundRect,0.250000X-1.425000X0.362500X-1.425000X-0.362500X1.425000X-0.362500X1.425000X0.362500X0*%
%ADD34RoundRect,0.200000X-0.250000X-0.200000X0.250000X-0.200000X0.250000X0.200000X-0.250000X0.200000X0*%
%ADD35RoundRect,0.218750X0.381250X-0.218750X0.381250X0.218750X-0.381250X0.218750X-0.381250X-0.218750X0*%
%ADD36RotRect,0.700000X0.700000X345.000000*%
%ADD37RotRect,0.700000X0.700000X330.000000*%
%ADD38RotRect,0.700000X0.700000X315.000000*%
%ADD39RotRect,0.700000X0.700000X300.000000*%
%ADD40RotRect,0.700000X0.700000X285.000000*%
%ADD41R,0.700000X0.700000*%
%ADD42RotRect,0.700000X0.700000X255.000000*%
%ADD43RotRect,0.700000X0.700000X240.000000*%
%ADD44RotRect,0.700000X0.700000X225.000000*%
%ADD45RotRect,0.700000X0.700000X210.000000*%
%ADD46RotRect,0.700000X0.700000X195.000000*%
%ADD47RotRect,0.700000X0.700000X165.000000*%
%ADD48RotRect,0.700000X0.700000X150.000000*%
%ADD49RotRect,0.700000X0.700000X135.000000*%
%ADD50RotRect,0.700000X0.700000X120.000000*%
%ADD51RotRect,0.700000X0.700000X105.000000*%
%ADD52RotRect,0.700000X0.700000X75.000000*%
%ADD53RotRect,0.700000X0.700000X60.000000*%
%ADD54RotRect,0.700000X0.700000X45.000000*%
%ADD55RotRect,0.700000X0.700000X30.000000*%
%ADD56RotRect,0.700000X0.700000X15.000000*%
%ADD57RoundRect,0.225000X-0.335876X-0.017678X-0.017678X-0.335876X0.335876X0.017678X0.017678X0.335876X0*%
%ADD58RoundRect,0.225000X-0.017678X0.335876X-0.335876X0.017678X0.017678X-0.335876X0.335876X-0.017678X0*%
%ADD59RoundRect,0.225000X0.225000X0.250000X-0.225000X0.250000X-0.225000X-0.250000X0.225000X-0.250000X0*%
%ADD60RoundRect,0.225000X0.335876X0.017678X0.017678X0.335876X-0.335876X-0.017678X-0.017678X-0.335876X0*%
%ADD61RoundRect,0.225000X0.250000X-0.225000X0.250000X0.225000X-0.250000X0.225000X-0.250000X-0.225000X0*%
%ADD62RoundRect,0.225000X0.017678X-0.335876X0.335876X-0.017678X-0.017678X0.335876X-0.335876X0.017678X0*%
%ADD63RoundRect,0.250000X0.475000X-0.250000X0.475000X0.250000X-0.475000X0.250000X-0.475000X-0.250000X0*%
%ADD64RoundRect,0.250000X-0.250000X-0.475000X0.250000X-0.475000X0.250000X0.475000X-0.250000X0.475000X0*%
%ADD65RoundRect,0.250000X0.250000X0.475000X-0.250000X0.475000X-0.250000X-0.475000X0.250000X-0.475000X0*%
G04 APERTURE END LIST*
D10*
%TO.C,U4*%
X124575000Y-73845000D03*
X124575000Y-72575000D03*
X124575000Y-71305000D03*
X124575000Y-70035000D03*
X124575000Y-68765000D03*
X124575000Y-67495000D03*
X124575000Y-66225000D03*
X124575000Y-64955000D03*
X119625000Y-64955000D03*
X119625000Y-66225000D03*
X119625000Y-67495000D03*
X119625000Y-68765000D03*
X119625000Y-70035000D03*
X119625000Y-71305000D03*
X119625000Y-72575000D03*
X119625000Y-73845000D03*
%TD*%
D11*
%TO.C,C53*%
X102675000Y-96400000D03*
X101125000Y-96400000D03*
%TD*%
D12*
%TO.C,R44*%
X98925000Y-96400000D03*
X97275000Y-96400000D03*
%TD*%
D13*
%TO.C,R42*%
X97875000Y-103600000D03*
X99525000Y-103600000D03*
%TD*%
D14*
%TO.C,U2*%
X77700000Y-133450000D03*
X77700000Y-132600000D03*
X77700000Y-131750000D03*
X77700000Y-130900000D03*
X77700000Y-130050000D03*
X77700000Y-129200000D03*
X77700000Y-128350000D03*
X77700000Y-127500000D03*
X77700000Y-126650000D03*
X77700000Y-125800000D03*
X77700000Y-124950000D03*
X77700000Y-124100000D03*
X77700000Y-123250000D03*
X77700000Y-122400000D03*
X77700000Y-121550000D03*
D15*
X76650000Y-120500000D03*
X75800000Y-120500000D03*
X74950000Y-120500000D03*
X74100000Y-120500000D03*
X73250000Y-120500000D03*
X72400000Y-120500000D03*
X71550000Y-120500000D03*
X70700000Y-120500000D03*
X69850000Y-120500000D03*
X69000000Y-120500000D03*
X68150000Y-120500000D03*
X67300000Y-120500000D03*
X66450000Y-120500000D03*
X65600000Y-120500000D03*
X64750000Y-120500000D03*
D14*
X63700000Y-121550000D03*
X63700000Y-122400000D03*
X63700000Y-123250000D03*
X63700000Y-124100000D03*
X63700000Y-124950000D03*
X63700000Y-125800000D03*
X63700000Y-126650000D03*
X63700000Y-127500000D03*
X63700000Y-128350000D03*
X63700000Y-129200000D03*
X63700000Y-130050000D03*
X63700000Y-130900000D03*
X63700000Y-131750000D03*
X63700000Y-132600000D03*
X63700000Y-133450000D03*
D15*
X64750000Y-134500000D03*
X65600000Y-134500000D03*
X66450000Y-134500000D03*
X67300000Y-134500000D03*
X68150000Y-134500000D03*
X69000000Y-134500000D03*
X69850000Y-134500000D03*
X70700000Y-134500000D03*
X71550000Y-134500000D03*
X72400000Y-134500000D03*
X73250000Y-134500000D03*
X74100000Y-134500000D03*
X74950000Y-134500000D03*
X75800000Y-134500000D03*
X76650000Y-134500000D03*
D16*
X77700000Y-134500000D03*
X63750000Y-134500000D03*
X77700000Y-120500000D03*
X63700000Y-120500000D03*
D17*
X70700000Y-127500000D03*
X69050000Y-127500000D03*
X70700000Y-129150000D03*
X72350000Y-127500000D03*
X70700000Y-125850000D03*
D18*
X72350000Y-129150000D03*
D17*
X69050000Y-129150000D03*
X69050000Y-125850000D03*
X72350000Y-125850000D03*
%TD*%
D19*
%TO.C,C6*%
X80000000Y-133975000D03*
X80000000Y-132425000D03*
%TD*%
D20*
%TO.C,C5*%
X82300000Y-134350000D03*
X82300000Y-132450000D03*
%TD*%
D21*
%TO.C,U8*%
X65875000Y-109775000D03*
X65875000Y-111675000D03*
X63675000Y-111675000D03*
X63675000Y-110725000D03*
X63675000Y-109775000D03*
%TD*%
D10*
%TO.C,U7*%
X97525000Y-101905000D03*
X97525000Y-100635000D03*
X97525000Y-99365000D03*
X97525000Y-98095000D03*
X102475000Y-98095000D03*
X102475000Y-99365000D03*
X102475000Y-100635000D03*
X102475000Y-101905000D03*
%TD*%
D22*
%TO.C,U6*%
X101905000Y-62337500D03*
X100635000Y-62337500D03*
X99365000Y-62337500D03*
X98095000Y-62337500D03*
%TD*%
D23*
%TO.C,U5*%
X126360000Y-123765000D03*
X125540000Y-123765000D03*
X126360000Y-124585000D03*
X125540000Y-124585000D03*
D24*
X124500000Y-124975000D03*
X124500000Y-124575000D03*
X124500000Y-124175000D03*
X124500000Y-123775000D03*
X124500000Y-123375000D03*
D25*
X125150000Y-122725000D03*
X125550000Y-122725000D03*
X125950000Y-122725000D03*
X126350000Y-122725000D03*
X126750000Y-122725000D03*
D24*
X127400000Y-123375000D03*
X127400000Y-123775000D03*
X127400000Y-124175000D03*
X127400000Y-124575000D03*
X127400000Y-124975000D03*
D25*
X126750000Y-125625000D03*
X126350000Y-125625000D03*
X125950000Y-125625000D03*
X125550000Y-125625000D03*
X125150000Y-125625000D03*
%TD*%
D10*
%TO.C,U3*%
X73075000Y-74645000D03*
X73075000Y-73375000D03*
X73075000Y-72105000D03*
X73075000Y-70835000D03*
X73075000Y-69565000D03*
X73075000Y-68295000D03*
X73075000Y-67025000D03*
X73075000Y-65755000D03*
X68125000Y-65755000D03*
X68125000Y-67025000D03*
X68125000Y-68295000D03*
X68125000Y-69565000D03*
X68125000Y-70835000D03*
X68125000Y-72105000D03*
X68125000Y-73375000D03*
X68125000Y-74645000D03*
%TD*%
D26*
%TO.C,U1*%
X87600000Y-131150000D03*
X89900000Y-131150000D03*
D27*
X89900000Y-137450000D03*
D26*
X92200000Y-131150000D03*
%TD*%
D28*
%TO.C,R41*%
X114500001Y-73324999D03*
X114500001Y-71674999D03*
%TD*%
D12*
%TO.C,R40*%
X134375001Y-65799997D03*
X136025001Y-65799997D03*
%TD*%
D28*
%TO.C,R39*%
X63000000Y-74125000D03*
X63000000Y-72475000D03*
%TD*%
D12*
%TO.C,R38*%
X84525000Y-66600000D03*
X82875000Y-66600000D03*
%TD*%
D28*
%TO.C,R37*%
X116600000Y-73300000D03*
X116600000Y-71650000D03*
%TD*%
D13*
%TO.C,R35*%
X134374997Y-63799998D03*
X136024997Y-63799998D03*
%TD*%
D29*
%TO.C,R33*%
X65100000Y-72475000D03*
X65100000Y-74125000D03*
%TD*%
D13*
%TO.C,R31*%
X82875000Y-64600000D03*
X84525000Y-64600000D03*
%TD*%
D30*
%TO.C,R29*%
X118662500Y-100000000D03*
X112737500Y-100000000D03*
%TD*%
D31*
%TO.C,R28*%
X100000000Y-112637500D03*
X100000000Y-118562500D03*
%TD*%
D32*
%TO.C,R27*%
X87362500Y-99700000D03*
X81437500Y-99700000D03*
%TD*%
D33*
%TO.C,R26*%
X100100000Y-87362500D03*
X100100000Y-81437500D03*
%TD*%
D28*
%TO.C,R25*%
X114500001Y-69874995D03*
X114500001Y-68224995D03*
%TD*%
D13*
%TO.C,R24*%
X130974999Y-63799998D03*
X132624999Y-63799998D03*
%TD*%
D28*
%TO.C,R23*%
X63000001Y-69024997D03*
X63000001Y-70674997D03*
%TD*%
D13*
%TO.C,R22*%
X79475000Y-64600000D03*
X81125000Y-64600000D03*
%TD*%
D29*
%TO.C,R21*%
X116600000Y-69874999D03*
X116600000Y-68224999D03*
%TD*%
D12*
%TO.C,R20*%
X132624999Y-65799997D03*
X130974999Y-65799997D03*
%TD*%
D29*
%TO.C,R19*%
X65100001Y-69024998D03*
X65100001Y-70674998D03*
%TD*%
D12*
%TO.C,R18*%
X81125000Y-66600000D03*
X79475000Y-66600000D03*
%TD*%
D13*
%TO.C,R17*%
X127474998Y-67950000D03*
X129124998Y-67950000D03*
%TD*%
%TO.C,R16*%
X77625000Y-68750000D03*
X75975000Y-68750000D03*
%TD*%
%TO.C,R15*%
X127475005Y-69949994D03*
X129125005Y-69949994D03*
%TD*%
%TO.C,R14*%
X75975005Y-70749996D03*
X77625005Y-70749996D03*
%TD*%
D12*
%TO.C,R13*%
X65625000Y-114900000D03*
X63975000Y-114900000D03*
%TD*%
D28*
%TO.C,R12*%
X132225000Y-133975000D03*
X132225000Y-135625000D03*
%TD*%
%TO.C,R11*%
X130500000Y-133975000D03*
X130500000Y-135625000D03*
%TD*%
D12*
%TO.C,R10*%
X101775000Y-132300000D03*
X103425000Y-132300000D03*
%TD*%
D28*
%TO.C,R9*%
X128775000Y-135625000D03*
X128775000Y-133975000D03*
%TD*%
D12*
%TO.C,R8*%
X65625000Y-117900000D03*
X63975000Y-117900000D03*
%TD*%
D29*
%TO.C,R7*%
X69100000Y-116375000D03*
X69100000Y-118025000D03*
%TD*%
D28*
%TO.C,R6*%
X67400000Y-116375000D03*
X67400000Y-118025000D03*
%TD*%
D13*
%TO.C,R5*%
X96775000Y-132400000D03*
X98425000Y-132400000D03*
%TD*%
D28*
%TO.C,R4*%
X84500000Y-134025000D03*
X84500000Y-132375000D03*
%TD*%
%TO.C,R3*%
X127050000Y-133975000D03*
X127050000Y-135625000D03*
%TD*%
%TO.C,R2*%
X125325000Y-135625000D03*
X125325000Y-133975000D03*
%TD*%
%TO.C,R1*%
X123600000Y-135625000D03*
X123600000Y-133975000D03*
%TD*%
D34*
%TO.C,Q2*%
X129300002Y-72949997D03*
X127300002Y-73899997D03*
X127300002Y-71999997D03*
%TD*%
%TO.C,Q1*%
X77800001Y-73749997D03*
X75800001Y-74699997D03*
X75800001Y-72799997D03*
%TD*%
D35*
%TO.C,L2*%
X131599994Y-71887493D03*
X131599994Y-74012493D03*
%TD*%
%TO.C,L1*%
X80099998Y-72687494D03*
X80099998Y-74812494D03*
%TD*%
D36*
%TO.C,D24*%
X77616472Y-94568079D03*
X77901173Y-93505560D03*
X76133528Y-93031921D03*
X75848827Y-94094440D03*
%TD*%
D37*
%TO.C,D23*%
X78182587Y-88043814D03*
X78732587Y-87091186D03*
X80317413Y-88006186D03*
X79767413Y-88958814D03*
%TD*%
D38*
%TO.C,D22*%
X82039089Y-82816906D03*
X82816906Y-82039089D03*
X84110911Y-83333094D03*
X83333094Y-84110911D03*
%TD*%
D39*
%TO.C,D21*%
X87091186Y-78732587D03*
X88043814Y-78182587D03*
X88958814Y-79767413D03*
X88006186Y-80317413D03*
%TD*%
D40*
%TO.C,D20*%
X93031921Y-76133528D03*
X94094440Y-75848827D03*
X94568079Y-77616472D03*
X93505560Y-77901173D03*
%TD*%
D41*
%TO.C,D19*%
X99750000Y-75135000D03*
X100850000Y-75135000D03*
X100850000Y-76965000D03*
X99750000Y-76965000D03*
%TD*%
D42*
%TO.C,D18*%
X105905560Y-75848827D03*
X106968079Y-76133528D03*
X106494440Y-77901173D03*
X105431921Y-77616472D03*
%TD*%
D43*
%TO.C,D17*%
X111041186Y-79767413D03*
X111993814Y-80317413D03*
X112908814Y-78732587D03*
X111956186Y-78182587D03*
%TD*%
D44*
%TO.C,D16*%
X115889089Y-83333094D03*
X116666906Y-84110911D03*
X117960911Y-82816906D03*
X117183094Y-82039089D03*
%TD*%
D45*
%TO.C,D15*%
X121267413Y-87091186D03*
X121817413Y-88043814D03*
X120232587Y-88958814D03*
X119682587Y-88006186D03*
%TD*%
D46*
%TO.C,D14*%
X123866472Y-93031921D03*
X124151173Y-94094440D03*
X122383528Y-94568079D03*
X122098827Y-93505560D03*
%TD*%
D41*
%TO.C,D13*%
X124840000Y-99650000D03*
X124840000Y-100750000D03*
X123010000Y-100750000D03*
X123010000Y-99650000D03*
%TD*%
D47*
%TO.C,D12*%
X122383528Y-105431921D03*
X122098827Y-106494440D03*
X123866472Y-106968079D03*
X124151173Y-105905560D03*
%TD*%
D48*
%TO.C,D11*%
X121817413Y-111956186D03*
X121267413Y-112908814D03*
X119682587Y-111993814D03*
X120232587Y-111041186D03*
%TD*%
D49*
%TO.C,D10*%
X116666906Y-115889089D03*
X115889089Y-116666906D03*
X117183094Y-117960911D03*
X117960911Y-117183094D03*
%TD*%
D50*
%TO.C,D9*%
X111993814Y-119682587D03*
X111041186Y-120232587D03*
X111956186Y-121817413D03*
X112908814Y-121267413D03*
%TD*%
D51*
%TO.C,D8*%
X106968079Y-123866472D03*
X105905560Y-124151173D03*
X105431921Y-122383528D03*
X106494440Y-122098827D03*
%TD*%
D41*
%TO.C,D7*%
X100250000Y-124865000D03*
X99150000Y-124865000D03*
X99150000Y-123035000D03*
X100250000Y-123035000D03*
%TD*%
D52*
%TO.C,D6*%
X94094440Y-124151173D03*
X93031921Y-123866472D03*
X93505560Y-122098827D03*
X94568079Y-122383528D03*
%TD*%
D53*
%TO.C,D5*%
X88043814Y-121817413D03*
X87091186Y-121267413D03*
X88006186Y-119682587D03*
X88958814Y-120232587D03*
%TD*%
D54*
%TO.C,D4*%
X82816906Y-117960911D03*
X82039089Y-117183094D03*
X83333094Y-115889089D03*
X84110911Y-116666906D03*
%TD*%
D55*
%TO.C,D3*%
X80342413Y-111993814D03*
X79792413Y-111041186D03*
X78207587Y-111956186D03*
X78757587Y-112908814D03*
%TD*%
D56*
%TO.C,D2*%
X77876173Y-106494440D03*
X77591472Y-105431921D03*
X75823827Y-105905560D03*
X76108528Y-106968079D03*
%TD*%
D41*
%TO.C,D1*%
X75135000Y-100850000D03*
X75135000Y-99750000D03*
X76965000Y-99750000D03*
X76965000Y-100850000D03*
%TD*%
D11*
%TO.C,C52*%
X75875000Y-95700000D03*
X74325000Y-95700000D03*
%TD*%
%TO.C,C51*%
X77875000Y-89900000D03*
X76325000Y-89900000D03*
%TD*%
D57*
%TO.C,C50*%
X82098008Y-85048008D03*
X81001992Y-83951992D03*
%TD*%
D19*
%TO.C,C49*%
X85700000Y-79525000D03*
X85700000Y-81075000D03*
%TD*%
%TO.C,C48*%
X91600000Y-78675000D03*
X91600000Y-77125000D03*
%TD*%
%TO.C,C47*%
X98400000Y-76850000D03*
X98400000Y-75300000D03*
%TD*%
D11*
%TO.C,C46*%
X106675000Y-74400000D03*
X105125000Y-74400000D03*
%TD*%
D19*
%TO.C,C45*%
X109400000Y-79375000D03*
X109400000Y-77825000D03*
%TD*%
D58*
%TO.C,C44*%
X114601992Y-82648008D03*
X115698008Y-81551992D03*
%TD*%
D59*
%TO.C,C43*%
X118925000Y-85700000D03*
X120475000Y-85700000D03*
%TD*%
%TO.C,C42*%
X121325000Y-91600000D03*
X122875000Y-91600000D03*
%TD*%
%TO.C,C41*%
X123225000Y-98300000D03*
X124775000Y-98300000D03*
%TD*%
%TO.C,C40*%
X123725000Y-104300000D03*
X125275000Y-104300000D03*
%TD*%
%TO.C,C39*%
X122125000Y-110200000D03*
X123675000Y-110200000D03*
%TD*%
D60*
%TO.C,C38*%
X114551992Y-117351992D03*
X115648008Y-118448008D03*
%TD*%
D61*
%TO.C,C37*%
X114600000Y-120025000D03*
X114600000Y-121575000D03*
%TD*%
%TO.C,C36*%
X108200000Y-122900000D03*
X108200000Y-121350000D03*
%TD*%
%TO.C,C35*%
X101600000Y-123250000D03*
X101600000Y-124800000D03*
%TD*%
%TO.C,C34*%
X95600000Y-126075000D03*
X95600000Y-124525000D03*
%TD*%
%TO.C,C33*%
X89900000Y-121825000D03*
X89900000Y-123375000D03*
%TD*%
D62*
%TO.C,C32*%
X82548008Y-114351992D03*
X81451992Y-115448008D03*
%TD*%
D11*
%TO.C,C31*%
X80475000Y-109500000D03*
X78925000Y-109500000D03*
%TD*%
%TO.C,C30*%
X75925000Y-108500000D03*
X77475000Y-108500000D03*
%TD*%
%TO.C,C29*%
X76775000Y-98400000D03*
X75225000Y-98400000D03*
%TD*%
%TO.C,C28*%
X102475000Y-103600000D03*
X100925000Y-103600000D03*
%TD*%
D59*
%TO.C,C27*%
X65525000Y-107625000D03*
X63975000Y-107625000D03*
%TD*%
%TO.C,C26*%
X125700000Y-121075000D03*
X124150000Y-121075000D03*
%TD*%
D61*
%TO.C,C25*%
X116600004Y-64774999D03*
X116600004Y-66324999D03*
%TD*%
D11*
%TO.C,C24*%
X129074996Y-63949996D03*
X127524996Y-63949996D03*
%TD*%
D61*
%TO.C,C23*%
X65100003Y-67125001D03*
X65100003Y-65575001D03*
%TD*%
D11*
%TO.C,C22*%
X77574997Y-64749995D03*
X76024997Y-64749995D03*
%TD*%
%TO.C,C21*%
X128925000Y-121075000D03*
X127375000Y-121075000D03*
%TD*%
D59*
%TO.C,C20*%
X127524998Y-65949991D03*
X129074998Y-65949991D03*
%TD*%
%TO.C,C19*%
X76024999Y-66749991D03*
X77574999Y-66749991D03*
%TD*%
D61*
%TO.C,C18*%
X131000001Y-68275002D03*
X131000001Y-69825002D03*
%TD*%
D63*
%TO.C,C17*%
X133300000Y-67950000D03*
X133300000Y-69850000D03*
%TD*%
D61*
%TO.C,C16*%
X79500002Y-69075003D03*
X79500002Y-70625003D03*
%TD*%
D63*
%TO.C,C15*%
X81800003Y-68699999D03*
X81800003Y-70599999D03*
%TD*%
D11*
%TO.C,C14*%
X100775000Y-64700000D03*
X99225000Y-64700000D03*
%TD*%
%TO.C,C13*%
X128974995Y-75949994D03*
X127424995Y-75949994D03*
%TD*%
D64*
%TO.C,C12*%
X129149999Y-78149993D03*
X127249999Y-78149993D03*
%TD*%
D11*
%TO.C,C11*%
X77474998Y-76749997D03*
X75924998Y-76749997D03*
%TD*%
D64*
%TO.C,C10*%
X77649999Y-78949995D03*
X75749999Y-78949995D03*
%TD*%
D11*
%TO.C,C9*%
X124975000Y-127275000D03*
X123425000Y-127275000D03*
%TD*%
D61*
%TO.C,C8*%
X122825000Y-124550000D03*
X122825000Y-123000000D03*
%TD*%
D63*
%TO.C,C7*%
X120825000Y-122825000D03*
X120825000Y-124725000D03*
%TD*%
D19*
%TO.C,C4*%
X61500000Y-134950001D03*
X61500000Y-133400001D03*
%TD*%
D63*
%TO.C,C3*%
X70900000Y-116050000D03*
X70900000Y-117950000D03*
%TD*%
D64*
%TO.C,C2*%
X88950000Y-128900000D03*
X87050000Y-128900000D03*
%TD*%
D65*
%TO.C,C1*%
X92750000Y-128900000D03*
X90850000Y-128900000D03*
%TD*%
M02*
