%TF.GenerationSoftware,KiCad,Pcbnew,(6.0.8)*%
%TF.CreationDate,2022-10-28T13:47:00+02:00*%
%TF.ProjectId,view_base,76696577-5f62-4617-9365-2e6b69636164,rev?*%
%TF.SameCoordinates,Original*%
%TF.FileFunction,Legend,Top*%
%TF.FilePolarity,Positive*%
%FSLAX46Y46*%
G04 Gerber Fmt 4.6, Leading zero omitted, Abs format (unit mm)*
G04 Created by KiCad (PCBNEW (6.0.8)) date 2022-10-28 13:47:00*
%MOMM*%
%LPD*%
G01*
G04 APERTURE LIST*
%ADD10C,0.150000*%
%ADD11C,0.120000*%
%ADD12C,0.200000*%
G04 APERTURE END LIST*
D10*
%TO.C,U4*%
X121338095Y-74845380D02*
X121338095Y-75654904D01*
X121385714Y-75750142D01*
X121433333Y-75797761D01*
X121528571Y-75845380D01*
X121719047Y-75845380D01*
X121814285Y-75797761D01*
X121861904Y-75750142D01*
X121909523Y-75654904D01*
X121909523Y-74845380D01*
X122814285Y-75178714D02*
X122814285Y-75845380D01*
X122576190Y-74797761D02*
X122338095Y-75512047D01*
X122957142Y-75512047D01*
%TO.C,C53*%
X101257142Y-95327142D02*
X101209523Y-95374761D01*
X101066666Y-95422380D01*
X100971428Y-95422380D01*
X100828571Y-95374761D01*
X100733333Y-95279523D01*
X100685714Y-95184285D01*
X100638095Y-94993809D01*
X100638095Y-94850952D01*
X100685714Y-94660476D01*
X100733333Y-94565238D01*
X100828571Y-94470000D01*
X100971428Y-94422380D01*
X101066666Y-94422380D01*
X101209523Y-94470000D01*
X101257142Y-94517619D01*
X102161904Y-94422380D02*
X101685714Y-94422380D01*
X101638095Y-94898571D01*
X101685714Y-94850952D01*
X101780952Y-94803333D01*
X102019047Y-94803333D01*
X102114285Y-94850952D01*
X102161904Y-94898571D01*
X102209523Y-94993809D01*
X102209523Y-95231904D01*
X102161904Y-95327142D01*
X102114285Y-95374761D01*
X102019047Y-95422380D01*
X101780952Y-95422380D01*
X101685714Y-95374761D01*
X101638095Y-95327142D01*
X102542857Y-94422380D02*
X103161904Y-94422380D01*
X102828571Y-94803333D01*
X102971428Y-94803333D01*
X103066666Y-94850952D01*
X103114285Y-94898571D01*
X103161904Y-94993809D01*
X103161904Y-95231904D01*
X103114285Y-95327142D01*
X103066666Y-95374761D01*
X102971428Y-95422380D01*
X102685714Y-95422380D01*
X102590476Y-95374761D01*
X102542857Y-95327142D01*
%TO.C,R44*%
X97457142Y-95352380D02*
X97123809Y-94876190D01*
X96885714Y-95352380D02*
X96885714Y-94352380D01*
X97266666Y-94352380D01*
X97361904Y-94400000D01*
X97409523Y-94447619D01*
X97457142Y-94542857D01*
X97457142Y-94685714D01*
X97409523Y-94780952D01*
X97361904Y-94828571D01*
X97266666Y-94876190D01*
X96885714Y-94876190D01*
X98314285Y-94685714D02*
X98314285Y-95352380D01*
X98076190Y-94304761D02*
X97838095Y-95019047D01*
X98457142Y-95019047D01*
X99266666Y-94685714D02*
X99266666Y-95352380D01*
X99028571Y-94304761D02*
X98790476Y-95019047D01*
X99409523Y-95019047D01*
%TO.C,R42*%
X98057142Y-105552380D02*
X97723809Y-105076190D01*
X97485714Y-105552380D02*
X97485714Y-104552380D01*
X97866666Y-104552380D01*
X97961904Y-104600000D01*
X98009523Y-104647619D01*
X98057142Y-104742857D01*
X98057142Y-104885714D01*
X98009523Y-104980952D01*
X97961904Y-105028571D01*
X97866666Y-105076190D01*
X97485714Y-105076190D01*
X98914285Y-104885714D02*
X98914285Y-105552380D01*
X98676190Y-104504761D02*
X98438095Y-105219047D01*
X99057142Y-105219047D01*
X99390476Y-104647619D02*
X99438095Y-104600000D01*
X99533333Y-104552380D01*
X99771428Y-104552380D01*
X99866666Y-104600000D01*
X99914285Y-104647619D01*
X99961904Y-104742857D01*
X99961904Y-104838095D01*
X99914285Y-104980952D01*
X99342857Y-105552380D01*
X99961904Y-105552380D01*
%TO.C,U2*%
X69938095Y-116052380D02*
X69938095Y-116861904D01*
X69985714Y-116957142D01*
X70033333Y-117004761D01*
X70128571Y-117052380D01*
X70319047Y-117052380D01*
X70414285Y-117004761D01*
X70461904Y-116957142D01*
X70509523Y-116861904D01*
X70509523Y-116052380D01*
X70938095Y-116147619D02*
X70985714Y-116100000D01*
X71080952Y-116052380D01*
X71319047Y-116052380D01*
X71414285Y-116100000D01*
X71461904Y-116147619D01*
X71509523Y-116242857D01*
X71509523Y-116338095D01*
X71461904Y-116480952D01*
X70890476Y-117052380D01*
X71509523Y-117052380D01*
X65938095Y-138116666D02*
X66414285Y-138116666D01*
X65842857Y-138402380D02*
X66176190Y-137402380D01*
X66509523Y-138402380D01*
X66842857Y-137735714D02*
X66842857Y-138402380D01*
X66842857Y-137830952D02*
X66890476Y-137783333D01*
X66985714Y-137735714D01*
X67128571Y-137735714D01*
X67223809Y-137783333D01*
X67271428Y-137878571D01*
X67271428Y-138402380D01*
X67604761Y-137735714D02*
X67985714Y-137735714D01*
X67747619Y-137402380D02*
X67747619Y-138259523D01*
X67795238Y-138354761D01*
X67890476Y-138402380D01*
X67985714Y-138402380D01*
X68700000Y-138354761D02*
X68604761Y-138402380D01*
X68414285Y-138402380D01*
X68319047Y-138354761D01*
X68271428Y-138259523D01*
X68271428Y-137878571D01*
X68319047Y-137783333D01*
X68414285Y-137735714D01*
X68604761Y-137735714D01*
X68700000Y-137783333D01*
X68747619Y-137878571D01*
X68747619Y-137973809D01*
X68271428Y-138069047D01*
X69176190Y-137735714D02*
X69176190Y-138402380D01*
X69176190Y-137830952D02*
X69223809Y-137783333D01*
X69319047Y-137735714D01*
X69461904Y-137735714D01*
X69557142Y-137783333D01*
X69604761Y-137878571D01*
X69604761Y-138402380D01*
X70080952Y-137735714D02*
X70080952Y-138402380D01*
X70080952Y-137830952D02*
X70128571Y-137783333D01*
X70223809Y-137735714D01*
X70366666Y-137735714D01*
X70461904Y-137783333D01*
X70509523Y-137878571D01*
X70509523Y-138402380D01*
X71414285Y-138402380D02*
X71414285Y-137878571D01*
X71366666Y-137783333D01*
X71271428Y-137735714D01*
X71080952Y-137735714D01*
X70985714Y-137783333D01*
X71414285Y-138354761D02*
X71319047Y-138402380D01*
X71080952Y-138402380D01*
X70985714Y-138354761D01*
X70938095Y-138259523D01*
X70938095Y-138164285D01*
X70985714Y-138069047D01*
X71080952Y-138021428D01*
X71319047Y-138021428D01*
X71414285Y-137973809D01*
X72604761Y-138116666D02*
X73080952Y-138116666D01*
X72509523Y-138402380D02*
X72842857Y-137402380D01*
X73176190Y-138402380D01*
X73509523Y-138402380D02*
X73509523Y-137735714D01*
X73509523Y-137926190D02*
X73557142Y-137830952D01*
X73604761Y-137783333D01*
X73700000Y-137735714D01*
X73795238Y-137735714D01*
X74509523Y-138354761D02*
X74414285Y-138402380D01*
X74223809Y-138402380D01*
X74128571Y-138354761D01*
X74080952Y-138259523D01*
X74080952Y-137878571D01*
X74128571Y-137783333D01*
X74223809Y-137735714D01*
X74414285Y-137735714D01*
X74509523Y-137783333D01*
X74557142Y-137878571D01*
X74557142Y-137973809D01*
X74080952Y-138069047D01*
X75414285Y-138402380D02*
X75414285Y-137878571D01*
X75366666Y-137783333D01*
X75271428Y-137735714D01*
X75080952Y-137735714D01*
X74985714Y-137783333D01*
X75414285Y-138354761D02*
X75319047Y-138402380D01*
X75080952Y-138402380D01*
X74985714Y-138354761D01*
X74938095Y-138259523D01*
X74938095Y-138164285D01*
X74985714Y-138069047D01*
X75080952Y-138021428D01*
X75319047Y-138021428D01*
X75414285Y-137973809D01*
%TO.C,C6*%
X79833333Y-136032142D02*
X79785714Y-136079761D01*
X79642857Y-136127380D01*
X79547619Y-136127380D01*
X79404761Y-136079761D01*
X79309523Y-135984523D01*
X79261904Y-135889285D01*
X79214285Y-135698809D01*
X79214285Y-135555952D01*
X79261904Y-135365476D01*
X79309523Y-135270238D01*
X79404761Y-135175000D01*
X79547619Y-135127380D01*
X79642857Y-135127380D01*
X79785714Y-135175000D01*
X79833333Y-135222619D01*
X80690476Y-135127380D02*
X80500000Y-135127380D01*
X80404761Y-135175000D01*
X80357142Y-135222619D01*
X80261904Y-135365476D01*
X80214285Y-135555952D01*
X80214285Y-135936904D01*
X80261904Y-136032142D01*
X80309523Y-136079761D01*
X80404761Y-136127380D01*
X80595238Y-136127380D01*
X80690476Y-136079761D01*
X80738095Y-136032142D01*
X80785714Y-135936904D01*
X80785714Y-135698809D01*
X80738095Y-135603571D01*
X80690476Y-135555952D01*
X80595238Y-135508333D01*
X80404761Y-135508333D01*
X80309523Y-135555952D01*
X80261904Y-135603571D01*
X80214285Y-135698809D01*
%TO.C,C5*%
X82133333Y-136457142D02*
X82085714Y-136504761D01*
X81942857Y-136552380D01*
X81847619Y-136552380D01*
X81704761Y-136504761D01*
X81609523Y-136409523D01*
X81561904Y-136314285D01*
X81514285Y-136123809D01*
X81514285Y-135980952D01*
X81561904Y-135790476D01*
X81609523Y-135695238D01*
X81704761Y-135600000D01*
X81847619Y-135552380D01*
X81942857Y-135552380D01*
X82085714Y-135600000D01*
X82133333Y-135647619D01*
X83038095Y-135552380D02*
X82561904Y-135552380D01*
X82514285Y-136028571D01*
X82561904Y-135980952D01*
X82657142Y-135933333D01*
X82895238Y-135933333D01*
X82990476Y-135980952D01*
X83038095Y-136028571D01*
X83085714Y-136123809D01*
X83085714Y-136361904D01*
X83038095Y-136457142D01*
X82990476Y-136504761D01*
X82895238Y-136552380D01*
X82657142Y-136552380D01*
X82561904Y-136504761D01*
X82514285Y-136457142D01*
%TO.C,U8*%
X64013095Y-107277380D02*
X64013095Y-108086904D01*
X64060714Y-108182142D01*
X64108333Y-108229761D01*
X64203571Y-108277380D01*
X64394047Y-108277380D01*
X64489285Y-108229761D01*
X64536904Y-108182142D01*
X64584523Y-108086904D01*
X64584523Y-107277380D01*
X65203571Y-107705952D02*
X65108333Y-107658333D01*
X65060714Y-107610714D01*
X65013095Y-107515476D01*
X65013095Y-107467857D01*
X65060714Y-107372619D01*
X65108333Y-107325000D01*
X65203571Y-107277380D01*
X65394047Y-107277380D01*
X65489285Y-107325000D01*
X65536904Y-107372619D01*
X65584523Y-107467857D01*
X65584523Y-107515476D01*
X65536904Y-107610714D01*
X65489285Y-107658333D01*
X65394047Y-107705952D01*
X65203571Y-107705952D01*
X65108333Y-107753571D01*
X65060714Y-107801190D01*
X65013095Y-107896428D01*
X65013095Y-108086904D01*
X65060714Y-108182142D01*
X65108333Y-108229761D01*
X65203571Y-108277380D01*
X65394047Y-108277380D01*
X65489285Y-108229761D01*
X65536904Y-108182142D01*
X65584523Y-108086904D01*
X65584523Y-107896428D01*
X65536904Y-107801190D01*
X65489285Y-107753571D01*
X65394047Y-107705952D01*
%TO.C,U7*%
X99238095Y-103052380D02*
X99238095Y-103861904D01*
X99285714Y-103957142D01*
X99333333Y-104004761D01*
X99428571Y-104052380D01*
X99619047Y-104052380D01*
X99714285Y-104004761D01*
X99761904Y-103957142D01*
X99809523Y-103861904D01*
X99809523Y-103052380D01*
X100190476Y-103052380D02*
X100857142Y-103052380D01*
X100428571Y-104052380D01*
%TO.C,U6*%
X99238095Y-60939880D02*
X99238095Y-61749404D01*
X99285714Y-61844642D01*
X99333333Y-61892261D01*
X99428571Y-61939880D01*
X99619047Y-61939880D01*
X99714285Y-61892261D01*
X99761904Y-61844642D01*
X99809523Y-61749404D01*
X99809523Y-60939880D01*
X100714285Y-60939880D02*
X100523809Y-60939880D01*
X100428571Y-60987500D01*
X100380952Y-61035119D01*
X100285714Y-61177976D01*
X100238095Y-61368452D01*
X100238095Y-61749404D01*
X100285714Y-61844642D01*
X100333333Y-61892261D01*
X100428571Y-61939880D01*
X100619047Y-61939880D01*
X100714285Y-61892261D01*
X100761904Y-61844642D01*
X100809523Y-61749404D01*
X100809523Y-61511309D01*
X100761904Y-61416071D01*
X100714285Y-61368452D01*
X100619047Y-61320833D01*
X100428571Y-61320833D01*
X100333333Y-61368452D01*
X100285714Y-61416071D01*
X100238095Y-61511309D01*
%TO.C,U5*%
X122582380Y-124936904D02*
X123391904Y-124936904D01*
X123487142Y-124889285D01*
X123534761Y-124841666D01*
X123582380Y-124746428D01*
X123582380Y-124555952D01*
X123534761Y-124460714D01*
X123487142Y-124413095D01*
X123391904Y-124365476D01*
X122582380Y-124365476D01*
X122582380Y-123413095D02*
X122582380Y-123889285D01*
X123058571Y-123936904D01*
X123010952Y-123889285D01*
X122963333Y-123794047D01*
X122963333Y-123555952D01*
X123010952Y-123460714D01*
X123058571Y-123413095D01*
X123153809Y-123365476D01*
X123391904Y-123365476D01*
X123487142Y-123413095D01*
X123534761Y-123460714D01*
X123582380Y-123555952D01*
X123582380Y-123794047D01*
X123534761Y-123889285D01*
X123487142Y-123936904D01*
%TO.C,U3*%
X69838095Y-75645380D02*
X69838095Y-76454904D01*
X69885714Y-76550142D01*
X69933333Y-76597761D01*
X70028571Y-76645380D01*
X70219047Y-76645380D01*
X70314285Y-76597761D01*
X70361904Y-76550142D01*
X70409523Y-76454904D01*
X70409523Y-75645380D01*
X70790476Y-75645380D02*
X71409523Y-75645380D01*
X71076190Y-76026333D01*
X71219047Y-76026333D01*
X71314285Y-76073952D01*
X71361904Y-76121571D01*
X71409523Y-76216809D01*
X71409523Y-76454904D01*
X71361904Y-76550142D01*
X71314285Y-76597761D01*
X71219047Y-76645380D01*
X70933333Y-76645380D01*
X70838095Y-76597761D01*
X70790476Y-76550142D01*
%TO.C,U1*%
X89138095Y-128452380D02*
X89138095Y-129261904D01*
X89185714Y-129357142D01*
X89233333Y-129404761D01*
X89328571Y-129452380D01*
X89519047Y-129452380D01*
X89614285Y-129404761D01*
X89661904Y-129357142D01*
X89709523Y-129261904D01*
X89709523Y-128452380D01*
X90709523Y-129452380D02*
X90138095Y-129452380D01*
X90423809Y-129452380D02*
X90423809Y-128452380D01*
X90328571Y-128595238D01*
X90233333Y-128690476D01*
X90138095Y-128738095D01*
%TO.C,R41*%
X116452381Y-73142856D02*
X115976191Y-73476189D01*
X116452381Y-73714284D02*
X115452381Y-73714284D01*
X115452381Y-73333332D01*
X115500001Y-73238094D01*
X115547620Y-73190475D01*
X115642858Y-73142856D01*
X115785715Y-73142856D01*
X115880953Y-73190475D01*
X115928572Y-73238094D01*
X115976191Y-73333332D01*
X115976191Y-73714284D01*
X115785715Y-72285713D02*
X116452381Y-72285713D01*
X115404762Y-72523808D02*
X116119048Y-72761903D01*
X116119048Y-72142856D01*
X116452381Y-71238094D02*
X116452381Y-71809522D01*
X116452381Y-71523808D02*
X115452381Y-71523808D01*
X115595239Y-71619046D01*
X115690477Y-71714284D01*
X115738096Y-71809522D01*
%TO.C,R40*%
X134557143Y-64752377D02*
X134223810Y-64276187D01*
X133985715Y-64752377D02*
X133985715Y-63752377D01*
X134366667Y-63752377D01*
X134461905Y-63799997D01*
X134509524Y-63847616D01*
X134557143Y-63942854D01*
X134557143Y-64085711D01*
X134509524Y-64180949D01*
X134461905Y-64228568D01*
X134366667Y-64276187D01*
X133985715Y-64276187D01*
X135414286Y-64085711D02*
X135414286Y-64752377D01*
X135176191Y-63704758D02*
X134938096Y-64419044D01*
X135557143Y-64419044D01*
X136128572Y-63752377D02*
X136223810Y-63752377D01*
X136319048Y-63799997D01*
X136366667Y-63847616D01*
X136414286Y-63942854D01*
X136461905Y-64133330D01*
X136461905Y-64371425D01*
X136414286Y-64561901D01*
X136366667Y-64657139D01*
X136319048Y-64704758D01*
X136223810Y-64752377D01*
X136128572Y-64752377D01*
X136033334Y-64704758D01*
X135985715Y-64657139D01*
X135938096Y-64561901D01*
X135890477Y-64371425D01*
X135890477Y-64133330D01*
X135938096Y-63942854D01*
X135985715Y-63847616D01*
X136033334Y-63799997D01*
X136128572Y-63752377D01*
%TO.C,R39*%
X64952380Y-73942857D02*
X64476190Y-74276190D01*
X64952380Y-74514285D02*
X63952380Y-74514285D01*
X63952380Y-74133333D01*
X64000000Y-74038095D01*
X64047619Y-73990476D01*
X64142857Y-73942857D01*
X64285714Y-73942857D01*
X64380952Y-73990476D01*
X64428571Y-74038095D01*
X64476190Y-74133333D01*
X64476190Y-74514285D01*
X63952380Y-73609523D02*
X63952380Y-72990476D01*
X64333333Y-73323809D01*
X64333333Y-73180952D01*
X64380952Y-73085714D01*
X64428571Y-73038095D01*
X64523809Y-72990476D01*
X64761904Y-72990476D01*
X64857142Y-73038095D01*
X64904761Y-73085714D01*
X64952380Y-73180952D01*
X64952380Y-73466666D01*
X64904761Y-73561904D01*
X64857142Y-73609523D01*
X64952380Y-72514285D02*
X64952380Y-72323809D01*
X64904761Y-72228571D01*
X64857142Y-72180952D01*
X64714285Y-72085714D01*
X64523809Y-72038095D01*
X64142857Y-72038095D01*
X64047619Y-72085714D01*
X64000000Y-72133333D01*
X63952380Y-72228571D01*
X63952380Y-72419047D01*
X64000000Y-72514285D01*
X64047619Y-72561904D01*
X64142857Y-72609523D01*
X64380952Y-72609523D01*
X64476190Y-72561904D01*
X64523809Y-72514285D01*
X64571428Y-72419047D01*
X64571428Y-72228571D01*
X64523809Y-72133333D01*
X64476190Y-72085714D01*
X64380952Y-72038095D01*
%TO.C,R38*%
X83057142Y-65552380D02*
X82723809Y-65076190D01*
X82485714Y-65552380D02*
X82485714Y-64552380D01*
X82866666Y-64552380D01*
X82961904Y-64600000D01*
X83009523Y-64647619D01*
X83057142Y-64742857D01*
X83057142Y-64885714D01*
X83009523Y-64980952D01*
X82961904Y-65028571D01*
X82866666Y-65076190D01*
X82485714Y-65076190D01*
X83390476Y-64552380D02*
X84009523Y-64552380D01*
X83676190Y-64933333D01*
X83819047Y-64933333D01*
X83914285Y-64980952D01*
X83961904Y-65028571D01*
X84009523Y-65123809D01*
X84009523Y-65361904D01*
X83961904Y-65457142D01*
X83914285Y-65504761D01*
X83819047Y-65552380D01*
X83533333Y-65552380D01*
X83438095Y-65504761D01*
X83390476Y-65457142D01*
X84580952Y-64980952D02*
X84485714Y-64933333D01*
X84438095Y-64885714D01*
X84390476Y-64790476D01*
X84390476Y-64742857D01*
X84438095Y-64647619D01*
X84485714Y-64600000D01*
X84580952Y-64552380D01*
X84771428Y-64552380D01*
X84866666Y-64600000D01*
X84914285Y-64647619D01*
X84961904Y-64742857D01*
X84961904Y-64790476D01*
X84914285Y-64885714D01*
X84866666Y-64933333D01*
X84771428Y-64980952D01*
X84580952Y-64980952D01*
X84485714Y-65028571D01*
X84438095Y-65076190D01*
X84390476Y-65171428D01*
X84390476Y-65361904D01*
X84438095Y-65457142D01*
X84485714Y-65504761D01*
X84580952Y-65552380D01*
X84771428Y-65552380D01*
X84866666Y-65504761D01*
X84914285Y-65457142D01*
X84961904Y-65361904D01*
X84961904Y-65171428D01*
X84914285Y-65076190D01*
X84866666Y-65028571D01*
X84771428Y-64980952D01*
%TO.C,R37*%
X118552380Y-73117857D02*
X118076190Y-73451190D01*
X118552380Y-73689285D02*
X117552380Y-73689285D01*
X117552380Y-73308333D01*
X117600000Y-73213095D01*
X117647619Y-73165476D01*
X117742857Y-73117857D01*
X117885714Y-73117857D01*
X117980952Y-73165476D01*
X118028571Y-73213095D01*
X118076190Y-73308333D01*
X118076190Y-73689285D01*
X117552380Y-72784523D02*
X117552380Y-72165476D01*
X117933333Y-72498809D01*
X117933333Y-72355952D01*
X117980952Y-72260714D01*
X118028571Y-72213095D01*
X118123809Y-72165476D01*
X118361904Y-72165476D01*
X118457142Y-72213095D01*
X118504761Y-72260714D01*
X118552380Y-72355952D01*
X118552380Y-72641666D01*
X118504761Y-72736904D01*
X118457142Y-72784523D01*
X117552380Y-71832142D02*
X117552380Y-71165476D01*
X118552380Y-71594047D01*
%TO.C,R35*%
X134557139Y-65752378D02*
X134223806Y-65276188D01*
X133985711Y-65752378D02*
X133985711Y-64752378D01*
X134366663Y-64752378D01*
X134461901Y-64799998D01*
X134509520Y-64847617D01*
X134557139Y-64942855D01*
X134557139Y-65085712D01*
X134509520Y-65180950D01*
X134461901Y-65228569D01*
X134366663Y-65276188D01*
X133985711Y-65276188D01*
X134890473Y-64752378D02*
X135509520Y-64752378D01*
X135176187Y-65133331D01*
X135319044Y-65133331D01*
X135414282Y-65180950D01*
X135461901Y-65228569D01*
X135509520Y-65323807D01*
X135509520Y-65561902D01*
X135461901Y-65657140D01*
X135414282Y-65704759D01*
X135319044Y-65752378D01*
X135033330Y-65752378D01*
X134938092Y-65704759D01*
X134890473Y-65657140D01*
X136414282Y-64752378D02*
X135938092Y-64752378D01*
X135890473Y-65228569D01*
X135938092Y-65180950D01*
X136033330Y-65133331D01*
X136271425Y-65133331D01*
X136366663Y-65180950D01*
X136414282Y-65228569D01*
X136461901Y-65323807D01*
X136461901Y-65561902D01*
X136414282Y-65657140D01*
X136366663Y-65704759D01*
X136271425Y-65752378D01*
X136033330Y-65752378D01*
X135938092Y-65704759D01*
X135890473Y-65657140D01*
%TO.C,R33*%
X64052380Y-73942857D02*
X63576190Y-74276190D01*
X64052380Y-74514285D02*
X63052380Y-74514285D01*
X63052380Y-74133333D01*
X63100000Y-74038095D01*
X63147619Y-73990476D01*
X63242857Y-73942857D01*
X63385714Y-73942857D01*
X63480952Y-73990476D01*
X63528571Y-74038095D01*
X63576190Y-74133333D01*
X63576190Y-74514285D01*
X63052380Y-73609523D02*
X63052380Y-72990476D01*
X63433333Y-73323809D01*
X63433333Y-73180952D01*
X63480952Y-73085714D01*
X63528571Y-73038095D01*
X63623809Y-72990476D01*
X63861904Y-72990476D01*
X63957142Y-73038095D01*
X64004761Y-73085714D01*
X64052380Y-73180952D01*
X64052380Y-73466666D01*
X64004761Y-73561904D01*
X63957142Y-73609523D01*
X63052380Y-72657142D02*
X63052380Y-72038095D01*
X63433333Y-72371428D01*
X63433333Y-72228571D01*
X63480952Y-72133333D01*
X63528571Y-72085714D01*
X63623809Y-72038095D01*
X63861904Y-72038095D01*
X63957142Y-72085714D01*
X64004761Y-72133333D01*
X64052380Y-72228571D01*
X64052380Y-72514285D01*
X64004761Y-72609523D01*
X63957142Y-72657142D01*
%TO.C,R31*%
X83057142Y-66552380D02*
X82723809Y-66076190D01*
X82485714Y-66552380D02*
X82485714Y-65552380D01*
X82866666Y-65552380D01*
X82961904Y-65600000D01*
X83009523Y-65647619D01*
X83057142Y-65742857D01*
X83057142Y-65885714D01*
X83009523Y-65980952D01*
X82961904Y-66028571D01*
X82866666Y-66076190D01*
X82485714Y-66076190D01*
X83390476Y-65552380D02*
X84009523Y-65552380D01*
X83676190Y-65933333D01*
X83819047Y-65933333D01*
X83914285Y-65980952D01*
X83961904Y-66028571D01*
X84009523Y-66123809D01*
X84009523Y-66361904D01*
X83961904Y-66457142D01*
X83914285Y-66504761D01*
X83819047Y-66552380D01*
X83533333Y-66552380D01*
X83438095Y-66504761D01*
X83390476Y-66457142D01*
X84961904Y-66552380D02*
X84390476Y-66552380D01*
X84676190Y-66552380D02*
X84676190Y-65552380D01*
X84580952Y-65695238D01*
X84485714Y-65790476D01*
X84390476Y-65838095D01*
%TO.C,R29*%
X115057142Y-103167380D02*
X114723809Y-102691190D01*
X114485714Y-103167380D02*
X114485714Y-102167380D01*
X114866666Y-102167380D01*
X114961904Y-102215000D01*
X115009523Y-102262619D01*
X115057142Y-102357857D01*
X115057142Y-102500714D01*
X115009523Y-102595952D01*
X114961904Y-102643571D01*
X114866666Y-102691190D01*
X114485714Y-102691190D01*
X115438095Y-102262619D02*
X115485714Y-102215000D01*
X115580952Y-102167380D01*
X115819047Y-102167380D01*
X115914285Y-102215000D01*
X115961904Y-102262619D01*
X116009523Y-102357857D01*
X116009523Y-102453095D01*
X115961904Y-102595952D01*
X115390476Y-103167380D01*
X116009523Y-103167380D01*
X116485714Y-103167380D02*
X116676190Y-103167380D01*
X116771428Y-103119761D01*
X116819047Y-103072142D01*
X116914285Y-102929285D01*
X116961904Y-102738809D01*
X116961904Y-102357857D01*
X116914285Y-102262619D01*
X116866666Y-102215000D01*
X116771428Y-102167380D01*
X116580952Y-102167380D01*
X116485714Y-102215000D01*
X116438095Y-102262619D01*
X116390476Y-102357857D01*
X116390476Y-102595952D01*
X116438095Y-102691190D01*
X116485714Y-102738809D01*
X116580952Y-102786428D01*
X116771428Y-102786428D01*
X116866666Y-102738809D01*
X116914285Y-102691190D01*
X116961904Y-102595952D01*
%TO.C,R28*%
X97737380Y-116242857D02*
X97261190Y-116576190D01*
X97737380Y-116814285D02*
X96737380Y-116814285D01*
X96737380Y-116433333D01*
X96785000Y-116338095D01*
X96832619Y-116290476D01*
X96927857Y-116242857D01*
X97070714Y-116242857D01*
X97165952Y-116290476D01*
X97213571Y-116338095D01*
X97261190Y-116433333D01*
X97261190Y-116814285D01*
X96832619Y-115861904D02*
X96785000Y-115814285D01*
X96737380Y-115719047D01*
X96737380Y-115480952D01*
X96785000Y-115385714D01*
X96832619Y-115338095D01*
X96927857Y-115290476D01*
X97023095Y-115290476D01*
X97165952Y-115338095D01*
X97737380Y-115909523D01*
X97737380Y-115290476D01*
X97165952Y-114719047D02*
X97118333Y-114814285D01*
X97070714Y-114861904D01*
X96975476Y-114909523D01*
X96927857Y-114909523D01*
X96832619Y-114861904D01*
X96785000Y-114814285D01*
X96737380Y-114719047D01*
X96737380Y-114528571D01*
X96785000Y-114433333D01*
X96832619Y-114385714D01*
X96927857Y-114338095D01*
X96975476Y-114338095D01*
X97070714Y-114385714D01*
X97118333Y-114433333D01*
X97165952Y-114528571D01*
X97165952Y-114719047D01*
X97213571Y-114814285D01*
X97261190Y-114861904D01*
X97356428Y-114909523D01*
X97546904Y-114909523D01*
X97642142Y-114861904D01*
X97689761Y-114814285D01*
X97737380Y-114719047D01*
X97737380Y-114528571D01*
X97689761Y-114433333D01*
X97642142Y-114385714D01*
X97546904Y-114338095D01*
X97356428Y-114338095D01*
X97261190Y-114385714D01*
X97213571Y-114433333D01*
X97165952Y-114528571D01*
%TO.C,R27*%
X83757142Y-97437380D02*
X83423809Y-96961190D01*
X83185714Y-97437380D02*
X83185714Y-96437380D01*
X83566666Y-96437380D01*
X83661904Y-96485000D01*
X83709523Y-96532619D01*
X83757142Y-96627857D01*
X83757142Y-96770714D01*
X83709523Y-96865952D01*
X83661904Y-96913571D01*
X83566666Y-96961190D01*
X83185714Y-96961190D01*
X84138095Y-96532619D02*
X84185714Y-96485000D01*
X84280952Y-96437380D01*
X84519047Y-96437380D01*
X84614285Y-96485000D01*
X84661904Y-96532619D01*
X84709523Y-96627857D01*
X84709523Y-96723095D01*
X84661904Y-96865952D01*
X84090476Y-97437380D01*
X84709523Y-97437380D01*
X85042857Y-96437380D02*
X85709523Y-96437380D01*
X85280952Y-97437380D01*
%TO.C,R26*%
X103267380Y-85042857D02*
X102791190Y-85376190D01*
X103267380Y-85614285D02*
X102267380Y-85614285D01*
X102267380Y-85233333D01*
X102315000Y-85138095D01*
X102362619Y-85090476D01*
X102457857Y-85042857D01*
X102600714Y-85042857D01*
X102695952Y-85090476D01*
X102743571Y-85138095D01*
X102791190Y-85233333D01*
X102791190Y-85614285D01*
X102362619Y-84661904D02*
X102315000Y-84614285D01*
X102267380Y-84519047D01*
X102267380Y-84280952D01*
X102315000Y-84185714D01*
X102362619Y-84138095D01*
X102457857Y-84090476D01*
X102553095Y-84090476D01*
X102695952Y-84138095D01*
X103267380Y-84709523D01*
X103267380Y-84090476D01*
X102267380Y-83233333D02*
X102267380Y-83423809D01*
X102315000Y-83519047D01*
X102362619Y-83566666D01*
X102505476Y-83661904D01*
X102695952Y-83709523D01*
X103076904Y-83709523D01*
X103172142Y-83661904D01*
X103219761Y-83614285D01*
X103267380Y-83519047D01*
X103267380Y-83328571D01*
X103219761Y-83233333D01*
X103172142Y-83185714D01*
X103076904Y-83138095D01*
X102838809Y-83138095D01*
X102743571Y-83185714D01*
X102695952Y-83233333D01*
X102648333Y-83328571D01*
X102648333Y-83519047D01*
X102695952Y-83614285D01*
X102743571Y-83661904D01*
X102838809Y-83709523D01*
%TO.C,R25*%
X116452381Y-69692852D02*
X115976191Y-70026185D01*
X116452381Y-70264280D02*
X115452381Y-70264280D01*
X115452381Y-69883328D01*
X115500001Y-69788090D01*
X115547620Y-69740471D01*
X115642858Y-69692852D01*
X115785715Y-69692852D01*
X115880953Y-69740471D01*
X115928572Y-69788090D01*
X115976191Y-69883328D01*
X115976191Y-70264280D01*
X115547620Y-69311899D02*
X115500001Y-69264280D01*
X115452381Y-69169042D01*
X115452381Y-68930947D01*
X115500001Y-68835709D01*
X115547620Y-68788090D01*
X115642858Y-68740471D01*
X115738096Y-68740471D01*
X115880953Y-68788090D01*
X116452381Y-69359518D01*
X116452381Y-68740471D01*
X115452381Y-67835709D02*
X115452381Y-68311899D01*
X115928572Y-68359518D01*
X115880953Y-68311899D01*
X115833334Y-68216661D01*
X115833334Y-67978566D01*
X115880953Y-67883328D01*
X115928572Y-67835709D01*
X116023810Y-67788090D01*
X116261905Y-67788090D01*
X116357143Y-67835709D01*
X116404762Y-67883328D01*
X116452381Y-67978566D01*
X116452381Y-68216661D01*
X116404762Y-68311899D01*
X116357143Y-68359518D01*
%TO.C,R24*%
X131157141Y-65752378D02*
X130823808Y-65276188D01*
X130585713Y-65752378D02*
X130585713Y-64752378D01*
X130966665Y-64752378D01*
X131061903Y-64799998D01*
X131109522Y-64847617D01*
X131157141Y-64942855D01*
X131157141Y-65085712D01*
X131109522Y-65180950D01*
X131061903Y-65228569D01*
X130966665Y-65276188D01*
X130585713Y-65276188D01*
X131538094Y-64847617D02*
X131585713Y-64799998D01*
X131680951Y-64752378D01*
X131919046Y-64752378D01*
X132014284Y-64799998D01*
X132061903Y-64847617D01*
X132109522Y-64942855D01*
X132109522Y-65038093D01*
X132061903Y-65180950D01*
X131490475Y-65752378D01*
X132109522Y-65752378D01*
X132966665Y-65085712D02*
X132966665Y-65752378D01*
X132728570Y-64704759D02*
X132490475Y-65419045D01*
X133109522Y-65419045D01*
%TO.C,R23*%
X64952381Y-70492854D02*
X64476191Y-70826187D01*
X64952381Y-71064282D02*
X63952381Y-71064282D01*
X63952381Y-70683330D01*
X64000001Y-70588092D01*
X64047620Y-70540473D01*
X64142858Y-70492854D01*
X64285715Y-70492854D01*
X64380953Y-70540473D01*
X64428572Y-70588092D01*
X64476191Y-70683330D01*
X64476191Y-71064282D01*
X64047620Y-70111901D02*
X64000001Y-70064282D01*
X63952381Y-69969044D01*
X63952381Y-69730949D01*
X64000001Y-69635711D01*
X64047620Y-69588092D01*
X64142858Y-69540473D01*
X64238096Y-69540473D01*
X64380953Y-69588092D01*
X64952381Y-70159520D01*
X64952381Y-69540473D01*
X63952381Y-69207139D02*
X63952381Y-68588092D01*
X64333334Y-68921425D01*
X64333334Y-68778568D01*
X64380953Y-68683330D01*
X64428572Y-68635711D01*
X64523810Y-68588092D01*
X64761905Y-68588092D01*
X64857143Y-68635711D01*
X64904762Y-68683330D01*
X64952381Y-68778568D01*
X64952381Y-69064282D01*
X64904762Y-69159520D01*
X64857143Y-69207139D01*
%TO.C,R22*%
X79657142Y-66552380D02*
X79323809Y-66076190D01*
X79085714Y-66552380D02*
X79085714Y-65552380D01*
X79466666Y-65552380D01*
X79561904Y-65600000D01*
X79609523Y-65647619D01*
X79657142Y-65742857D01*
X79657142Y-65885714D01*
X79609523Y-65980952D01*
X79561904Y-66028571D01*
X79466666Y-66076190D01*
X79085714Y-66076190D01*
X80038095Y-65647619D02*
X80085714Y-65600000D01*
X80180952Y-65552380D01*
X80419047Y-65552380D01*
X80514285Y-65600000D01*
X80561904Y-65647619D01*
X80609523Y-65742857D01*
X80609523Y-65838095D01*
X80561904Y-65980952D01*
X79990476Y-66552380D01*
X80609523Y-66552380D01*
X80990476Y-65647619D02*
X81038095Y-65600000D01*
X81133333Y-65552380D01*
X81371428Y-65552380D01*
X81466666Y-65600000D01*
X81514285Y-65647619D01*
X81561904Y-65742857D01*
X81561904Y-65838095D01*
X81514285Y-65980952D01*
X80942857Y-66552380D01*
X81561904Y-66552380D01*
%TO.C,R21*%
X115552380Y-69692856D02*
X115076190Y-70026189D01*
X115552380Y-70264284D02*
X114552380Y-70264284D01*
X114552380Y-69883332D01*
X114600000Y-69788094D01*
X114647619Y-69740475D01*
X114742857Y-69692856D01*
X114885714Y-69692856D01*
X114980952Y-69740475D01*
X115028571Y-69788094D01*
X115076190Y-69883332D01*
X115076190Y-70264284D01*
X114647619Y-69311903D02*
X114600000Y-69264284D01*
X114552380Y-69169046D01*
X114552380Y-68930951D01*
X114600000Y-68835713D01*
X114647619Y-68788094D01*
X114742857Y-68740475D01*
X114838095Y-68740475D01*
X114980952Y-68788094D01*
X115552380Y-69359522D01*
X115552380Y-68740475D01*
X115552380Y-67788094D02*
X115552380Y-68359522D01*
X115552380Y-68073808D02*
X114552380Y-68073808D01*
X114695238Y-68169046D01*
X114790476Y-68264284D01*
X114838095Y-68359522D01*
%TO.C,R20*%
X131157141Y-64752377D02*
X130823808Y-64276187D01*
X130585713Y-64752377D02*
X130585713Y-63752377D01*
X130966665Y-63752377D01*
X131061903Y-63799997D01*
X131109522Y-63847616D01*
X131157141Y-63942854D01*
X131157141Y-64085711D01*
X131109522Y-64180949D01*
X131061903Y-64228568D01*
X130966665Y-64276187D01*
X130585713Y-64276187D01*
X131538094Y-63847616D02*
X131585713Y-63799997D01*
X131680951Y-63752377D01*
X131919046Y-63752377D01*
X132014284Y-63799997D01*
X132061903Y-63847616D01*
X132109522Y-63942854D01*
X132109522Y-64038092D01*
X132061903Y-64180949D01*
X131490475Y-64752377D01*
X132109522Y-64752377D01*
X132728570Y-63752377D02*
X132823808Y-63752377D01*
X132919046Y-63799997D01*
X132966665Y-63847616D01*
X133014284Y-63942854D01*
X133061903Y-64133330D01*
X133061903Y-64371425D01*
X133014284Y-64561901D01*
X132966665Y-64657139D01*
X132919046Y-64704758D01*
X132823808Y-64752377D01*
X132728570Y-64752377D01*
X132633332Y-64704758D01*
X132585713Y-64657139D01*
X132538094Y-64561901D01*
X132490475Y-64371425D01*
X132490475Y-64133330D01*
X132538094Y-63942854D01*
X132585713Y-63847616D01*
X132633332Y-63799997D01*
X132728570Y-63752377D01*
%TO.C,R19*%
X64052381Y-70492855D02*
X63576191Y-70826188D01*
X64052381Y-71064283D02*
X63052381Y-71064283D01*
X63052381Y-70683331D01*
X63100001Y-70588093D01*
X63147620Y-70540474D01*
X63242858Y-70492855D01*
X63385715Y-70492855D01*
X63480953Y-70540474D01*
X63528572Y-70588093D01*
X63576191Y-70683331D01*
X63576191Y-71064283D01*
X64052381Y-69540474D02*
X64052381Y-70111902D01*
X64052381Y-69826188D02*
X63052381Y-69826188D01*
X63195239Y-69921426D01*
X63290477Y-70016664D01*
X63338096Y-70111902D01*
X64052381Y-69064283D02*
X64052381Y-68873807D01*
X64004762Y-68778569D01*
X63957143Y-68730950D01*
X63814286Y-68635712D01*
X63623810Y-68588093D01*
X63242858Y-68588093D01*
X63147620Y-68635712D01*
X63100001Y-68683331D01*
X63052381Y-68778569D01*
X63052381Y-68969045D01*
X63100001Y-69064283D01*
X63147620Y-69111902D01*
X63242858Y-69159521D01*
X63480953Y-69159521D01*
X63576191Y-69111902D01*
X63623810Y-69064283D01*
X63671429Y-68969045D01*
X63671429Y-68778569D01*
X63623810Y-68683331D01*
X63576191Y-68635712D01*
X63480953Y-68588093D01*
%TO.C,R18*%
X79657142Y-65552380D02*
X79323809Y-65076190D01*
X79085714Y-65552380D02*
X79085714Y-64552380D01*
X79466666Y-64552380D01*
X79561904Y-64600000D01*
X79609523Y-64647619D01*
X79657142Y-64742857D01*
X79657142Y-64885714D01*
X79609523Y-64980952D01*
X79561904Y-65028571D01*
X79466666Y-65076190D01*
X79085714Y-65076190D01*
X80609523Y-65552380D02*
X80038095Y-65552380D01*
X80323809Y-65552380D02*
X80323809Y-64552380D01*
X80228571Y-64695238D01*
X80133333Y-64790476D01*
X80038095Y-64838095D01*
X81180952Y-64980952D02*
X81085714Y-64933333D01*
X81038095Y-64885714D01*
X80990476Y-64790476D01*
X80990476Y-64742857D01*
X81038095Y-64647619D01*
X81085714Y-64600000D01*
X81180952Y-64552380D01*
X81371428Y-64552380D01*
X81466666Y-64600000D01*
X81514285Y-64647619D01*
X81561904Y-64742857D01*
X81561904Y-64790476D01*
X81514285Y-64885714D01*
X81466666Y-64933333D01*
X81371428Y-64980952D01*
X81180952Y-64980952D01*
X81085714Y-65028571D01*
X81038095Y-65076190D01*
X80990476Y-65171428D01*
X80990476Y-65361904D01*
X81038095Y-65457142D01*
X81085714Y-65504761D01*
X81180952Y-65552380D01*
X81371428Y-65552380D01*
X81466666Y-65504761D01*
X81514285Y-65457142D01*
X81561904Y-65361904D01*
X81561904Y-65171428D01*
X81514285Y-65076190D01*
X81466666Y-65028571D01*
X81371428Y-64980952D01*
%TO.C,R17*%
X127657140Y-69902380D02*
X127323807Y-69426190D01*
X127085712Y-69902380D02*
X127085712Y-68902380D01*
X127466664Y-68902380D01*
X127561902Y-68950000D01*
X127609521Y-68997619D01*
X127657140Y-69092857D01*
X127657140Y-69235714D01*
X127609521Y-69330952D01*
X127561902Y-69378571D01*
X127466664Y-69426190D01*
X127085712Y-69426190D01*
X128609521Y-69902380D02*
X128038093Y-69902380D01*
X128323807Y-69902380D02*
X128323807Y-68902380D01*
X128228569Y-69045238D01*
X128133331Y-69140476D01*
X128038093Y-69188095D01*
X128942855Y-68902380D02*
X129609521Y-68902380D01*
X129180950Y-69902380D01*
%TO.C,R16*%
X76157142Y-70702380D02*
X75823809Y-70226190D01*
X75585714Y-70702380D02*
X75585714Y-69702380D01*
X75966666Y-69702380D01*
X76061904Y-69750000D01*
X76109523Y-69797619D01*
X76157142Y-69892857D01*
X76157142Y-70035714D01*
X76109523Y-70130952D01*
X76061904Y-70178571D01*
X75966666Y-70226190D01*
X75585714Y-70226190D01*
X77109523Y-70702380D02*
X76538095Y-70702380D01*
X76823809Y-70702380D02*
X76823809Y-69702380D01*
X76728571Y-69845238D01*
X76633333Y-69940476D01*
X76538095Y-69988095D01*
X77966666Y-69702380D02*
X77776190Y-69702380D01*
X77680952Y-69750000D01*
X77633333Y-69797619D01*
X77538095Y-69940476D01*
X77490476Y-70130952D01*
X77490476Y-70511904D01*
X77538095Y-70607142D01*
X77585714Y-70654761D01*
X77680952Y-70702380D01*
X77871428Y-70702380D01*
X77966666Y-70654761D01*
X78014285Y-70607142D01*
X78061904Y-70511904D01*
X78061904Y-70273809D01*
X78014285Y-70178571D01*
X77966666Y-70130952D01*
X77871428Y-70083333D01*
X77680952Y-70083333D01*
X77585714Y-70130952D01*
X77538095Y-70178571D01*
X77490476Y-70273809D01*
%TO.C,R15*%
X127657147Y-71902374D02*
X127323814Y-71426184D01*
X127085719Y-71902374D02*
X127085719Y-70902374D01*
X127466671Y-70902374D01*
X127561909Y-70949994D01*
X127609528Y-70997613D01*
X127657147Y-71092851D01*
X127657147Y-71235708D01*
X127609528Y-71330946D01*
X127561909Y-71378565D01*
X127466671Y-71426184D01*
X127085719Y-71426184D01*
X128609528Y-71902374D02*
X128038100Y-71902374D01*
X128323814Y-71902374D02*
X128323814Y-70902374D01*
X128228576Y-71045232D01*
X128133338Y-71140470D01*
X128038100Y-71188089D01*
X129514290Y-70902374D02*
X129038100Y-70902374D01*
X128990481Y-71378565D01*
X129038100Y-71330946D01*
X129133338Y-71283327D01*
X129371433Y-71283327D01*
X129466671Y-71330946D01*
X129514290Y-71378565D01*
X129561909Y-71473803D01*
X129561909Y-71711898D01*
X129514290Y-71807136D01*
X129466671Y-71854755D01*
X129371433Y-71902374D01*
X129133338Y-71902374D01*
X129038100Y-71854755D01*
X128990481Y-71807136D01*
%TO.C,R14*%
X76157147Y-72702376D02*
X75823814Y-72226186D01*
X75585719Y-72702376D02*
X75585719Y-71702376D01*
X75966671Y-71702376D01*
X76061909Y-71749996D01*
X76109528Y-71797615D01*
X76157147Y-71892853D01*
X76157147Y-72035710D01*
X76109528Y-72130948D01*
X76061909Y-72178567D01*
X75966671Y-72226186D01*
X75585719Y-72226186D01*
X77109528Y-72702376D02*
X76538100Y-72702376D01*
X76823814Y-72702376D02*
X76823814Y-71702376D01*
X76728576Y-71845234D01*
X76633338Y-71940472D01*
X76538100Y-71988091D01*
X77966671Y-72035710D02*
X77966671Y-72702376D01*
X77728576Y-71654757D02*
X77490481Y-72369043D01*
X78109528Y-72369043D01*
%TO.C,R13*%
X64157142Y-113852380D02*
X63823809Y-113376190D01*
X63585714Y-113852380D02*
X63585714Y-112852380D01*
X63966666Y-112852380D01*
X64061904Y-112900000D01*
X64109523Y-112947619D01*
X64157142Y-113042857D01*
X64157142Y-113185714D01*
X64109523Y-113280952D01*
X64061904Y-113328571D01*
X63966666Y-113376190D01*
X63585714Y-113376190D01*
X65109523Y-113852380D02*
X64538095Y-113852380D01*
X64823809Y-113852380D02*
X64823809Y-112852380D01*
X64728571Y-112995238D01*
X64633333Y-113090476D01*
X64538095Y-113138095D01*
X65442857Y-112852380D02*
X66061904Y-112852380D01*
X65728571Y-113233333D01*
X65871428Y-113233333D01*
X65966666Y-113280952D01*
X66014285Y-113328571D01*
X66061904Y-113423809D01*
X66061904Y-113661904D01*
X66014285Y-113757142D01*
X65966666Y-113804761D01*
X65871428Y-113852380D01*
X65585714Y-113852380D01*
X65490476Y-113804761D01*
X65442857Y-113757142D01*
%TO.C,R12*%
X134177380Y-135442857D02*
X133701190Y-135776190D01*
X134177380Y-136014285D02*
X133177380Y-136014285D01*
X133177380Y-135633333D01*
X133225000Y-135538095D01*
X133272619Y-135490476D01*
X133367857Y-135442857D01*
X133510714Y-135442857D01*
X133605952Y-135490476D01*
X133653571Y-135538095D01*
X133701190Y-135633333D01*
X133701190Y-136014285D01*
X134177380Y-134490476D02*
X134177380Y-135061904D01*
X134177380Y-134776190D02*
X133177380Y-134776190D01*
X133320238Y-134871428D01*
X133415476Y-134966666D01*
X133463095Y-135061904D01*
X133272619Y-134109523D02*
X133225000Y-134061904D01*
X133177380Y-133966666D01*
X133177380Y-133728571D01*
X133225000Y-133633333D01*
X133272619Y-133585714D01*
X133367857Y-133538095D01*
X133463095Y-133538095D01*
X133605952Y-133585714D01*
X134177380Y-134157142D01*
X134177380Y-133538095D01*
%TO.C,R11*%
X132452380Y-135442857D02*
X131976190Y-135776190D01*
X132452380Y-136014285D02*
X131452380Y-136014285D01*
X131452380Y-135633333D01*
X131500000Y-135538095D01*
X131547619Y-135490476D01*
X131642857Y-135442857D01*
X131785714Y-135442857D01*
X131880952Y-135490476D01*
X131928571Y-135538095D01*
X131976190Y-135633333D01*
X131976190Y-136014285D01*
X132452380Y-134490476D02*
X132452380Y-135061904D01*
X132452380Y-134776190D02*
X131452380Y-134776190D01*
X131595238Y-134871428D01*
X131690476Y-134966666D01*
X131738095Y-135061904D01*
X132452380Y-133538095D02*
X132452380Y-134109523D01*
X132452380Y-133823809D02*
X131452380Y-133823809D01*
X131595238Y-133919047D01*
X131690476Y-134014285D01*
X131738095Y-134109523D01*
%TO.C,R10*%
X101957142Y-131252380D02*
X101623809Y-130776190D01*
X101385714Y-131252380D02*
X101385714Y-130252380D01*
X101766666Y-130252380D01*
X101861904Y-130300000D01*
X101909523Y-130347619D01*
X101957142Y-130442857D01*
X101957142Y-130585714D01*
X101909523Y-130680952D01*
X101861904Y-130728571D01*
X101766666Y-130776190D01*
X101385714Y-130776190D01*
X102909523Y-131252380D02*
X102338095Y-131252380D01*
X102623809Y-131252380D02*
X102623809Y-130252380D01*
X102528571Y-130395238D01*
X102433333Y-130490476D01*
X102338095Y-130538095D01*
X103528571Y-130252380D02*
X103623809Y-130252380D01*
X103719047Y-130300000D01*
X103766666Y-130347619D01*
X103814285Y-130442857D01*
X103861904Y-130633333D01*
X103861904Y-130871428D01*
X103814285Y-131061904D01*
X103766666Y-131157142D01*
X103719047Y-131204761D01*
X103623809Y-131252380D01*
X103528571Y-131252380D01*
X103433333Y-131204761D01*
X103385714Y-131157142D01*
X103338095Y-131061904D01*
X103290476Y-130871428D01*
X103290476Y-130633333D01*
X103338095Y-130442857D01*
X103385714Y-130347619D01*
X103433333Y-130300000D01*
X103528571Y-130252380D01*
%TO.C,R9*%
X130727380Y-134966666D02*
X130251190Y-135300000D01*
X130727380Y-135538095D02*
X129727380Y-135538095D01*
X129727380Y-135157142D01*
X129775000Y-135061904D01*
X129822619Y-135014285D01*
X129917857Y-134966666D01*
X130060714Y-134966666D01*
X130155952Y-135014285D01*
X130203571Y-135061904D01*
X130251190Y-135157142D01*
X130251190Y-135538095D01*
X130727380Y-134490476D02*
X130727380Y-134300000D01*
X130679761Y-134204761D01*
X130632142Y-134157142D01*
X130489285Y-134061904D01*
X130298809Y-134014285D01*
X129917857Y-134014285D01*
X129822619Y-134061904D01*
X129775000Y-134109523D01*
X129727380Y-134204761D01*
X129727380Y-134395238D01*
X129775000Y-134490476D01*
X129822619Y-134538095D01*
X129917857Y-134585714D01*
X130155952Y-134585714D01*
X130251190Y-134538095D01*
X130298809Y-134490476D01*
X130346428Y-134395238D01*
X130346428Y-134204761D01*
X130298809Y-134109523D01*
X130251190Y-134061904D01*
X130155952Y-134014285D01*
%TO.C,R8*%
X64633333Y-116852380D02*
X64300000Y-116376190D01*
X64061904Y-116852380D02*
X64061904Y-115852380D01*
X64442857Y-115852380D01*
X64538095Y-115900000D01*
X64585714Y-115947619D01*
X64633333Y-116042857D01*
X64633333Y-116185714D01*
X64585714Y-116280952D01*
X64538095Y-116328571D01*
X64442857Y-116376190D01*
X64061904Y-116376190D01*
X65204761Y-116280952D02*
X65109523Y-116233333D01*
X65061904Y-116185714D01*
X65014285Y-116090476D01*
X65014285Y-116042857D01*
X65061904Y-115947619D01*
X65109523Y-115900000D01*
X65204761Y-115852380D01*
X65395238Y-115852380D01*
X65490476Y-115900000D01*
X65538095Y-115947619D01*
X65585714Y-116042857D01*
X65585714Y-116090476D01*
X65538095Y-116185714D01*
X65490476Y-116233333D01*
X65395238Y-116280952D01*
X65204761Y-116280952D01*
X65109523Y-116328571D01*
X65061904Y-116376190D01*
X65014285Y-116471428D01*
X65014285Y-116661904D01*
X65061904Y-116757142D01*
X65109523Y-116804761D01*
X65204761Y-116852380D01*
X65395238Y-116852380D01*
X65490476Y-116804761D01*
X65538095Y-116757142D01*
X65585714Y-116661904D01*
X65585714Y-116471428D01*
X65538095Y-116376190D01*
X65490476Y-116328571D01*
X65395238Y-116280952D01*
%TO.C,R7*%
X68052380Y-117366666D02*
X67576190Y-117700000D01*
X68052380Y-117938095D02*
X67052380Y-117938095D01*
X67052380Y-117557142D01*
X67100000Y-117461904D01*
X67147619Y-117414285D01*
X67242857Y-117366666D01*
X67385714Y-117366666D01*
X67480952Y-117414285D01*
X67528571Y-117461904D01*
X67576190Y-117557142D01*
X67576190Y-117938095D01*
X67052380Y-117033333D02*
X67052380Y-116366666D01*
X68052380Y-116795238D01*
%TO.C,R6*%
X69352380Y-117366666D02*
X68876190Y-117700000D01*
X69352380Y-117938095D02*
X68352380Y-117938095D01*
X68352380Y-117557142D01*
X68400000Y-117461904D01*
X68447619Y-117414285D01*
X68542857Y-117366666D01*
X68685714Y-117366666D01*
X68780952Y-117414285D01*
X68828571Y-117461904D01*
X68876190Y-117557142D01*
X68876190Y-117938095D01*
X68352380Y-116509523D02*
X68352380Y-116700000D01*
X68400000Y-116795238D01*
X68447619Y-116842857D01*
X68590476Y-116938095D01*
X68780952Y-116985714D01*
X69161904Y-116985714D01*
X69257142Y-116938095D01*
X69304761Y-116890476D01*
X69352380Y-116795238D01*
X69352380Y-116604761D01*
X69304761Y-116509523D01*
X69257142Y-116461904D01*
X69161904Y-116414285D01*
X68923809Y-116414285D01*
X68828571Y-116461904D01*
X68780952Y-116509523D01*
X68733333Y-116604761D01*
X68733333Y-116795238D01*
X68780952Y-116890476D01*
X68828571Y-116938095D01*
X68923809Y-116985714D01*
%TO.C,R5*%
X97433333Y-134352380D02*
X97100000Y-133876190D01*
X96861904Y-134352380D02*
X96861904Y-133352380D01*
X97242857Y-133352380D01*
X97338095Y-133400000D01*
X97385714Y-133447619D01*
X97433333Y-133542857D01*
X97433333Y-133685714D01*
X97385714Y-133780952D01*
X97338095Y-133828571D01*
X97242857Y-133876190D01*
X96861904Y-133876190D01*
X98338095Y-133352380D02*
X97861904Y-133352380D01*
X97814285Y-133828571D01*
X97861904Y-133780952D01*
X97957142Y-133733333D01*
X98195238Y-133733333D01*
X98290476Y-133780952D01*
X98338095Y-133828571D01*
X98385714Y-133923809D01*
X98385714Y-134161904D01*
X98338095Y-134257142D01*
X98290476Y-134304761D01*
X98195238Y-134352380D01*
X97957142Y-134352380D01*
X97861904Y-134304761D01*
X97814285Y-134257142D01*
%TO.C,R4*%
X86452380Y-133366666D02*
X85976190Y-133700000D01*
X86452380Y-133938095D02*
X85452380Y-133938095D01*
X85452380Y-133557142D01*
X85500000Y-133461904D01*
X85547619Y-133414285D01*
X85642857Y-133366666D01*
X85785714Y-133366666D01*
X85880952Y-133414285D01*
X85928571Y-133461904D01*
X85976190Y-133557142D01*
X85976190Y-133938095D01*
X85785714Y-132509523D02*
X86452380Y-132509523D01*
X85404761Y-132747619D02*
X86119047Y-132985714D01*
X86119047Y-132366666D01*
%TO.C,R3*%
X129002380Y-134966666D02*
X128526190Y-135300000D01*
X129002380Y-135538095D02*
X128002380Y-135538095D01*
X128002380Y-135157142D01*
X128050000Y-135061904D01*
X128097619Y-135014285D01*
X128192857Y-134966666D01*
X128335714Y-134966666D01*
X128430952Y-135014285D01*
X128478571Y-135061904D01*
X128526190Y-135157142D01*
X128526190Y-135538095D01*
X128002380Y-134633333D02*
X128002380Y-134014285D01*
X128383333Y-134347619D01*
X128383333Y-134204761D01*
X128430952Y-134109523D01*
X128478571Y-134061904D01*
X128573809Y-134014285D01*
X128811904Y-134014285D01*
X128907142Y-134061904D01*
X128954761Y-134109523D01*
X129002380Y-134204761D01*
X129002380Y-134490476D01*
X128954761Y-134585714D01*
X128907142Y-134633333D01*
%TO.C,R2*%
X127277380Y-134966666D02*
X126801190Y-135300000D01*
X127277380Y-135538095D02*
X126277380Y-135538095D01*
X126277380Y-135157142D01*
X126325000Y-135061904D01*
X126372619Y-135014285D01*
X126467857Y-134966666D01*
X126610714Y-134966666D01*
X126705952Y-135014285D01*
X126753571Y-135061904D01*
X126801190Y-135157142D01*
X126801190Y-135538095D01*
X126372619Y-134585714D02*
X126325000Y-134538095D01*
X126277380Y-134442857D01*
X126277380Y-134204761D01*
X126325000Y-134109523D01*
X126372619Y-134061904D01*
X126467857Y-134014285D01*
X126563095Y-134014285D01*
X126705952Y-134061904D01*
X127277380Y-134633333D01*
X127277380Y-134014285D01*
%TO.C,R1*%
X125552380Y-134966666D02*
X125076190Y-135300000D01*
X125552380Y-135538095D02*
X124552380Y-135538095D01*
X124552380Y-135157142D01*
X124600000Y-135061904D01*
X124647619Y-135014285D01*
X124742857Y-134966666D01*
X124885714Y-134966666D01*
X124980952Y-135014285D01*
X125028571Y-135061904D01*
X125076190Y-135157142D01*
X125076190Y-135538095D01*
X125552380Y-134014285D02*
X125552380Y-134585714D01*
X125552380Y-134300000D02*
X124552380Y-134300000D01*
X124695238Y-134395238D01*
X124790476Y-134490476D01*
X124838095Y-134585714D01*
%TO.C,Q2*%
X128204763Y-70997616D02*
X128109525Y-70949997D01*
X128014287Y-70854758D01*
X127871430Y-70711901D01*
X127776192Y-70664282D01*
X127680954Y-70664282D01*
X127728573Y-70902377D02*
X127633335Y-70854758D01*
X127538097Y-70759520D01*
X127490478Y-70569044D01*
X127490478Y-70235711D01*
X127538097Y-70045235D01*
X127633335Y-69949997D01*
X127728573Y-69902377D01*
X127919049Y-69902377D01*
X128014287Y-69949997D01*
X128109525Y-70045235D01*
X128157144Y-70235711D01*
X128157144Y-70569044D01*
X128109525Y-70759520D01*
X128014287Y-70854758D01*
X127919049Y-70902377D01*
X127728573Y-70902377D01*
X128538097Y-69997616D02*
X128585716Y-69949997D01*
X128680954Y-69902377D01*
X128919049Y-69902377D01*
X129014287Y-69949997D01*
X129061906Y-69997616D01*
X129109525Y-70092854D01*
X129109525Y-70188092D01*
X129061906Y-70330949D01*
X128490478Y-70902377D01*
X129109525Y-70902377D01*
%TO.C,Q1*%
X76704762Y-71797616D02*
X76609524Y-71749997D01*
X76514286Y-71654758D01*
X76371429Y-71511901D01*
X76276191Y-71464282D01*
X76180953Y-71464282D01*
X76228572Y-71702377D02*
X76133334Y-71654758D01*
X76038096Y-71559520D01*
X75990477Y-71369044D01*
X75990477Y-71035711D01*
X76038096Y-70845235D01*
X76133334Y-70749997D01*
X76228572Y-70702377D01*
X76419048Y-70702377D01*
X76514286Y-70749997D01*
X76609524Y-70845235D01*
X76657143Y-71035711D01*
X76657143Y-71369044D01*
X76609524Y-71559520D01*
X76514286Y-71654758D01*
X76419048Y-71702377D01*
X76228572Y-71702377D01*
X77609524Y-71702377D02*
X77038096Y-71702377D01*
X77323810Y-71702377D02*
X77323810Y-70702377D01*
X77228572Y-70845235D01*
X77133334Y-70940473D01*
X77038096Y-70988092D01*
%TO.C,L2*%
X130352374Y-73116659D02*
X130352374Y-73592850D01*
X129352374Y-73592850D01*
X129447613Y-72830945D02*
X129399994Y-72783326D01*
X129352374Y-72688088D01*
X129352374Y-72449993D01*
X129399994Y-72354754D01*
X129447613Y-72307135D01*
X129542851Y-72259516D01*
X129638089Y-72259516D01*
X129780946Y-72307135D01*
X130352374Y-72878564D01*
X130352374Y-72259516D01*
%TO.C,L1*%
X78852378Y-73916660D02*
X78852378Y-74392851D01*
X77852378Y-74392851D01*
X78852378Y-73059517D02*
X78852378Y-73630946D01*
X78852378Y-73345232D02*
X77852378Y-73345232D01*
X77995236Y-73440470D01*
X78090474Y-73535708D01*
X78138093Y-73630946D01*
%TO.C,D24*%
X77181482Y-97347831D02*
X76922663Y-98313757D01*
X76692681Y-98252134D01*
X76567016Y-98169163D01*
X76499673Y-98052521D01*
X76478326Y-97948203D01*
X76481628Y-97751892D01*
X76518602Y-97613903D01*
X76613898Y-97442242D01*
X76684543Y-97362574D01*
X76801186Y-97295230D01*
X76951500Y-97286208D01*
X77181482Y-97347831D01*
X76027383Y-97975270D02*
X75969062Y-98008942D01*
X75864744Y-98030289D01*
X75634762Y-97968665D01*
X75555094Y-97898019D01*
X75521422Y-97839698D01*
X75500075Y-97735380D01*
X75524725Y-97643387D01*
X75607695Y-97517723D01*
X76307549Y-97113662D01*
X75709595Y-96953440D01*
X74709113Y-97375546D02*
X74881659Y-96731596D01*
X74840497Y-97805141D02*
X75255351Y-97176818D01*
X74657396Y-97016597D01*
%TO.C,D23*%
X78627792Y-91531266D02*
X78127792Y-92397291D01*
X77921596Y-92278244D01*
X77821687Y-92165576D01*
X77786828Y-92035478D01*
X77793208Y-91929190D01*
X77847206Y-91740423D01*
X77918635Y-91616705D01*
X78055112Y-91475558D01*
X78143971Y-91416889D01*
X78274068Y-91382029D01*
X78421596Y-91412218D01*
X78627792Y-91531266D01*
X77350625Y-91838622D02*
X77285576Y-91856052D01*
X77179288Y-91849672D01*
X76973092Y-91730625D01*
X76914423Y-91641766D01*
X76896993Y-91576718D01*
X76903373Y-91470429D01*
X76950992Y-91387951D01*
X77063660Y-91288042D01*
X77844245Y-91078885D01*
X77308134Y-90769361D01*
X76519459Y-91468720D02*
X75983348Y-91159196D01*
X76462500Y-90995948D01*
X76338782Y-90924520D01*
X76280113Y-90835661D01*
X76262683Y-90770613D01*
X76269063Y-90664324D01*
X76388110Y-90458128D01*
X76476969Y-90399459D01*
X76542017Y-90382029D01*
X76648306Y-90388409D01*
X76895741Y-90531266D01*
X76954411Y-90620124D01*
X76971840Y-90685173D01*
%TO.C,D22*%
X81566505Y-86300754D02*
X80859398Y-87007860D01*
X80691039Y-86839502D01*
X80623696Y-86704815D01*
X80623696Y-86570128D01*
X80657368Y-86469112D01*
X80758383Y-86300754D01*
X80859398Y-86199738D01*
X81027757Y-86098723D01*
X81128772Y-86065051D01*
X81263459Y-86065051D01*
X81398146Y-86132395D01*
X81566505Y-86300754D01*
X80253306Y-86267082D02*
X80185963Y-86267082D01*
X80084948Y-86233410D01*
X79916589Y-86065051D01*
X79882917Y-85964036D01*
X79882917Y-85896693D01*
X79916589Y-85795677D01*
X79983932Y-85728334D01*
X80118619Y-85660990D01*
X80926742Y-85660990D01*
X80489009Y-85223257D01*
X79579871Y-85593647D02*
X79512528Y-85593647D01*
X79411513Y-85559975D01*
X79243154Y-85391616D01*
X79209482Y-85290601D01*
X79209482Y-85223257D01*
X79243154Y-85122242D01*
X79310497Y-85054899D01*
X79445184Y-84987555D01*
X80253306Y-84987555D01*
X79815574Y-84549822D01*
%TO.C,D21*%
X85733019Y-81975411D02*
X84866993Y-82475411D01*
X84747946Y-82269215D01*
X84717756Y-82121687D01*
X84752616Y-81991590D01*
X84811285Y-81902731D01*
X84952433Y-81766254D01*
X85076151Y-81694825D01*
X85264917Y-81640827D01*
X85371206Y-81634447D01*
X85501303Y-81669306D01*
X85613971Y-81769215D01*
X85733019Y-81975411D01*
X84473281Y-81603006D02*
X84408233Y-81585576D01*
X84319374Y-81526907D01*
X84200327Y-81320711D01*
X84193947Y-81214423D01*
X84211377Y-81149374D01*
X84270046Y-81060515D01*
X84352524Y-81012896D01*
X84500052Y-80982707D01*
X85280638Y-81191865D01*
X84971114Y-80655754D01*
X84494924Y-79830967D02*
X84780638Y-80325839D01*
X84637781Y-80078403D02*
X83771755Y-80578403D01*
X83943092Y-80589453D01*
X84073190Y-80624313D01*
X84162048Y-80682982D01*
%TO.C,D20*%
X90880728Y-78914337D02*
X89914802Y-79173156D01*
X89853179Y-78943173D01*
X89862201Y-78792859D01*
X89929545Y-78676217D01*
X90009213Y-78605571D01*
X90180874Y-78510276D01*
X90318863Y-78473301D01*
X90515174Y-78469999D01*
X90619492Y-78491346D01*
X90736134Y-78558690D01*
X90819105Y-78684354D01*
X90880728Y-78914337D01*
X89760301Y-78228577D02*
X89701980Y-78194905D01*
X89631334Y-78115237D01*
X89569710Y-77885255D01*
X89591057Y-77780937D01*
X89624729Y-77722616D01*
X89704397Y-77651970D01*
X89796390Y-77627320D01*
X89946704Y-77636343D01*
X90646559Y-78040404D01*
X90486337Y-77442450D01*
X89360190Y-77103315D02*
X89335541Y-77011322D01*
X89356888Y-76907004D01*
X89390560Y-76848683D01*
X89470228Y-76778037D01*
X89641889Y-76682742D01*
X89871871Y-76621118D01*
X90068182Y-76617816D01*
X90172499Y-76639163D01*
X90230821Y-76672834D01*
X90301467Y-76752503D01*
X90326116Y-76844496D01*
X90304769Y-76948813D01*
X90271097Y-77007134D01*
X90191429Y-77077780D01*
X90019768Y-77173076D01*
X89789785Y-77234699D01*
X89593475Y-77238002D01*
X89489157Y-77216655D01*
X89430836Y-77182983D01*
X89360190Y-77103315D01*
%TO.C,D19*%
X96952380Y-77264285D02*
X95952380Y-77264285D01*
X95952380Y-77026190D01*
X96000000Y-76883333D01*
X96095238Y-76788095D01*
X96190476Y-76740476D01*
X96380952Y-76692857D01*
X96523809Y-76692857D01*
X96714285Y-76740476D01*
X96809523Y-76788095D01*
X96904761Y-76883333D01*
X96952380Y-77026190D01*
X96952380Y-77264285D01*
X96952380Y-75740476D02*
X96952380Y-76311904D01*
X96952380Y-76026190D02*
X95952380Y-76026190D01*
X96095238Y-76121428D01*
X96190476Y-76216666D01*
X96238095Y-76311904D01*
X96952380Y-75264285D02*
X96952380Y-75073809D01*
X96904761Y-74978571D01*
X96857142Y-74930952D01*
X96714285Y-74835714D01*
X96523809Y-74788095D01*
X96142857Y-74788095D01*
X96047619Y-74835714D01*
X96000000Y-74883333D01*
X95952380Y-74978571D01*
X95952380Y-75169047D01*
X96000000Y-75264285D01*
X96047619Y-75311904D01*
X96142857Y-75359523D01*
X96380952Y-75359523D01*
X96476190Y-75311904D01*
X96523809Y-75264285D01*
X96571428Y-75169047D01*
X96571428Y-74978571D01*
X96523809Y-74883333D01*
X96476190Y-74835714D01*
X96380952Y-74788095D01*
%TO.C,D18*%
X102652168Y-77181482D02*
X101686242Y-76922663D01*
X101747865Y-76692681D01*
X101830836Y-76567016D01*
X101947478Y-76499673D01*
X102051796Y-76478326D01*
X102248107Y-76481628D01*
X102386096Y-76518602D01*
X102557757Y-76613898D01*
X102637425Y-76684543D01*
X102704769Y-76801186D01*
X102713791Y-76951500D01*
X102652168Y-77181482D01*
X103046559Y-75709595D02*
X102898662Y-76261553D01*
X102972610Y-75985574D02*
X102006684Y-75726755D01*
X102120024Y-75855722D01*
X102187368Y-75972364D01*
X102208715Y-76076682D01*
X102642498Y-75009741D02*
X102571852Y-75089409D01*
X102513530Y-75123081D01*
X102409213Y-75144428D01*
X102363216Y-75132103D01*
X102283548Y-75061457D01*
X102249876Y-75003136D01*
X102228529Y-74898819D01*
X102277828Y-74714833D01*
X102348474Y-74635165D01*
X102406795Y-74601493D01*
X102511113Y-74580146D01*
X102557109Y-74592470D01*
X102636778Y-74663116D01*
X102670449Y-74721438D01*
X102691796Y-74825755D01*
X102642498Y-75009741D01*
X102663845Y-75114059D01*
X102697516Y-75172380D01*
X102777185Y-75243026D01*
X102961170Y-75292325D01*
X103065488Y-75270978D01*
X103123809Y-75237306D01*
X103194455Y-75157638D01*
X103243754Y-74973652D01*
X103222407Y-74869334D01*
X103188735Y-74811013D01*
X103109067Y-74740367D01*
X102925081Y-74691068D01*
X102820764Y-74712415D01*
X102762442Y-74746087D01*
X102691796Y-74825755D01*
%TO.C,D17*%
X108468733Y-78627792D02*
X107602708Y-78127792D01*
X107721755Y-77921596D01*
X107834423Y-77821687D01*
X107964521Y-77786828D01*
X108070809Y-77793208D01*
X108259576Y-77847206D01*
X108383294Y-77918635D01*
X108524441Y-78055112D01*
X108583110Y-78143971D01*
X108617970Y-78274068D01*
X108587781Y-78421596D01*
X108468733Y-78627792D01*
X109230638Y-77308134D02*
X108944924Y-77803006D01*
X109087781Y-77555570D02*
X108221755Y-77055570D01*
X108297854Y-77209478D01*
X108332714Y-77339575D01*
X108326334Y-77445863D01*
X108531279Y-76519459D02*
X108864612Y-75942109D01*
X109516352Y-76813263D01*
%TO.C,D16*%
X113699245Y-81566505D02*
X112992139Y-80859398D01*
X113160497Y-80691039D01*
X113295184Y-80623696D01*
X113429871Y-80623696D01*
X113530887Y-80657368D01*
X113699245Y-80758383D01*
X113800261Y-80859398D01*
X113901276Y-81027757D01*
X113934948Y-81128772D01*
X113934948Y-81263459D01*
X113867604Y-81398146D01*
X113699245Y-81566505D01*
X114776742Y-80489009D02*
X114372681Y-80893070D01*
X114574711Y-80691039D02*
X113867604Y-79983932D01*
X113901276Y-80152291D01*
X113901276Y-80286978D01*
X113867604Y-80387994D01*
X114675726Y-79175810D02*
X114541039Y-79310497D01*
X114507368Y-79411513D01*
X114507368Y-79478856D01*
X114541039Y-79647215D01*
X114642055Y-79815574D01*
X114911429Y-80084948D01*
X115012444Y-80118619D01*
X115079787Y-80118619D01*
X115180803Y-80084948D01*
X115315490Y-79950261D01*
X115349161Y-79849245D01*
X115349161Y-79781902D01*
X115315490Y-79680887D01*
X115147131Y-79512528D01*
X115046116Y-79478856D01*
X114978772Y-79478856D01*
X114877757Y-79512528D01*
X114743070Y-79647215D01*
X114709398Y-79748230D01*
X114709398Y-79815574D01*
X114743070Y-79916589D01*
%TO.C,D15*%
X118024588Y-85733019D02*
X117524588Y-84866993D01*
X117730784Y-84747946D01*
X117878312Y-84717756D01*
X118008409Y-84752616D01*
X118097268Y-84811285D01*
X118233745Y-84952433D01*
X118305174Y-85076151D01*
X118359172Y-85264917D01*
X118365552Y-85371206D01*
X118330693Y-85501303D01*
X118230784Y-85613971D01*
X118024588Y-85733019D01*
X119344245Y-84971114D02*
X118849374Y-85256828D01*
X119096810Y-85113971D02*
X118596810Y-84247946D01*
X118585760Y-84419283D01*
X118550900Y-84549380D01*
X118492231Y-84638239D01*
X119627792Y-83652708D02*
X119215399Y-83890803D01*
X119412255Y-84327005D01*
X119429685Y-84261957D01*
X119488354Y-84173098D01*
X119694551Y-84054051D01*
X119800839Y-84047671D01*
X119865887Y-84065101D01*
X119954746Y-84123770D01*
X120073793Y-84329966D01*
X120080173Y-84436254D01*
X120062743Y-84501303D01*
X120004074Y-84590162D01*
X119797878Y-84709209D01*
X119691590Y-84715589D01*
X119626541Y-84698159D01*
%TO.C,D14*%
X121085662Y-90880728D02*
X120826843Y-89914802D01*
X121056826Y-89853179D01*
X121207140Y-89862201D01*
X121323782Y-89929545D01*
X121394428Y-90009213D01*
X121489723Y-90180874D01*
X121526698Y-90318863D01*
X121530000Y-90515174D01*
X121508653Y-90619492D01*
X121441309Y-90736134D01*
X121315645Y-90819105D01*
X121085662Y-90880728D01*
X122557549Y-90486337D02*
X122005592Y-90634234D01*
X122281571Y-90560286D02*
X122022751Y-89594360D01*
X121967733Y-89756999D01*
X121900389Y-89873641D01*
X121820721Y-89944287D01*
X123212940Y-89620542D02*
X123385486Y-90264492D01*
X122884360Y-89314194D02*
X122839248Y-90065764D01*
X123437202Y-89905543D01*
%TO.C,D13*%
X122710714Y-96852380D02*
X122710714Y-95852380D01*
X122948809Y-95852380D01*
X123091666Y-95900000D01*
X123186904Y-95995238D01*
X123234523Y-96090476D01*
X123282142Y-96280952D01*
X123282142Y-96423809D01*
X123234523Y-96614285D01*
X123186904Y-96709523D01*
X123091666Y-96804761D01*
X122948809Y-96852380D01*
X122710714Y-96852380D01*
X124234523Y-96852380D02*
X123663095Y-96852380D01*
X123948809Y-96852380D02*
X123948809Y-95852380D01*
X123853571Y-95995238D01*
X123758333Y-96090476D01*
X123663095Y-96138095D01*
X124567857Y-95852380D02*
X125186904Y-95852380D01*
X124853571Y-96233333D01*
X124996428Y-96233333D01*
X125091666Y-96280952D01*
X125139285Y-96328571D01*
X125186904Y-96423809D01*
X125186904Y-96661904D01*
X125139285Y-96757142D01*
X125091666Y-96804761D01*
X124996428Y-96852380D01*
X124710714Y-96852380D01*
X124615476Y-96804761D01*
X124567857Y-96757142D01*
%TO.C,D12*%
X125398506Y-102406795D02*
X125139687Y-103372721D01*
X124909705Y-103311098D01*
X124784040Y-103228127D01*
X124716697Y-103111485D01*
X124695350Y-103007167D01*
X124698652Y-102810856D01*
X124735626Y-102672867D01*
X124830922Y-102501206D01*
X124901567Y-102421538D01*
X125018210Y-102354194D01*
X125168524Y-102345172D01*
X125398506Y-102406795D01*
X123926619Y-102012404D02*
X124478577Y-102160301D01*
X124202598Y-102086353D02*
X123943779Y-103052279D01*
X124072746Y-102938939D01*
X124189388Y-102871595D01*
X124293706Y-102850248D01*
X123324478Y-102787740D02*
X123266157Y-102821411D01*
X123161839Y-102842758D01*
X122931857Y-102781135D01*
X122852189Y-102710489D01*
X122818517Y-102652168D01*
X122797170Y-102547850D01*
X122821819Y-102455857D01*
X122904790Y-102330192D01*
X123604644Y-101926131D01*
X123006690Y-101765910D01*
%TO.C,D11*%
X123927792Y-108899472D02*
X123427792Y-109765497D01*
X123221596Y-109646450D01*
X123121687Y-109533782D01*
X123086828Y-109403684D01*
X123093208Y-109297396D01*
X123147206Y-109108629D01*
X123218635Y-108984911D01*
X123355112Y-108843764D01*
X123443971Y-108785095D01*
X123574068Y-108750235D01*
X123721596Y-108780424D01*
X123927792Y-108899472D01*
X122608134Y-108137567D02*
X123103006Y-108423281D01*
X122855570Y-108280424D02*
X122355570Y-109146450D01*
X122509478Y-109070351D01*
X122639575Y-109035491D01*
X122745863Y-109041871D01*
X121783348Y-107661377D02*
X122278220Y-107947091D01*
X122030784Y-107804234D02*
X121530784Y-108670259D01*
X121684691Y-108594160D01*
X121814789Y-108559301D01*
X121921077Y-108565681D01*
%TO.C,D10*%
X120790517Y-114776742D02*
X120083410Y-115483848D01*
X119915051Y-115315490D01*
X119847708Y-115180803D01*
X119847708Y-115046116D01*
X119881380Y-114945100D01*
X119982395Y-114776742D01*
X120083410Y-114675726D01*
X120251769Y-114574711D01*
X120352784Y-114541039D01*
X120487471Y-114541039D01*
X120622158Y-114608383D01*
X120790517Y-114776742D01*
X119713021Y-113699245D02*
X120117082Y-114103306D01*
X119915051Y-113901276D02*
X119207944Y-114608383D01*
X119376303Y-114574711D01*
X119510990Y-114574711D01*
X119612006Y-114608383D01*
X118568181Y-113968619D02*
X118500838Y-113901276D01*
X118467166Y-113800261D01*
X118467166Y-113732917D01*
X118500838Y-113631902D01*
X118601853Y-113463543D01*
X118770212Y-113295184D01*
X118938570Y-113194169D01*
X119039586Y-113160497D01*
X119106929Y-113160497D01*
X119207944Y-113194169D01*
X119275288Y-113261513D01*
X119308960Y-113362528D01*
X119308960Y-113429871D01*
X119275288Y-113530887D01*
X119174273Y-113699245D01*
X119005914Y-113867604D01*
X118837555Y-113968619D01*
X118736540Y-114002291D01*
X118669196Y-114002291D01*
X118568181Y-113968619D01*
%TO.C,D9*%
X116026718Y-119263018D02*
X115160692Y-119763018D01*
X115041644Y-119556822D01*
X115011455Y-119409294D01*
X115046315Y-119279197D01*
X115104984Y-119190338D01*
X115246132Y-119053861D01*
X115369849Y-118982432D01*
X115558616Y-118928434D01*
X115664904Y-118922054D01*
X115795002Y-118956913D01*
X115907670Y-119056822D01*
X116026718Y-119263018D01*
X115502908Y-118355754D02*
X115407670Y-118190796D01*
X115318812Y-118132127D01*
X115253763Y-118114697D01*
X115082426Y-118103647D01*
X114893659Y-118157646D01*
X114563745Y-118348122D01*
X114505075Y-118436981D01*
X114487646Y-118502030D01*
X114494025Y-118608318D01*
X114589264Y-118773275D01*
X114678122Y-118831944D01*
X114743171Y-118849374D01*
X114849459Y-118842994D01*
X115055655Y-118723946D01*
X115114324Y-118635088D01*
X115131754Y-118570039D01*
X115125375Y-118463751D01*
X115030136Y-118298794D01*
X114941278Y-118240125D01*
X114876229Y-118222695D01*
X114769941Y-118229075D01*
%TO.C,D8*%
X110498517Y-122737348D02*
X109532591Y-122996167D01*
X109470968Y-122766185D01*
X109479990Y-122615871D01*
X109547333Y-122499228D01*
X109627002Y-122428582D01*
X109798663Y-122333287D01*
X109936652Y-122296313D01*
X110132963Y-122293010D01*
X110237280Y-122314357D01*
X110353923Y-122381701D01*
X110436893Y-122507366D01*
X110498517Y-122737348D01*
X109650766Y-121781329D02*
X109629419Y-121885647D01*
X109595747Y-121943968D01*
X109516079Y-122014614D01*
X109470083Y-122026939D01*
X109365765Y-122005592D01*
X109307444Y-121971920D01*
X109236798Y-121892252D01*
X109187499Y-121708266D01*
X109208846Y-121603948D01*
X109242518Y-121545627D01*
X109322186Y-121474981D01*
X109368183Y-121462656D01*
X109472500Y-121484003D01*
X109530821Y-121517675D01*
X109601467Y-121597343D01*
X109650766Y-121781329D01*
X109721412Y-121860998D01*
X109779733Y-121894669D01*
X109884051Y-121916016D01*
X110068037Y-121866717D01*
X110147705Y-121796072D01*
X110181377Y-121737750D01*
X110202724Y-121633433D01*
X110153425Y-121449447D01*
X110082779Y-121369779D01*
X110024458Y-121336107D01*
X109920140Y-121314760D01*
X109736154Y-121364059D01*
X109656486Y-121434705D01*
X109622814Y-121493026D01*
X109601467Y-121597343D01*
%TO.C,D7*%
X103952380Y-124688095D02*
X102952380Y-124688095D01*
X102952380Y-124450000D01*
X103000000Y-124307142D01*
X103095238Y-124211904D01*
X103190476Y-124164285D01*
X103380952Y-124116666D01*
X103523809Y-124116666D01*
X103714285Y-124164285D01*
X103809523Y-124211904D01*
X103904761Y-124307142D01*
X103952380Y-124450000D01*
X103952380Y-124688095D01*
X102952380Y-123783333D02*
X102952380Y-123116666D01*
X103952380Y-123545238D01*
%TO.C,D6*%
X97716451Y-124938542D02*
X96750525Y-124679723D01*
X96812149Y-124449740D01*
X96895119Y-124324075D01*
X97011762Y-124256732D01*
X97116079Y-124235385D01*
X97312390Y-124238687D01*
X97450379Y-124275661D01*
X97622040Y-124370957D01*
X97701709Y-124441603D01*
X97769052Y-124558245D01*
X97778074Y-124708559D01*
X97716451Y-124938542D01*
X97120267Y-123299828D02*
X97070968Y-123483814D01*
X97092315Y-123588132D01*
X97125986Y-123646453D01*
X97239326Y-123775420D01*
X97410988Y-123870716D01*
X97778959Y-123969313D01*
X97883277Y-123947966D01*
X97941598Y-123914295D01*
X98012244Y-123834626D01*
X98061543Y-123650640D01*
X98040196Y-123546323D01*
X98006524Y-123488002D01*
X97926856Y-123417356D01*
X97696874Y-123355732D01*
X97592556Y-123377079D01*
X97534235Y-123410751D01*
X97463589Y-123490419D01*
X97414290Y-123674405D01*
X97435637Y-123778723D01*
X97469309Y-123837044D01*
X97548977Y-123907690D01*
%TO.C,D5*%
X91338622Y-123515399D02*
X90472597Y-123015399D01*
X90591644Y-122809203D01*
X90704312Y-122709294D01*
X90834410Y-122674435D01*
X90940698Y-122680814D01*
X91129465Y-122734813D01*
X91253183Y-122806242D01*
X91394331Y-122942719D01*
X91453000Y-123031578D01*
X91487859Y-123161675D01*
X91457670Y-123309203D01*
X91338622Y-123515399D01*
X91210692Y-121736981D02*
X90972597Y-122149374D01*
X91361180Y-122428708D01*
X91343751Y-122363660D01*
X91350130Y-122257371D01*
X91469178Y-122051175D01*
X91558036Y-121992506D01*
X91623085Y-121975076D01*
X91729373Y-121981456D01*
X91935570Y-122100503D01*
X91994239Y-122189362D01*
X92011669Y-122254411D01*
X92005289Y-122360699D01*
X91886241Y-122566895D01*
X91797383Y-122625564D01*
X91732334Y-122642994D01*
%TO.C,D4*%
X85559975Y-120453799D02*
X84852868Y-119746693D01*
X85021227Y-119578334D01*
X85155914Y-119510990D01*
X85290601Y-119510990D01*
X85391616Y-119544662D01*
X85559975Y-119645677D01*
X85660990Y-119746693D01*
X85762006Y-119915051D01*
X85795677Y-120016067D01*
X85795677Y-120150754D01*
X85728334Y-120285441D01*
X85559975Y-120453799D01*
X86098723Y-118972242D02*
X86570128Y-119443647D01*
X85660990Y-118871227D02*
X85997708Y-119544662D01*
X86435441Y-119106929D01*
%TO.C,D3*%
X80761981Y-116026718D02*
X80261981Y-115160692D01*
X80468177Y-115041644D01*
X80615705Y-115011455D01*
X80745802Y-115046315D01*
X80834661Y-115104984D01*
X80971138Y-115246132D01*
X81042567Y-115369849D01*
X81096565Y-115558616D01*
X81102945Y-115664904D01*
X81068086Y-115795002D01*
X80968177Y-115907670D01*
X80761981Y-116026718D01*
X81045528Y-114708311D02*
X81581639Y-114398787D01*
X81483440Y-114895368D01*
X81607157Y-114823940D01*
X81713446Y-114817560D01*
X81778494Y-114834990D01*
X81867353Y-114893659D01*
X81986400Y-115099856D01*
X81992780Y-115206144D01*
X81975350Y-115271192D01*
X81916681Y-115360051D01*
X81669245Y-115502908D01*
X81562957Y-115509288D01*
X81497908Y-115491858D01*
%TO.C,D2*%
X77237651Y-110498517D02*
X76978832Y-109532591D01*
X77208814Y-109470968D01*
X77359128Y-109479990D01*
X77475771Y-109547333D01*
X77546417Y-109627002D01*
X77641712Y-109798663D01*
X77678686Y-109936652D01*
X77681989Y-110132963D01*
X77660642Y-110237280D01*
X77593298Y-110353923D01*
X77467633Y-110436893D01*
X77237651Y-110498517D01*
X77923411Y-109378090D02*
X77957083Y-109319769D01*
X78036751Y-109249123D01*
X78266733Y-109187499D01*
X78371051Y-109208846D01*
X78429372Y-109242518D01*
X78500018Y-109322186D01*
X78524667Y-109414179D01*
X78515645Y-109564493D01*
X78111584Y-110264347D01*
X78709538Y-110104126D01*
%TO.C,D1*%
X75311904Y-104552380D02*
X75311904Y-103552380D01*
X75550000Y-103552380D01*
X75692857Y-103600000D01*
X75788095Y-103695238D01*
X75835714Y-103790476D01*
X75883333Y-103980952D01*
X75883333Y-104123809D01*
X75835714Y-104314285D01*
X75788095Y-104409523D01*
X75692857Y-104504761D01*
X75550000Y-104552380D01*
X75311904Y-104552380D01*
X76835714Y-104552380D02*
X76264285Y-104552380D01*
X76550000Y-104552380D02*
X76550000Y-103552380D01*
X76454761Y-103695238D01*
X76359523Y-103790476D01*
X76264285Y-103838095D01*
%TO.C,C52*%
X74457142Y-94627142D02*
X74409523Y-94674761D01*
X74266666Y-94722380D01*
X74171428Y-94722380D01*
X74028571Y-94674761D01*
X73933333Y-94579523D01*
X73885714Y-94484285D01*
X73838095Y-94293809D01*
X73838095Y-94150952D01*
X73885714Y-93960476D01*
X73933333Y-93865238D01*
X74028571Y-93770000D01*
X74171428Y-93722380D01*
X74266666Y-93722380D01*
X74409523Y-93770000D01*
X74457142Y-93817619D01*
X75361904Y-93722380D02*
X74885714Y-93722380D01*
X74838095Y-94198571D01*
X74885714Y-94150952D01*
X74980952Y-94103333D01*
X75219047Y-94103333D01*
X75314285Y-94150952D01*
X75361904Y-94198571D01*
X75409523Y-94293809D01*
X75409523Y-94531904D01*
X75361904Y-94627142D01*
X75314285Y-94674761D01*
X75219047Y-94722380D01*
X74980952Y-94722380D01*
X74885714Y-94674761D01*
X74838095Y-94627142D01*
X75790476Y-93817619D02*
X75838095Y-93770000D01*
X75933333Y-93722380D01*
X76171428Y-93722380D01*
X76266666Y-93770000D01*
X76314285Y-93817619D01*
X76361904Y-93912857D01*
X76361904Y-94008095D01*
X76314285Y-94150952D01*
X75742857Y-94722380D01*
X76361904Y-94722380D01*
%TO.C,C51*%
X76457142Y-88827142D02*
X76409523Y-88874761D01*
X76266666Y-88922380D01*
X76171428Y-88922380D01*
X76028571Y-88874761D01*
X75933333Y-88779523D01*
X75885714Y-88684285D01*
X75838095Y-88493809D01*
X75838095Y-88350952D01*
X75885714Y-88160476D01*
X75933333Y-88065238D01*
X76028571Y-87970000D01*
X76171428Y-87922380D01*
X76266666Y-87922380D01*
X76409523Y-87970000D01*
X76457142Y-88017619D01*
X77361904Y-87922380D02*
X76885714Y-87922380D01*
X76838095Y-88398571D01*
X76885714Y-88350952D01*
X76980952Y-88303333D01*
X77219047Y-88303333D01*
X77314285Y-88350952D01*
X77361904Y-88398571D01*
X77409523Y-88493809D01*
X77409523Y-88731904D01*
X77361904Y-88827142D01*
X77314285Y-88874761D01*
X77219047Y-88922380D01*
X76980952Y-88922380D01*
X76885714Y-88874761D01*
X76838095Y-88827142D01*
X78361904Y-88922380D02*
X77790476Y-88922380D01*
X78076190Y-88922380D02*
X78076190Y-87922380D01*
X77980952Y-88065238D01*
X77885714Y-88160476D01*
X77790476Y-88208095D01*
%TO.C,C50*%
X83268269Y-83690867D02*
X83335613Y-83690867D01*
X83470300Y-83758211D01*
X83537643Y-83825554D01*
X83604987Y-83960241D01*
X83604987Y-84094928D01*
X83571315Y-84195943D01*
X83470300Y-84364302D01*
X83369285Y-84465317D01*
X83200926Y-84566333D01*
X83099911Y-84600004D01*
X82965224Y-84600004D01*
X82830537Y-84532661D01*
X82763193Y-84465317D01*
X82695850Y-84330630D01*
X82695850Y-84263287D01*
X81988743Y-83690867D02*
X82325460Y-84027585D01*
X82695850Y-83724539D01*
X82628506Y-83724539D01*
X82527491Y-83690867D01*
X82359132Y-83522508D01*
X82325460Y-83421493D01*
X82325460Y-83354149D01*
X82359132Y-83253134D01*
X82527491Y-83084775D01*
X82628506Y-83051104D01*
X82695850Y-83051104D01*
X82796865Y-83084775D01*
X82965224Y-83253134D01*
X82998895Y-83354149D01*
X82998895Y-83421493D01*
X81517338Y-83219462D02*
X81449995Y-83152119D01*
X81416323Y-83051104D01*
X81416323Y-82983760D01*
X81449995Y-82882745D01*
X81551010Y-82714386D01*
X81719369Y-82546027D01*
X81887727Y-82445012D01*
X81988743Y-82411340D01*
X82056086Y-82411340D01*
X82157101Y-82445012D01*
X82224445Y-82512356D01*
X82258117Y-82613371D01*
X82258117Y-82680714D01*
X82224445Y-82781730D01*
X82123430Y-82950088D01*
X81955071Y-83118447D01*
X81786712Y-83219462D01*
X81685697Y-83253134D01*
X81618353Y-83253134D01*
X81517338Y-83219462D01*
%TO.C,C49*%
X87487142Y-80942857D02*
X87534761Y-80990476D01*
X87582380Y-81133333D01*
X87582380Y-81228571D01*
X87534761Y-81371428D01*
X87439523Y-81466666D01*
X87344285Y-81514285D01*
X87153809Y-81561904D01*
X87010952Y-81561904D01*
X86820476Y-81514285D01*
X86725238Y-81466666D01*
X86630000Y-81371428D01*
X86582380Y-81228571D01*
X86582380Y-81133333D01*
X86630000Y-80990476D01*
X86677619Y-80942857D01*
X86915714Y-80085714D02*
X87582380Y-80085714D01*
X86534761Y-80323809D02*
X87249047Y-80561904D01*
X87249047Y-79942857D01*
X87582380Y-79514285D02*
X87582380Y-79323809D01*
X87534761Y-79228571D01*
X87487142Y-79180952D01*
X87344285Y-79085714D01*
X87153809Y-79038095D01*
X86772857Y-79038095D01*
X86677619Y-79085714D01*
X86630000Y-79133333D01*
X86582380Y-79228571D01*
X86582380Y-79419047D01*
X86630000Y-79514285D01*
X86677619Y-79561904D01*
X86772857Y-79609523D01*
X87010952Y-79609523D01*
X87106190Y-79561904D01*
X87153809Y-79514285D01*
X87201428Y-79419047D01*
X87201428Y-79228571D01*
X87153809Y-79133333D01*
X87106190Y-79085714D01*
X87010952Y-79038095D01*
%TO.C,C48*%
X93387142Y-78542857D02*
X93434761Y-78590476D01*
X93482380Y-78733333D01*
X93482380Y-78828571D01*
X93434761Y-78971428D01*
X93339523Y-79066666D01*
X93244285Y-79114285D01*
X93053809Y-79161904D01*
X92910952Y-79161904D01*
X92720476Y-79114285D01*
X92625238Y-79066666D01*
X92530000Y-78971428D01*
X92482380Y-78828571D01*
X92482380Y-78733333D01*
X92530000Y-78590476D01*
X92577619Y-78542857D01*
X92815714Y-77685714D02*
X93482380Y-77685714D01*
X92434761Y-77923809D02*
X93149047Y-78161904D01*
X93149047Y-77542857D01*
X92910952Y-77019047D02*
X92863333Y-77114285D01*
X92815714Y-77161904D01*
X92720476Y-77209523D01*
X92672857Y-77209523D01*
X92577619Y-77161904D01*
X92530000Y-77114285D01*
X92482380Y-77019047D01*
X92482380Y-76828571D01*
X92530000Y-76733333D01*
X92577619Y-76685714D01*
X92672857Y-76638095D01*
X92720476Y-76638095D01*
X92815714Y-76685714D01*
X92863333Y-76733333D01*
X92910952Y-76828571D01*
X92910952Y-77019047D01*
X92958571Y-77114285D01*
X93006190Y-77161904D01*
X93101428Y-77209523D01*
X93291904Y-77209523D01*
X93387142Y-77161904D01*
X93434761Y-77114285D01*
X93482380Y-77019047D01*
X93482380Y-76828571D01*
X93434761Y-76733333D01*
X93387142Y-76685714D01*
X93291904Y-76638095D01*
X93101428Y-76638095D01*
X93006190Y-76685714D01*
X92958571Y-76733333D01*
X92910952Y-76828571D01*
%TO.C,C47*%
X100187142Y-76717857D02*
X100234761Y-76765476D01*
X100282380Y-76908333D01*
X100282380Y-77003571D01*
X100234761Y-77146428D01*
X100139523Y-77241666D01*
X100044285Y-77289285D01*
X99853809Y-77336904D01*
X99710952Y-77336904D01*
X99520476Y-77289285D01*
X99425238Y-77241666D01*
X99330000Y-77146428D01*
X99282380Y-77003571D01*
X99282380Y-76908333D01*
X99330000Y-76765476D01*
X99377619Y-76717857D01*
X99615714Y-75860714D02*
X100282380Y-75860714D01*
X99234761Y-76098809D02*
X99949047Y-76336904D01*
X99949047Y-75717857D01*
X99282380Y-75432142D02*
X99282380Y-74765476D01*
X100282380Y-75194047D01*
%TO.C,C46*%
X105257142Y-73327142D02*
X105209523Y-73374761D01*
X105066666Y-73422380D01*
X104971428Y-73422380D01*
X104828571Y-73374761D01*
X104733333Y-73279523D01*
X104685714Y-73184285D01*
X104638095Y-72993809D01*
X104638095Y-72850952D01*
X104685714Y-72660476D01*
X104733333Y-72565238D01*
X104828571Y-72470000D01*
X104971428Y-72422380D01*
X105066666Y-72422380D01*
X105209523Y-72470000D01*
X105257142Y-72517619D01*
X106114285Y-72755714D02*
X106114285Y-73422380D01*
X105876190Y-72374761D02*
X105638095Y-73089047D01*
X106257142Y-73089047D01*
X107066666Y-72422380D02*
X106876190Y-72422380D01*
X106780952Y-72470000D01*
X106733333Y-72517619D01*
X106638095Y-72660476D01*
X106590476Y-72850952D01*
X106590476Y-73231904D01*
X106638095Y-73327142D01*
X106685714Y-73374761D01*
X106780952Y-73422380D01*
X106971428Y-73422380D01*
X107066666Y-73374761D01*
X107114285Y-73327142D01*
X107161904Y-73231904D01*
X107161904Y-72993809D01*
X107114285Y-72898571D01*
X107066666Y-72850952D01*
X106971428Y-72803333D01*
X106780952Y-72803333D01*
X106685714Y-72850952D01*
X106638095Y-72898571D01*
X106590476Y-72993809D01*
%TO.C,C45*%
X111187142Y-79242857D02*
X111234761Y-79290476D01*
X111282380Y-79433333D01*
X111282380Y-79528571D01*
X111234761Y-79671428D01*
X111139523Y-79766666D01*
X111044285Y-79814285D01*
X110853809Y-79861904D01*
X110710952Y-79861904D01*
X110520476Y-79814285D01*
X110425238Y-79766666D01*
X110330000Y-79671428D01*
X110282380Y-79528571D01*
X110282380Y-79433333D01*
X110330000Y-79290476D01*
X110377619Y-79242857D01*
X110615714Y-78385714D02*
X111282380Y-78385714D01*
X110234761Y-78623809D02*
X110949047Y-78861904D01*
X110949047Y-78242857D01*
X110282380Y-77385714D02*
X110282380Y-77861904D01*
X110758571Y-77909523D01*
X110710952Y-77861904D01*
X110663333Y-77766666D01*
X110663333Y-77528571D01*
X110710952Y-77433333D01*
X110758571Y-77385714D01*
X110853809Y-77338095D01*
X111091904Y-77338095D01*
X111187142Y-77385714D01*
X111234761Y-77433333D01*
X111282380Y-77528571D01*
X111282380Y-77766666D01*
X111234761Y-77861904D01*
X111187142Y-77909523D01*
%TO.C,C44*%
X115959132Y-83818269D02*
X115959132Y-83885613D01*
X115891788Y-84020300D01*
X115824445Y-84087643D01*
X115689758Y-84154987D01*
X115555071Y-84154987D01*
X115454056Y-84121315D01*
X115285697Y-84020300D01*
X115184682Y-83919285D01*
X115083666Y-83750926D01*
X115049995Y-83649911D01*
X115049995Y-83515224D01*
X115117338Y-83380537D01*
X115184682Y-83313193D01*
X115319369Y-83245850D01*
X115386712Y-83245850D01*
X116161163Y-82808117D02*
X116632567Y-83279521D01*
X115723430Y-82707101D02*
X116060147Y-83380537D01*
X116497880Y-82942804D01*
X116834598Y-82134682D02*
X117306002Y-82606086D01*
X116396865Y-82033666D02*
X116733582Y-82707101D01*
X117171315Y-82269369D01*
%TO.C,C43*%
X119057142Y-87487142D02*
X119009523Y-87534761D01*
X118866666Y-87582380D01*
X118771428Y-87582380D01*
X118628571Y-87534761D01*
X118533333Y-87439523D01*
X118485714Y-87344285D01*
X118438095Y-87153809D01*
X118438095Y-87010952D01*
X118485714Y-86820476D01*
X118533333Y-86725238D01*
X118628571Y-86630000D01*
X118771428Y-86582380D01*
X118866666Y-86582380D01*
X119009523Y-86630000D01*
X119057142Y-86677619D01*
X119914285Y-86915714D02*
X119914285Y-87582380D01*
X119676190Y-86534761D02*
X119438095Y-87249047D01*
X120057142Y-87249047D01*
X120342857Y-86582380D02*
X120961904Y-86582380D01*
X120628571Y-86963333D01*
X120771428Y-86963333D01*
X120866666Y-87010952D01*
X120914285Y-87058571D01*
X120961904Y-87153809D01*
X120961904Y-87391904D01*
X120914285Y-87487142D01*
X120866666Y-87534761D01*
X120771428Y-87582380D01*
X120485714Y-87582380D01*
X120390476Y-87534761D01*
X120342857Y-87487142D01*
%TO.C,C42*%
X121457142Y-93387142D02*
X121409523Y-93434761D01*
X121266666Y-93482380D01*
X121171428Y-93482380D01*
X121028571Y-93434761D01*
X120933333Y-93339523D01*
X120885714Y-93244285D01*
X120838095Y-93053809D01*
X120838095Y-92910952D01*
X120885714Y-92720476D01*
X120933333Y-92625238D01*
X121028571Y-92530000D01*
X121171428Y-92482380D01*
X121266666Y-92482380D01*
X121409523Y-92530000D01*
X121457142Y-92577619D01*
X122314285Y-92815714D02*
X122314285Y-93482380D01*
X122076190Y-92434761D02*
X121838095Y-93149047D01*
X122457142Y-93149047D01*
X122790476Y-92577619D02*
X122838095Y-92530000D01*
X122933333Y-92482380D01*
X123171428Y-92482380D01*
X123266666Y-92530000D01*
X123314285Y-92577619D01*
X123361904Y-92672857D01*
X123361904Y-92768095D01*
X123314285Y-92910952D01*
X122742857Y-93482380D01*
X123361904Y-93482380D01*
%TO.C,C41*%
X123357142Y-100087142D02*
X123309523Y-100134761D01*
X123166666Y-100182380D01*
X123071428Y-100182380D01*
X122928571Y-100134761D01*
X122833333Y-100039523D01*
X122785714Y-99944285D01*
X122738095Y-99753809D01*
X122738095Y-99610952D01*
X122785714Y-99420476D01*
X122833333Y-99325238D01*
X122928571Y-99230000D01*
X123071428Y-99182380D01*
X123166666Y-99182380D01*
X123309523Y-99230000D01*
X123357142Y-99277619D01*
X124214285Y-99515714D02*
X124214285Y-100182380D01*
X123976190Y-99134761D02*
X123738095Y-99849047D01*
X124357142Y-99849047D01*
X125261904Y-100182380D02*
X124690476Y-100182380D01*
X124976190Y-100182380D02*
X124976190Y-99182380D01*
X124880952Y-99325238D01*
X124785714Y-99420476D01*
X124690476Y-99468095D01*
%TO.C,C40*%
X123857142Y-106087142D02*
X123809523Y-106134761D01*
X123666666Y-106182380D01*
X123571428Y-106182380D01*
X123428571Y-106134761D01*
X123333333Y-106039523D01*
X123285714Y-105944285D01*
X123238095Y-105753809D01*
X123238095Y-105610952D01*
X123285714Y-105420476D01*
X123333333Y-105325238D01*
X123428571Y-105230000D01*
X123571428Y-105182380D01*
X123666666Y-105182380D01*
X123809523Y-105230000D01*
X123857142Y-105277619D01*
X124714285Y-105515714D02*
X124714285Y-106182380D01*
X124476190Y-105134761D02*
X124238095Y-105849047D01*
X124857142Y-105849047D01*
X125428571Y-105182380D02*
X125523809Y-105182380D01*
X125619047Y-105230000D01*
X125666666Y-105277619D01*
X125714285Y-105372857D01*
X125761904Y-105563333D01*
X125761904Y-105801428D01*
X125714285Y-105991904D01*
X125666666Y-106087142D01*
X125619047Y-106134761D01*
X125523809Y-106182380D01*
X125428571Y-106182380D01*
X125333333Y-106134761D01*
X125285714Y-106087142D01*
X125238095Y-105991904D01*
X125190476Y-105801428D01*
X125190476Y-105563333D01*
X125238095Y-105372857D01*
X125285714Y-105277619D01*
X125333333Y-105230000D01*
X125428571Y-105182380D01*
%TO.C,C39*%
X122257142Y-111987142D02*
X122209523Y-112034761D01*
X122066666Y-112082380D01*
X121971428Y-112082380D01*
X121828571Y-112034761D01*
X121733333Y-111939523D01*
X121685714Y-111844285D01*
X121638095Y-111653809D01*
X121638095Y-111510952D01*
X121685714Y-111320476D01*
X121733333Y-111225238D01*
X121828571Y-111130000D01*
X121971428Y-111082380D01*
X122066666Y-111082380D01*
X122209523Y-111130000D01*
X122257142Y-111177619D01*
X122590476Y-111082380D02*
X123209523Y-111082380D01*
X122876190Y-111463333D01*
X123019047Y-111463333D01*
X123114285Y-111510952D01*
X123161904Y-111558571D01*
X123209523Y-111653809D01*
X123209523Y-111891904D01*
X123161904Y-111987142D01*
X123114285Y-112034761D01*
X123019047Y-112082380D01*
X122733333Y-112082380D01*
X122638095Y-112034761D01*
X122590476Y-111987142D01*
X123685714Y-112082380D02*
X123876190Y-112082380D01*
X123971428Y-112034761D01*
X124019047Y-111987142D01*
X124114285Y-111844285D01*
X124161904Y-111653809D01*
X124161904Y-111272857D01*
X124114285Y-111177619D01*
X124066666Y-111130000D01*
X123971428Y-111082380D01*
X123780952Y-111082380D01*
X123685714Y-111130000D01*
X123638095Y-111177619D01*
X123590476Y-111272857D01*
X123590476Y-111510952D01*
X123638095Y-111606190D01*
X123685714Y-111653809D01*
X123780952Y-111701428D01*
X123971428Y-111701428D01*
X124066666Y-111653809D01*
X124114285Y-111606190D01*
X124161904Y-111510952D01*
%TO.C,C38*%
X114795943Y-119113193D02*
X114863287Y-119113193D01*
X114997974Y-119180537D01*
X115065317Y-119247880D01*
X115132661Y-119382567D01*
X115132661Y-119517254D01*
X115098989Y-119618269D01*
X114997974Y-119786628D01*
X114896959Y-119887643D01*
X114728600Y-119988659D01*
X114627585Y-120022330D01*
X114492898Y-120022330D01*
X114358211Y-119954987D01*
X114290867Y-119887643D01*
X114223524Y-119752956D01*
X114223524Y-119685613D01*
X113920478Y-119517254D02*
X113482745Y-119079521D01*
X113987821Y-119045850D01*
X113886806Y-118944834D01*
X113853134Y-118843819D01*
X113853134Y-118776475D01*
X113886806Y-118675460D01*
X114055165Y-118507101D01*
X114156180Y-118473430D01*
X114223524Y-118473430D01*
X114324539Y-118507101D01*
X114526569Y-118709132D01*
X114560241Y-118810147D01*
X114560241Y-118877491D01*
X113381730Y-118372414D02*
X113415401Y-118473430D01*
X113415401Y-118540773D01*
X113381730Y-118641788D01*
X113348058Y-118675460D01*
X113247043Y-118709132D01*
X113179699Y-118709132D01*
X113078684Y-118675460D01*
X112943997Y-118540773D01*
X112910325Y-118439758D01*
X112910325Y-118372414D01*
X112943997Y-118271399D01*
X112977669Y-118237727D01*
X113078684Y-118204056D01*
X113146027Y-118204056D01*
X113247043Y-118237727D01*
X113381730Y-118372414D01*
X113482745Y-118406086D01*
X113550088Y-118406086D01*
X113651104Y-118372414D01*
X113785791Y-118237727D01*
X113819462Y-118136712D01*
X113819462Y-118069369D01*
X113785791Y-117968353D01*
X113651104Y-117833666D01*
X113550088Y-117799995D01*
X113482745Y-117799995D01*
X113381730Y-117833666D01*
X113247043Y-117968353D01*
X113213371Y-118069369D01*
X113213371Y-118136712D01*
X113247043Y-118237727D01*
%TO.C,C37*%
X113527142Y-121442857D02*
X113574761Y-121490476D01*
X113622380Y-121633333D01*
X113622380Y-121728571D01*
X113574761Y-121871428D01*
X113479523Y-121966666D01*
X113384285Y-122014285D01*
X113193809Y-122061904D01*
X113050952Y-122061904D01*
X112860476Y-122014285D01*
X112765238Y-121966666D01*
X112670000Y-121871428D01*
X112622380Y-121728571D01*
X112622380Y-121633333D01*
X112670000Y-121490476D01*
X112717619Y-121442857D01*
X112622380Y-121109523D02*
X112622380Y-120490476D01*
X113003333Y-120823809D01*
X113003333Y-120680952D01*
X113050952Y-120585714D01*
X113098571Y-120538095D01*
X113193809Y-120490476D01*
X113431904Y-120490476D01*
X113527142Y-120538095D01*
X113574761Y-120585714D01*
X113622380Y-120680952D01*
X113622380Y-120966666D01*
X113574761Y-121061904D01*
X113527142Y-121109523D01*
X112622380Y-120157142D02*
X112622380Y-119490476D01*
X113622380Y-119919047D01*
%TO.C,C36*%
X107127142Y-122767857D02*
X107174761Y-122815476D01*
X107222380Y-122958333D01*
X107222380Y-123053571D01*
X107174761Y-123196428D01*
X107079523Y-123291666D01*
X106984285Y-123339285D01*
X106793809Y-123386904D01*
X106650952Y-123386904D01*
X106460476Y-123339285D01*
X106365238Y-123291666D01*
X106270000Y-123196428D01*
X106222380Y-123053571D01*
X106222380Y-122958333D01*
X106270000Y-122815476D01*
X106317619Y-122767857D01*
X106222380Y-122434523D02*
X106222380Y-121815476D01*
X106603333Y-122148809D01*
X106603333Y-122005952D01*
X106650952Y-121910714D01*
X106698571Y-121863095D01*
X106793809Y-121815476D01*
X107031904Y-121815476D01*
X107127142Y-121863095D01*
X107174761Y-121910714D01*
X107222380Y-122005952D01*
X107222380Y-122291666D01*
X107174761Y-122386904D01*
X107127142Y-122434523D01*
X106222380Y-120958333D02*
X106222380Y-121148809D01*
X106270000Y-121244047D01*
X106317619Y-121291666D01*
X106460476Y-121386904D01*
X106650952Y-121434523D01*
X107031904Y-121434523D01*
X107127142Y-121386904D01*
X107174761Y-121339285D01*
X107222380Y-121244047D01*
X107222380Y-121053571D01*
X107174761Y-120958333D01*
X107127142Y-120910714D01*
X107031904Y-120863095D01*
X106793809Y-120863095D01*
X106698571Y-120910714D01*
X106650952Y-120958333D01*
X106603333Y-121053571D01*
X106603333Y-121244047D01*
X106650952Y-121339285D01*
X106698571Y-121386904D01*
X106793809Y-121434523D01*
%TO.C,C35*%
X100527142Y-124667857D02*
X100574761Y-124715476D01*
X100622380Y-124858333D01*
X100622380Y-124953571D01*
X100574761Y-125096428D01*
X100479523Y-125191666D01*
X100384285Y-125239285D01*
X100193809Y-125286904D01*
X100050952Y-125286904D01*
X99860476Y-125239285D01*
X99765238Y-125191666D01*
X99670000Y-125096428D01*
X99622380Y-124953571D01*
X99622380Y-124858333D01*
X99670000Y-124715476D01*
X99717619Y-124667857D01*
X99622380Y-124334523D02*
X99622380Y-123715476D01*
X100003333Y-124048809D01*
X100003333Y-123905952D01*
X100050952Y-123810714D01*
X100098571Y-123763095D01*
X100193809Y-123715476D01*
X100431904Y-123715476D01*
X100527142Y-123763095D01*
X100574761Y-123810714D01*
X100622380Y-123905952D01*
X100622380Y-124191666D01*
X100574761Y-124286904D01*
X100527142Y-124334523D01*
X99622380Y-122810714D02*
X99622380Y-123286904D01*
X100098571Y-123334523D01*
X100050952Y-123286904D01*
X100003333Y-123191666D01*
X100003333Y-122953571D01*
X100050952Y-122858333D01*
X100098571Y-122810714D01*
X100193809Y-122763095D01*
X100431904Y-122763095D01*
X100527142Y-122810714D01*
X100574761Y-122858333D01*
X100622380Y-122953571D01*
X100622380Y-123191666D01*
X100574761Y-123286904D01*
X100527142Y-123334523D01*
%TO.C,C34*%
X94527142Y-125942857D02*
X94574761Y-125990476D01*
X94622380Y-126133333D01*
X94622380Y-126228571D01*
X94574761Y-126371428D01*
X94479523Y-126466666D01*
X94384285Y-126514285D01*
X94193809Y-126561904D01*
X94050952Y-126561904D01*
X93860476Y-126514285D01*
X93765238Y-126466666D01*
X93670000Y-126371428D01*
X93622380Y-126228571D01*
X93622380Y-126133333D01*
X93670000Y-125990476D01*
X93717619Y-125942857D01*
X93622380Y-125609523D02*
X93622380Y-124990476D01*
X94003333Y-125323809D01*
X94003333Y-125180952D01*
X94050952Y-125085714D01*
X94098571Y-125038095D01*
X94193809Y-124990476D01*
X94431904Y-124990476D01*
X94527142Y-125038095D01*
X94574761Y-125085714D01*
X94622380Y-125180952D01*
X94622380Y-125466666D01*
X94574761Y-125561904D01*
X94527142Y-125609523D01*
X93955714Y-124133333D02*
X94622380Y-124133333D01*
X93574761Y-124371428D02*
X94289047Y-124609523D01*
X94289047Y-123990476D01*
%TO.C,C33*%
X88827142Y-123242857D02*
X88874761Y-123290476D01*
X88922380Y-123433333D01*
X88922380Y-123528571D01*
X88874761Y-123671428D01*
X88779523Y-123766666D01*
X88684285Y-123814285D01*
X88493809Y-123861904D01*
X88350952Y-123861904D01*
X88160476Y-123814285D01*
X88065238Y-123766666D01*
X87970000Y-123671428D01*
X87922380Y-123528571D01*
X87922380Y-123433333D01*
X87970000Y-123290476D01*
X88017619Y-123242857D01*
X87922380Y-122909523D02*
X87922380Y-122290476D01*
X88303333Y-122623809D01*
X88303333Y-122480952D01*
X88350952Y-122385714D01*
X88398571Y-122338095D01*
X88493809Y-122290476D01*
X88731904Y-122290476D01*
X88827142Y-122338095D01*
X88874761Y-122385714D01*
X88922380Y-122480952D01*
X88922380Y-122766666D01*
X88874761Y-122861904D01*
X88827142Y-122909523D01*
X87922380Y-121957142D02*
X87922380Y-121338095D01*
X88303333Y-121671428D01*
X88303333Y-121528571D01*
X88350952Y-121433333D01*
X88398571Y-121385714D01*
X88493809Y-121338095D01*
X88731904Y-121338095D01*
X88827142Y-121385714D01*
X88874761Y-121433333D01*
X88922380Y-121528571D01*
X88922380Y-121814285D01*
X88874761Y-121909523D01*
X88827142Y-121957142D01*
%TO.C,C32*%
X80786806Y-114595943D02*
X80786806Y-114663287D01*
X80719462Y-114797974D01*
X80652119Y-114865317D01*
X80517432Y-114932661D01*
X80382745Y-114932661D01*
X80281730Y-114898989D01*
X80113371Y-114797974D01*
X80012356Y-114696959D01*
X79911340Y-114528600D01*
X79877669Y-114427585D01*
X79877669Y-114292898D01*
X79945012Y-114158211D01*
X80012356Y-114090867D01*
X80147043Y-114023524D01*
X80214386Y-114023524D01*
X80382745Y-113720478D02*
X80820478Y-113282745D01*
X80854149Y-113787821D01*
X80955165Y-113686806D01*
X81056180Y-113653134D01*
X81123524Y-113653134D01*
X81224539Y-113686806D01*
X81392898Y-113855165D01*
X81426569Y-113956180D01*
X81426569Y-114023524D01*
X81392898Y-114124539D01*
X81190867Y-114326569D01*
X81089852Y-114360241D01*
X81022508Y-114360241D01*
X81157195Y-113080714D02*
X81157195Y-113013371D01*
X81190867Y-112912356D01*
X81359226Y-112743997D01*
X81460241Y-112710325D01*
X81527585Y-112710325D01*
X81628600Y-112743997D01*
X81695943Y-112811340D01*
X81763287Y-112946027D01*
X81763287Y-113754149D01*
X82201020Y-113316417D01*
%TO.C,C31*%
X79057142Y-108427142D02*
X79009523Y-108474761D01*
X78866666Y-108522380D01*
X78771428Y-108522380D01*
X78628571Y-108474761D01*
X78533333Y-108379523D01*
X78485714Y-108284285D01*
X78438095Y-108093809D01*
X78438095Y-107950952D01*
X78485714Y-107760476D01*
X78533333Y-107665238D01*
X78628571Y-107570000D01*
X78771428Y-107522380D01*
X78866666Y-107522380D01*
X79009523Y-107570000D01*
X79057142Y-107617619D01*
X79390476Y-107522380D02*
X80009523Y-107522380D01*
X79676190Y-107903333D01*
X79819047Y-107903333D01*
X79914285Y-107950952D01*
X79961904Y-107998571D01*
X80009523Y-108093809D01*
X80009523Y-108331904D01*
X79961904Y-108427142D01*
X79914285Y-108474761D01*
X79819047Y-108522380D01*
X79533333Y-108522380D01*
X79438095Y-108474761D01*
X79390476Y-108427142D01*
X80961904Y-108522380D02*
X80390476Y-108522380D01*
X80676190Y-108522380D02*
X80676190Y-107522380D01*
X80580952Y-107665238D01*
X80485714Y-107760476D01*
X80390476Y-107808095D01*
%TO.C,C30*%
X76057142Y-107427142D02*
X76009523Y-107474761D01*
X75866666Y-107522380D01*
X75771428Y-107522380D01*
X75628571Y-107474761D01*
X75533333Y-107379523D01*
X75485714Y-107284285D01*
X75438095Y-107093809D01*
X75438095Y-106950952D01*
X75485714Y-106760476D01*
X75533333Y-106665238D01*
X75628571Y-106570000D01*
X75771428Y-106522380D01*
X75866666Y-106522380D01*
X76009523Y-106570000D01*
X76057142Y-106617619D01*
X76390476Y-106522380D02*
X77009523Y-106522380D01*
X76676190Y-106903333D01*
X76819047Y-106903333D01*
X76914285Y-106950952D01*
X76961904Y-106998571D01*
X77009523Y-107093809D01*
X77009523Y-107331904D01*
X76961904Y-107427142D01*
X76914285Y-107474761D01*
X76819047Y-107522380D01*
X76533333Y-107522380D01*
X76438095Y-107474761D01*
X76390476Y-107427142D01*
X77628571Y-106522380D02*
X77723809Y-106522380D01*
X77819047Y-106570000D01*
X77866666Y-106617619D01*
X77914285Y-106712857D01*
X77961904Y-106903333D01*
X77961904Y-107141428D01*
X77914285Y-107331904D01*
X77866666Y-107427142D01*
X77819047Y-107474761D01*
X77723809Y-107522380D01*
X77628571Y-107522380D01*
X77533333Y-107474761D01*
X77485714Y-107427142D01*
X77438095Y-107331904D01*
X77390476Y-107141428D01*
X77390476Y-106903333D01*
X77438095Y-106712857D01*
X77485714Y-106617619D01*
X77533333Y-106570000D01*
X77628571Y-106522380D01*
%TO.C,C29*%
X75357142Y-97327142D02*
X75309523Y-97374761D01*
X75166666Y-97422380D01*
X75071428Y-97422380D01*
X74928571Y-97374761D01*
X74833333Y-97279523D01*
X74785714Y-97184285D01*
X74738095Y-96993809D01*
X74738095Y-96850952D01*
X74785714Y-96660476D01*
X74833333Y-96565238D01*
X74928571Y-96470000D01*
X75071428Y-96422380D01*
X75166666Y-96422380D01*
X75309523Y-96470000D01*
X75357142Y-96517619D01*
X75738095Y-96517619D02*
X75785714Y-96470000D01*
X75880952Y-96422380D01*
X76119047Y-96422380D01*
X76214285Y-96470000D01*
X76261904Y-96517619D01*
X76309523Y-96612857D01*
X76309523Y-96708095D01*
X76261904Y-96850952D01*
X75690476Y-97422380D01*
X76309523Y-97422380D01*
X76785714Y-97422380D02*
X76976190Y-97422380D01*
X77071428Y-97374761D01*
X77119047Y-97327142D01*
X77214285Y-97184285D01*
X77261904Y-96993809D01*
X77261904Y-96612857D01*
X77214285Y-96517619D01*
X77166666Y-96470000D01*
X77071428Y-96422380D01*
X76880952Y-96422380D01*
X76785714Y-96470000D01*
X76738095Y-96517619D01*
X76690476Y-96612857D01*
X76690476Y-96850952D01*
X76738095Y-96946190D01*
X76785714Y-96993809D01*
X76880952Y-97041428D01*
X77071428Y-97041428D01*
X77166666Y-96993809D01*
X77214285Y-96946190D01*
X77261904Y-96850952D01*
%TO.C,C28*%
X101057142Y-102527142D02*
X101009523Y-102574761D01*
X100866666Y-102622380D01*
X100771428Y-102622380D01*
X100628571Y-102574761D01*
X100533333Y-102479523D01*
X100485714Y-102384285D01*
X100438095Y-102193809D01*
X100438095Y-102050952D01*
X100485714Y-101860476D01*
X100533333Y-101765238D01*
X100628571Y-101670000D01*
X100771428Y-101622380D01*
X100866666Y-101622380D01*
X101009523Y-101670000D01*
X101057142Y-101717619D01*
X101438095Y-101717619D02*
X101485714Y-101670000D01*
X101580952Y-101622380D01*
X101819047Y-101622380D01*
X101914285Y-101670000D01*
X101961904Y-101717619D01*
X102009523Y-101812857D01*
X102009523Y-101908095D01*
X101961904Y-102050952D01*
X101390476Y-102622380D01*
X102009523Y-102622380D01*
X102580952Y-102050952D02*
X102485714Y-102003333D01*
X102438095Y-101955714D01*
X102390476Y-101860476D01*
X102390476Y-101812857D01*
X102438095Y-101717619D01*
X102485714Y-101670000D01*
X102580952Y-101622380D01*
X102771428Y-101622380D01*
X102866666Y-101670000D01*
X102914285Y-101717619D01*
X102961904Y-101812857D01*
X102961904Y-101860476D01*
X102914285Y-101955714D01*
X102866666Y-102003333D01*
X102771428Y-102050952D01*
X102580952Y-102050952D01*
X102485714Y-102098571D01*
X102438095Y-102146190D01*
X102390476Y-102241428D01*
X102390476Y-102431904D01*
X102438095Y-102527142D01*
X102485714Y-102574761D01*
X102580952Y-102622380D01*
X102771428Y-102622380D01*
X102866666Y-102574761D01*
X102914285Y-102527142D01*
X102961904Y-102431904D01*
X102961904Y-102241428D01*
X102914285Y-102146190D01*
X102866666Y-102098571D01*
X102771428Y-102050952D01*
%TO.C,C27*%
X64107142Y-109412142D02*
X64059523Y-109459761D01*
X63916666Y-109507380D01*
X63821428Y-109507380D01*
X63678571Y-109459761D01*
X63583333Y-109364523D01*
X63535714Y-109269285D01*
X63488095Y-109078809D01*
X63488095Y-108935952D01*
X63535714Y-108745476D01*
X63583333Y-108650238D01*
X63678571Y-108555000D01*
X63821428Y-108507380D01*
X63916666Y-108507380D01*
X64059523Y-108555000D01*
X64107142Y-108602619D01*
X64488095Y-108602619D02*
X64535714Y-108555000D01*
X64630952Y-108507380D01*
X64869047Y-108507380D01*
X64964285Y-108555000D01*
X65011904Y-108602619D01*
X65059523Y-108697857D01*
X65059523Y-108793095D01*
X65011904Y-108935952D01*
X64440476Y-109507380D01*
X65059523Y-109507380D01*
X65392857Y-108507380D02*
X66059523Y-108507380D01*
X65630952Y-109507380D01*
%TO.C,C26*%
X124282142Y-122862142D02*
X124234523Y-122909761D01*
X124091666Y-122957380D01*
X123996428Y-122957380D01*
X123853571Y-122909761D01*
X123758333Y-122814523D01*
X123710714Y-122719285D01*
X123663095Y-122528809D01*
X123663095Y-122385952D01*
X123710714Y-122195476D01*
X123758333Y-122100238D01*
X123853571Y-122005000D01*
X123996428Y-121957380D01*
X124091666Y-121957380D01*
X124234523Y-122005000D01*
X124282142Y-122052619D01*
X124663095Y-122052619D02*
X124710714Y-122005000D01*
X124805952Y-121957380D01*
X125044047Y-121957380D01*
X125139285Y-122005000D01*
X125186904Y-122052619D01*
X125234523Y-122147857D01*
X125234523Y-122243095D01*
X125186904Y-122385952D01*
X124615476Y-122957380D01*
X125234523Y-122957380D01*
X126091666Y-121957380D02*
X125901190Y-121957380D01*
X125805952Y-122005000D01*
X125758333Y-122052619D01*
X125663095Y-122195476D01*
X125615476Y-122385952D01*
X125615476Y-122766904D01*
X125663095Y-122862142D01*
X125710714Y-122909761D01*
X125805952Y-122957380D01*
X125996428Y-122957380D01*
X126091666Y-122909761D01*
X126139285Y-122862142D01*
X126186904Y-122766904D01*
X126186904Y-122528809D01*
X126139285Y-122433571D01*
X126091666Y-122385952D01*
X125996428Y-122338333D01*
X125805952Y-122338333D01*
X125710714Y-122385952D01*
X125663095Y-122433571D01*
X125615476Y-122528809D01*
%TO.C,C25*%
X115527146Y-66192856D02*
X115574765Y-66240475D01*
X115622384Y-66383332D01*
X115622384Y-66478570D01*
X115574765Y-66621427D01*
X115479527Y-66716665D01*
X115384289Y-66764284D01*
X115193813Y-66811903D01*
X115050956Y-66811903D01*
X114860480Y-66764284D01*
X114765242Y-66716665D01*
X114670004Y-66621427D01*
X114622384Y-66478570D01*
X114622384Y-66383332D01*
X114670004Y-66240475D01*
X114717623Y-66192856D01*
X114717623Y-65811903D02*
X114670004Y-65764284D01*
X114622384Y-65669046D01*
X114622384Y-65430951D01*
X114670004Y-65335713D01*
X114717623Y-65288094D01*
X114812861Y-65240475D01*
X114908099Y-65240475D01*
X115050956Y-65288094D01*
X115622384Y-65859522D01*
X115622384Y-65240475D01*
X114622384Y-64335713D02*
X114622384Y-64811903D01*
X115098575Y-64859522D01*
X115050956Y-64811903D01*
X115003337Y-64716665D01*
X115003337Y-64478570D01*
X115050956Y-64383332D01*
X115098575Y-64335713D01*
X115193813Y-64288094D01*
X115431908Y-64288094D01*
X115527146Y-64335713D01*
X115574765Y-64383332D01*
X115622384Y-64478570D01*
X115622384Y-64716665D01*
X115574765Y-64811903D01*
X115527146Y-64859522D01*
%TO.C,C24*%
X127657138Y-62877138D02*
X127609519Y-62924757D01*
X127466662Y-62972376D01*
X127371424Y-62972376D01*
X127228567Y-62924757D01*
X127133329Y-62829519D01*
X127085710Y-62734281D01*
X127038091Y-62543805D01*
X127038091Y-62400948D01*
X127085710Y-62210472D01*
X127133329Y-62115234D01*
X127228567Y-62019996D01*
X127371424Y-61972376D01*
X127466662Y-61972376D01*
X127609519Y-62019996D01*
X127657138Y-62067615D01*
X128038091Y-62067615D02*
X128085710Y-62019996D01*
X128180948Y-61972376D01*
X128419043Y-61972376D01*
X128514281Y-62019996D01*
X128561900Y-62067615D01*
X128609519Y-62162853D01*
X128609519Y-62258091D01*
X128561900Y-62400948D01*
X127990472Y-62972376D01*
X128609519Y-62972376D01*
X129466662Y-62305710D02*
X129466662Y-62972376D01*
X129228567Y-61924757D02*
X128990472Y-62639043D01*
X129609519Y-62639043D01*
%TO.C,C23*%
X64027145Y-66992858D02*
X64074764Y-67040477D01*
X64122383Y-67183334D01*
X64122383Y-67278572D01*
X64074764Y-67421429D01*
X63979526Y-67516667D01*
X63884288Y-67564286D01*
X63693812Y-67611905D01*
X63550955Y-67611905D01*
X63360479Y-67564286D01*
X63265241Y-67516667D01*
X63170003Y-67421429D01*
X63122383Y-67278572D01*
X63122383Y-67183334D01*
X63170003Y-67040477D01*
X63217622Y-66992858D01*
X63217622Y-66611905D02*
X63170003Y-66564286D01*
X63122383Y-66469048D01*
X63122383Y-66230953D01*
X63170003Y-66135715D01*
X63217622Y-66088096D01*
X63312860Y-66040477D01*
X63408098Y-66040477D01*
X63550955Y-66088096D01*
X64122383Y-66659524D01*
X64122383Y-66040477D01*
X63122383Y-65707143D02*
X63122383Y-65088096D01*
X63503336Y-65421429D01*
X63503336Y-65278572D01*
X63550955Y-65183334D01*
X63598574Y-65135715D01*
X63693812Y-65088096D01*
X63931907Y-65088096D01*
X64027145Y-65135715D01*
X64074764Y-65183334D01*
X64122383Y-65278572D01*
X64122383Y-65564286D01*
X64074764Y-65659524D01*
X64027145Y-65707143D01*
%TO.C,C22*%
X76157139Y-63677137D02*
X76109520Y-63724756D01*
X75966663Y-63772375D01*
X75871425Y-63772375D01*
X75728568Y-63724756D01*
X75633330Y-63629518D01*
X75585711Y-63534280D01*
X75538092Y-63343804D01*
X75538092Y-63200947D01*
X75585711Y-63010471D01*
X75633330Y-62915233D01*
X75728568Y-62819995D01*
X75871425Y-62772375D01*
X75966663Y-62772375D01*
X76109520Y-62819995D01*
X76157139Y-62867614D01*
X76538092Y-62867614D02*
X76585711Y-62819995D01*
X76680949Y-62772375D01*
X76919044Y-62772375D01*
X77014282Y-62819995D01*
X77061901Y-62867614D01*
X77109520Y-62962852D01*
X77109520Y-63058090D01*
X77061901Y-63200947D01*
X76490473Y-63772375D01*
X77109520Y-63772375D01*
X77490473Y-62867614D02*
X77538092Y-62819995D01*
X77633330Y-62772375D01*
X77871425Y-62772375D01*
X77966663Y-62819995D01*
X78014282Y-62867614D01*
X78061901Y-62962852D01*
X78061901Y-63058090D01*
X78014282Y-63200947D01*
X77442854Y-63772375D01*
X78061901Y-63772375D01*
%TO.C,C21*%
X127507142Y-120002142D02*
X127459523Y-120049761D01*
X127316666Y-120097380D01*
X127221428Y-120097380D01*
X127078571Y-120049761D01*
X126983333Y-119954523D01*
X126935714Y-119859285D01*
X126888095Y-119668809D01*
X126888095Y-119525952D01*
X126935714Y-119335476D01*
X126983333Y-119240238D01*
X127078571Y-119145000D01*
X127221428Y-119097380D01*
X127316666Y-119097380D01*
X127459523Y-119145000D01*
X127507142Y-119192619D01*
X127888095Y-119192619D02*
X127935714Y-119145000D01*
X128030952Y-119097380D01*
X128269047Y-119097380D01*
X128364285Y-119145000D01*
X128411904Y-119192619D01*
X128459523Y-119287857D01*
X128459523Y-119383095D01*
X128411904Y-119525952D01*
X127840476Y-120097380D01*
X128459523Y-120097380D01*
X129411904Y-120097380D02*
X128840476Y-120097380D01*
X129126190Y-120097380D02*
X129126190Y-119097380D01*
X129030952Y-119240238D01*
X128935714Y-119335476D01*
X128840476Y-119383095D01*
%TO.C,C20*%
X127657140Y-67737133D02*
X127609521Y-67784752D01*
X127466664Y-67832371D01*
X127371426Y-67832371D01*
X127228569Y-67784752D01*
X127133331Y-67689514D01*
X127085712Y-67594276D01*
X127038093Y-67403800D01*
X127038093Y-67260943D01*
X127085712Y-67070467D01*
X127133331Y-66975229D01*
X127228569Y-66879991D01*
X127371426Y-66832371D01*
X127466664Y-66832371D01*
X127609521Y-66879991D01*
X127657140Y-66927610D01*
X128038093Y-66927610D02*
X128085712Y-66879991D01*
X128180950Y-66832371D01*
X128419045Y-66832371D01*
X128514283Y-66879991D01*
X128561902Y-66927610D01*
X128609521Y-67022848D01*
X128609521Y-67118086D01*
X128561902Y-67260943D01*
X127990474Y-67832371D01*
X128609521Y-67832371D01*
X129228569Y-66832371D02*
X129323807Y-66832371D01*
X129419045Y-66879991D01*
X129466664Y-66927610D01*
X129514283Y-67022848D01*
X129561902Y-67213324D01*
X129561902Y-67451419D01*
X129514283Y-67641895D01*
X129466664Y-67737133D01*
X129419045Y-67784752D01*
X129323807Y-67832371D01*
X129228569Y-67832371D01*
X129133331Y-67784752D01*
X129085712Y-67737133D01*
X129038093Y-67641895D01*
X128990474Y-67451419D01*
X128990474Y-67213324D01*
X129038093Y-67022848D01*
X129085712Y-66927610D01*
X129133331Y-66879991D01*
X129228569Y-66832371D01*
%TO.C,C19*%
X76157141Y-68537133D02*
X76109522Y-68584752D01*
X75966665Y-68632371D01*
X75871427Y-68632371D01*
X75728570Y-68584752D01*
X75633332Y-68489514D01*
X75585713Y-68394276D01*
X75538094Y-68203800D01*
X75538094Y-68060943D01*
X75585713Y-67870467D01*
X75633332Y-67775229D01*
X75728570Y-67679991D01*
X75871427Y-67632371D01*
X75966665Y-67632371D01*
X76109522Y-67679991D01*
X76157141Y-67727610D01*
X77109522Y-68632371D02*
X76538094Y-68632371D01*
X76823808Y-68632371D02*
X76823808Y-67632371D01*
X76728570Y-67775229D01*
X76633332Y-67870467D01*
X76538094Y-67918086D01*
X77585713Y-68632371D02*
X77776189Y-68632371D01*
X77871427Y-68584752D01*
X77919046Y-68537133D01*
X78014284Y-68394276D01*
X78061903Y-68203800D01*
X78061903Y-67822848D01*
X78014284Y-67727610D01*
X77966665Y-67679991D01*
X77871427Y-67632371D01*
X77680951Y-67632371D01*
X77585713Y-67679991D01*
X77538094Y-67727610D01*
X77490475Y-67822848D01*
X77490475Y-68060943D01*
X77538094Y-68156181D01*
X77585713Y-68203800D01*
X77680951Y-68251419D01*
X77871427Y-68251419D01*
X77966665Y-68203800D01*
X78014284Y-68156181D01*
X78061903Y-68060943D01*
%TO.C,C18*%
X129927143Y-69692859D02*
X129974762Y-69740478D01*
X130022381Y-69883335D01*
X130022381Y-69978573D01*
X129974762Y-70121430D01*
X129879524Y-70216668D01*
X129784286Y-70264287D01*
X129593810Y-70311906D01*
X129450953Y-70311906D01*
X129260477Y-70264287D01*
X129165239Y-70216668D01*
X129070001Y-70121430D01*
X129022381Y-69978573D01*
X129022381Y-69883335D01*
X129070001Y-69740478D01*
X129117620Y-69692859D01*
X130022381Y-68740478D02*
X130022381Y-69311906D01*
X130022381Y-69026192D02*
X129022381Y-69026192D01*
X129165239Y-69121430D01*
X129260477Y-69216668D01*
X129308096Y-69311906D01*
X129450953Y-68169049D02*
X129403334Y-68264287D01*
X129355715Y-68311906D01*
X129260477Y-68359525D01*
X129212858Y-68359525D01*
X129117620Y-68311906D01*
X129070001Y-68264287D01*
X129022381Y-68169049D01*
X129022381Y-67978573D01*
X129070001Y-67883335D01*
X129117620Y-67835716D01*
X129212858Y-67788097D01*
X129260477Y-67788097D01*
X129355715Y-67835716D01*
X129403334Y-67883335D01*
X129450953Y-67978573D01*
X129450953Y-68169049D01*
X129498572Y-68264287D01*
X129546191Y-68311906D01*
X129641429Y-68359525D01*
X129831905Y-68359525D01*
X129927143Y-68311906D01*
X129974762Y-68264287D01*
X130022381Y-68169049D01*
X130022381Y-67978573D01*
X129974762Y-67883335D01*
X129927143Y-67835716D01*
X129831905Y-67788097D01*
X129641429Y-67788097D01*
X129546191Y-67835716D01*
X129498572Y-67883335D01*
X129450953Y-67978573D01*
%TO.C,C17*%
X131977142Y-69542857D02*
X132024761Y-69590476D01*
X132072380Y-69733333D01*
X132072380Y-69828571D01*
X132024761Y-69971428D01*
X131929523Y-70066666D01*
X131834285Y-70114285D01*
X131643809Y-70161904D01*
X131500952Y-70161904D01*
X131310476Y-70114285D01*
X131215238Y-70066666D01*
X131120000Y-69971428D01*
X131072380Y-69828571D01*
X131072380Y-69733333D01*
X131120000Y-69590476D01*
X131167619Y-69542857D01*
X132072380Y-68590476D02*
X132072380Y-69161904D01*
X132072380Y-68876190D02*
X131072380Y-68876190D01*
X131215238Y-68971428D01*
X131310476Y-69066666D01*
X131358095Y-69161904D01*
X131072380Y-68257142D02*
X131072380Y-67590476D01*
X132072380Y-68019047D01*
%TO.C,C16*%
X78427144Y-70492860D02*
X78474763Y-70540479D01*
X78522382Y-70683336D01*
X78522382Y-70778574D01*
X78474763Y-70921431D01*
X78379525Y-71016669D01*
X78284287Y-71064288D01*
X78093811Y-71111907D01*
X77950954Y-71111907D01*
X77760478Y-71064288D01*
X77665240Y-71016669D01*
X77570002Y-70921431D01*
X77522382Y-70778574D01*
X77522382Y-70683336D01*
X77570002Y-70540479D01*
X77617621Y-70492860D01*
X78522382Y-69540479D02*
X78522382Y-70111907D01*
X78522382Y-69826193D02*
X77522382Y-69826193D01*
X77665240Y-69921431D01*
X77760478Y-70016669D01*
X77808097Y-70111907D01*
X77522382Y-68683336D02*
X77522382Y-68873812D01*
X77570002Y-68969050D01*
X77617621Y-69016669D01*
X77760478Y-69111907D01*
X77950954Y-69159526D01*
X78331906Y-69159526D01*
X78427144Y-69111907D01*
X78474763Y-69064288D01*
X78522382Y-68969050D01*
X78522382Y-68778574D01*
X78474763Y-68683336D01*
X78427144Y-68635717D01*
X78331906Y-68588098D01*
X78093811Y-68588098D01*
X77998573Y-68635717D01*
X77950954Y-68683336D01*
X77903335Y-68778574D01*
X77903335Y-68969050D01*
X77950954Y-69064288D01*
X77998573Y-69111907D01*
X78093811Y-69159526D01*
%TO.C,C15*%
X80477145Y-70292856D02*
X80524764Y-70340475D01*
X80572383Y-70483332D01*
X80572383Y-70578570D01*
X80524764Y-70721427D01*
X80429526Y-70816665D01*
X80334288Y-70864284D01*
X80143812Y-70911903D01*
X80000955Y-70911903D01*
X79810479Y-70864284D01*
X79715241Y-70816665D01*
X79620003Y-70721427D01*
X79572383Y-70578570D01*
X79572383Y-70483332D01*
X79620003Y-70340475D01*
X79667622Y-70292856D01*
X80572383Y-69340475D02*
X80572383Y-69911903D01*
X80572383Y-69626189D02*
X79572383Y-69626189D01*
X79715241Y-69721427D01*
X79810479Y-69816665D01*
X79858098Y-69911903D01*
X79572383Y-68435713D02*
X79572383Y-68911903D01*
X80048574Y-68959522D01*
X80000955Y-68911903D01*
X79953336Y-68816665D01*
X79953336Y-68578570D01*
X80000955Y-68483332D01*
X80048574Y-68435713D01*
X80143812Y-68388094D01*
X80381907Y-68388094D01*
X80477145Y-68435713D01*
X80524764Y-68483332D01*
X80572383Y-68578570D01*
X80572383Y-68816665D01*
X80524764Y-68911903D01*
X80477145Y-68959522D01*
%TO.C,C14*%
X99357142Y-63627142D02*
X99309523Y-63674761D01*
X99166666Y-63722380D01*
X99071428Y-63722380D01*
X98928571Y-63674761D01*
X98833333Y-63579523D01*
X98785714Y-63484285D01*
X98738095Y-63293809D01*
X98738095Y-63150952D01*
X98785714Y-62960476D01*
X98833333Y-62865238D01*
X98928571Y-62770000D01*
X99071428Y-62722380D01*
X99166666Y-62722380D01*
X99309523Y-62770000D01*
X99357142Y-62817619D01*
X100309523Y-63722380D02*
X99738095Y-63722380D01*
X100023809Y-63722380D02*
X100023809Y-62722380D01*
X99928571Y-62865238D01*
X99833333Y-62960476D01*
X99738095Y-63008095D01*
X101166666Y-63055714D02*
X101166666Y-63722380D01*
X100928571Y-62674761D02*
X100690476Y-63389047D01*
X101309523Y-63389047D01*
%TO.C,C13*%
X127557137Y-74877136D02*
X127509518Y-74924755D01*
X127366661Y-74972374D01*
X127271423Y-74972374D01*
X127128566Y-74924755D01*
X127033328Y-74829517D01*
X126985709Y-74734279D01*
X126938090Y-74543803D01*
X126938090Y-74400946D01*
X126985709Y-74210470D01*
X127033328Y-74115232D01*
X127128566Y-74019994D01*
X127271423Y-73972374D01*
X127366661Y-73972374D01*
X127509518Y-74019994D01*
X127557137Y-74067613D01*
X128509518Y-74972374D02*
X127938090Y-74972374D01*
X128223804Y-74972374D02*
X128223804Y-73972374D01*
X128128566Y-74115232D01*
X128033328Y-74210470D01*
X127938090Y-74258089D01*
X128842852Y-73972374D02*
X129461899Y-73972374D01*
X129128566Y-74353327D01*
X129271423Y-74353327D01*
X129366661Y-74400946D01*
X129414280Y-74448565D01*
X129461899Y-74543803D01*
X129461899Y-74781898D01*
X129414280Y-74877136D01*
X129366661Y-74924755D01*
X129271423Y-74972374D01*
X128985709Y-74972374D01*
X128890471Y-74924755D01*
X128842852Y-74877136D01*
%TO.C,C12*%
X127557141Y-76827135D02*
X127509522Y-76874754D01*
X127366665Y-76922373D01*
X127271427Y-76922373D01*
X127128570Y-76874754D01*
X127033332Y-76779516D01*
X126985713Y-76684278D01*
X126938094Y-76493802D01*
X126938094Y-76350945D01*
X126985713Y-76160469D01*
X127033332Y-76065231D01*
X127128570Y-75969993D01*
X127271427Y-75922373D01*
X127366665Y-75922373D01*
X127509522Y-75969993D01*
X127557141Y-76017612D01*
X128509522Y-76922373D02*
X127938094Y-76922373D01*
X128223808Y-76922373D02*
X128223808Y-75922373D01*
X128128570Y-76065231D01*
X128033332Y-76160469D01*
X127938094Y-76208088D01*
X128890475Y-76017612D02*
X128938094Y-75969993D01*
X129033332Y-75922373D01*
X129271427Y-75922373D01*
X129366665Y-75969993D01*
X129414284Y-76017612D01*
X129461903Y-76112850D01*
X129461903Y-76208088D01*
X129414284Y-76350945D01*
X128842856Y-76922373D01*
X129461903Y-76922373D01*
%TO.C,C11*%
X76057140Y-75677139D02*
X76009521Y-75724758D01*
X75866664Y-75772377D01*
X75771426Y-75772377D01*
X75628569Y-75724758D01*
X75533331Y-75629520D01*
X75485712Y-75534282D01*
X75438093Y-75343806D01*
X75438093Y-75200949D01*
X75485712Y-75010473D01*
X75533331Y-74915235D01*
X75628569Y-74819997D01*
X75771426Y-74772377D01*
X75866664Y-74772377D01*
X76009521Y-74819997D01*
X76057140Y-74867616D01*
X77009521Y-75772377D02*
X76438093Y-75772377D01*
X76723807Y-75772377D02*
X76723807Y-74772377D01*
X76628569Y-74915235D01*
X76533331Y-75010473D01*
X76438093Y-75058092D01*
X77961902Y-75772377D02*
X77390474Y-75772377D01*
X77676188Y-75772377D02*
X77676188Y-74772377D01*
X77580950Y-74915235D01*
X77485712Y-75010473D01*
X77390474Y-75058092D01*
%TO.C,C10*%
X76057141Y-77627137D02*
X76009522Y-77674756D01*
X75866665Y-77722375D01*
X75771427Y-77722375D01*
X75628570Y-77674756D01*
X75533332Y-77579518D01*
X75485713Y-77484280D01*
X75438094Y-77293804D01*
X75438094Y-77150947D01*
X75485713Y-76960471D01*
X75533332Y-76865233D01*
X75628570Y-76769995D01*
X75771427Y-76722375D01*
X75866665Y-76722375D01*
X76009522Y-76769995D01*
X76057141Y-76817614D01*
X77009522Y-77722375D02*
X76438094Y-77722375D01*
X76723808Y-77722375D02*
X76723808Y-76722375D01*
X76628570Y-76865233D01*
X76533332Y-76960471D01*
X76438094Y-77008090D01*
X77628570Y-76722375D02*
X77723808Y-76722375D01*
X77819046Y-76769995D01*
X77866665Y-76817614D01*
X77914284Y-76912852D01*
X77961903Y-77103328D01*
X77961903Y-77341423D01*
X77914284Y-77531899D01*
X77866665Y-77627137D01*
X77819046Y-77674756D01*
X77723808Y-77722375D01*
X77628570Y-77722375D01*
X77533332Y-77674756D01*
X77485713Y-77627137D01*
X77438094Y-77531899D01*
X77390475Y-77341423D01*
X77390475Y-77103328D01*
X77438094Y-76912852D01*
X77485713Y-76817614D01*
X77533332Y-76769995D01*
X77628570Y-76722375D01*
%TO.C,C9*%
X124033333Y-126202142D02*
X123985714Y-126249761D01*
X123842857Y-126297380D01*
X123747619Y-126297380D01*
X123604761Y-126249761D01*
X123509523Y-126154523D01*
X123461904Y-126059285D01*
X123414285Y-125868809D01*
X123414285Y-125725952D01*
X123461904Y-125535476D01*
X123509523Y-125440238D01*
X123604761Y-125345000D01*
X123747619Y-125297380D01*
X123842857Y-125297380D01*
X123985714Y-125345000D01*
X124033333Y-125392619D01*
X124509523Y-126297380D02*
X124700000Y-126297380D01*
X124795238Y-126249761D01*
X124842857Y-126202142D01*
X124938095Y-126059285D01*
X124985714Y-125868809D01*
X124985714Y-125487857D01*
X124938095Y-125392619D01*
X124890476Y-125345000D01*
X124795238Y-125297380D01*
X124604761Y-125297380D01*
X124509523Y-125345000D01*
X124461904Y-125392619D01*
X124414285Y-125487857D01*
X124414285Y-125725952D01*
X124461904Y-125821190D01*
X124509523Y-125868809D01*
X124604761Y-125916428D01*
X124795238Y-125916428D01*
X124890476Y-125868809D01*
X124938095Y-125821190D01*
X124985714Y-125725952D01*
%TO.C,C8*%
X121752142Y-123941666D02*
X121799761Y-123989285D01*
X121847380Y-124132142D01*
X121847380Y-124227380D01*
X121799761Y-124370238D01*
X121704523Y-124465476D01*
X121609285Y-124513095D01*
X121418809Y-124560714D01*
X121275952Y-124560714D01*
X121085476Y-124513095D01*
X120990238Y-124465476D01*
X120895000Y-124370238D01*
X120847380Y-124227380D01*
X120847380Y-124132142D01*
X120895000Y-123989285D01*
X120942619Y-123941666D01*
X121275952Y-123370238D02*
X121228333Y-123465476D01*
X121180714Y-123513095D01*
X121085476Y-123560714D01*
X121037857Y-123560714D01*
X120942619Y-123513095D01*
X120895000Y-123465476D01*
X120847380Y-123370238D01*
X120847380Y-123179761D01*
X120895000Y-123084523D01*
X120942619Y-123036904D01*
X121037857Y-122989285D01*
X121085476Y-122989285D01*
X121180714Y-123036904D01*
X121228333Y-123084523D01*
X121275952Y-123179761D01*
X121275952Y-123370238D01*
X121323571Y-123465476D01*
X121371190Y-123513095D01*
X121466428Y-123560714D01*
X121656904Y-123560714D01*
X121752142Y-123513095D01*
X121799761Y-123465476D01*
X121847380Y-123370238D01*
X121847380Y-123179761D01*
X121799761Y-123084523D01*
X121752142Y-123036904D01*
X121656904Y-122989285D01*
X121466428Y-122989285D01*
X121371190Y-123036904D01*
X121323571Y-123084523D01*
X121275952Y-123179761D01*
%TO.C,C7*%
X119502142Y-123941666D02*
X119549761Y-123989285D01*
X119597380Y-124132142D01*
X119597380Y-124227380D01*
X119549761Y-124370238D01*
X119454523Y-124465476D01*
X119359285Y-124513095D01*
X119168809Y-124560714D01*
X119025952Y-124560714D01*
X118835476Y-124513095D01*
X118740238Y-124465476D01*
X118645000Y-124370238D01*
X118597380Y-124227380D01*
X118597380Y-124132142D01*
X118645000Y-123989285D01*
X118692619Y-123941666D01*
X118597380Y-123608333D02*
X118597380Y-122941666D01*
X119597380Y-123370238D01*
%TO.C,C4*%
X63287142Y-134341667D02*
X63334761Y-134389286D01*
X63382380Y-134532143D01*
X63382380Y-134627381D01*
X63334761Y-134770239D01*
X63239523Y-134865477D01*
X63144285Y-134913096D01*
X62953809Y-134960715D01*
X62810952Y-134960715D01*
X62620476Y-134913096D01*
X62525238Y-134865477D01*
X62430000Y-134770239D01*
X62382380Y-134627381D01*
X62382380Y-134532143D01*
X62430000Y-134389286D01*
X62477619Y-134341667D01*
X62715714Y-133484524D02*
X63382380Y-133484524D01*
X62334761Y-133722620D02*
X63049047Y-133960715D01*
X63049047Y-133341667D01*
%TO.C,C3*%
X69577142Y-117166666D02*
X69624761Y-117214285D01*
X69672380Y-117357142D01*
X69672380Y-117452380D01*
X69624761Y-117595238D01*
X69529523Y-117690476D01*
X69434285Y-117738095D01*
X69243809Y-117785714D01*
X69100952Y-117785714D01*
X68910476Y-117738095D01*
X68815238Y-117690476D01*
X68720000Y-117595238D01*
X68672380Y-117452380D01*
X68672380Y-117357142D01*
X68720000Y-117214285D01*
X68767619Y-117166666D01*
X68672380Y-116833333D02*
X68672380Y-116214285D01*
X69053333Y-116547619D01*
X69053333Y-116404761D01*
X69100952Y-116309523D01*
X69148571Y-116261904D01*
X69243809Y-116214285D01*
X69481904Y-116214285D01*
X69577142Y-116261904D01*
X69624761Y-116309523D01*
X69672380Y-116404761D01*
X69672380Y-116690476D01*
X69624761Y-116785714D01*
X69577142Y-116833333D01*
%TO.C,C2*%
X91057142Y-129066666D02*
X91104761Y-129114285D01*
X91152380Y-129257142D01*
X91152380Y-129352380D01*
X91104761Y-129495238D01*
X91009523Y-129590476D01*
X90914285Y-129638095D01*
X90723809Y-129685714D01*
X90580952Y-129685714D01*
X90390476Y-129638095D01*
X90295238Y-129590476D01*
X90200000Y-129495238D01*
X90152380Y-129352380D01*
X90152380Y-129257142D01*
X90200000Y-129114285D01*
X90247619Y-129066666D01*
X90247619Y-128685714D02*
X90200000Y-128638095D01*
X90152380Y-128542857D01*
X90152380Y-128304761D01*
X90200000Y-128209523D01*
X90247619Y-128161904D01*
X90342857Y-128114285D01*
X90438095Y-128114285D01*
X90580952Y-128161904D01*
X91152380Y-128733333D01*
X91152380Y-128114285D01*
%TO.C,C1*%
X94807142Y-129066666D02*
X94854761Y-129114285D01*
X94902380Y-129257142D01*
X94902380Y-129352380D01*
X94854761Y-129495238D01*
X94759523Y-129590476D01*
X94664285Y-129638095D01*
X94473809Y-129685714D01*
X94330952Y-129685714D01*
X94140476Y-129638095D01*
X94045238Y-129590476D01*
X93950000Y-129495238D01*
X93902380Y-129352380D01*
X93902380Y-129257142D01*
X93950000Y-129114285D01*
X93997619Y-129066666D01*
X94902380Y-128114285D02*
X94902380Y-128685714D01*
X94902380Y-128400000D02*
X93902380Y-128400000D01*
X94045238Y-128495238D01*
X94140476Y-128590476D01*
X94188095Y-128685714D01*
D11*
%TO.C,U4*%
X125900000Y-74200000D02*
X125900000Y-64193000D01*
X118300000Y-64193000D02*
X118300000Y-74607000D01*
X118353500Y-74700000D02*
X125400000Y-74700000D01*
X125846500Y-64100000D02*
X118353500Y-64100000D01*
D12*
X125763500Y-74500000D02*
G75*
G03*
X125763500Y-74500000I-63500J0D01*
G01*
D11*
%TO.C,C53*%
X103200000Y-97200000D02*
G75*
G03*
X103200000Y-95599998I-840224J800001D01*
G01*
X100600000Y-95600000D02*
G75*
G03*
X100600000Y-97200002I840224J-800001D01*
G01*
X103200000Y-95599998D02*
X100600000Y-95600000D01*
X100600000Y-97200002D02*
X103200000Y-97200000D01*
%TO.C,R44*%
X99600000Y-97200000D02*
X99600000Y-95600000D01*
X99600000Y-95600000D02*
X96600000Y-95600000D01*
X96600000Y-95600000D02*
X96600000Y-97200000D01*
X96600000Y-97200000D02*
X99600000Y-97200000D01*
%TO.C,R42*%
X97200000Y-102800000D02*
X97200000Y-104400000D01*
X97200000Y-104400000D02*
X100200000Y-104400000D01*
X100200000Y-104400000D02*
X100200000Y-102800000D01*
X100200000Y-102800000D02*
X97200000Y-102800000D01*
%TO.C,U2*%
X63900000Y-139950000D02*
X62850000Y-139950000D01*
X62850000Y-139950000D02*
X62850000Y-138900000D01*
X63900000Y-119650000D02*
X62850000Y-119650000D01*
X62850000Y-119650000D02*
X62850000Y-120700000D01*
X77500000Y-119650000D02*
X78550000Y-119650000D01*
X78550000Y-119650000D02*
X78550000Y-120700000D01*
X77500000Y-139950000D02*
X78700000Y-139950000D01*
X78400000Y-119800000D02*
X78400000Y-135200000D01*
X78400000Y-139800000D02*
X63000000Y-139800000D01*
X63000000Y-135200000D02*
X63000000Y-119800000D01*
X63000000Y-119800000D02*
X78400000Y-119800000D01*
X78400000Y-139800000D02*
X78400000Y-135200000D01*
X63000000Y-139800000D02*
X63000000Y-135200000D01*
%TO.C,C6*%
X79200000Y-134500000D02*
G75*
G03*
X80800002Y-134500000I800001J840224D01*
G01*
X80800000Y-131900000D02*
G75*
G03*
X79199998Y-131900000I-800001J-840224D01*
G01*
X80800002Y-134500000D02*
X80800000Y-131900000D01*
X79199998Y-131900000D02*
X79200000Y-134500000D01*
%TO.C,C5*%
X81300000Y-134900000D02*
G75*
G03*
X83300000Y-134900000I1000000J1122254D01*
G01*
X83300000Y-131900000D02*
G75*
G03*
X81300000Y-131900000I-1000000J-1122254D01*
G01*
X83300000Y-134900000D02*
X83300000Y-131900000D01*
X81300000Y-131900000D02*
X81300000Y-134900000D01*
D12*
%TO.C,U8*%
X63038500Y-109025000D02*
G75*
G03*
X63038500Y-109025000I-63500J0D01*
G01*
D11*
X66775000Y-108825000D02*
X63275000Y-108825000D01*
X66775000Y-112625000D02*
X66775000Y-108825000D01*
X62775000Y-112625000D02*
X66775000Y-112625000D01*
X62775000Y-109325000D02*
X62775000Y-112625000D01*
D12*
%TO.C,U7*%
X103663500Y-102600000D02*
G75*
G03*
X103663500Y-102600000I-63500J0D01*
G01*
D11*
X103800000Y-102300000D02*
X103800000Y-97200000D01*
X103800000Y-97200000D02*
X96200000Y-97200000D01*
X96200000Y-97200000D02*
X96200000Y-102800000D01*
X96200000Y-102800000D02*
X103300000Y-102800000D01*
D10*
%TO.C,U6*%
X97600000Y-59937500D02*
X96600000Y-59937500D01*
X96600000Y-59937500D02*
X96600000Y-60987500D01*
X103400000Y-62937500D02*
X103400000Y-61937500D01*
X103400000Y-62937500D02*
X102400000Y-62937500D01*
D11*
%TO.C,U5*%
X124340000Y-125335000D02*
X124340000Y-125785000D01*
X127560000Y-122565000D02*
X127110000Y-122565000D01*
X127560000Y-123015000D02*
X127560000Y-122565000D01*
X127560000Y-125785000D02*
X127110000Y-125785000D01*
X127560000Y-125335000D02*
X127560000Y-125785000D01*
X124340000Y-122565000D02*
X124790000Y-122565000D01*
X124340000Y-123015000D02*
X124340000Y-122565000D01*
%TO.C,U3*%
X74400000Y-75000000D02*
X74400000Y-64993000D01*
X66800000Y-64993000D02*
X66800000Y-75407000D01*
X66853500Y-75500000D02*
X73900000Y-75500000D01*
X74346500Y-64900000D02*
X66853500Y-64900000D01*
D12*
X74263500Y-75300000D02*
G75*
G03*
X74263500Y-75300000I-63500J0D01*
G01*
D11*
%TO.C,U1*%
X86200000Y-138800000D02*
X86200000Y-129800000D01*
X93600000Y-138800000D02*
X86200000Y-138800000D01*
X93600000Y-129800000D02*
X93600000Y-138800000D01*
X86200000Y-129800000D02*
X93600000Y-129800000D01*
%TO.C,R41*%
X113700001Y-73999999D02*
X115300001Y-73999999D01*
X115300001Y-73999999D02*
X115300001Y-70999999D01*
X115300001Y-70999999D02*
X113700001Y-70999999D01*
X113700001Y-70999999D02*
X113700001Y-73999999D01*
%TO.C,R40*%
X133700001Y-66599997D02*
X136700001Y-66599997D01*
X133700001Y-64999997D02*
X133700001Y-66599997D01*
X136700001Y-64999997D02*
X133700001Y-64999997D01*
X136700001Y-66599997D02*
X136700001Y-64999997D01*
%TO.C,R39*%
X62200000Y-74800000D02*
X63800000Y-74800000D01*
X63800000Y-74800000D02*
X63800000Y-71800000D01*
X63800000Y-71800000D02*
X62200000Y-71800000D01*
X62200000Y-71800000D02*
X62200000Y-74800000D01*
%TO.C,R38*%
X85200000Y-67400000D02*
X85200000Y-65800000D01*
X85200000Y-65800000D02*
X82200000Y-65800000D01*
X82200000Y-65800000D02*
X82200000Y-67400000D01*
X82200000Y-67400000D02*
X85200000Y-67400000D01*
%TO.C,R37*%
X115800000Y-73975000D02*
X117400000Y-73975000D01*
X117400000Y-73975000D02*
X117400000Y-70975000D01*
X117400000Y-70975000D02*
X115800000Y-70975000D01*
X115800000Y-70975000D02*
X115800000Y-73975000D01*
%TO.C,R35*%
X133699997Y-62999998D02*
X133699997Y-64599998D01*
X133699997Y-64599998D02*
X136699997Y-64599998D01*
X136699997Y-64599998D02*
X136699997Y-62999998D01*
X136699997Y-62999998D02*
X133699997Y-62999998D01*
%TO.C,R33*%
X65900000Y-71800000D02*
X64300000Y-71800000D01*
X64300000Y-71800000D02*
X64300000Y-74800000D01*
X64300000Y-74800000D02*
X65900000Y-74800000D01*
X65900000Y-74800000D02*
X65900000Y-71800000D01*
%TO.C,R31*%
X82200000Y-63800000D02*
X82200000Y-65400000D01*
X82200000Y-65400000D02*
X85200000Y-65400000D01*
X85200000Y-65400000D02*
X85200000Y-63800000D01*
X85200000Y-63800000D02*
X82200000Y-63800000D01*
%TO.C,R29*%
X119600000Y-98000000D02*
X111800000Y-98000000D01*
X119600000Y-102000000D02*
X119600000Y-98000000D01*
X111800000Y-98000000D02*
X111800000Y-102000000D01*
X111800000Y-102000000D02*
X119600000Y-102000000D01*
%TO.C,R28*%
X98000000Y-111700000D02*
X98000000Y-119500000D01*
X102000000Y-111700000D02*
X98000000Y-111700000D01*
X98000000Y-119500000D02*
X102000000Y-119500000D01*
X102000000Y-119500000D02*
X102000000Y-111700000D01*
%TO.C,R27*%
X88300000Y-97700000D02*
X80500000Y-97700000D01*
X88300000Y-101700000D02*
X88300000Y-97700000D01*
X80500000Y-97700000D02*
X80500000Y-101700000D01*
X80500000Y-101700000D02*
X88300000Y-101700000D01*
%TO.C,R26*%
X102100000Y-88300000D02*
X102100000Y-80500000D01*
X98100000Y-88300000D02*
X102100000Y-88300000D01*
X102100000Y-80500000D02*
X98100000Y-80500000D01*
X98100000Y-80500000D02*
X98100000Y-88300000D01*
%TO.C,R25*%
X113700001Y-70549995D02*
X115300001Y-70549995D01*
X115300001Y-70549995D02*
X115300001Y-67549995D01*
X115300001Y-67549995D02*
X113700001Y-67549995D01*
X113700001Y-67549995D02*
X113700001Y-70549995D01*
%TO.C,R24*%
X130299999Y-62999998D02*
X130299999Y-64599998D01*
X130299999Y-64599998D02*
X133299999Y-64599998D01*
X133299999Y-64599998D02*
X133299999Y-62999998D01*
X133299999Y-62999998D02*
X130299999Y-62999998D01*
%TO.C,R23*%
X62200001Y-68349997D02*
X62200001Y-71349997D01*
X63800001Y-68349997D02*
X62200001Y-68349997D01*
X63800001Y-71349997D02*
X63800001Y-68349997D01*
X62200001Y-71349997D02*
X63800001Y-71349997D01*
%TO.C,R22*%
X78800000Y-63800000D02*
X78800000Y-65400000D01*
X78800000Y-65400000D02*
X81800000Y-65400000D01*
X81800000Y-65400000D02*
X81800000Y-63800000D01*
X81800000Y-63800000D02*
X78800000Y-63800000D01*
%TO.C,R21*%
X117400000Y-70549999D02*
X117400000Y-67549999D01*
X115800000Y-70549999D02*
X117400000Y-70549999D01*
X115800000Y-67549999D02*
X115800000Y-70549999D01*
X117400000Y-67549999D02*
X115800000Y-67549999D01*
%TO.C,R20*%
X133299999Y-66599997D02*
X133299999Y-64999997D01*
X133299999Y-64999997D02*
X130299999Y-64999997D01*
X130299999Y-64999997D02*
X130299999Y-66599997D01*
X130299999Y-66599997D02*
X133299999Y-66599997D01*
%TO.C,R19*%
X65900001Y-68349998D02*
X64300001Y-68349998D01*
X64300001Y-68349998D02*
X64300001Y-71349998D01*
X64300001Y-71349998D02*
X65900001Y-71349998D01*
X65900001Y-71349998D02*
X65900001Y-68349998D01*
%TO.C,R18*%
X81800000Y-67400000D02*
X81800000Y-65800000D01*
X81800000Y-65800000D02*
X78800000Y-65800000D01*
X78800000Y-65800000D02*
X78800000Y-67400000D01*
X78800000Y-67400000D02*
X81800000Y-67400000D01*
%TO.C,R17*%
X126799998Y-67150000D02*
X126799998Y-68750000D01*
X126799998Y-68750000D02*
X129799998Y-68750000D01*
X129799998Y-68750000D02*
X129799998Y-67150000D01*
X129799998Y-67150000D02*
X126799998Y-67150000D01*
%TO.C,R16*%
X78300000Y-67950000D02*
X75300000Y-67950000D01*
X78300000Y-69550000D02*
X78300000Y-67950000D01*
X75300000Y-69550000D02*
X78300000Y-69550000D01*
X75300000Y-67950000D02*
X75300000Y-69550000D01*
%TO.C,R15*%
X126800005Y-69149994D02*
X126800005Y-70749994D01*
X126800005Y-70749994D02*
X129800005Y-70749994D01*
X129800005Y-70749994D02*
X129800005Y-69149994D01*
X129800005Y-69149994D02*
X126800005Y-69149994D01*
%TO.C,R14*%
X75300005Y-69949996D02*
X75300005Y-71549996D01*
X75300005Y-71549996D02*
X78300005Y-71549996D01*
X78300005Y-71549996D02*
X78300005Y-69949996D01*
X78300005Y-69949996D02*
X75300005Y-69949996D01*
%TO.C,R13*%
X66300000Y-115700000D02*
X66300000Y-114100000D01*
X66300000Y-114100000D02*
X63300000Y-114100000D01*
X63300000Y-114100000D02*
X63300000Y-115700000D01*
X63300000Y-115700000D02*
X66300000Y-115700000D01*
%TO.C,R12*%
X131425000Y-133300000D02*
X131425000Y-136300000D01*
X133025000Y-133300000D02*
X131425000Y-133300000D01*
X133025000Y-136300000D02*
X133025000Y-133300000D01*
X131425000Y-136300000D02*
X133025000Y-136300000D01*
%TO.C,R11*%
X129700000Y-133300000D02*
X129700000Y-136300000D01*
X131300000Y-133300000D02*
X129700000Y-133300000D01*
X131300000Y-136300000D02*
X131300000Y-133300000D01*
X129700000Y-136300000D02*
X131300000Y-136300000D01*
%TO.C,R10*%
X101100000Y-133100000D02*
X104100000Y-133100000D01*
X101100000Y-131500000D02*
X101100000Y-133100000D01*
X104100000Y-131500000D02*
X101100000Y-131500000D01*
X104100000Y-133100000D02*
X104100000Y-131500000D01*
%TO.C,R9*%
X127975000Y-136300000D02*
X129575000Y-136300000D01*
X129575000Y-136300000D02*
X129575000Y-133300000D01*
X129575000Y-133300000D02*
X127975000Y-133300000D01*
X127975000Y-133300000D02*
X127975000Y-136300000D01*
%TO.C,R8*%
X66300000Y-118700000D02*
X66300000Y-117100000D01*
X66300000Y-117100000D02*
X63300000Y-117100000D01*
X63300000Y-117100000D02*
X63300000Y-118700000D01*
X63300000Y-118700000D02*
X66300000Y-118700000D01*
%TO.C,R7*%
X69900000Y-115700000D02*
X68300000Y-115700000D01*
X68300000Y-115700000D02*
X68300000Y-118700000D01*
X68300000Y-118700000D02*
X69900000Y-118700000D01*
X69900000Y-118700000D02*
X69900000Y-115700000D01*
%TO.C,R6*%
X66600000Y-115700000D02*
X66600000Y-118700000D01*
X68200000Y-115700000D02*
X66600000Y-115700000D01*
X68200000Y-118700000D02*
X68200000Y-115700000D01*
X66600000Y-118700000D02*
X68200000Y-118700000D01*
%TO.C,R5*%
X96100000Y-131600000D02*
X96100000Y-133200000D01*
X96100000Y-133200000D02*
X99100000Y-133200000D01*
X99100000Y-133200000D02*
X99100000Y-131600000D01*
X99100000Y-131600000D02*
X96100000Y-131600000D01*
%TO.C,R4*%
X83700000Y-134700000D02*
X85300000Y-134700000D01*
X85300000Y-134700000D02*
X85300000Y-131700000D01*
X85300000Y-131700000D02*
X83700000Y-131700000D01*
X83700000Y-131700000D02*
X83700000Y-134700000D01*
%TO.C,R3*%
X126250000Y-133300000D02*
X126250000Y-136300000D01*
X127850000Y-133300000D02*
X126250000Y-133300000D01*
X127850000Y-136300000D02*
X127850000Y-133300000D01*
X126250000Y-136300000D02*
X127850000Y-136300000D01*
%TO.C,R2*%
X124525000Y-136300000D02*
X126125000Y-136300000D01*
X126125000Y-136300000D02*
X126125000Y-133300000D01*
X126125000Y-133300000D02*
X124525000Y-133300000D01*
X124525000Y-133300000D02*
X124525000Y-136300000D01*
%TO.C,R1*%
X122800000Y-136300000D02*
X124400000Y-136300000D01*
X124400000Y-136300000D02*
X124400000Y-133300000D01*
X124400000Y-133300000D02*
X122800000Y-133300000D01*
X122800000Y-133300000D02*
X122800000Y-136300000D01*
%TO.C,Q2*%
X130100002Y-71149997D02*
X126500002Y-71149997D01*
X130100002Y-74749997D02*
X130100002Y-71149997D01*
X126500002Y-71149997D02*
X126500002Y-74749997D01*
X126500002Y-74749997D02*
X130100002Y-74749997D01*
%TO.C,Q1*%
X78600001Y-71949997D02*
X75000001Y-71949997D01*
X78600001Y-75549997D02*
X78600001Y-71949997D01*
X75000001Y-71949997D02*
X75000001Y-75549997D01*
X75000001Y-75549997D02*
X78600001Y-75549997D01*
%TO.C,L2*%
X132599994Y-74849993D02*
X132599994Y-71049993D01*
X132599994Y-71049993D02*
X130599994Y-71049993D01*
X130599994Y-74849993D02*
X132599994Y-74849993D01*
X130599994Y-71049993D02*
X130599994Y-74849993D01*
%TO.C,L1*%
X81099998Y-75649994D02*
X81099998Y-71849994D01*
X81099998Y-71849994D02*
X79099998Y-71849994D01*
X79099998Y-75649994D02*
X81099998Y-75649994D01*
X79099998Y-71849994D02*
X79099998Y-75649994D01*
%TO.C,D24*%
G36*
X77616782Y-92963484D02*
G01*
X77099144Y-94895335D01*
X76616181Y-94765926D01*
X77133819Y-92834074D01*
X77616782Y-92963484D01*
G37*
%TO.C,D23*%
G36*
X80183013Y-87408975D02*
G01*
X79183013Y-89141025D01*
X78750000Y-88891025D01*
X79750000Y-87158975D01*
X80183013Y-87408975D01*
G37*
%TO.C,D22*%
G36*
X84135660Y-82721447D02*
G01*
X82721447Y-84135660D01*
X82367893Y-83782107D01*
X83782107Y-82367893D01*
X84135660Y-82721447D01*
G37*
%TO.C,D21*%
G36*
X89141025Y-79183013D02*
G01*
X87408975Y-80183013D01*
X87158975Y-79750000D01*
X88891025Y-78750000D01*
X89141025Y-79183013D01*
G37*
%TO.C,D20*%
G36*
X94895335Y-77099144D02*
G01*
X92963484Y-77616782D01*
X92834074Y-77133819D01*
X94765926Y-76616181D01*
X94895335Y-77099144D01*
G37*
%TO.C,D19*%
G36*
X101300000Y-76550000D02*
G01*
X99300000Y-76550000D01*
X99300000Y-76050000D01*
X101300000Y-76050000D01*
X101300000Y-76550000D01*
G37*
%TO.C,D18*%
G36*
X107165926Y-77133819D02*
G01*
X107036516Y-77616782D01*
X105104665Y-77099144D01*
X105234074Y-76616181D01*
X107165926Y-77133819D01*
G37*
%TO.C,D17*%
G36*
X112841025Y-79750000D02*
G01*
X112591025Y-80183013D01*
X110858975Y-79183013D01*
X111108975Y-78750000D01*
X112841025Y-79750000D01*
G37*
%TO.C,D16*%
G36*
X117632107Y-83782107D02*
G01*
X117278553Y-84135660D01*
X115864340Y-82721447D01*
X116217893Y-82367893D01*
X117632107Y-83782107D01*
G37*
%TO.C,D15*%
G36*
X121250000Y-88891025D02*
G01*
X120816987Y-89141025D01*
X119816987Y-87408975D01*
X120250000Y-87158975D01*
X121250000Y-88891025D01*
G37*
%TO.C,D14*%
G36*
X123383819Y-94765926D02*
G01*
X122900856Y-94895335D01*
X122383218Y-92963484D01*
X122866181Y-92834074D01*
X123383819Y-94765926D01*
G37*
%TO.C,D13*%
G36*
X123925000Y-101200000D02*
G01*
X123425000Y-101200000D01*
X123425000Y-99200000D01*
X123925000Y-99200000D01*
X123925000Y-101200000D01*
G37*
%TO.C,D12*%
G36*
X123383819Y-105234074D02*
G01*
X122866181Y-107165926D01*
X122383218Y-107036516D01*
X122900856Y-105104665D01*
X123383819Y-105234074D01*
G37*
%TO.C,D11*%
G36*
X121250000Y-111108975D02*
G01*
X120250000Y-112841025D01*
X119816987Y-112591025D01*
X120816987Y-110858975D01*
X121250000Y-111108975D01*
G37*
%TO.C,D10*%
G36*
X117632107Y-116217893D02*
G01*
X116217893Y-117632107D01*
X115864340Y-117278553D01*
X117278553Y-115864340D01*
X117632107Y-116217893D01*
G37*
%TO.C,D9*%
G36*
X112841025Y-120250000D02*
G01*
X111108975Y-121250000D01*
X110858975Y-120816987D01*
X112591025Y-119816987D01*
X112841025Y-120250000D01*
G37*
%TO.C,D8*%
G36*
X107165926Y-122866181D02*
G01*
X105234074Y-123383819D01*
X105104665Y-122900856D01*
X107036516Y-122383218D01*
X107165926Y-122866181D01*
G37*
%TO.C,D7*%
G36*
X100700000Y-123950000D02*
G01*
X98700000Y-123950000D01*
X98700000Y-123450000D01*
X100700000Y-123450000D01*
X100700000Y-123950000D01*
G37*
%TO.C,D6*%
G36*
X94895335Y-122900856D02*
G01*
X94765926Y-123383819D01*
X92834074Y-122866181D01*
X92963484Y-122383218D01*
X94895335Y-122900856D01*
G37*
%TO.C,D5*%
G36*
X89141025Y-120816987D02*
G01*
X88891025Y-121250000D01*
X87158975Y-120250000D01*
X87408975Y-119816987D01*
X89141025Y-120816987D01*
G37*
%TO.C,D4*%
G36*
X84135660Y-117278553D02*
G01*
X83782107Y-117632107D01*
X82367893Y-116217893D01*
X82721447Y-115864340D01*
X84135660Y-117278553D01*
G37*
%TO.C,D3*%
G36*
X80208013Y-112591025D02*
G01*
X79775000Y-112841025D01*
X78775000Y-111108975D01*
X79208013Y-110858975D01*
X80208013Y-112591025D01*
G37*
%TO.C,D2*%
G36*
X77591782Y-107036516D02*
G01*
X77108819Y-107165926D01*
X76591181Y-105234074D01*
X77074144Y-105104665D01*
X77591782Y-107036516D01*
G37*
%TO.C,D1*%
G36*
X76550000Y-101300000D02*
G01*
X76050000Y-101300000D01*
X76050000Y-99300000D01*
X76550000Y-99300000D01*
X76550000Y-101300000D01*
G37*
%TO.C,C52*%
X76400000Y-96500000D02*
G75*
G03*
X76400000Y-94899998I-840224J800001D01*
G01*
X73800000Y-94900000D02*
G75*
G03*
X73800000Y-96500002I840224J-800001D01*
G01*
X76400000Y-94899998D02*
X73800000Y-94900000D01*
X73800000Y-96500002D02*
X76400000Y-96500000D01*
%TO.C,C51*%
X78400000Y-90700000D02*
G75*
G03*
X78400000Y-89099998I-840224J800001D01*
G01*
X75800000Y-89100000D02*
G75*
G03*
X75800000Y-90700002I840224J-800001D01*
G01*
X78400000Y-89099998D02*
X75800000Y-89100000D01*
X75800000Y-90700002D02*
X78400000Y-90700000D01*
%TO.C,C50*%
X81903553Y-85984925D02*
G75*
G03*
X83034926Y-84853552I-28442J1159815D01*
G01*
X81196447Y-83015075D02*
G75*
G03*
X80065074Y-84146448I28442J-1159815D01*
G01*
X83034926Y-84853552D02*
X81196447Y-83015076D01*
X80065074Y-84146448D02*
X81903553Y-85984924D01*
%TO.C,C49*%
X84899998Y-79000000D02*
X84900000Y-81600000D01*
X86500002Y-81600000D02*
X86500000Y-79000000D01*
X86500000Y-79000000D02*
G75*
G03*
X84899998Y-79000000I-800001J-840224D01*
G01*
X84900000Y-81600000D02*
G75*
G03*
X86500002Y-81600000I800001J840224D01*
G01*
%TO.C,C48*%
X90800000Y-79200000D02*
G75*
G03*
X92400002Y-79200000I800001J840224D01*
G01*
X92400000Y-76600000D02*
G75*
G03*
X90799998Y-76600000I-800001J-840224D01*
G01*
X92400002Y-79200000D02*
X92400000Y-76600000D01*
X90799998Y-76600000D02*
X90800000Y-79200000D01*
%TO.C,C47*%
X97600000Y-77375000D02*
G75*
G03*
X99200002Y-77375000I800001J840224D01*
G01*
X99200000Y-74775000D02*
G75*
G03*
X97599998Y-74775000I-800001J-840224D01*
G01*
X99200002Y-77375000D02*
X99200000Y-74775000D01*
X97599998Y-74775000D02*
X97600000Y-77375000D01*
%TO.C,C46*%
X107200000Y-75200000D02*
G75*
G03*
X107200000Y-73599998I-840224J800001D01*
G01*
X104600000Y-73600000D02*
G75*
G03*
X104600000Y-75200002I840224J-800001D01*
G01*
X107200000Y-73599998D02*
X104600000Y-73600000D01*
X104600000Y-75200002D02*
X107200000Y-75200000D01*
%TO.C,C45*%
X108600000Y-79900000D02*
G75*
G03*
X110200002Y-79900000I800001J840224D01*
G01*
X110200000Y-77300000D02*
G75*
G03*
X108599998Y-77300000I-800001J-840224D01*
G01*
X110200002Y-79900000D02*
X110200000Y-77300000D01*
X108599998Y-77300000D02*
X108600000Y-79900000D01*
%TO.C,C44*%
X113665075Y-82453553D02*
G75*
G03*
X114796448Y-83584926I1159815J28442D01*
G01*
X116634925Y-81746447D02*
G75*
G03*
X115503552Y-80615074I-1159815J-28442D01*
G01*
X114796448Y-83584926D02*
X116634924Y-81746447D01*
X115503552Y-80615074D02*
X113665076Y-82453553D01*
%TO.C,C43*%
X118400000Y-84900000D02*
G75*
G03*
X118400000Y-86500002I840224J-800001D01*
G01*
X121000000Y-86500000D02*
G75*
G03*
X121000000Y-84899998I-840224J800001D01*
G01*
X118400000Y-86500002D02*
X121000000Y-86500000D01*
X121000000Y-84899998D02*
X118400000Y-84900000D01*
%TO.C,C42*%
X120800000Y-90800000D02*
G75*
G03*
X120800000Y-92400002I840224J-800001D01*
G01*
X123400000Y-92400000D02*
G75*
G03*
X123400000Y-90799998I-840224J800001D01*
G01*
X120800000Y-92400002D02*
X123400000Y-92400000D01*
X123400000Y-90799998D02*
X120800000Y-90800000D01*
%TO.C,C41*%
X122700000Y-97500000D02*
G75*
G03*
X122700000Y-99100002I840224J-800001D01*
G01*
X125300000Y-99100000D02*
G75*
G03*
X125300000Y-97499998I-840224J800001D01*
G01*
X122700000Y-99100002D02*
X125300000Y-99100000D01*
X125300000Y-97499998D02*
X122700000Y-97500000D01*
%TO.C,C40*%
X123200000Y-103500000D02*
G75*
G03*
X123200000Y-105100002I840224J-800001D01*
G01*
X125800000Y-105100000D02*
G75*
G03*
X125800000Y-103499998I-840224J800001D01*
G01*
X123200000Y-105100002D02*
X125800000Y-105100000D01*
X125800000Y-103499998D02*
X123200000Y-103500000D01*
%TO.C,C39*%
X121600000Y-109400000D02*
G75*
G03*
X121600000Y-111000002I840224J-800001D01*
G01*
X124200000Y-111000000D02*
G75*
G03*
X124200000Y-109399998I-840224J800001D01*
G01*
X121600000Y-111000002D02*
X124200000Y-111000000D01*
X124200000Y-109399998D02*
X121600000Y-109400000D01*
%TO.C,C38*%
X114746447Y-116415075D02*
G75*
G03*
X113615074Y-117546448I28442J-1159815D01*
G01*
X115453553Y-119384925D02*
G75*
G03*
X116584926Y-118253552I-28442J1159815D01*
G01*
X113615074Y-117546448D02*
X115453553Y-119384924D01*
X116584926Y-118253552D02*
X114746447Y-116415076D01*
%TO.C,C37*%
X115400000Y-119500000D02*
G75*
G03*
X113799998Y-119500000I-800001J-840224D01*
G01*
X113800000Y-122100000D02*
G75*
G03*
X115400002Y-122100000I800001J840224D01*
G01*
X113799998Y-119500000D02*
X113800000Y-122100000D01*
X115400002Y-122100000D02*
X115400000Y-119500000D01*
%TO.C,C36*%
X109000002Y-123425000D02*
X109000000Y-120825000D01*
X107399998Y-120825000D02*
X107400000Y-123425000D01*
X107400000Y-123425000D02*
G75*
G03*
X109000002Y-123425000I800001J840224D01*
G01*
X109000000Y-120825000D02*
G75*
G03*
X107399998Y-120825000I-800001J-840224D01*
G01*
%TO.C,C35*%
X102400000Y-122725000D02*
G75*
G03*
X100799998Y-122725000I-800001J-840224D01*
G01*
X100800000Y-125325000D02*
G75*
G03*
X102400002Y-125325000I800001J840224D01*
G01*
X100799998Y-122725000D02*
X100800000Y-125325000D01*
X102400002Y-125325000D02*
X102400000Y-122725000D01*
%TO.C,C34*%
X96400002Y-126600000D02*
X96400000Y-124000000D01*
X94799998Y-124000000D02*
X94800000Y-126600000D01*
X94800000Y-126600000D02*
G75*
G03*
X96400002Y-126600000I800001J840224D01*
G01*
X96400000Y-124000000D02*
G75*
G03*
X94799998Y-124000000I-800001J-840224D01*
G01*
%TO.C,C33*%
X90700000Y-121300000D02*
G75*
G03*
X89099998Y-121300000I-800001J-840224D01*
G01*
X89100000Y-123900000D02*
G75*
G03*
X90700002Y-123900000I800001J840224D01*
G01*
X89099998Y-121300000D02*
X89100000Y-123900000D01*
X90700002Y-123900000D02*
X90700000Y-121300000D01*
%TO.C,C32*%
X83484925Y-114546447D02*
G75*
G03*
X82353552Y-113415074I-1159815J-28442D01*
G01*
X80515075Y-115253553D02*
G75*
G03*
X81646448Y-116384926I1159815J28442D01*
G01*
X82353552Y-113415074D02*
X80515076Y-115253553D01*
X81646448Y-116384926D02*
X83484924Y-114546447D01*
%TO.C,C31*%
X81000000Y-110300000D02*
G75*
G03*
X81000000Y-108699998I-840224J800001D01*
G01*
X78400000Y-108700000D02*
G75*
G03*
X78400000Y-110300002I840224J-800001D01*
G01*
X81000000Y-108699998D02*
X78400000Y-108700000D01*
X78400000Y-110300002D02*
X81000000Y-110300000D01*
%TO.C,C30*%
X75400000Y-109300002D02*
X78000000Y-109300000D01*
X78000000Y-107699998D02*
X75400000Y-107700000D01*
X75400000Y-107700000D02*
G75*
G03*
X75400000Y-109300002I840224J-800001D01*
G01*
X78000000Y-109300000D02*
G75*
G03*
X78000000Y-107699998I-840224J800001D01*
G01*
%TO.C,C29*%
X77300000Y-99200000D02*
G75*
G03*
X77300000Y-97599998I-840224J800001D01*
G01*
X74700000Y-97600000D02*
G75*
G03*
X74700000Y-99200002I840224J-800001D01*
G01*
X77300000Y-97599998D02*
X74700000Y-97600000D01*
X74700000Y-99200002D02*
X77300000Y-99200000D01*
%TO.C,C28*%
X103000000Y-104400000D02*
G75*
G03*
X103000000Y-102799998I-840224J800001D01*
G01*
X100400000Y-102800000D02*
G75*
G03*
X100400000Y-104400002I840224J-800001D01*
G01*
X103000000Y-102799998D02*
X100400000Y-102800000D01*
X100400000Y-104400002D02*
X103000000Y-104400000D01*
%TO.C,C27*%
X66050000Y-106824998D02*
X63450000Y-106825000D01*
X63450000Y-108425002D02*
X66050000Y-108425000D01*
X66050000Y-108425000D02*
G75*
G03*
X66050000Y-106824998I-840224J800001D01*
G01*
X63450000Y-106825000D02*
G75*
G03*
X63450000Y-108425002I840224J-800001D01*
G01*
%TO.C,C26*%
X126225000Y-120274998D02*
X123625000Y-120275000D01*
X123625000Y-121875002D02*
X126225000Y-121875000D01*
X126225000Y-121875000D02*
G75*
G03*
X126225000Y-120274998I-840224J800001D01*
G01*
X123625000Y-120275000D02*
G75*
G03*
X123625000Y-121875002I840224J-800001D01*
G01*
%TO.C,C25*%
X117400004Y-64249999D02*
G75*
G03*
X115800002Y-64249999I-800001J-840224D01*
G01*
X115800004Y-66849999D02*
G75*
G03*
X117400006Y-66849999I800001J840224D01*
G01*
X115800002Y-64249999D02*
X115800004Y-66849999D01*
X117400006Y-66849999D02*
X117400004Y-64249999D01*
%TO.C,C24*%
X129599996Y-64749996D02*
G75*
G03*
X129599996Y-63149994I-840224J800001D01*
G01*
X126999996Y-63149996D02*
G75*
G03*
X126999996Y-64749998I840224J-800001D01*
G01*
X129599996Y-63149994D02*
X126999996Y-63149996D01*
X126999996Y-64749998D02*
X129599996Y-64749996D01*
%TO.C,C23*%
X65900005Y-67650001D02*
X65900003Y-65050001D01*
X64300001Y-65050001D02*
X64300003Y-67650001D01*
X64300003Y-67650001D02*
G75*
G03*
X65900005Y-67650001I800001J840224D01*
G01*
X65900003Y-65050001D02*
G75*
G03*
X64300001Y-65050001I-800001J-840224D01*
G01*
%TO.C,C22*%
X78099997Y-65549995D02*
G75*
G03*
X78099997Y-63949993I-840224J800001D01*
G01*
X75499997Y-63949995D02*
G75*
G03*
X75499997Y-65549997I840224J-800001D01*
G01*
X78099997Y-63949993D02*
X75499997Y-63949995D01*
X75499997Y-65549997D02*
X78099997Y-65549995D01*
%TO.C,C21*%
X129450000Y-121875000D02*
G75*
G03*
X129450000Y-120274998I-840224J800001D01*
G01*
X126850000Y-120275000D02*
G75*
G03*
X126850000Y-121875002I840224J-800001D01*
G01*
X129450000Y-120274998D02*
X126850000Y-120275000D01*
X126850000Y-121875002D02*
X129450000Y-121875000D01*
%TO.C,C20*%
X126999998Y-65149991D02*
G75*
G03*
X126999998Y-66749993I840224J-800001D01*
G01*
X129599998Y-66749991D02*
G75*
G03*
X129599998Y-65149989I-840224J800001D01*
G01*
X126999998Y-66749993D02*
X129599998Y-66749991D01*
X129599998Y-65149989D02*
X126999998Y-65149991D01*
%TO.C,C19*%
X75499999Y-65949991D02*
G75*
G03*
X75499999Y-67549993I840224J-800001D01*
G01*
X78099999Y-67549991D02*
G75*
G03*
X78099999Y-65949989I-840224J800001D01*
G01*
X75499999Y-67549993D02*
X78099999Y-67549991D01*
X78099999Y-65949989D02*
X75499999Y-65949991D01*
%TO.C,C18*%
X131800001Y-67750002D02*
G75*
G03*
X130199999Y-67750002I-800001J-840224D01*
G01*
X130200001Y-70350002D02*
G75*
G03*
X131800003Y-70350002I800001J840224D01*
G01*
X130199999Y-67750002D02*
X130200001Y-70350002D01*
X131800003Y-70350002D02*
X131800001Y-67750002D01*
%TO.C,C17*%
X134300000Y-67400000D02*
G75*
G03*
X132300000Y-67400000I-1000000J-1122254D01*
G01*
X132300000Y-70400000D02*
G75*
G03*
X134300000Y-70400000I1000000J1122254D01*
G01*
X132300000Y-67400000D02*
X132300000Y-70400000D01*
X134300000Y-70400000D02*
X134300000Y-67400000D01*
%TO.C,C16*%
X80300002Y-68550003D02*
G75*
G03*
X78700000Y-68550003I-800001J-840224D01*
G01*
X78700002Y-71150003D02*
G75*
G03*
X80300004Y-71150003I800001J840224D01*
G01*
X78700000Y-68550003D02*
X78700002Y-71150003D01*
X80300004Y-71150003D02*
X80300002Y-68550003D01*
%TO.C,C15*%
X82800003Y-68149999D02*
G75*
G03*
X80800003Y-68149999I-1000000J-1122254D01*
G01*
X80800003Y-71149999D02*
G75*
G03*
X82800003Y-71149999I1000000J1122254D01*
G01*
X80800003Y-68149999D02*
X80800003Y-71149999D01*
X82800003Y-71149999D02*
X82800003Y-68149999D01*
%TO.C,C14*%
X101300000Y-65500000D02*
G75*
G03*
X101300000Y-63899998I-840224J800001D01*
G01*
X98700000Y-63900000D02*
G75*
G03*
X98700000Y-65500002I840224J-800001D01*
G01*
X101300000Y-63899998D02*
X98700000Y-63900000D01*
X98700000Y-65500002D02*
X101300000Y-65500000D01*
%TO.C,C13*%
X129499995Y-76749994D02*
G75*
G03*
X129499995Y-75149992I-840224J800001D01*
G01*
X126899995Y-75149994D02*
G75*
G03*
X126899995Y-76749996I840224J-800001D01*
G01*
X129499995Y-75149992D02*
X126899995Y-75149994D01*
X126899995Y-76749996D02*
X129499995Y-76749994D01*
%TO.C,C12*%
X129699999Y-79149993D02*
G75*
G03*
X129699999Y-77149993I-1122254J1000000D01*
G01*
X126699999Y-77149993D02*
G75*
G03*
X126699999Y-79149993I1122254J-1000000D01*
G01*
X129699999Y-77149993D02*
X126699999Y-77149993D01*
X126699999Y-79149993D02*
X129699999Y-79149993D01*
%TO.C,C11*%
X77999998Y-77549997D02*
G75*
G03*
X77999998Y-75949995I-840224J800001D01*
G01*
X75399998Y-75949997D02*
G75*
G03*
X75399998Y-77549999I840224J-800001D01*
G01*
X77999998Y-75949995D02*
X75399998Y-75949997D01*
X75399998Y-77549999D02*
X77999998Y-77549997D01*
%TO.C,C10*%
X78199999Y-79949995D02*
G75*
G03*
X78199999Y-77949995I-1122254J1000000D01*
G01*
X75199999Y-77949995D02*
G75*
G03*
X75199999Y-79949995I1122254J-1000000D01*
G01*
X78199999Y-77949995D02*
X75199999Y-77949995D01*
X75199999Y-79949995D02*
X78199999Y-79949995D01*
%TO.C,C9*%
X125500000Y-128075000D02*
G75*
G03*
X125500000Y-126474998I-840224J800001D01*
G01*
X122900000Y-126475000D02*
G75*
G03*
X122900000Y-128075002I840224J-800001D01*
G01*
X125500000Y-126474998D02*
X122900000Y-126475000D01*
X122900000Y-128075002D02*
X125500000Y-128075000D01*
%TO.C,C8*%
X123625002Y-125075000D02*
X123625000Y-122475000D01*
X122024998Y-122475000D02*
X122025000Y-125075000D01*
X122025000Y-125075000D02*
G75*
G03*
X123625002Y-125075000I800001J840224D01*
G01*
X123625000Y-122475000D02*
G75*
G03*
X122024998Y-122475000I-800001J-840224D01*
G01*
%TO.C,C7*%
X121825000Y-122275000D02*
G75*
G03*
X119825000Y-122275000I-1000000J-1122254D01*
G01*
X119825000Y-125275000D02*
G75*
G03*
X121825000Y-125275000I1000000J1122254D01*
G01*
X119825000Y-122275000D02*
X119825000Y-125275000D01*
X121825000Y-125275000D02*
X121825000Y-122275000D01*
%TO.C,C4*%
X60700000Y-135475001D02*
G75*
G03*
X62300002Y-135475001I800001J840224D01*
G01*
X62300000Y-132875001D02*
G75*
G03*
X60699998Y-132875001I-800001J-840224D01*
G01*
X62300002Y-135475001D02*
X62300000Y-132875001D01*
X60699998Y-132875001D02*
X60700000Y-135475001D01*
%TO.C,C3*%
X71900000Y-115500000D02*
G75*
G03*
X69900000Y-115500000I-1000000J-1122254D01*
G01*
X69900000Y-118500000D02*
G75*
G03*
X71900000Y-118500000I1000000J1122254D01*
G01*
X69900000Y-115500000D02*
X69900000Y-118500000D01*
X71900000Y-118500000D02*
X71900000Y-115500000D01*
%TO.C,C2*%
X89500000Y-129900000D02*
G75*
G03*
X89500000Y-127900000I-1122254J1000000D01*
G01*
X86500000Y-127900000D02*
G75*
G03*
X86500000Y-129900000I1122254J-1000000D01*
G01*
X89500000Y-127900000D02*
X86500000Y-127900000D01*
X86500000Y-129900000D02*
X89500000Y-129900000D01*
%TO.C,C1*%
X93300000Y-127900000D02*
X90300000Y-127900000D01*
X90300000Y-129900000D02*
X93300000Y-129900000D01*
X93300000Y-129900000D02*
G75*
G03*
X93300000Y-127900000I-1122254J1000000D01*
G01*
X90300000Y-127900000D02*
G75*
G03*
X90300000Y-129900000I1122254J-1000000D01*
G01*
%TD*%
M02*
