%TF.GenerationSoftware,KiCad,Pcbnew,(6.0.8)*%
%TF.CreationDate,2022-10-28T13:47:00+02:00*%
%TF.ProjectId,view_base,76696577-5f62-4617-9365-2e6b69636164,rev?*%
%TF.SameCoordinates,Original*%
%TF.FileFunction,Legend,Bot*%
%TF.FilePolarity,Positive*%
%FSLAX46Y46*%
G04 Gerber Fmt 4.6, Leading zero omitted, Abs format (unit mm)*
G04 Created by KiCad (PCBNEW (6.0.8)) date 2022-10-28 13:47:00*
%MOMM*%
%LPD*%
G01*
G04 APERTURE LIST*
%ADD10C,0.254000*%
%ADD11C,0.150000*%
%ADD12C,0.100000*%
%ADD13C,0.120000*%
G04 APERTURE END LIST*
D10*
%TO.C,IC1*%
X101239761Y-100574523D02*
X101239761Y-99304523D01*
X99909285Y-100453571D02*
X99969761Y-100514047D01*
X100151190Y-100574523D01*
X100272142Y-100574523D01*
X100453571Y-100514047D01*
X100574523Y-100393095D01*
X100635000Y-100272142D01*
X100695476Y-100030238D01*
X100695476Y-99848809D01*
X100635000Y-99606904D01*
X100574523Y-99485952D01*
X100453571Y-99365000D01*
X100272142Y-99304523D01*
X100151190Y-99304523D01*
X99969761Y-99365000D01*
X99909285Y-99425476D01*
X98699761Y-100574523D02*
X99425476Y-100574523D01*
X99062619Y-100574523D02*
X99062619Y-99304523D01*
X99183571Y-99485952D01*
X99304523Y-99606904D01*
X99425476Y-99667380D01*
D11*
%TO.C,TP4*%
X64266666Y-130752380D02*
X64600000Y-130276190D01*
X64838095Y-130752380D02*
X64838095Y-129752380D01*
X64457142Y-129752380D01*
X64361904Y-129800000D01*
X64314285Y-129847619D01*
X64266666Y-129942857D01*
X64266666Y-130085714D01*
X64314285Y-130180952D01*
X64361904Y-130228571D01*
X64457142Y-130276190D01*
X64838095Y-130276190D01*
X63933333Y-129752380D02*
X63266666Y-130752380D01*
X63266666Y-129752380D02*
X63933333Y-130752380D01*
%TO.C,TP3*%
X64861904Y-126752380D02*
X64290476Y-126752380D01*
X64576190Y-127752380D02*
X64576190Y-126752380D01*
X64052380Y-126752380D02*
X63385714Y-127752380D01*
X63385714Y-126752380D02*
X64052380Y-127752380D01*
%TO.C,TP14*%
X95185714Y-96052380D02*
X95185714Y-95052380D01*
X94947619Y-95052380D01*
X94804761Y-95100000D01*
X94709523Y-95195238D01*
X94661904Y-95290476D01*
X94614285Y-95480952D01*
X94614285Y-95623809D01*
X94661904Y-95814285D01*
X94709523Y-95909523D01*
X94804761Y-96004761D01*
X94947619Y-96052380D01*
X95185714Y-96052380D01*
X93995238Y-95052380D02*
X93804761Y-95052380D01*
X93709523Y-95100000D01*
X93614285Y-95195238D01*
X93566666Y-95385714D01*
X93566666Y-95719047D01*
X93614285Y-95909523D01*
X93709523Y-96004761D01*
X93804761Y-96052380D01*
X93995238Y-96052380D01*
X94090476Y-96004761D01*
X94185714Y-95909523D01*
X94233333Y-95719047D01*
X94233333Y-95385714D01*
X94185714Y-95195238D01*
X94090476Y-95100000D01*
X93995238Y-95052380D01*
%TO.C,TP13*%
X94995238Y-98957142D02*
X95042857Y-99004761D01*
X95185714Y-99052380D01*
X95280952Y-99052380D01*
X95423809Y-99004761D01*
X95519047Y-98909523D01*
X95566666Y-98814285D01*
X95614285Y-98623809D01*
X95614285Y-98480952D01*
X95566666Y-98290476D01*
X95519047Y-98195238D01*
X95423809Y-98100000D01*
X95280952Y-98052380D01*
X95185714Y-98052380D01*
X95042857Y-98100000D01*
X94995238Y-98147619D01*
X94090476Y-99052380D02*
X94566666Y-99052380D01*
X94566666Y-98052380D01*
X93757142Y-99052380D02*
X93757142Y-98052380D01*
X93185714Y-99052380D02*
X93614285Y-98480952D01*
X93185714Y-98052380D02*
X93757142Y-98623809D01*
%TO.C,TP12*%
X95090476Y-101957142D02*
X95138095Y-102004761D01*
X95280952Y-102052380D01*
X95376190Y-102052380D01*
X95519047Y-102004761D01*
X95614285Y-101909523D01*
X95661904Y-101814285D01*
X95709523Y-101623809D01*
X95709523Y-101480952D01*
X95661904Y-101290476D01*
X95614285Y-101195238D01*
X95519047Y-101100000D01*
X95376190Y-101052380D01*
X95280952Y-101052380D01*
X95138095Y-101100000D01*
X95090476Y-101147619D01*
X94709523Y-102004761D02*
X94566666Y-102052380D01*
X94328571Y-102052380D01*
X94233333Y-102004761D01*
X94185714Y-101957142D01*
X94138095Y-101861904D01*
X94138095Y-101766666D01*
X94185714Y-101671428D01*
X94233333Y-101623809D01*
X94328571Y-101576190D01*
X94519047Y-101528571D01*
X94614285Y-101480952D01*
X94661904Y-101433333D01*
X94709523Y-101338095D01*
X94709523Y-101242857D01*
X94661904Y-101147619D01*
X94614285Y-101100000D01*
X94519047Y-101052380D01*
X94280952Y-101052380D01*
X94138095Y-101100000D01*
X93709523Y-102052380D02*
X93709523Y-101052380D01*
X93138095Y-102052380D01*
X93138095Y-101052380D01*
%TO.C,TP11*%
X67942857Y-109452380D02*
X68419047Y-109452380D01*
X68419047Y-108452380D01*
X67609523Y-108928571D02*
X67276190Y-108928571D01*
X67133333Y-109452380D02*
X67609523Y-109452380D01*
X67609523Y-108452380D01*
X67133333Y-108452380D01*
X66704761Y-109452380D02*
X66704761Y-108452380D01*
X66466666Y-108452380D01*
X66323809Y-108500000D01*
X66228571Y-108595238D01*
X66180952Y-108690476D01*
X66133333Y-108880952D01*
X66133333Y-109023809D01*
X66180952Y-109214285D01*
X66228571Y-109309523D01*
X66323809Y-109404761D01*
X66466666Y-109452380D01*
X66704761Y-109452380D01*
%TO.C,TP10*%
X117528571Y-118752380D02*
X117290476Y-119752380D01*
X117100000Y-119038095D01*
X116909523Y-119752380D01*
X116671428Y-118752380D01*
%TO.C,TP9*%
X119633333Y-116552380D02*
X119300000Y-117552380D01*
X118966666Y-116552380D01*
%TO.C,TP8*%
X121785714Y-114352380D02*
X121785714Y-115161904D01*
X121738095Y-115257142D01*
X121690476Y-115304761D01*
X121595238Y-115352380D01*
X121404761Y-115352380D01*
X121309523Y-115304761D01*
X121261904Y-115257142D01*
X121214285Y-115161904D01*
X121214285Y-114352380D01*
%TO.C,TP7*%
X65990476Y-111104761D02*
X65847619Y-111152380D01*
X65609523Y-111152380D01*
X65514285Y-111104761D01*
X65466666Y-111057142D01*
X65419047Y-110961904D01*
X65419047Y-110866666D01*
X65466666Y-110771428D01*
X65514285Y-110723809D01*
X65609523Y-110676190D01*
X65800000Y-110628571D01*
X65895238Y-110580952D01*
X65942857Y-110533333D01*
X65990476Y-110438095D01*
X65990476Y-110342857D01*
X65942857Y-110247619D01*
X65895238Y-110200000D01*
X65800000Y-110152380D01*
X65561904Y-110152380D01*
X65419047Y-110200000D01*
X64419047Y-111057142D02*
X64466666Y-111104761D01*
X64609523Y-111152380D01*
X64704761Y-111152380D01*
X64847619Y-111104761D01*
X64942857Y-111009523D01*
X64990476Y-110914285D01*
X65038095Y-110723809D01*
X65038095Y-110580952D01*
X64990476Y-110390476D01*
X64942857Y-110295238D01*
X64847619Y-110200000D01*
X64704761Y-110152380D01*
X64609523Y-110152380D01*
X64466666Y-110200000D01*
X64419047Y-110247619D01*
X63514285Y-111152380D02*
X63990476Y-111152380D01*
X63990476Y-110152380D01*
%TO.C,TP6*%
X66014285Y-114104761D02*
X65871428Y-114152380D01*
X65633333Y-114152380D01*
X65538095Y-114104761D01*
X65490476Y-114057142D01*
X65442857Y-113961904D01*
X65442857Y-113866666D01*
X65490476Y-113771428D01*
X65538095Y-113723809D01*
X65633333Y-113676190D01*
X65823809Y-113628571D01*
X65919047Y-113580952D01*
X65966666Y-113533333D01*
X66014285Y-113438095D01*
X66014285Y-113342857D01*
X65966666Y-113247619D01*
X65919047Y-113200000D01*
X65823809Y-113152380D01*
X65585714Y-113152380D01*
X65442857Y-113200000D01*
X65014285Y-114152380D02*
X65014285Y-113152380D01*
X64776190Y-113152380D01*
X64633333Y-113200000D01*
X64538095Y-113295238D01*
X64490476Y-113390476D01*
X64442857Y-113580952D01*
X64442857Y-113723809D01*
X64490476Y-113914285D01*
X64538095Y-114009523D01*
X64633333Y-114104761D01*
X64776190Y-114152380D01*
X65014285Y-114152380D01*
X64061904Y-113866666D02*
X63585714Y-113866666D01*
X64157142Y-114152380D02*
X63823809Y-113152380D01*
X63490476Y-114152380D01*
%TO.C,TP5*%
X91400000Y-133738095D02*
X91352380Y-133642857D01*
X91352380Y-133500000D01*
X91400000Y-133357142D01*
X91495238Y-133261904D01*
X91590476Y-133214285D01*
X91780952Y-133166666D01*
X91923809Y-133166666D01*
X92114285Y-133214285D01*
X92209523Y-133261904D01*
X92304761Y-133357142D01*
X92352380Y-133500000D01*
X92352380Y-133595238D01*
X92304761Y-133738095D01*
X92257142Y-133785714D01*
X91923809Y-133785714D01*
X91923809Y-133595238D01*
X92352380Y-134214285D02*
X91352380Y-134214285D01*
X92352380Y-134785714D01*
X91352380Y-134785714D01*
X92352380Y-135261904D02*
X91352380Y-135261904D01*
X91352380Y-135500000D01*
X91400000Y-135642857D01*
X91495238Y-135738095D01*
X91590476Y-135785714D01*
X91780952Y-135833333D01*
X91923809Y-135833333D01*
X92114285Y-135785714D01*
X92209523Y-135738095D01*
X92304761Y-135642857D01*
X92352380Y-135500000D01*
X92352380Y-135261904D01*
%TO.C,TP2*%
X89052380Y-130271428D02*
X89052380Y-130890476D01*
X89433333Y-130557142D01*
X89433333Y-130700000D01*
X89480952Y-130795238D01*
X89528571Y-130842857D01*
X89623809Y-130890476D01*
X89861904Y-130890476D01*
X89957142Y-130842857D01*
X90004761Y-130795238D01*
X90052380Y-130700000D01*
X90052380Y-130414285D01*
X90004761Y-130319047D01*
X89957142Y-130271428D01*
X89957142Y-131319047D02*
X90004761Y-131366666D01*
X90052380Y-131319047D01*
X90004761Y-131271428D01*
X89957142Y-131319047D01*
X90052380Y-131319047D01*
X89052380Y-131700000D02*
X89052380Y-132319047D01*
X89433333Y-131985714D01*
X89433333Y-132128571D01*
X89480952Y-132223809D01*
X89528571Y-132271428D01*
X89623809Y-132319047D01*
X89861904Y-132319047D01*
X89957142Y-132271428D01*
X90004761Y-132223809D01*
X90052380Y-132128571D01*
X90052380Y-131842857D01*
X90004761Y-131747619D01*
X89957142Y-131700000D01*
X89385714Y-132652380D02*
X90052380Y-132890476D01*
X89385714Y-133128571D01*
%TO.C,TP1*%
X93652380Y-131509523D02*
X93652380Y-131033333D01*
X94128571Y-130985714D01*
X94080952Y-131033333D01*
X94033333Y-131128571D01*
X94033333Y-131366666D01*
X94080952Y-131461904D01*
X94128571Y-131509523D01*
X94223809Y-131557142D01*
X94461904Y-131557142D01*
X94557142Y-131509523D01*
X94604761Y-131461904D01*
X94652380Y-131366666D01*
X94652380Y-131128571D01*
X94604761Y-131033333D01*
X94557142Y-130985714D01*
X93652380Y-131842857D02*
X94652380Y-132176190D01*
X93652380Y-132509523D01*
%TO.C,R36*%
X116342857Y-98037380D02*
X116676190Y-97561190D01*
X116914285Y-98037380D02*
X116914285Y-97037380D01*
X116533333Y-97037380D01*
X116438095Y-97085000D01*
X116390476Y-97132619D01*
X116342857Y-97227857D01*
X116342857Y-97370714D01*
X116390476Y-97465952D01*
X116438095Y-97513571D01*
X116533333Y-97561190D01*
X116914285Y-97561190D01*
X116009523Y-97037380D02*
X115390476Y-97037380D01*
X115723809Y-97418333D01*
X115580952Y-97418333D01*
X115485714Y-97465952D01*
X115438095Y-97513571D01*
X115390476Y-97608809D01*
X115390476Y-97846904D01*
X115438095Y-97942142D01*
X115485714Y-97989761D01*
X115580952Y-98037380D01*
X115866666Y-98037380D01*
X115961904Y-97989761D01*
X116009523Y-97942142D01*
X114533333Y-97037380D02*
X114723809Y-97037380D01*
X114819047Y-97085000D01*
X114866666Y-97132619D01*
X114961904Y-97275476D01*
X115009523Y-97465952D01*
X115009523Y-97846904D01*
X114961904Y-97942142D01*
X114914285Y-97989761D01*
X114819047Y-98037380D01*
X114628571Y-98037380D01*
X114533333Y-97989761D01*
X114485714Y-97942142D01*
X114438095Y-97846904D01*
X114438095Y-97608809D01*
X114485714Y-97513571D01*
X114533333Y-97465952D01*
X114628571Y-97418333D01*
X114819047Y-97418333D01*
X114914285Y-97465952D01*
X114961904Y-97513571D01*
X115009523Y-97608809D01*
%TO.C,R34*%
X103167380Y-114957142D02*
X102691190Y-114623809D01*
X103167380Y-114385714D02*
X102167380Y-114385714D01*
X102167380Y-114766666D01*
X102215000Y-114861904D01*
X102262619Y-114909523D01*
X102357857Y-114957142D01*
X102500714Y-114957142D01*
X102595952Y-114909523D01*
X102643571Y-114861904D01*
X102691190Y-114766666D01*
X102691190Y-114385714D01*
X102167380Y-115290476D02*
X102167380Y-115909523D01*
X102548333Y-115576190D01*
X102548333Y-115719047D01*
X102595952Y-115814285D01*
X102643571Y-115861904D01*
X102738809Y-115909523D01*
X102976904Y-115909523D01*
X103072142Y-115861904D01*
X103119761Y-115814285D01*
X103167380Y-115719047D01*
X103167380Y-115433333D01*
X103119761Y-115338095D01*
X103072142Y-115290476D01*
X102500714Y-116766666D02*
X103167380Y-116766666D01*
X102119761Y-116528571D02*
X102834047Y-116290476D01*
X102834047Y-116909523D01*
%TO.C,R32*%
X85042857Y-102867380D02*
X85376190Y-102391190D01*
X85614285Y-102867380D02*
X85614285Y-101867380D01*
X85233333Y-101867380D01*
X85138095Y-101915000D01*
X85090476Y-101962619D01*
X85042857Y-102057857D01*
X85042857Y-102200714D01*
X85090476Y-102295952D01*
X85138095Y-102343571D01*
X85233333Y-102391190D01*
X85614285Y-102391190D01*
X84709523Y-101867380D02*
X84090476Y-101867380D01*
X84423809Y-102248333D01*
X84280952Y-102248333D01*
X84185714Y-102295952D01*
X84138095Y-102343571D01*
X84090476Y-102438809D01*
X84090476Y-102676904D01*
X84138095Y-102772142D01*
X84185714Y-102819761D01*
X84280952Y-102867380D01*
X84566666Y-102867380D01*
X84661904Y-102819761D01*
X84709523Y-102772142D01*
X83709523Y-101962619D02*
X83661904Y-101915000D01*
X83566666Y-101867380D01*
X83328571Y-101867380D01*
X83233333Y-101915000D01*
X83185714Y-101962619D01*
X83138095Y-102057857D01*
X83138095Y-102153095D01*
X83185714Y-102295952D01*
X83757142Y-102867380D01*
X83138095Y-102867380D01*
%TO.C,R30*%
X97837380Y-83757142D02*
X97361190Y-83423809D01*
X97837380Y-83185714D02*
X96837380Y-83185714D01*
X96837380Y-83566666D01*
X96885000Y-83661904D01*
X96932619Y-83709523D01*
X97027857Y-83757142D01*
X97170714Y-83757142D01*
X97265952Y-83709523D01*
X97313571Y-83661904D01*
X97361190Y-83566666D01*
X97361190Y-83185714D01*
X96837380Y-84090476D02*
X96837380Y-84709523D01*
X97218333Y-84376190D01*
X97218333Y-84519047D01*
X97265952Y-84614285D01*
X97313571Y-84661904D01*
X97408809Y-84709523D01*
X97646904Y-84709523D01*
X97742142Y-84661904D01*
X97789761Y-84614285D01*
X97837380Y-84519047D01*
X97837380Y-84233333D01*
X97789761Y-84138095D01*
X97742142Y-84090476D01*
X96837380Y-85328571D02*
X96837380Y-85423809D01*
X96885000Y-85519047D01*
X96932619Y-85566666D01*
X97027857Y-85614285D01*
X97218333Y-85661904D01*
X97456428Y-85661904D01*
X97646904Y-85614285D01*
X97742142Y-85566666D01*
X97789761Y-85519047D01*
X97837380Y-85423809D01*
X97837380Y-85328571D01*
X97789761Y-85233333D01*
X97742142Y-85185714D01*
X97646904Y-85138095D01*
X97456428Y-85090476D01*
X97218333Y-85090476D01*
X97027857Y-85138095D01*
X96932619Y-85185714D01*
X96885000Y-85233333D01*
X96837380Y-85328571D01*
%TO.C,J3*%
X119474930Y-118774300D02*
X119980006Y-119279376D01*
X120114693Y-119346720D01*
X120249380Y-119346720D01*
X120384067Y-119279376D01*
X120451410Y-119212033D01*
X119205556Y-119043674D02*
X118767823Y-119481407D01*
X119272899Y-119515079D01*
X119171884Y-119616094D01*
X119138212Y-119717109D01*
X119138212Y-119784453D01*
X119171884Y-119885468D01*
X119340243Y-120053827D01*
X119441258Y-120087498D01*
X119508601Y-120087498D01*
X119609617Y-120053827D01*
X119811647Y-119851796D01*
X119845319Y-119750781D01*
X119845319Y-119683437D01*
D12*
%TO.C,IC1*%
X98400000Y-100750000D02*
X98400000Y-100750000D01*
X98500000Y-100750000D02*
X98500000Y-100750000D01*
X98500000Y-100750000D02*
G75*
G03*
X98400000Y-100750000I-50000J0D01*
G01*
X98400000Y-100750000D02*
G75*
G03*
X98500000Y-100750000I50000J0D01*
G01*
D13*
%TO.C,TP4*%
X67800000Y-130300000D02*
G75*
G03*
X67800000Y-130300000I-1200000J0D01*
G01*
%TO.C,TP3*%
X67800000Y-127300000D02*
G75*
G03*
X67800000Y-127300000I-1200000J0D01*
G01*
%TO.C,TP14*%
X95600000Y-97600000D02*
G75*
G03*
X95600000Y-97600000I-1200000J0D01*
G01*
%TO.C,TP13*%
X95600000Y-100600000D02*
G75*
G03*
X95600000Y-100600000I-1200000J0D01*
G01*
%TO.C,TP12*%
X95600000Y-103600000D02*
G75*
G03*
X95600000Y-103600000I-1200000J0D01*
G01*
%TO.C,TP11*%
X68500000Y-111000000D02*
G75*
G03*
X68500000Y-111000000I-1200000J0D01*
G01*
%TO.C,TP10*%
X118300000Y-121300000D02*
G75*
G03*
X118300000Y-121300000I-1200000J0D01*
G01*
%TO.C,TP9*%
X120500000Y-119100000D02*
G75*
G03*
X120500000Y-119100000I-1200000J0D01*
G01*
%TO.C,TP8*%
X122700000Y-116900000D02*
G75*
G03*
X122700000Y-116900000I-1200000J0D01*
G01*
%TO.C,TP7*%
X66000000Y-112700000D02*
G75*
G03*
X66000000Y-112700000I-1200000J0D01*
G01*
%TO.C,TP6*%
X66000000Y-115700000D02*
G75*
G03*
X66000000Y-115700000I-1200000J0D01*
G01*
%TO.C,TP5*%
X91100000Y-134500000D02*
G75*
G03*
X91100000Y-134500000I-1200000J0D01*
G01*
%TO.C,TP2*%
X88800000Y-131700000D02*
G75*
G03*
X88800000Y-131700000I-1200000J0D01*
G01*
%TO.C,TP1*%
X93400000Y-131700000D02*
G75*
G03*
X93400000Y-131700000I-1200000J0D01*
G01*
%TO.C,R36*%
X111800000Y-98300000D02*
X119600000Y-98300000D01*
X111800000Y-102300000D02*
X111800000Y-98300000D01*
X119600000Y-98300000D02*
X119600000Y-102300000D01*
X119600000Y-102300000D02*
X111800000Y-102300000D01*
%TO.C,R34*%
X98000000Y-119500000D02*
X98000000Y-111700000D01*
X102000000Y-119500000D02*
X98000000Y-119500000D01*
X98000000Y-111700000D02*
X102000000Y-111700000D01*
X102000000Y-111700000D02*
X102000000Y-119500000D01*
%TO.C,R32*%
X88300000Y-101700000D02*
X80500000Y-101700000D01*
X88300000Y-97700000D02*
X88300000Y-101700000D01*
X80500000Y-101700000D02*
X80500000Y-97700000D01*
X80500000Y-97700000D02*
X88300000Y-97700000D01*
%TO.C,R30*%
X98100000Y-88300000D02*
X98100000Y-80500000D01*
X102100000Y-88300000D02*
X98100000Y-88300000D01*
X98100000Y-80500000D02*
X102100000Y-80500000D01*
X102100000Y-80500000D02*
X102100000Y-88300000D01*
%TO.C,J3*%
X119873962Y-113351500D02*
X120779031Y-114256568D01*
X111006800Y-117070813D02*
X110808838Y-116872850D01*
X116239383Y-118796216D02*
X114485793Y-120549806D01*
X120779031Y-114256568D02*
X119025440Y-116010158D01*
X117102075Y-110579613D02*
X117300038Y-110777575D01*
X110808838Y-116872850D02*
X117102075Y-110579613D01*
X114485793Y-120549806D02*
X113580725Y-119644737D01*
D11*
%TO.C,J1*%
X74070398Y-114603806D02*
X74423951Y-114250253D01*
X74423951Y-114957360D02*
X74070398Y-114603806D01*
%TD*%
M02*
