%TF.GenerationSoftware,KiCad,Pcbnew,(6.0.8)*%
%TF.CreationDate,2022-10-29T05:30:09+02:00*%
%TF.ProjectId,view_base,76696577-5f62-4617-9365-2e6b69636164,rev?*%
%TF.SameCoordinates,Original*%
%TF.FileFunction,Legend,Top*%
%TF.FilePolarity,Positive*%
%FSLAX46Y46*%
G04 Gerber Fmt 4.6, Leading zero omitted, Abs format (unit mm)*
G04 Created by KiCad (PCBNEW (6.0.8)) date 2022-10-29 05:30:09*
%MOMM*%
%LPD*%
G01*
G04 APERTURE LIST*
%ADD10C,0.150000*%
%ADD11C,0.120000*%
%ADD12C,0.200000*%
G04 APERTURE END LIST*
D10*
%TO.C,R19*%
X98057142Y-105552380D02*
X97723809Y-105076190D01*
X97485714Y-105552380D02*
X97485714Y-104552380D01*
X97866666Y-104552380D01*
X97961904Y-104600000D01*
X98009523Y-104647619D01*
X98057142Y-104742857D01*
X98057142Y-104885714D01*
X98009523Y-104980952D01*
X97961904Y-105028571D01*
X97866666Y-105076190D01*
X97485714Y-105076190D01*
X99009523Y-105552380D02*
X98438095Y-105552380D01*
X98723809Y-105552380D02*
X98723809Y-104552380D01*
X98628571Y-104695238D01*
X98533333Y-104790476D01*
X98438095Y-104838095D01*
X99485714Y-105552380D02*
X99676190Y-105552380D01*
X99771428Y-105504761D01*
X99819047Y-105457142D01*
X99914285Y-105314285D01*
X99961904Y-105123809D01*
X99961904Y-104742857D01*
X99914285Y-104647619D01*
X99866666Y-104600000D01*
X99771428Y-104552380D01*
X99580952Y-104552380D01*
X99485714Y-104600000D01*
X99438095Y-104647619D01*
X99390476Y-104742857D01*
X99390476Y-104980952D01*
X99438095Y-105076190D01*
X99485714Y-105123809D01*
X99580952Y-105171428D01*
X99771428Y-105171428D01*
X99866666Y-105123809D01*
X99914285Y-105076190D01*
X99961904Y-104980952D01*
%TO.C,R20*%
X97557142Y-95452380D02*
X97223809Y-94976190D01*
X96985714Y-95452380D02*
X96985714Y-94452380D01*
X97366666Y-94452380D01*
X97461904Y-94500000D01*
X97509523Y-94547619D01*
X97557142Y-94642857D01*
X97557142Y-94785714D01*
X97509523Y-94880952D01*
X97461904Y-94928571D01*
X97366666Y-94976190D01*
X96985714Y-94976190D01*
X97938095Y-94547619D02*
X97985714Y-94500000D01*
X98080952Y-94452380D01*
X98319047Y-94452380D01*
X98414285Y-94500000D01*
X98461904Y-94547619D01*
X98509523Y-94642857D01*
X98509523Y-94738095D01*
X98461904Y-94880952D01*
X97890476Y-95452380D01*
X98509523Y-95452380D01*
X99128571Y-94452380D02*
X99223809Y-94452380D01*
X99319047Y-94500000D01*
X99366666Y-94547619D01*
X99414285Y-94642857D01*
X99461904Y-94833333D01*
X99461904Y-95071428D01*
X99414285Y-95261904D01*
X99366666Y-95357142D01*
X99319047Y-95404761D01*
X99223809Y-95452380D01*
X99128571Y-95452380D01*
X99033333Y-95404761D01*
X98985714Y-95357142D01*
X98938095Y-95261904D01*
X98890476Y-95071428D01*
X98890476Y-94833333D01*
X98938095Y-94642857D01*
X98985714Y-94547619D01*
X99033333Y-94500000D01*
X99128571Y-94452380D01*
%TO.C,C16*%
X101057142Y-102527142D02*
X101009523Y-102574761D01*
X100866666Y-102622380D01*
X100771428Y-102622380D01*
X100628571Y-102574761D01*
X100533333Y-102479523D01*
X100485714Y-102384285D01*
X100438095Y-102193809D01*
X100438095Y-102050952D01*
X100485714Y-101860476D01*
X100533333Y-101765238D01*
X100628571Y-101670000D01*
X100771428Y-101622380D01*
X100866666Y-101622380D01*
X101009523Y-101670000D01*
X101057142Y-101717619D01*
X102009523Y-102622380D02*
X101438095Y-102622380D01*
X101723809Y-102622380D02*
X101723809Y-101622380D01*
X101628571Y-101765238D01*
X101533333Y-101860476D01*
X101438095Y-101908095D01*
X102866666Y-101622380D02*
X102676190Y-101622380D01*
X102580952Y-101670000D01*
X102533333Y-101717619D01*
X102438095Y-101860476D01*
X102390476Y-102050952D01*
X102390476Y-102431904D01*
X102438095Y-102527142D01*
X102485714Y-102574761D01*
X102580952Y-102622380D01*
X102771428Y-102622380D01*
X102866666Y-102574761D01*
X102914285Y-102527142D01*
X102961904Y-102431904D01*
X102961904Y-102193809D01*
X102914285Y-102098571D01*
X102866666Y-102050952D01*
X102771428Y-102003333D01*
X102580952Y-102003333D01*
X102485714Y-102050952D01*
X102438095Y-102098571D01*
X102390476Y-102193809D01*
%TO.C,C3*%
X85382450Y-106353251D02*
X85449793Y-106353251D01*
X85584480Y-106420595D01*
X85651824Y-106487939D01*
X85719167Y-106622626D01*
X85719167Y-106757313D01*
X85685496Y-106858328D01*
X85584480Y-107026687D01*
X85483465Y-107127702D01*
X85315106Y-107228717D01*
X85214091Y-107262389D01*
X85079404Y-107262389D01*
X84944717Y-107195045D01*
X84877373Y-107127702D01*
X84810030Y-106993015D01*
X84810030Y-106925671D01*
X84506984Y-106757313D02*
X84069251Y-106319580D01*
X84574328Y-106285908D01*
X84473312Y-106184893D01*
X84439641Y-106083877D01*
X84439641Y-106016534D01*
X84473312Y-105915519D01*
X84641671Y-105747160D01*
X84742686Y-105713488D01*
X84810030Y-105713488D01*
X84911045Y-105747160D01*
X85113076Y-105949190D01*
X85146748Y-106050206D01*
X85146748Y-106117549D01*
%TO.C,U5*%
X99238095Y-103052380D02*
X99238095Y-103861904D01*
X99285714Y-103957142D01*
X99333333Y-104004761D01*
X99428571Y-104052380D01*
X99619047Y-104052380D01*
X99714285Y-104004761D01*
X99761904Y-103957142D01*
X99809523Y-103861904D01*
X99809523Y-103052380D01*
X100761904Y-103052380D02*
X100285714Y-103052380D01*
X100238095Y-103528571D01*
X100285714Y-103480952D01*
X100380952Y-103433333D01*
X100619047Y-103433333D01*
X100714285Y-103480952D01*
X100761904Y-103528571D01*
X100809523Y-103623809D01*
X100809523Y-103861904D01*
X100761904Y-103957142D01*
X100714285Y-104004761D01*
X100619047Y-104052380D01*
X100380952Y-104052380D01*
X100285714Y-104004761D01*
X100238095Y-103957142D01*
%TO.C,C15*%
X101157142Y-95427142D02*
X101109523Y-95474761D01*
X100966666Y-95522380D01*
X100871428Y-95522380D01*
X100728571Y-95474761D01*
X100633333Y-95379523D01*
X100585714Y-95284285D01*
X100538095Y-95093809D01*
X100538095Y-94950952D01*
X100585714Y-94760476D01*
X100633333Y-94665238D01*
X100728571Y-94570000D01*
X100871428Y-94522380D01*
X100966666Y-94522380D01*
X101109523Y-94570000D01*
X101157142Y-94617619D01*
X102109523Y-95522380D02*
X101538095Y-95522380D01*
X101823809Y-95522380D02*
X101823809Y-94522380D01*
X101728571Y-94665238D01*
X101633333Y-94760476D01*
X101538095Y-94808095D01*
X103014285Y-94522380D02*
X102538095Y-94522380D01*
X102490476Y-94998571D01*
X102538095Y-94950952D01*
X102633333Y-94903333D01*
X102871428Y-94903333D01*
X102966666Y-94950952D01*
X103014285Y-94998571D01*
X103061904Y-95093809D01*
X103061904Y-95331904D01*
X103014285Y-95427142D01*
X102966666Y-95474761D01*
X102871428Y-95522380D01*
X102633333Y-95522380D01*
X102538095Y-95474761D01*
X102490476Y-95427142D01*
D11*
%TO.C,R19*%
X100200000Y-102800000D02*
X97200000Y-102800000D01*
X97200000Y-102800000D02*
X97200000Y-104400000D01*
X100200000Y-104400000D02*
X100200000Y-102800000D01*
X97200000Y-104400000D02*
X100200000Y-104400000D01*
%TO.C,R20*%
X96700000Y-95700000D02*
X96700000Y-97300000D01*
X99700000Y-97300000D02*
X99700000Y-95700000D01*
X99700000Y-95700000D02*
X96700000Y-95700000D01*
X96700000Y-97300000D02*
X99700000Y-97300000D01*
%TO.C,C16*%
X103000000Y-102799998D02*
X100400000Y-102800000D01*
X100400000Y-104400002D02*
X103000000Y-104400000D01*
X103000000Y-104400000D02*
G75*
G03*
X103000000Y-102799998I-840224J800001D01*
G01*
X100400000Y-102800000D02*
G75*
G03*
X100400000Y-104400002I840224J-800001D01*
G01*
%TO.C,C3*%
X87967767Y-105653553D02*
X85846447Y-103532233D01*
X84432233Y-104946447D02*
X86553553Y-107067767D01*
X85846447Y-103532233D02*
G75*
G03*
X84432233Y-104946447I86446J-1500660D01*
G01*
X86553553Y-107067767D02*
G75*
G03*
X87967767Y-105653553I-86446J1500660D01*
G01*
%TO.C,U5*%
X103800000Y-102300000D02*
X103800000Y-97200000D01*
X96200000Y-97200000D02*
X96200000Y-102800000D01*
X103800000Y-97200000D02*
X96200000Y-97200000D01*
X96200000Y-102800000D02*
X103300000Y-102800000D01*
D12*
X103663500Y-102600000D02*
G75*
G03*
X103663500Y-102600000I-63500J0D01*
G01*
D11*
%TO.C,C15*%
X100500000Y-97300002D02*
X103100000Y-97300000D01*
X103100000Y-95699998D02*
X100500000Y-95700000D01*
X103100000Y-97300000D02*
G75*
G03*
X103100000Y-95699998I-840224J800001D01*
G01*
X100500000Y-95700000D02*
G75*
G03*
X100500000Y-97300002I840224J-800001D01*
G01*
%TD*%
M02*
